<svg width="404" height="401" viewBox="0 0 404 401" fill="none" xmlns="http://www.w3.org/2000/svg">
<g filter="url(#filter0_d)">
<rect x="74" y="56" width="256" height="253" rx="8" fill="#FCFCFC"/>
<path d="M121.125 83.0833C115.918 83.0855 111.456 86.8059 110.518 91.9271C114.999 89.4747 120.62 91.1197 123.073 95.6012C124.587 98.3679 124.587 101.715 123.073 104.482C128.933 103.409 132.814 97.7875 131.74 91.9272C130.801 86.8028 126.335 83.0814 121.125 83.0833Z" fill="#C3E8F1"/>
<path d="M108.792 113.917C113.049 113.917 116.5 110.466 116.5 106.208C116.5 101.951 113.049 98.5 108.792 98.5C104.534 98.5 101.083 101.951 101.083 106.208C101.083 110.466 104.534 113.917 108.792 113.917Z" fill="#027794"/>
<path d="M114.958 90.7917C110.205 90.7921 106.225 94.3954 105.755 99.1256C109.664 97.446 114.195 99.2535 115.874 103.163C116.709 105.105 116.709 107.304 115.874 109.245C120.958 108.74 124.669 104.209 124.163 99.126C123.693 94.3951 119.713 90.7912 114.958 90.7917Z" fill="#52A0B4"/>
<path d="M110.804 151.656C110.804 153.005 110.855 154.12 110.958 155C109.961 154.956 108.281 154.934 105.92 154.934C102.723 154.934 100.332 154.956 98.748 155V154.56C99.232 154.531 99.584 154.472 99.804 154.384C100.039 154.296 100.193 154.127 100.266 153.878C100.354 153.629 100.398 153.225 100.398 152.668V141.756C100.398 141.199 100.354 140.795 100.266 140.546C100.193 140.297 100.039 140.128 99.804 140.04C99.584 139.952 99.232 139.893 98.748 139.864V139.424C100.332 139.468 102.723 139.49 105.92 139.49C108.076 139.49 109.609 139.468 110.518 139.424C110.415 140.641 110.364 141.727 110.364 142.68C110.364 143.325 110.386 143.824 110.43 144.176H109.924C109.704 142.607 109.308 141.507 108.736 140.876C108.164 140.245 107.357 139.93 106.316 139.93H105.414C104.959 139.93 104.629 139.967 104.424 140.04C104.219 140.113 104.079 140.26 104.006 140.48C103.933 140.685 103.896 141.023 103.896 141.492V146.948H104.6C105.377 146.948 105.964 146.662 106.36 146.09C106.771 145.518 107.057 144.836 107.218 144.044H107.724C107.68 144.66 107.658 145.349 107.658 146.112V147.168C107.658 147.916 107.702 148.957 107.79 150.292H107.284C106.976 148.356 106.081 147.388 104.6 147.388H103.896V152.932C103.896 153.401 103.933 153.746 104.006 153.966C104.079 154.171 104.219 154.311 104.424 154.384C104.629 154.457 104.959 154.494 105.414 154.494H106.492C107.533 154.494 108.369 154.142 109 153.438C109.645 152.719 110.1 151.509 110.364 149.808H110.87C110.826 150.292 110.804 150.908 110.804 151.656ZM121.155 143.318C122.27 143.318 123.077 143.604 123.575 144.176C123.825 144.455 124.001 144.814 124.103 145.254C124.206 145.694 124.257 146.288 124.257 147.036V152.954C124.257 153.555 124.36 153.973 124.565 154.208C124.785 154.428 125.152 154.538 125.665 154.538V155C124.199 154.941 123.231 154.912 122.761 154.912C122.321 154.912 121.368 154.941 119.901 155V154.538C120.341 154.538 120.649 154.428 120.825 154.208C121.001 153.973 121.089 153.555 121.089 152.954V146.112C121.089 145.511 120.987 145.056 120.781 144.748C120.591 144.44 120.239 144.286 119.725 144.286C119.124 144.286 118.611 144.535 118.185 145.034C117.76 145.518 117.547 146.119 117.547 146.838V152.954C117.547 153.555 117.635 153.973 117.811 154.208C117.987 154.428 118.295 154.538 118.735 154.538V155C117.386 154.941 116.477 154.912 116.007 154.912C115.567 154.912 114.555 154.941 112.971 155V154.538C113.499 154.538 113.866 154.428 114.071 154.208C114.277 153.973 114.379 153.555 114.379 152.954V146.024C114.379 145.349 114.277 144.858 114.071 144.55C113.866 144.242 113.499 144.088 112.971 144.088V143.626C113.441 143.67 113.895 143.692 114.335 143.692C115.641 143.692 116.711 143.589 117.547 143.384V145.364C118.207 144 119.41 143.318 121.155 143.318ZM135.681 143.692C136.429 143.692 136.993 143.67 137.375 143.626V144.066C137.067 144.154 136.788 144.345 136.539 144.638C136.304 144.917 136.077 145.357 135.857 145.958L132.645 155.044C132.483 155.029 132.241 155.022 131.919 155.022C131.611 155.022 131.376 155.029 131.215 155.044L127.299 145.32C127.093 144.821 126.881 144.491 126.661 144.33C126.455 144.169 126.243 144.088 126.023 144.088V143.626C127.049 143.699 128.091 143.736 129.147 143.736C130.071 143.736 131.024 143.699 132.007 143.626V144.088C131.508 144.088 131.149 144.125 130.929 144.198C130.723 144.257 130.621 144.433 130.621 144.726C130.621 144.843 130.657 145.027 130.731 145.276L133.239 151.942L134.823 147.586C135.057 146.897 135.175 146.303 135.175 145.804C135.175 144.733 134.639 144.154 133.569 144.066V143.626C134.243 143.67 134.947 143.692 135.681 143.692ZM141.281 137.95C141.897 137.95 142.381 138.104 142.733 138.412C143.099 138.705 143.283 139.116 143.283 139.644C143.283 140.172 143.099 140.59 142.733 140.898C142.381 141.191 141.897 141.338 141.281 141.338C140.665 141.338 140.173 141.191 139.807 140.898C139.455 140.59 139.279 140.172 139.279 139.644C139.279 139.116 139.455 138.705 139.807 138.412C140.173 138.104 140.665 137.95 141.281 137.95ZM142.997 152.954C142.997 153.555 143.099 153.973 143.305 154.208C143.525 154.428 143.891 154.538 144.405 154.538V155C142.938 154.941 141.963 154.912 141.479 154.912C141.024 154.912 140.005 154.941 138.421 155V154.538C138.949 154.538 139.315 154.428 139.521 154.208C139.726 153.973 139.829 153.555 139.829 152.954V146.024C139.829 145.349 139.726 144.858 139.521 144.55C139.315 144.242 138.949 144.088 138.421 144.088V143.626C138.89 143.67 139.345 143.692 139.785 143.692C141.09 143.692 142.161 143.589 142.997 143.384V152.954ZM153.428 143.318C154.088 143.318 154.587 143.516 154.924 143.912C155.261 144.308 155.43 144.785 155.43 145.342C155.43 145.885 155.269 146.332 154.946 146.684C154.638 147.021 154.227 147.19 153.714 147.19C153.215 147.19 152.819 147.065 152.526 146.816C152.233 146.552 152.086 146.207 152.086 145.782C152.086 145.078 152.409 144.506 153.054 144.066C152.995 144.051 152.907 144.044 152.79 144.044C152.643 144.044 152.526 144.059 152.438 144.088C151.881 144.176 151.404 144.513 151.008 145.1C150.627 145.687 150.436 146.288 150.436 146.904V152.734C150.436 153.409 150.597 153.878 150.92 154.142C151.257 154.406 151.785 154.538 152.504 154.538V155C152.299 155 152.13 154.993 151.998 154.978C150.502 154.934 149.505 154.912 149.006 154.912C148.61 154.912 147.708 154.934 146.3 154.978C146.183 154.993 146.036 155 145.86 155V154.538C146.388 154.538 146.755 154.428 146.96 154.208C147.165 153.973 147.268 153.555 147.268 152.954V146.024C147.268 145.349 147.165 144.858 146.96 144.55C146.755 144.242 146.388 144.088 145.86 144.088V143.626C146.329 143.67 146.784 143.692 147.224 143.692C148.529 143.692 149.6 143.589 150.436 143.384V145.43C150.715 144.799 151.118 144.293 151.646 143.912C152.174 143.516 152.768 143.318 153.428 143.318ZM162.005 143.318C163.691 143.318 165.011 143.802 165.965 144.77C166.918 145.723 167.395 147.241 167.395 149.324C167.395 151.407 166.918 152.925 165.965 153.878C165.011 154.831 163.691 155.308 162.005 155.308C160.333 155.308 159.013 154.831 158.045 153.878C157.091 152.925 156.615 151.407 156.615 149.324C156.615 147.241 157.091 145.723 158.045 144.77C159.013 143.802 160.333 143.318 162.005 143.318ZM162.005 143.758C161.374 143.758 160.868 144.22 160.487 145.144C160.12 146.053 159.937 147.447 159.937 149.324C159.937 151.201 160.12 152.595 160.487 153.504C160.868 154.413 161.374 154.868 162.005 154.868C162.65 154.868 163.156 154.421 163.523 153.526C163.889 152.617 164.073 151.216 164.073 149.324C164.073 147.432 163.882 146.031 163.501 145.122C163.134 144.213 162.635 143.758 162.005 143.758ZM186.956 152.954C186.956 153.555 187.059 153.973 187.264 154.208C187.484 154.428 187.851 154.538 188.364 154.538V155C186.898 154.941 185.93 154.912 185.46 154.912C185.05 154.912 184.14 154.941 182.732 155V154.538C183.128 154.538 183.4 154.428 183.546 154.208C183.708 153.988 183.788 153.57 183.788 152.954V146.112C183.788 145.496 183.693 145.041 183.502 144.748C183.326 144.44 182.982 144.286 182.468 144.286C181.926 144.286 181.449 144.513 181.038 144.968C180.642 145.423 180.408 145.98 180.334 146.64V147.036V152.954C180.334 153.555 180.422 153.973 180.598 154.208C180.789 154.428 181.126 154.538 181.61 154.538V155C180.202 154.941 179.278 154.912 178.838 154.912C178.428 154.912 177.518 154.941 176.11 155V154.538C176.506 154.538 176.778 154.428 176.924 154.208C177.086 153.973 177.166 153.555 177.166 152.954V146.112C177.166 145.496 177.086 145.041 176.924 144.748C176.763 144.44 176.448 144.286 175.978 144.286C175.392 144.286 174.886 144.535 174.46 145.034C174.05 145.518 173.844 146.119 173.844 146.838V152.954C173.844 153.555 173.918 153.973 174.064 154.208C174.226 154.428 174.504 154.538 174.9 154.538V155C173.61 154.941 172.744 154.912 172.304 154.912C171.864 154.912 170.852 154.941 169.268 155V154.538C169.796 154.538 170.163 154.428 170.368 154.208C170.574 153.973 170.676 153.555 170.676 152.954V146.024C170.676 145.349 170.574 144.858 170.368 144.55C170.163 144.242 169.796 144.088 169.268 144.088V143.626C169.738 143.67 170.192 143.692 170.632 143.692C171.938 143.692 173.008 143.589 173.844 143.384V145.364C174.49 144 175.626 143.318 177.254 143.318C178.369 143.318 179.176 143.604 179.674 144.176C179.953 144.469 180.136 144.909 180.224 145.496C180.606 144.704 181.104 144.147 181.72 143.824C182.336 143.487 183.055 143.318 183.876 143.318C184.991 143.318 185.798 143.604 186.296 144.176C186.531 144.44 186.7 144.799 186.802 145.254C186.905 145.709 186.956 146.303 186.956 147.036V152.954ZM196.152 153.504C197.355 153.504 198.323 152.917 199.056 151.744L199.452 151.876C199.159 152.829 198.631 153.643 197.868 154.318C197.12 154.978 196.182 155.308 195.052 155.308C193.498 155.308 192.258 154.817 191.334 153.834C190.425 152.837 189.97 151.37 189.97 149.434C189.97 147.454 190.462 145.943 191.444 144.902C192.427 143.846 193.732 143.318 195.36 143.318C198.118 143.318 199.496 144.946 199.496 148.202H193.314C193.3 148.422 193.292 148.767 193.292 149.236C193.292 150.204 193.424 151.011 193.688 151.656C193.967 152.301 194.319 152.771 194.744 153.064C195.184 153.357 195.654 153.504 196.152 153.504ZM195.228 143.78C194.7 143.78 194.26 144.11 193.908 144.77C193.571 145.415 193.358 146.42 193.27 147.784H196.724C196.754 146.625 196.636 145.672 196.372 144.924C196.123 144.161 195.742 143.78 195.228 143.78ZM209.325 143.318C210.44 143.318 211.247 143.604 211.745 144.176C211.995 144.455 212.171 144.814 212.273 145.254C212.376 145.694 212.427 146.288 212.427 147.036V152.954C212.427 153.555 212.53 153.973 212.735 154.208C212.955 154.428 213.322 154.538 213.835 154.538V155C212.369 154.941 211.401 154.912 210.931 154.912C210.491 154.912 209.538 154.941 208.071 155V154.538C208.511 154.538 208.819 154.428 208.995 154.208C209.171 153.973 209.259 153.555 209.259 152.954V146.112C209.259 145.511 209.157 145.056 208.951 144.748C208.761 144.44 208.409 144.286 207.895 144.286C207.294 144.286 206.781 144.535 206.355 145.034C205.93 145.518 205.717 146.119 205.717 146.838V152.954C205.717 153.555 205.805 153.973 205.981 154.208C206.157 154.428 206.465 154.538 206.905 154.538V155C205.556 154.941 204.647 154.912 204.177 154.912C203.737 154.912 202.725 154.941 201.141 155V154.538C201.669 154.538 202.036 154.428 202.241 154.208C202.447 153.973 202.549 153.555 202.549 152.954V146.024C202.549 145.349 202.447 144.858 202.241 144.55C202.036 144.242 201.669 144.088 201.141 144.088V143.626C201.611 143.67 202.065 143.692 202.505 143.692C203.811 143.692 204.881 143.589 205.717 143.384V145.364C206.377 144 207.58 143.318 209.325 143.318ZM219.621 143.626H222.217V144.066H219.621V152.954C219.621 153.394 219.694 153.709 219.841 153.9C220.002 154.076 220.252 154.164 220.589 154.164C221.22 154.164 221.718 153.724 222.085 152.844L222.459 153.042C221.902 154.553 220.897 155.308 219.445 155.308C218.477 155.308 217.744 155.059 217.245 154.56C216.937 154.252 216.724 153.871 216.607 153.416C216.504 152.947 216.453 152.309 216.453 151.502V144.066H214.605V143.626H216.453V140.722C217.67 140.722 218.726 140.487 219.621 140.018V143.626ZM226.293 155.154C225.355 155.154 224.651 154.912 224.181 154.428C223.727 153.944 223.499 153.306 223.499 152.514C223.499 151.854 223.668 151.311 224.005 150.886C224.357 150.446 224.775 150.109 225.259 149.874C225.758 149.639 226.389 149.39 227.151 149.126C227.958 148.847 228.545 148.598 228.911 148.378C229.293 148.143 229.483 147.828 229.483 147.432V145.716C229.483 145.1 229.337 144.623 229.043 144.286C228.765 143.934 228.325 143.758 227.723 143.758C227.019 143.758 226.484 143.934 226.117 144.286C226.528 144.433 226.843 144.653 227.063 144.946C227.298 145.239 227.415 145.584 227.415 145.98C227.415 146.479 227.247 146.875 226.909 147.168C226.572 147.461 226.161 147.608 225.677 147.608C225.164 147.608 224.768 147.447 224.489 147.124C224.211 146.801 224.071 146.398 224.071 145.914C224.071 145.503 224.167 145.159 224.357 144.88C224.563 144.587 224.871 144.315 225.281 144.066C225.677 143.831 226.161 143.648 226.733 143.516C227.32 143.384 227.958 143.318 228.647 143.318C229.366 143.318 229.989 143.391 230.517 143.538C231.045 143.685 231.485 143.934 231.837 144.286C232.16 144.609 232.373 145.005 232.475 145.474C232.593 145.943 232.651 146.581 232.651 147.388V153.372C232.651 153.724 232.681 153.973 232.739 154.12C232.813 154.267 232.945 154.34 233.135 154.34C233.355 154.34 233.619 154.215 233.927 153.966L234.147 154.34C233.487 154.883 232.681 155.154 231.727 155.154C230.921 155.154 230.356 154.993 230.033 154.67C229.711 154.347 229.542 153.915 229.527 153.372C228.794 154.56 227.716 155.154 226.293 155.154ZM227.987 153.746C228.559 153.746 229.058 153.445 229.483 152.844V148.334C229.307 148.627 228.933 148.95 228.361 149.302C227.789 149.669 227.357 150.035 227.063 150.402C226.77 150.769 226.623 151.297 226.623 151.986C226.623 152.587 226.748 153.035 226.997 153.328C227.247 153.607 227.577 153.746 227.987 153.746ZM239.764 152.954C239.764 153.555 239.867 153.973 240.072 154.208C240.277 154.428 240.644 154.538 241.172 154.538V155C239.647 154.941 238.664 154.912 238.224 154.912C237.725 154.912 236.713 154.941 235.188 155V154.538C235.701 154.538 236.061 154.428 236.266 154.208C236.486 153.973 236.596 153.555 236.596 152.954V140.414C236.596 139.739 236.486 139.248 236.266 138.94C236.061 138.632 235.701 138.478 235.188 138.478V138.016C235.657 138.06 236.112 138.082 236.552 138.082C237.828 138.082 238.899 137.979 239.764 137.774V152.954ZM105.678 161.864C105.15 161.893 104.761 161.952 104.512 162.04C104.277 162.128 104.116 162.297 104.028 162.546C103.94 162.795 103.896 163.199 103.896 163.756V174.932C103.896 175.401 103.933 175.746 104.006 175.966C104.079 176.171 104.204 176.311 104.38 176.384C104.571 176.457 104.871 176.494 105.282 176.494H106.36C107.357 176.494 108.215 176.047 108.934 175.152C109.667 174.257 110.144 173.069 110.364 171.588H110.87C110.826 172.087 110.804 172.732 110.804 173.524C110.804 174.932 110.855 176.091 110.958 177C109.961 176.956 108.281 176.934 105.92 176.934C102.723 176.934 100.332 176.956 98.748 177V176.56C99.232 176.531 99.584 176.472 99.804 176.384C100.039 176.296 100.193 176.127 100.266 175.878C100.354 175.629 100.398 175.225 100.398 174.668V163.756C100.398 163.199 100.354 162.795 100.266 162.546C100.193 162.297 100.039 162.128 99.804 162.04C99.584 161.952 99.232 161.893 98.748 161.864V161.424C99.496 161.468 100.655 161.49 102.224 161.49C103.72 161.49 104.871 161.468 105.678 161.424V161.864ZM115.381 177.154C114.443 177.154 113.739 176.912 113.269 176.428C112.815 175.944 112.587 175.306 112.587 174.514C112.587 173.854 112.756 173.311 113.093 172.886C113.445 172.446 113.863 172.109 114.347 171.874C114.846 171.639 115.477 171.39 116.239 171.126C117.046 170.847 117.633 170.598 117.999 170.378C118.381 170.143 118.571 169.828 118.571 169.432V167.716C118.571 167.1 118.425 166.623 118.131 166.286C117.853 165.934 117.413 165.758 116.811 165.758C116.107 165.758 115.572 165.934 115.205 166.286C115.616 166.433 115.931 166.653 116.151 166.946C116.386 167.239 116.503 167.584 116.503 167.98C116.503 168.479 116.335 168.875 115.997 169.168C115.66 169.461 115.249 169.608 114.765 169.608C114.252 169.608 113.856 169.447 113.577 169.124C113.299 168.801 113.159 168.398 113.159 167.914C113.159 167.503 113.255 167.159 113.445 166.88C113.651 166.587 113.959 166.315 114.369 166.066C114.765 165.831 115.249 165.648 115.821 165.516C116.408 165.384 117.046 165.318 117.735 165.318C118.454 165.318 119.077 165.391 119.605 165.538C120.133 165.685 120.573 165.934 120.925 166.286C121.248 166.609 121.461 167.005 121.563 167.474C121.681 167.943 121.739 168.581 121.739 169.388V175.372C121.739 175.724 121.769 175.973 121.827 176.12C121.901 176.267 122.033 176.34 122.223 176.34C122.443 176.34 122.707 176.215 123.015 175.966L123.235 176.34C122.575 176.883 121.769 177.154 120.815 177.154C120.009 177.154 119.444 176.993 119.121 176.67C118.799 176.347 118.63 175.915 118.615 175.372C117.882 176.56 116.804 177.154 115.381 177.154ZM117.075 175.746C117.647 175.746 118.146 175.445 118.571 174.844V170.334C118.395 170.627 118.021 170.95 117.449 171.302C116.877 171.669 116.445 172.035 116.151 172.402C115.858 172.769 115.711 173.297 115.711 173.986C115.711 174.587 115.836 175.035 116.085 175.328C116.335 175.607 116.665 175.746 117.075 175.746ZM139.263 165.692C140.011 165.692 140.568 165.67 140.935 165.626V166.066C140.627 166.154 140.348 166.337 140.099 166.616C139.85 166.895 139.63 167.342 139.439 167.958L136.513 177.044C136.352 177.029 136.11 177.022 135.787 177.022C135.479 177.022 135.244 177.029 135.083 177.044L132.091 168.882L129.649 177.044C129.502 177.029 129.268 177.022 128.945 177.022C128.622 177.022 128.38 177.029 128.219 177.044L124.743 167.32C124.567 166.807 124.369 166.477 124.149 166.33C123.929 166.169 123.702 166.088 123.467 166.088V165.626C124.42 165.714 125.462 165.758 126.591 165.758C127.324 165.758 128.278 165.714 129.451 165.626V166.088C128.967 166.088 128.615 166.125 128.395 166.198C128.19 166.271 128.087 166.447 128.087 166.726C128.087 166.917 128.124 167.115 128.197 167.32L130.177 173.546L132.575 165.604L133.389 165.626L134.181 165.604L137.041 174.008L138.427 169.586C138.632 168.897 138.735 168.339 138.735 167.914C138.735 166.77 138.156 166.154 136.997 166.066V165.626C137.686 165.67 138.442 165.692 139.263 165.692Z" fill="#363940"/>
<path d="M99.232 207H105.952V205.95H100.352V202.296H105.672V201.246H100.352V197.62H105.952V196.57H99.232V207ZM107.95 207H109V202.534C109 201.862 109.187 201.335 109.56 200.952C109.934 200.569 110.405 200.378 110.974 200.378C111.553 200.378 112.02 200.569 112.374 200.952C112.738 201.325 112.92 201.853 112.92 202.534V207H113.97V202.128C113.97 201.596 113.844 201.12 113.592 200.7C113.35 200.271 113.014 199.935 112.584 199.692C112.164 199.449 111.688 199.328 111.156 199.328C110.69 199.328 110.27 199.426 109.896 199.622C109.523 199.818 109.224 200.084 109 200.42V199.496H107.95V207ZM118.141 207H119.191L122.145 199.496H120.955L118.673 205.572L116.391 199.496H115.215L118.141 207ZM123.671 198.11H124.721V196.57H123.671V198.11ZM123.671 207H124.721V199.496H123.671V207ZM127.171 207H128.221V202.38C128.221 201.764 128.384 201.288 128.711 200.952C129.037 200.616 129.471 200.448 130.013 200.448H130.671V199.398H130.195C129.737 199.398 129.341 199.477 129.005 199.636C128.678 199.795 128.417 200.019 128.221 200.308V199.496H127.171V207ZM135.715 207.168C136.415 207.168 137.05 207 137.619 206.664C138.198 206.328 138.66 205.866 139.005 205.278C139.35 204.681 139.523 203.999 139.523 203.234C139.523 202.478 139.355 201.806 139.019 201.218C138.692 200.63 138.24 200.168 137.661 199.832C137.092 199.496 136.443 199.328 135.715 199.328C134.987 199.328 134.334 199.501 133.755 199.846C133.186 200.182 132.733 200.644 132.397 201.232C132.061 201.82 131.893 202.487 131.893 203.234C131.893 203.99 132.061 204.667 132.397 205.264C132.742 205.852 133.204 206.319 133.783 206.664C134.362 207 135.006 207.168 135.715 207.168ZM135.715 206.118C135.211 206.118 134.754 205.992 134.343 205.74C133.942 205.488 133.62 205.143 133.377 204.704C133.134 204.265 133.013 203.775 133.013 203.234C133.013 202.693 133.134 202.207 133.377 201.778C133.62 201.349 133.942 201.008 134.343 200.756C134.754 200.504 135.211 200.378 135.715 200.378C136.219 200.378 136.672 200.504 137.073 200.756C137.484 201.008 137.806 201.349 138.039 201.778C138.282 202.207 138.403 202.693 138.403 203.234C138.403 203.775 138.282 204.265 138.039 204.704C137.806 205.143 137.484 205.488 137.073 205.74C136.672 205.992 136.219 206.118 135.715 206.118ZM141.675 207H142.725V202.534C142.725 201.862 142.912 201.335 143.285 200.952C143.658 200.569 144.13 200.378 144.699 200.378C145.278 200.378 145.744 200.569 146.099 200.952C146.463 201.325 146.645 201.853 146.645 202.534V207H147.695V202.128C147.695 201.596 147.569 201.12 147.317 200.7C147.074 200.271 146.738 199.935 146.309 199.692C145.889 199.449 145.413 199.328 144.881 199.328C144.414 199.328 143.994 199.426 143.621 199.622C143.248 199.818 142.949 200.084 142.725 200.42V199.496H141.675V207ZM150 207H151.05V202.534C151.05 201.862 151.232 201.335 151.596 200.952C151.96 200.569 152.413 200.378 152.954 200.378C153.496 200.378 153.944 200.569 154.298 200.952C154.653 201.325 154.83 201.853 154.83 202.534V207H155.88V202.534C155.88 201.862 156.062 201.335 156.426 200.952C156.79 200.569 157.243 200.378 157.784 200.378C158.326 200.378 158.774 200.569 159.128 200.952C159.483 201.325 159.66 201.853 159.66 202.534V207H160.71V202.128C160.71 201.596 160.58 201.12 160.318 200.7C160.066 200.271 159.726 199.935 159.296 199.692C158.876 199.449 158.414 199.328 157.91 199.328C157.406 199.328 156.94 199.449 156.51 199.692C156.09 199.935 155.768 200.289 155.544 200.756C155.311 200.327 154.98 199.981 154.55 199.72C154.121 199.459 153.65 199.328 153.136 199.328C152.707 199.328 152.306 199.426 151.932 199.622C151.568 199.809 151.274 200.075 151.05 200.42V199.496H150V207ZM166.431 207.168C166.944 207.168 167.411 207.084 167.831 206.916C168.26 206.739 168.629 206.51 168.937 206.23C169.245 205.941 169.474 205.628 169.623 205.292L168.727 204.816C168.494 205.208 168.19 205.535 167.817 205.796C167.444 206.057 166.982 206.188 166.431 206.188C165.983 206.188 165.563 206.081 165.171 205.866C164.779 205.651 164.457 205.353 164.205 204.97C163.962 204.578 163.832 204.111 163.813 203.57H169.721C169.74 203.449 169.754 203.332 169.763 203.22C169.772 203.099 169.777 202.991 169.777 202.898C169.777 202.45 169.698 202.016 169.539 201.596C169.38 201.167 169.152 200.784 168.853 200.448C168.554 200.103 168.19 199.832 167.761 199.636C167.341 199.431 166.86 199.328 166.319 199.328C165.638 199.328 165.022 199.496 164.471 199.832C163.93 200.168 163.5 200.63 163.183 201.218C162.866 201.797 162.707 202.464 162.707 203.22C162.707 203.976 162.87 204.653 163.197 205.25C163.524 205.847 163.967 206.319 164.527 206.664C165.096 207 165.731 207.168 166.431 207.168ZM166.319 200.308C166.739 200.308 167.122 200.406 167.467 200.602C167.822 200.798 168.102 201.069 168.307 201.414C168.522 201.75 168.634 202.142 168.643 202.59H163.841C163.897 202.123 164.042 201.722 164.275 201.386C164.518 201.041 164.816 200.775 165.171 200.588C165.526 200.401 165.908 200.308 166.319 200.308ZM171.928 207H172.978V202.534C172.978 201.862 173.165 201.335 173.538 200.952C173.912 200.569 174.383 200.378 174.952 200.378C175.531 200.378 175.998 200.569 176.352 200.952C176.716 201.325 176.898 201.853 176.898 202.534V207H177.948V202.128C177.948 201.596 177.822 201.12 177.57 200.7C177.328 200.271 176.992 199.935 176.562 199.692C176.142 199.449 175.666 199.328 175.134 199.328C174.668 199.328 174.248 199.426 173.874 199.622C173.501 199.818 173.202 200.084 172.978 200.42V199.496H171.928V207ZM183.124 207.084C183.208 207.084 183.32 207.079 183.46 207.07C183.6 207.061 183.726 207.042 183.838 207.014V206.062C183.763 206.071 183.674 206.081 183.572 206.09C183.469 206.099 183.38 206.104 183.306 206.104C182.839 206.104 182.517 205.983 182.34 205.74C182.162 205.497 182.074 205.189 182.074 204.816V200.546H183.726V199.496H182.074V197.76H181.024V198.39C181.024 198.707 180.93 198.973 180.744 199.188C180.557 199.393 180.305 199.496 179.988 199.496H179.638V200.546H181.024V204.816C181.024 205.544 181.206 206.104 181.57 206.496C181.934 206.888 182.452 207.084 183.124 207.084ZM188.015 207.168C188.593 207.168 189.116 207.051 189.583 206.818C190.049 206.585 190.404 206.286 190.647 205.922V207H191.697V201.848C191.697 201.353 191.575 200.919 191.333 200.546C191.099 200.163 190.768 199.865 190.339 199.65C189.919 199.435 189.433 199.328 188.883 199.328C188.463 199.328 188.057 199.407 187.665 199.566C187.273 199.715 186.923 199.921 186.615 200.182C186.316 200.443 186.097 200.733 185.957 201.05L186.909 201.568C187.077 201.204 187.333 200.91 187.679 200.686C188.024 200.453 188.425 200.336 188.883 200.336C189.405 200.336 189.83 200.476 190.157 200.756C190.483 201.036 190.647 201.4 190.647 201.848V202.24L187.931 202.688C187.1 202.828 186.493 203.113 186.111 203.542C185.728 203.971 185.537 204.475 185.537 205.054C185.537 205.465 185.644 205.829 185.859 206.146C186.073 206.463 186.367 206.715 186.741 206.902C187.114 207.079 187.539 207.168 188.015 207.168ZM186.657 205.012C186.657 204.667 186.773 204.368 187.007 204.116C187.249 203.864 187.641 203.691 188.183 203.598L190.647 203.192V203.752C190.647 204.209 190.539 204.625 190.325 204.998C190.11 205.371 189.811 205.67 189.429 205.894C189.046 206.109 188.598 206.216 188.085 206.216C187.665 206.216 187.319 206.099 187.049 205.866C186.787 205.633 186.657 205.348 186.657 205.012ZM194.157 207H195.207V196.402H194.157V207ZM200.335 207H201.385V196.402H200.335V207ZM207.25 207.168C207.763 207.168 208.23 207.084 208.65 206.916C209.079 206.739 209.448 206.51 209.756 206.23C210.064 205.941 210.293 205.628 210.442 205.292L209.546 204.816C209.313 205.208 209.009 205.535 208.636 205.796C208.263 206.057 207.801 206.188 207.25 206.188C206.802 206.188 206.382 206.081 205.99 205.866C205.598 205.651 205.276 205.353 205.024 204.97C204.781 204.578 204.651 204.111 204.632 203.57H210.54C210.559 203.449 210.573 203.332 210.582 203.22C210.591 203.099 210.596 202.991 210.596 202.898C210.596 202.45 210.517 202.016 210.358 201.596C210.199 201.167 209.971 200.784 209.672 200.448C209.373 200.103 209.009 199.832 208.58 199.636C208.16 199.431 207.679 199.328 207.138 199.328C206.457 199.328 205.841 199.496 205.29 199.832C204.749 200.168 204.319 200.63 204.002 201.218C203.685 201.797 203.526 202.464 203.526 203.22C203.526 203.976 203.689 204.653 204.016 205.25C204.343 205.847 204.786 206.319 205.346 206.664C205.915 207 206.55 207.168 207.25 207.168ZM207.138 200.308C207.558 200.308 207.941 200.406 208.286 200.602C208.641 200.798 208.921 201.069 209.126 201.414C209.341 201.75 209.453 202.142 209.462 202.59H204.66C204.716 202.123 204.861 201.722 205.094 201.386C205.337 201.041 205.635 200.775 205.99 200.588C206.345 200.401 206.727 200.308 207.138 200.308ZM216.303 210.08C216.994 210.08 217.605 209.931 218.137 209.632C218.678 209.343 219.098 208.941 219.397 208.428C219.705 207.924 219.859 207.35 219.859 206.706V199.496H218.809V200.63C218.51 200.229 218.128 199.911 217.661 199.678C217.194 199.445 216.686 199.328 216.135 199.328C215.426 199.328 214.791 199.496 214.231 199.832C213.68 200.168 213.242 200.621 212.915 201.19C212.598 201.759 212.439 202.399 212.439 203.108C212.439 203.808 212.598 204.447 212.915 205.026C213.242 205.595 213.685 206.048 214.245 206.384C214.805 206.72 215.435 206.888 216.135 206.888C216.686 206.888 217.199 206.767 217.675 206.524C218.151 206.281 218.529 205.941 218.809 205.502V206.706C218.809 207.21 218.692 207.635 218.459 207.98C218.226 208.325 217.918 208.587 217.535 208.764C217.152 208.941 216.732 209.03 216.275 209.03C215.678 209.03 215.188 208.899 214.805 208.638C214.422 208.377 214.156 208.069 214.007 207.714L213.041 208.232C213.293 208.773 213.704 209.217 214.273 209.562C214.852 209.907 215.528 210.08 216.303 210.08ZM216.191 205.838C215.687 205.838 215.234 205.717 214.833 205.474C214.441 205.222 214.128 204.891 213.895 204.48C213.671 204.06 213.559 203.603 213.559 203.108C213.559 202.604 213.671 202.147 213.895 201.736C214.128 201.325 214.446 200.999 214.847 200.756C215.248 200.504 215.696 200.378 216.191 200.378C216.676 200.378 217.115 200.504 217.507 200.756C217.899 200.999 218.212 201.33 218.445 201.75C218.688 202.161 218.809 202.613 218.809 203.108C218.809 203.603 218.688 204.06 218.445 204.48C218.212 204.891 217.899 205.222 217.507 205.474C217.115 205.717 216.676 205.838 216.191 205.838ZM224.487 207.168C225.065 207.168 225.588 207.051 226.055 206.818C226.521 206.585 226.876 206.286 227.119 205.922V207H228.169V201.848C228.169 201.353 228.047 200.919 227.805 200.546C227.571 200.163 227.24 199.865 226.811 199.65C226.391 199.435 225.905 199.328 225.355 199.328C224.935 199.328 224.529 199.407 224.137 199.566C223.745 199.715 223.395 199.921 223.087 200.182C222.788 200.443 222.569 200.733 222.429 201.05L223.381 201.568C223.549 201.204 223.805 200.91 224.151 200.686C224.496 200.453 224.897 200.336 225.355 200.336C225.877 200.336 226.302 200.476 226.629 200.756C226.955 201.036 227.119 201.4 227.119 201.848V202.24L224.403 202.688C223.572 202.828 222.965 203.113 222.583 203.542C222.2 203.971 222.009 204.475 222.009 205.054C222.009 205.465 222.116 205.829 222.331 206.146C222.545 206.463 222.839 206.715 223.213 206.902C223.586 207.079 224.011 207.168 224.487 207.168ZM223.129 205.012C223.129 204.667 223.245 204.368 223.479 204.116C223.721 203.864 224.113 203.691 224.655 203.598L227.119 203.192V203.752C227.119 204.209 227.011 204.625 226.797 204.998C226.582 205.371 226.283 205.67 225.901 205.894C225.518 206.109 225.07 206.216 224.557 206.216C224.137 206.216 223.791 206.099 223.521 205.866C223.259 205.633 223.129 205.348 223.129 205.012ZM230.628 207H231.678V196.402H230.628V207ZM236.807 198.11H237.857V196.57H236.807V198.11ZM236.807 207H237.857V199.496H236.807V207ZM242.91 207.168C243.432 207.168 243.894 207.079 244.296 206.902C244.697 206.715 245.01 206.459 245.234 206.132C245.467 205.805 245.584 205.437 245.584 205.026C245.584 204.522 245.411 204.083 245.066 203.71C244.73 203.337 244.258 203.061 243.652 202.884L242.406 202.52C242.275 202.483 242.121 202.427 241.944 202.352C241.776 202.277 241.626 202.165 241.496 202.016C241.365 201.867 241.3 201.666 241.3 201.414C241.3 201.087 241.426 200.817 241.678 200.602C241.93 200.387 242.266 200.28 242.686 200.28C243.115 200.28 243.502 200.401 243.848 200.644C244.202 200.877 244.473 201.204 244.66 201.624L245.556 201.204C245.341 200.616 244.972 200.159 244.45 199.832C243.936 199.496 243.362 199.328 242.728 199.328C242.261 199.328 241.836 199.417 241.454 199.594C241.071 199.771 240.768 200.023 240.544 200.35C240.32 200.677 240.208 201.059 240.208 201.498C240.208 201.965 240.362 202.375 240.67 202.73C240.978 203.085 241.477 203.36 242.168 203.556L243.246 203.864C243.395 203.901 243.568 203.962 243.764 204.046C243.96 204.13 244.132 204.251 244.282 204.41C244.431 204.559 244.506 204.765 244.506 205.026C244.506 205.381 244.352 205.67 244.044 205.894C243.736 206.109 243.358 206.216 242.91 206.216C242.443 206.216 242.014 206.081 241.622 205.81C241.239 205.539 240.94 205.175 240.726 204.718L239.844 205.138C240.086 205.763 240.478 206.258 241.02 206.622C241.561 206.986 242.191 207.168 242.91 207.168ZM250.333 207.168C250.855 207.168 251.317 207.079 251.719 206.902C252.12 206.715 252.433 206.459 252.657 206.132C252.89 205.805 253.007 205.437 253.007 205.026C253.007 204.522 252.834 204.083 252.489 203.71C252.153 203.337 251.681 203.061 251.075 202.884L249.829 202.52C249.698 202.483 249.544 202.427 249.367 202.352C249.199 202.277 249.049 202.165 248.919 202.016C248.788 201.867 248.723 201.666 248.723 201.414C248.723 201.087 248.849 200.817 249.101 200.602C249.353 200.387 249.689 200.28 250.109 200.28C250.538 200.28 250.925 200.401 251.271 200.644C251.625 200.877 251.896 201.204 252.083 201.624L252.979 201.204C252.764 200.616 252.395 200.159 251.873 199.832C251.359 199.496 250.785 199.328 250.151 199.328C249.684 199.328 249.259 199.417 248.877 199.594C248.494 199.771 248.191 200.023 247.967 200.35C247.743 200.677 247.631 201.059 247.631 201.498C247.631 201.965 247.785 202.375 248.093 202.73C248.401 203.085 248.9 203.36 249.591 203.556L250.669 203.864C250.818 203.901 250.991 203.962 251.187 204.046C251.383 204.13 251.555 204.251 251.705 204.41C251.854 204.559 251.929 204.765 251.929 205.026C251.929 205.381 251.775 205.67 251.467 205.894C251.159 206.109 250.781 206.216 250.333 206.216C249.866 206.216 249.437 206.081 249.045 205.81C248.662 205.539 248.363 205.175 248.149 204.718L247.267 205.138C247.509 205.763 247.901 206.258 248.443 206.622C248.984 206.986 249.614 207.168 250.333 207.168ZM257.812 207.168C258.278 207.168 258.698 207.07 259.072 206.874C259.445 206.678 259.744 206.412 259.968 206.076V207H261.018V199.496H259.968V203.962C259.968 204.634 259.781 205.161 259.408 205.544C259.044 205.927 258.572 206.118 257.994 206.118C257.424 206.118 256.958 205.936 256.594 205.572C256.23 205.199 256.048 204.709 256.048 204.102V199.496H254.998V204.228C254.998 204.807 255.119 205.32 255.362 205.768C255.614 206.207 255.954 206.552 256.384 206.804C256.813 207.047 257.289 207.168 257.812 207.168ZM266.893 207.168C267.407 207.168 267.873 207.084 268.293 206.916C268.723 206.739 269.091 206.51 269.399 206.23C269.707 205.941 269.936 205.628 270.085 205.292L269.189 204.816C268.956 205.208 268.653 205.535 268.279 205.796C267.906 206.057 267.444 206.188 266.893 206.188C266.445 206.188 266.025 206.081 265.633 205.866C265.241 205.651 264.919 205.353 264.667 204.97C264.425 204.578 264.294 204.111 264.275 203.57H270.183C270.202 203.449 270.216 203.332 270.225 203.22C270.235 203.099 270.239 202.991 270.239 202.898C270.239 202.45 270.16 202.016 270.001 201.596C269.843 201.167 269.614 200.784 269.315 200.448C269.017 200.103 268.653 199.832 268.223 199.636C267.803 199.431 267.323 199.328 266.781 199.328C266.1 199.328 265.484 199.496 264.933 199.832C264.392 200.168 263.963 200.63 263.645 201.218C263.328 201.797 263.169 202.464 263.169 203.22C263.169 203.976 263.333 204.653 263.659 205.25C263.986 205.847 264.429 206.319 264.989 206.664C265.559 207 266.193 207.168 266.893 207.168ZM266.781 200.308C267.201 200.308 267.584 200.406 267.929 200.602C268.284 200.798 268.564 201.069 268.769 201.414C268.984 201.75 269.096 202.142 269.105 202.59H264.303C264.359 202.123 264.504 201.722 264.737 201.386C264.98 201.041 265.279 200.775 265.633 200.588C265.988 200.401 266.371 200.308 266.781 200.308ZM274.995 207.168C275.517 207.168 275.979 207.079 276.381 206.902C276.782 206.715 277.095 206.459 277.319 206.132C277.552 205.805 277.669 205.437 277.669 205.026C277.669 204.522 277.496 204.083 277.151 203.71C276.815 203.337 276.343 203.061 275.737 202.884L274.491 202.52C274.36 202.483 274.206 202.427 274.029 202.352C273.861 202.277 273.711 202.165 273.581 202.016C273.45 201.867 273.385 201.666 273.385 201.414C273.385 201.087 273.511 200.817 273.763 200.602C274.015 200.387 274.351 200.28 274.771 200.28C275.2 200.28 275.587 200.401 275.933 200.644C276.287 200.877 276.558 201.204 276.745 201.624L277.641 201.204C277.426 200.616 277.057 200.159 276.535 199.832C276.021 199.496 275.447 199.328 274.812 199.328C274.346 199.328 273.921 199.417 273.539 199.594C273.156 199.771 272.853 200.023 272.629 200.35C272.405 200.677 272.293 201.059 272.293 201.498C272.293 201.965 272.447 202.375 272.755 202.73C273.063 203.085 273.562 203.36 274.253 203.556L275.331 203.864C275.48 203.901 275.653 203.962 275.849 204.046C276.045 204.13 276.217 204.251 276.367 204.41C276.516 204.559 276.591 204.765 276.591 205.026C276.591 205.381 276.437 205.67 276.129 205.894C275.821 206.109 275.443 206.216 274.995 206.216C274.528 206.216 274.099 206.081 273.707 205.81C273.324 205.539 273.025 205.175 272.811 204.718L271.929 205.138C272.171 205.763 272.563 206.258 273.105 206.622C273.646 206.986 274.276 207.168 274.995 207.168ZM99.078 231H100.128V226.534C100.128 225.862 100.31 225.335 100.674 224.952C101.038 224.569 101.491 224.378 102.032 224.378C102.573 224.378 103.021 224.569 103.376 224.952C103.731 225.325 103.908 225.853 103.908 226.534V231H104.958V226.534C104.958 225.862 105.14 225.335 105.504 224.952C105.868 224.569 106.321 224.378 106.862 224.378C107.403 224.378 107.851 224.569 108.206 224.952C108.561 225.325 108.738 225.853 108.738 226.534V231H109.788V226.128C109.788 225.596 109.657 225.12 109.396 224.7C109.144 224.271 108.803 223.935 108.374 223.692C107.954 223.449 107.492 223.328 106.988 223.328C106.484 223.328 106.017 223.449 105.588 223.692C105.168 223.935 104.846 224.289 104.622 224.756C104.389 224.327 104.057 223.981 103.628 223.72C103.199 223.459 102.727 223.328 102.214 223.328C101.785 223.328 101.383 223.426 101.01 223.622C100.646 223.809 100.352 224.075 100.128 224.42V223.496H99.078V231ZM112.093 222.11H113.143V220.57H112.093V222.11ZM112.093 231H113.143V223.496H112.093V231ZM119.148 234.08C119.839 234.08 120.45 233.931 120.982 233.632C121.523 233.343 121.943 232.941 122.242 232.428C122.55 231.924 122.704 231.35 122.704 230.706V223.496H121.654V224.63C121.355 224.229 120.973 223.911 120.506 223.678C120.039 223.445 119.531 223.328 118.98 223.328C118.271 223.328 117.636 223.496 117.076 223.832C116.525 224.168 116.087 224.621 115.76 225.19C115.443 225.759 115.284 226.399 115.284 227.108C115.284 227.808 115.443 228.447 115.76 229.026C116.087 229.595 116.53 230.048 117.09 230.384C117.65 230.72 118.28 230.888 118.98 230.888C119.531 230.888 120.044 230.767 120.52 230.524C120.996 230.281 121.374 229.941 121.654 229.502V230.706C121.654 231.21 121.537 231.635 121.304 231.98C121.071 232.325 120.763 232.587 120.38 232.764C119.997 232.941 119.577 233.03 119.12 233.03C118.523 233.03 118.033 232.899 117.65 232.638C117.267 232.377 117.001 232.069 116.852 231.714L115.886 232.232C116.138 232.773 116.549 233.217 117.118 233.562C117.697 233.907 118.373 234.08 119.148 234.08ZM119.036 229.838C118.532 229.838 118.079 229.717 117.678 229.474C117.286 229.222 116.973 228.891 116.74 228.48C116.516 228.06 116.404 227.603 116.404 227.108C116.404 226.604 116.516 226.147 116.74 225.736C116.973 225.325 117.291 224.999 117.692 224.756C118.093 224.504 118.541 224.378 119.036 224.378C119.521 224.378 119.96 224.504 120.352 224.756C120.744 224.999 121.057 225.33 121.29 225.75C121.533 226.161 121.654 226.613 121.654 227.108C121.654 227.603 121.533 228.06 121.29 228.48C121.057 228.891 120.744 229.222 120.352 229.474C119.96 229.717 119.521 229.838 119.036 229.838ZM125.162 231H126.212V226.534C126.212 225.862 126.398 225.335 126.772 224.952C127.154 224.569 127.626 224.378 128.186 224.378C128.746 224.378 129.208 224.569 129.572 224.952C129.945 225.325 130.132 225.853 130.132 226.534V231H131.182V226.128C131.182 225.596 131.056 225.12 130.804 224.7C130.561 224.271 130.225 223.935 129.796 223.692C129.376 223.449 128.9 223.328 128.368 223.328C127.901 223.328 127.481 223.426 127.108 223.622C126.734 223.818 126.436 224.084 126.212 224.42V220.402H125.162V231ZM136.357 231.084C136.441 231.084 136.553 231.079 136.693 231.07C136.833 231.061 136.959 231.042 137.071 231.014V230.062C136.996 230.071 136.908 230.081 136.805 230.09C136.702 230.099 136.614 230.104 136.539 230.104C136.072 230.104 135.75 229.983 135.573 229.74C135.396 229.497 135.307 229.189 135.307 228.816V224.546H136.959V223.496H135.307V221.76H134.257V222.39C134.257 222.707 134.164 222.973 133.977 223.188C133.79 223.393 133.538 223.496 133.221 223.496H132.871V224.546H134.257V228.816C134.257 229.544 134.439 230.104 134.803 230.496C135.167 230.888 135.685 231.084 136.357 231.084ZM145.408 231.168C146.108 231.168 146.742 231 147.312 230.664C147.89 230.328 148.352 229.866 148.698 229.278C149.043 228.681 149.216 227.999 149.216 227.234C149.216 226.478 149.048 225.806 148.712 225.218C148.385 224.63 147.932 224.168 147.354 223.832C146.784 223.496 146.136 223.328 145.408 223.328C144.68 223.328 144.026 223.501 143.448 223.846C142.878 224.182 142.426 224.644 142.09 225.232C141.754 225.82 141.586 226.487 141.586 227.234C141.586 227.99 141.754 228.667 142.09 229.264C142.435 229.852 142.897 230.319 143.476 230.664C144.054 231 144.698 231.168 145.408 231.168ZM145.408 230.118C144.904 230.118 144.446 229.992 144.036 229.74C143.634 229.488 143.312 229.143 143.07 228.704C142.827 228.265 142.706 227.775 142.706 227.234C142.706 226.693 142.827 226.207 143.07 225.778C143.312 225.349 143.634 225.008 144.036 224.756C144.446 224.504 144.904 224.378 145.408 224.378C145.912 224.378 146.364 224.504 146.766 224.756C147.176 225.008 147.498 225.349 147.732 225.778C147.974 226.207 148.096 226.693 148.096 227.234C148.096 227.775 147.974 228.265 147.732 228.704C147.498 229.143 147.176 229.488 146.766 229.74C146.364 229.992 145.912 230.118 145.408 230.118ZM154.797 231.168C155.264 231.168 155.703 231.084 156.113 230.916C156.524 230.748 156.888 230.519 157.205 230.23C157.523 229.941 157.761 229.614 157.919 229.25L156.967 228.732C156.771 229.152 156.482 229.488 156.099 229.74C155.726 229.992 155.292 230.118 154.797 230.118C154.303 230.118 153.855 229.992 153.453 229.74C153.061 229.488 152.749 229.147 152.515 228.718C152.291 228.279 152.179 227.789 152.179 227.248C152.179 226.697 152.291 226.207 152.515 225.778C152.749 225.339 153.061 224.999 153.453 224.756C153.855 224.504 154.303 224.378 154.797 224.378C155.292 224.378 155.731 224.504 156.113 224.756C156.496 225.008 156.781 225.335 156.967 225.736L157.919 225.246C157.761 224.873 157.523 224.546 157.205 224.266C156.888 223.977 156.524 223.748 156.113 223.58C155.703 223.412 155.264 223.328 154.797 223.328C154.06 223.328 153.411 223.501 152.851 223.846C152.291 224.182 151.853 224.644 151.535 225.232C151.218 225.82 151.059 226.487 151.059 227.234C151.059 227.981 151.218 228.653 151.535 229.25C151.853 229.838 152.291 230.305 152.851 230.65C153.411 230.995 154.06 231.168 154.797 231.168ZM163.492 231.168C163.959 231.168 164.397 231.084 164.808 230.916C165.219 230.748 165.583 230.519 165.9 230.23C166.217 229.941 166.455 229.614 166.614 229.25L165.662 228.732C165.466 229.152 165.177 229.488 164.794 229.74C164.421 229.992 163.987 230.118 163.492 230.118C162.997 230.118 162.549 229.992 162.148 229.74C161.756 229.488 161.443 229.147 161.21 228.718C160.986 228.279 160.874 227.789 160.874 227.248C160.874 226.697 160.986 226.207 161.21 225.778C161.443 225.339 161.756 224.999 162.148 224.756C162.549 224.504 162.997 224.378 163.492 224.378C163.987 224.378 164.425 224.504 164.808 224.756C165.191 225.008 165.475 225.335 165.662 225.736L166.614 225.246C166.455 224.873 166.217 224.546 165.9 224.266C165.583 223.977 165.219 223.748 164.808 223.58C164.397 223.412 163.959 223.328 163.492 223.328C162.755 223.328 162.106 223.501 161.546 223.846C160.986 224.182 160.547 224.644 160.23 225.232C159.913 225.82 159.754 226.487 159.754 227.234C159.754 227.981 159.913 228.653 160.23 229.25C160.547 229.838 160.986 230.305 161.546 230.65C162.106 230.995 162.755 231.168 163.492 231.168ZM171.417 231.168C171.883 231.168 172.303 231.07 172.677 230.874C173.05 230.678 173.349 230.412 173.573 230.076V231H174.623V223.496H173.573V227.962C173.573 228.634 173.386 229.161 173.013 229.544C172.649 229.927 172.177 230.118 171.599 230.118C171.029 230.118 170.563 229.936 170.199 229.572C169.835 229.199 169.653 228.709 169.653 228.102V223.496H168.603V228.228C168.603 228.807 168.724 229.32 168.967 229.768C169.219 230.207 169.559 230.552 169.989 230.804C170.418 231.047 170.894 231.168 171.417 231.168ZM177.082 231H178.132V226.38C178.132 225.764 178.295 225.288 178.622 224.952C178.949 224.616 179.383 224.448 179.924 224.448H180.582V223.398H180.106C179.649 223.398 179.252 223.477 178.916 223.636C178.589 223.795 178.328 224.019 178.132 224.308V223.496H177.082V231ZM187.395 231.168C187.918 231.168 188.38 231.079 188.781 230.902C189.183 230.715 189.495 230.459 189.719 230.132C189.953 229.805 190.069 229.437 190.069 229.026C190.069 228.522 189.897 228.083 189.551 227.71C189.215 227.337 188.744 227.061 188.137 226.884L186.891 226.52C186.761 226.483 186.607 226.427 186.429 226.352C186.261 226.277 186.112 226.165 185.981 226.016C185.851 225.867 185.785 225.666 185.785 225.414C185.785 225.087 185.911 224.817 186.163 224.602C186.415 224.387 186.751 224.28 187.171 224.28C187.601 224.28 187.988 224.401 188.333 224.644C188.688 224.877 188.959 225.204 189.145 225.624L190.041 225.204C189.827 224.616 189.458 224.159 188.935 223.832C188.422 223.496 187.848 223.328 187.213 223.328C186.747 223.328 186.322 223.417 185.939 223.594C185.557 223.771 185.253 224.023 185.029 224.35C184.805 224.677 184.693 225.059 184.693 225.498C184.693 225.965 184.847 226.375 185.155 226.73C185.463 227.085 185.963 227.36 186.653 227.556L187.731 227.864C187.881 227.901 188.053 227.962 188.249 228.046C188.445 228.13 188.618 228.251 188.767 228.41C188.917 228.559 188.991 228.765 188.991 229.026C188.991 229.381 188.837 229.67 188.529 229.894C188.221 230.109 187.843 230.216 187.395 230.216C186.929 230.216 186.499 230.081 186.107 229.81C185.725 229.539 185.426 229.175 185.211 228.718L184.329 229.138C184.572 229.763 184.964 230.258 185.505 230.622C186.047 230.986 186.677 231.168 187.395 231.168ZM192.214 222.11H193.264V220.57H192.214V222.11ZM192.214 231H193.264V223.496H192.214V231ZM195.714 231H196.764V226.534C196.764 225.862 196.95 225.335 197.324 224.952C197.697 224.569 198.168 224.378 198.738 224.378C199.316 224.378 199.783 224.569 200.138 224.952C200.502 225.325 200.684 225.853 200.684 226.534V231H201.734V226.128C201.734 225.596 201.608 225.12 201.356 224.7C201.113 224.271 200.777 223.935 200.348 223.692C199.928 223.449 199.452 223.328 198.92 223.328C198.453 223.328 198.033 223.426 197.66 223.622C197.286 223.818 196.988 224.084 196.764 224.42V223.496H195.714V231ZM207.469 231.168C207.936 231.168 208.374 231.084 208.785 230.916C209.196 230.748 209.56 230.519 209.877 230.23C210.194 229.941 210.432 229.614 210.591 229.25L209.639 228.732C209.443 229.152 209.154 229.488 208.771 229.74C208.398 229.992 207.964 230.118 207.469 230.118C206.974 230.118 206.526 229.992 206.125 229.74C205.733 229.488 205.42 229.147 205.187 228.718C204.963 228.279 204.851 227.789 204.851 227.248C204.851 226.697 204.963 226.207 205.187 225.778C205.42 225.339 205.733 224.999 206.125 224.756C206.526 224.504 206.974 224.378 207.469 224.378C207.964 224.378 208.402 224.504 208.785 224.756C209.168 225.008 209.452 225.335 209.639 225.736L210.591 225.246C210.432 224.873 210.194 224.546 209.877 224.266C209.56 223.977 209.196 223.748 208.785 223.58C208.374 223.412 207.936 223.328 207.469 223.328C206.732 223.328 206.083 223.501 205.523 223.846C204.963 224.182 204.524 224.644 204.207 225.232C203.89 225.82 203.731 226.487 203.731 227.234C203.731 227.981 203.89 228.653 204.207 229.25C204.524 229.838 204.963 230.305 205.523 230.65C206.083 230.995 206.732 231.168 207.469 231.168ZM216.149 231.168C216.663 231.168 217.129 231.084 217.549 230.916C217.979 230.739 218.347 230.51 218.655 230.23C218.963 229.941 219.192 229.628 219.341 229.292L218.445 228.816C218.212 229.208 217.909 229.535 217.535 229.796C217.162 230.057 216.7 230.188 216.149 230.188C215.701 230.188 215.281 230.081 214.889 229.866C214.497 229.651 214.175 229.353 213.923 228.97C213.681 228.578 213.55 228.111 213.531 227.57H219.439C219.458 227.449 219.472 227.332 219.481 227.22C219.491 227.099 219.495 226.991 219.495 226.898C219.495 226.45 219.416 226.016 219.257 225.596C219.099 225.167 218.87 224.784 218.571 224.448C218.273 224.103 217.909 223.832 217.479 223.636C217.059 223.431 216.579 223.328 216.037 223.328C215.356 223.328 214.74 223.496 214.189 223.832C213.648 224.168 213.219 224.63 212.901 225.218C212.584 225.797 212.425 226.464 212.425 227.22C212.425 227.976 212.589 228.653 212.915 229.25C213.242 229.847 213.685 230.319 214.245 230.664C214.815 231 215.449 231.168 216.149 231.168ZM216.037 224.308C216.457 224.308 216.84 224.406 217.185 224.602C217.54 224.798 217.82 225.069 218.025 225.414C218.24 225.75 218.352 226.142 218.361 226.59H213.559C213.615 226.123 213.76 225.722 213.993 225.386C214.236 225.041 214.535 224.775 214.889 224.588C215.244 224.401 215.627 224.308 216.037 224.308ZM227.196 231.084C227.28 231.084 227.392 231.079 227.532 231.07C227.672 231.061 227.798 231.042 227.91 231.014V230.062C227.835 230.071 227.746 230.081 227.644 230.09C227.541 230.099 227.452 230.104 227.378 230.104C226.911 230.104 226.589 229.983 226.412 229.74C226.234 229.497 226.146 229.189 226.146 228.816V224.546H227.798V223.496H226.146V221.76H225.096V222.39C225.096 222.707 225.002 222.973 224.816 223.188C224.629 223.393 224.377 223.496 224.06 223.496H223.71V224.546H225.096V228.816C225.096 229.544 225.278 230.104 225.642 230.496C226.006 230.888 226.524 231.084 227.196 231.084ZM230.053 231H231.103V226.534C231.103 225.862 231.29 225.335 231.663 224.952C232.046 224.569 232.517 224.378 233.077 224.378C233.637 224.378 234.099 224.569 234.463 224.952C234.837 225.325 235.023 225.853 235.023 226.534V231H236.073V226.128C236.073 225.596 235.947 225.12 235.695 224.7C235.453 224.271 235.117 223.935 234.687 223.692C234.267 223.449 233.791 223.328 233.259 223.328C232.793 223.328 232.373 223.426 231.999 223.622C231.626 223.818 231.327 224.084 231.103 224.42V220.402H230.053V231ZM241.795 231.168C242.308 231.168 242.775 231.084 243.195 230.916C243.624 230.739 243.993 230.51 244.301 230.23C244.609 229.941 244.837 229.628 244.987 229.292L244.091 228.816C243.857 229.208 243.554 229.535 243.181 229.796C242.807 230.057 242.345 230.188 241.795 230.188C241.347 230.188 240.927 230.081 240.535 229.866C240.143 229.651 239.821 229.353 239.569 228.97C239.326 228.578 239.195 228.111 239.177 227.57H245.085C245.103 227.449 245.117 227.332 245.127 227.22C245.136 227.099 245.141 226.991 245.141 226.898C245.141 226.45 245.061 226.016 244.903 225.596C244.744 225.167 244.515 224.784 244.217 224.448C243.918 224.103 243.554 223.832 243.125 223.636C242.705 223.431 242.224 223.328 241.683 223.328C241.001 223.328 240.385 223.496 239.835 223.832C239.293 224.168 238.864 224.63 238.547 225.218C238.229 225.797 238.071 226.464 238.071 227.22C238.071 227.976 238.234 228.653 238.561 229.25C238.887 229.847 239.331 230.319 239.891 230.664C240.46 231 241.095 231.168 241.795 231.168ZM241.683 224.308C242.103 224.308 242.485 224.406 242.831 224.602C243.185 224.798 243.465 225.069 243.671 225.414C243.885 225.75 243.997 226.142 244.007 226.59H239.205C239.261 226.123 239.405 225.722 239.639 225.386C239.881 225.041 240.18 224.775 240.535 224.588C240.889 224.401 241.272 224.308 241.683 224.308ZM249.971 233.8H251.021V229.782C251.301 230.221 251.684 230.561 252.169 230.804C252.654 231.047 253.186 231.168 253.765 231.168C254.474 231.168 255.104 231 255.655 230.664C256.215 230.319 256.654 229.852 256.971 229.264C257.298 228.667 257.461 227.995 257.461 227.248C257.461 226.492 257.298 225.82 256.971 225.232C256.654 224.644 256.215 224.182 255.655 223.846C255.104 223.501 254.474 223.328 253.765 223.328C253.177 223.328 252.65 223.445 252.183 223.678C251.716 223.911 251.329 224.229 251.021 224.63V223.496H249.971V233.8ZM253.709 230.118C253.205 230.118 252.748 229.992 252.337 229.74C251.936 229.488 251.614 229.147 251.371 228.718C251.138 228.279 251.021 227.789 251.021 227.248C251.021 226.707 251.138 226.221 251.371 225.792C251.614 225.353 251.936 225.008 252.337 224.756C252.748 224.504 253.205 224.378 253.709 224.378C254.213 224.378 254.661 224.504 255.053 224.756C255.454 225.008 255.767 225.349 255.991 225.778C256.224 226.207 256.341 226.697 256.341 227.248C256.341 227.789 256.224 228.279 255.991 228.718C255.767 229.147 255.454 229.488 255.053 229.74C254.661 229.992 254.213 230.118 253.709 230.118ZM259.609 231H260.659V220.402H259.609V231ZM265.278 231.168C265.857 231.168 266.379 231.051 266.846 230.818C267.313 230.585 267.667 230.286 267.91 229.922V231H268.96V225.848C268.96 225.353 268.839 224.919 268.596 224.546C268.363 224.163 268.031 223.865 267.602 223.65C267.182 223.435 266.697 223.328 266.146 223.328C265.726 223.328 265.32 223.407 264.928 223.566C264.536 223.715 264.186 223.921 263.878 224.182C263.579 224.443 263.36 224.733 263.22 225.05L264.172 225.568C264.34 225.204 264.597 224.91 264.942 224.686C265.287 224.453 265.689 224.336 266.146 224.336C266.669 224.336 267.093 224.476 267.42 224.756C267.747 225.036 267.91 225.4 267.91 225.848V226.24L265.194 226.688C264.363 226.828 263.757 227.113 263.374 227.542C262.991 227.971 262.8 228.475 262.8 229.054C262.8 229.465 262.907 229.829 263.122 230.146C263.337 230.463 263.631 230.715 264.004 230.902C264.377 231.079 264.802 231.168 265.278 231.168ZM263.92 229.012C263.92 228.667 264.037 228.368 264.27 228.116C264.513 227.864 264.905 227.691 265.446 227.598L267.91 227.192V227.752C267.91 228.209 267.803 228.625 267.588 228.998C267.373 229.371 267.075 229.67 266.692 229.894C266.309 230.109 265.861 230.216 265.348 230.216C264.928 230.216 264.583 230.099 264.312 229.866C264.051 229.633 263.92 229.348 263.92 229.012ZM271.42 231H272.47V226.534C272.47 225.862 272.656 225.335 273.03 224.952C273.403 224.569 273.874 224.378 274.444 224.378C275.022 224.378 275.489 224.569 275.844 224.952C276.208 225.325 276.39 225.853 276.39 226.534V231H277.44V226.128C277.44 225.596 277.314 225.12 277.062 224.7C276.819 224.271 276.483 223.935 276.054 223.692C275.634 223.449 275.158 223.328 274.626 223.328C274.159 223.328 273.739 223.426 273.366 223.622C272.992 223.818 272.694 224.084 272.47 224.42V223.496H271.42V231ZM279.745 231H280.795V226.534C280.795 225.862 280.982 225.335 281.355 224.952C281.729 224.569 282.2 224.378 282.769 224.378C283.348 224.378 283.815 224.569 284.169 224.952C284.533 225.325 284.715 225.853 284.715 226.534V231H285.765V226.128C285.765 225.596 285.639 225.12 285.387 224.7C285.145 224.271 284.809 223.935 284.379 223.692C283.959 223.449 283.483 223.328 282.951 223.328C282.485 223.328 282.065 223.426 281.691 223.622C281.318 223.818 281.019 224.084 280.795 224.42V223.496H279.745V231ZM291.487 231.168C292 231.168 292.467 231.084 292.887 230.916C293.316 230.739 293.685 230.51 293.993 230.23C294.301 229.941 294.529 229.628 294.679 229.292L293.783 228.816C293.549 229.208 293.246 229.535 292.873 229.796C292.499 230.057 292.037 230.188 291.487 230.188C291.039 230.188 290.619 230.081 290.227 229.866C289.835 229.651 289.513 229.353 289.261 228.97C289.018 228.578 288.887 228.111 288.869 227.57H294.777C294.795 227.449 294.809 227.332 294.819 227.22C294.828 227.099 294.833 226.991 294.833 226.898C294.833 226.45 294.753 226.016 294.595 225.596C294.436 225.167 294.207 224.784 293.909 224.448C293.61 224.103 293.246 223.832 292.817 223.636C292.397 223.431 291.916 223.328 291.375 223.328C290.693 223.328 290.077 223.496 289.527 223.832C288.985 224.168 288.556 224.63 288.239 225.218C287.921 225.797 287.763 226.464 287.763 227.22C287.763 227.976 287.926 228.653 288.253 229.25C288.579 229.847 289.023 230.319 289.583 230.664C290.152 231 290.787 231.168 291.487 231.168ZM291.375 224.308C291.795 224.308 292.177 224.406 292.523 224.602C292.877 224.798 293.157 225.069 293.363 225.414C293.577 225.75 293.689 226.142 293.699 226.59H288.897C288.953 226.123 289.097 225.722 289.331 225.386C289.573 225.041 289.872 224.775 290.227 224.588C290.581 224.401 290.964 224.308 291.375 224.308ZM300.372 231.168C300.951 231.168 301.483 231.047 301.968 230.804C302.453 230.561 302.836 230.221 303.116 229.782V231H304.166V220.402H303.116V224.63C302.808 224.229 302.421 223.911 301.954 223.678C301.487 223.445 300.96 223.328 300.372 223.328C299.663 223.328 299.028 223.501 298.468 223.846C297.917 224.182 297.479 224.644 297.152 225.232C296.835 225.82 296.676 226.492 296.676 227.248C296.676 227.995 296.835 228.667 297.152 229.264C297.479 229.852 297.922 230.319 298.482 230.664C299.042 231 299.672 231.168 300.372 231.168ZM300.428 230.118C299.924 230.118 299.471 229.992 299.07 229.74C298.678 229.488 298.365 229.147 298.132 228.718C297.908 228.279 297.796 227.789 297.796 227.248C297.796 226.697 297.908 226.207 298.132 225.778C298.365 225.349 298.683 225.008 299.084 224.756C299.485 224.504 299.933 224.378 300.428 224.378C300.932 224.378 301.385 224.504 301.786 224.756C302.197 225.008 302.519 225.353 302.752 225.792C302.995 226.221 303.116 226.707 303.116 227.248C303.116 227.789 302.995 228.279 302.752 228.718C302.519 229.147 302.197 229.488 301.786 229.74C301.385 229.992 300.932 230.118 300.428 230.118ZM102.872 255.168C103.581 255.168 104.211 255 104.762 254.664C105.322 254.319 105.761 253.852 106.078 253.264C106.405 252.667 106.568 251.995 106.568 251.248C106.568 250.492 106.405 249.82 106.078 249.232C105.761 248.644 105.322 248.182 104.762 247.846C104.211 247.501 103.581 247.328 102.872 247.328C102.284 247.328 101.757 247.445 101.29 247.678C100.823 247.911 100.436 248.229 100.128 248.63V244.402H99.078V255H100.128V253.782C100.408 254.221 100.791 254.561 101.276 254.804C101.761 255.047 102.293 255.168 102.872 255.168ZM102.816 254.118C102.312 254.118 101.855 253.992 101.444 253.74C101.043 253.488 100.721 253.147 100.478 252.718C100.245 252.279 100.128 251.789 100.128 251.248C100.128 250.707 100.245 250.221 100.478 249.792C100.721 249.353 101.043 249.008 101.444 248.756C101.855 248.504 102.312 248.378 102.816 248.378C103.32 248.378 103.768 248.504 104.16 248.756C104.561 249.008 104.874 249.349 105.098 249.778C105.331 250.207 105.448 250.697 105.448 251.248C105.448 251.789 105.331 252.279 105.098 252.718C104.874 253.147 104.561 253.488 104.16 253.74C103.768 253.992 103.32 254.118 102.816 254.118ZM111.376 255.168C111.843 255.168 112.263 255.07 112.636 254.874C113.009 254.678 113.308 254.412 113.532 254.076V255H114.582V247.496H113.532V251.962C113.532 252.634 113.345 253.161 112.972 253.544C112.608 253.927 112.137 254.118 111.558 254.118C110.989 254.118 110.522 253.936 110.158 253.572C109.794 253.199 109.612 252.709 109.612 252.102V247.496H108.562V252.228C108.562 252.807 108.683 253.32 108.926 253.768C109.178 254.207 109.519 254.552 109.948 254.804C110.377 255.047 110.853 255.168 111.376 255.168ZM119.645 255.168C120.168 255.168 120.63 255.079 121.031 254.902C121.433 254.715 121.745 254.459 121.969 254.132C122.203 253.805 122.319 253.437 122.319 253.026C122.319 252.522 122.147 252.083 121.801 251.71C121.465 251.337 120.994 251.061 120.387 250.884L119.141 250.52C119.011 250.483 118.857 250.427 118.679 250.352C118.511 250.277 118.362 250.165 118.231 250.016C118.101 249.867 118.035 249.666 118.035 249.414C118.035 249.087 118.161 248.817 118.413 248.602C118.665 248.387 119.001 248.28 119.421 248.28C119.851 248.28 120.238 248.401 120.583 248.644C120.938 248.877 121.209 249.204 121.395 249.624L122.291 249.204C122.077 248.616 121.708 248.159 121.185 247.832C120.672 247.496 120.098 247.328 119.463 247.328C118.997 247.328 118.572 247.417 118.189 247.594C117.807 247.771 117.503 248.023 117.279 248.35C117.055 248.677 116.943 249.059 116.943 249.498C116.943 249.965 117.097 250.375 117.405 250.73C117.713 251.085 118.213 251.36 118.903 251.556L119.981 251.864C120.131 251.901 120.303 251.962 120.499 252.046C120.695 252.13 120.868 252.251 121.017 252.41C121.167 252.559 121.241 252.765 121.241 253.026C121.241 253.381 121.087 253.67 120.779 253.894C120.471 254.109 120.093 254.216 119.645 254.216C119.179 254.216 118.749 254.081 118.357 253.81C117.975 253.539 117.676 253.175 117.461 252.718L116.579 253.138C116.822 253.763 117.214 254.258 117.755 254.622C118.297 254.986 118.927 255.168 119.645 255.168ZM124.464 246.11H125.514V244.57H124.464V246.11ZM124.464 255H125.514V247.496H124.464V255ZM127.964 255H129.014V250.534C129.014 249.862 129.2 249.335 129.574 248.952C129.947 248.569 130.418 248.378 130.988 248.378C131.566 248.378 132.033 248.569 132.388 248.952C132.752 249.325 132.934 249.853 132.934 250.534V255H133.984V250.128C133.984 249.596 133.858 249.12 133.606 248.7C133.363 248.271 133.027 247.935 132.598 247.692C132.178 247.449 131.702 247.328 131.17 247.328C130.703 247.328 130.283 247.426 129.91 247.622C129.536 247.818 129.238 248.084 129.014 248.42V247.496H127.964V255ZM139.705 255.168C140.218 255.168 140.685 255.084 141.105 254.916C141.534 254.739 141.903 254.51 142.211 254.23C142.519 253.941 142.748 253.628 142.897 253.292L142.001 252.816C141.768 253.208 141.464 253.535 141.091 253.796C140.718 254.057 140.256 254.188 139.705 254.188C139.257 254.188 138.837 254.081 138.445 253.866C138.053 253.651 137.731 253.353 137.479 252.97C137.236 252.578 137.106 252.111 137.087 251.57H142.995C143.014 251.449 143.028 251.332 143.037 251.22C143.046 251.099 143.051 250.991 143.051 250.898C143.051 250.45 142.972 250.016 142.813 249.596C142.654 249.167 142.426 248.784 142.127 248.448C141.828 248.103 141.464 247.832 141.035 247.636C140.615 247.431 140.134 247.328 139.593 247.328C138.912 247.328 138.296 247.496 137.745 247.832C137.204 248.168 136.774 248.63 136.457 249.218C136.14 249.797 135.981 250.464 135.981 251.22C135.981 251.976 136.144 252.653 136.471 253.25C136.798 253.847 137.241 254.319 137.801 254.664C138.37 255 139.005 255.168 139.705 255.168ZM139.593 248.308C140.013 248.308 140.396 248.406 140.741 248.602C141.096 248.798 141.376 249.069 141.581 249.414C141.796 249.75 141.908 250.142 141.917 250.59H137.115C137.171 250.123 137.316 249.722 137.549 249.386C137.792 249.041 138.09 248.775 138.445 248.588C138.8 248.401 139.182 248.308 139.593 248.308ZM147.806 255.168C148.329 255.168 148.791 255.079 149.192 254.902C149.594 254.715 149.906 254.459 150.13 254.132C150.364 253.805 150.48 253.437 150.48 253.026C150.48 252.522 150.308 252.083 149.962 251.71C149.626 251.337 149.155 251.061 148.548 250.884L147.302 250.52C147.172 250.483 147.018 250.427 146.84 250.352C146.672 250.277 146.523 250.165 146.392 250.016C146.262 249.867 146.196 249.666 146.196 249.414C146.196 249.087 146.322 248.817 146.574 248.602C146.826 248.387 147.162 248.28 147.582 248.28C148.012 248.28 148.399 248.401 148.744 248.644C149.099 248.877 149.37 249.204 149.556 249.624L150.452 249.204C150.238 248.616 149.869 248.159 149.346 247.832C148.833 247.496 148.259 247.328 147.624 247.328C147.158 247.328 146.733 247.417 146.35 247.594C145.968 247.771 145.664 248.023 145.44 248.35C145.216 248.677 145.104 249.059 145.104 249.498C145.104 249.965 145.258 250.375 145.566 250.73C145.874 251.085 146.374 251.36 147.064 251.556L148.142 251.864C148.292 251.901 148.464 251.962 148.66 252.046C148.856 252.13 149.029 252.251 149.178 252.41C149.328 252.559 149.402 252.765 149.402 253.026C149.402 253.381 149.248 253.67 148.94 253.894C148.632 254.109 148.254 254.216 147.806 254.216C147.34 254.216 146.91 254.081 146.518 253.81C146.136 253.539 145.837 253.175 145.622 252.718L144.74 253.138C144.983 253.763 145.375 254.258 145.916 254.622C146.458 254.986 147.088 255.168 147.806 255.168ZM155.229 255.168C155.752 255.168 156.214 255.079 156.615 254.902C157.017 254.715 157.329 254.459 157.553 254.132C157.787 253.805 157.903 253.437 157.903 253.026C157.903 252.522 157.731 252.083 157.385 251.71C157.049 251.337 156.578 251.061 155.971 250.884L154.725 250.52C154.595 250.483 154.441 250.427 154.263 250.352C154.095 250.277 153.946 250.165 153.815 250.016C153.685 249.867 153.619 249.666 153.619 249.414C153.619 249.087 153.745 248.817 153.997 248.602C154.249 248.387 154.585 248.28 155.005 248.28C155.435 248.28 155.822 248.401 156.167 248.644C156.522 248.877 156.793 249.204 156.979 249.624L157.875 249.204C157.661 248.616 157.292 248.159 156.769 247.832C156.256 247.496 155.682 247.328 155.047 247.328C154.581 247.328 154.156 247.417 153.773 247.594C153.391 247.771 153.087 248.023 152.863 248.35C152.639 248.677 152.527 249.059 152.527 249.498C152.527 249.965 152.681 250.375 152.989 250.73C153.297 251.085 153.797 251.36 154.487 251.556L155.565 251.864C155.715 251.901 155.887 251.962 156.083 252.046C156.279 252.13 156.452 252.251 156.601 252.41C156.751 252.559 156.825 252.765 156.825 253.026C156.825 253.381 156.671 253.67 156.363 253.894C156.055 254.109 155.677 254.216 155.229 254.216C154.763 254.216 154.333 254.081 153.941 253.81C153.559 253.539 153.26 253.175 153.045 252.718L152.163 253.138C152.406 253.763 152.798 254.258 153.339 254.622C153.881 254.986 154.511 255.168 155.229 255.168ZM164.897 255.168C165.476 255.168 165.999 255.051 166.465 254.818C166.932 254.585 167.287 254.286 167.529 253.922V255H168.579V249.848C168.579 249.353 168.458 248.919 168.215 248.546C167.982 248.163 167.651 247.865 167.221 247.65C166.801 247.435 166.316 247.328 165.765 247.328C165.345 247.328 164.939 247.407 164.547 247.566C164.155 247.715 163.805 247.921 163.497 248.182C163.199 248.443 162.979 248.733 162.839 249.05L163.791 249.568C163.959 249.204 164.216 248.91 164.561 248.686C164.907 248.453 165.308 248.336 165.765 248.336C166.288 248.336 166.713 248.476 167.039 248.756C167.366 249.036 167.529 249.4 167.529 249.848V250.24L164.813 250.688C163.983 250.828 163.376 251.113 162.993 251.542C162.611 251.971 162.419 252.475 162.419 253.054C162.419 253.465 162.527 253.829 162.741 254.146C162.956 254.463 163.25 254.715 163.623 254.902C163.997 255.079 164.421 255.168 164.897 255.168ZM163.539 253.012C163.539 252.667 163.656 252.368 163.889 252.116C164.132 251.864 164.524 251.691 165.065 251.598L167.529 251.192V251.752C167.529 252.209 167.422 252.625 167.207 252.998C166.993 253.371 166.694 253.67 166.311 253.894C165.929 254.109 165.481 254.216 164.967 254.216C164.547 254.216 164.202 254.099 163.931 253.866C163.67 253.633 163.539 253.348 163.539 253.012ZM174.469 255.168C174.936 255.168 175.374 255.084 175.785 254.916C176.196 254.748 176.56 254.519 176.877 254.23C177.194 253.941 177.432 253.614 177.591 253.25L176.639 252.732C176.443 253.152 176.154 253.488 175.771 253.74C175.398 253.992 174.964 254.118 174.469 254.118C173.974 254.118 173.526 253.992 173.125 253.74C172.733 253.488 172.42 253.147 172.187 252.718C171.963 252.279 171.851 251.789 171.851 251.248C171.851 250.697 171.963 250.207 172.187 249.778C172.42 249.339 172.733 248.999 173.125 248.756C173.526 248.504 173.974 248.378 174.469 248.378C174.964 248.378 175.402 248.504 175.785 248.756C176.168 249.008 176.452 249.335 176.639 249.736L177.591 249.246C177.432 248.873 177.194 248.546 176.877 248.266C176.56 247.977 176.196 247.748 175.785 247.58C175.374 247.412 174.936 247.328 174.469 247.328C173.732 247.328 173.083 247.501 172.523 247.846C171.963 248.182 171.524 248.644 171.207 249.232C170.89 249.82 170.731 250.487 170.731 251.234C170.731 251.981 170.89 252.653 171.207 253.25C171.524 253.838 171.963 254.305 172.523 254.65C173.083 254.995 173.732 255.168 174.469 255.168ZM182.603 255.084C182.687 255.084 182.799 255.079 182.939 255.07C183.079 255.061 183.205 255.042 183.317 255.014V254.062C183.243 254.071 183.154 254.081 183.051 254.09C182.949 254.099 182.86 254.104 182.785 254.104C182.319 254.104 181.997 253.983 181.819 253.74C181.642 253.497 181.553 253.189 181.553 252.816V248.546H183.205V247.496H181.553V245.76H180.503V246.39C180.503 246.707 180.41 246.973 180.223 247.188C180.037 247.393 179.785 247.496 179.467 247.496H179.117V248.546H180.503V252.816C180.503 253.544 180.685 254.104 181.049 254.496C181.413 254.888 181.931 255.084 182.603 255.084ZM185.461 246.11H186.511V244.57H185.461V246.11ZM185.461 255H186.511V247.496H185.461V255ZM190.962 255H192.012L194.966 247.496H193.776L191.494 253.572L189.212 247.496H188.036L190.962 255ZM196.493 246.11H197.543V244.57H196.493V246.11ZM196.493 255H197.543V247.496H196.493V255ZM202.862 255.084C202.946 255.084 203.058 255.079 203.198 255.07C203.338 255.061 203.464 255.042 203.576 255.014V254.062C203.501 254.071 203.413 254.081 203.31 254.09C203.207 254.099 203.119 254.104 203.044 254.104C202.577 254.104 202.255 253.983 202.078 253.74C201.901 253.497 201.812 253.189 201.812 252.816V248.546H203.464V247.496H201.812V245.76H200.762V246.39C200.762 246.707 200.669 246.973 200.482 247.188C200.295 247.393 200.043 247.496 199.726 247.496H199.376V248.546H200.762V252.816C200.762 253.544 200.944 254.104 201.308 254.496C201.672 254.888 202.19 255.084 202.862 255.084ZM205.72 246.11H206.77V244.57H205.72V246.11ZM205.72 255H206.77V247.496H205.72V255ZM212.635 255.168C213.148 255.168 213.615 255.084 214.035 254.916C214.464 254.739 214.833 254.51 215.141 254.23C215.449 253.941 215.678 253.628 215.827 253.292L214.931 252.816C214.698 253.208 214.394 253.535 214.021 253.796C213.648 254.057 213.186 254.188 212.635 254.188C212.187 254.188 211.767 254.081 211.375 253.866C210.983 253.651 210.661 253.353 210.409 252.97C210.166 252.578 210.036 252.111 210.017 251.57H215.925C215.944 251.449 215.958 251.332 215.967 251.22C215.976 251.099 215.981 250.991 215.981 250.898C215.981 250.45 215.902 250.016 215.743 249.596C215.584 249.167 215.356 248.784 215.057 248.448C214.758 248.103 214.394 247.832 213.965 247.636C213.545 247.431 213.064 247.328 212.523 247.328C211.842 247.328 211.226 247.496 210.675 247.832C210.134 248.168 209.704 248.63 209.387 249.218C209.07 249.797 208.911 250.464 208.911 251.22C208.911 251.976 209.074 252.653 209.401 253.25C209.728 253.847 210.171 254.319 210.731 254.664C211.3 255 211.935 255.168 212.635 255.168ZM212.523 248.308C212.943 248.308 213.326 248.406 213.671 248.602C214.026 248.798 214.306 249.069 214.511 249.414C214.726 249.75 214.838 250.142 214.847 250.59H210.045C210.101 250.123 210.246 249.722 210.479 249.386C210.722 249.041 211.02 248.775 211.375 248.588C211.73 248.401 212.112 248.308 212.523 248.308ZM220.736 255.168C221.259 255.168 221.721 255.079 222.122 254.902C222.524 254.715 222.836 254.459 223.06 254.132C223.294 253.805 223.41 253.437 223.41 253.026C223.41 252.522 223.238 252.083 222.892 251.71C222.556 251.337 222.085 251.061 221.478 250.884L220.232 250.52C220.102 250.483 219.948 250.427 219.77 250.352C219.602 250.277 219.453 250.165 219.322 250.016C219.192 249.867 219.126 249.666 219.126 249.414C219.126 249.087 219.252 248.817 219.504 248.602C219.756 248.387 220.092 248.28 220.512 248.28C220.942 248.28 221.329 248.401 221.674 248.644C222.029 248.877 222.3 249.204 222.486 249.624L223.382 249.204C223.168 248.616 222.799 248.159 222.276 247.832C221.763 247.496 221.189 247.328 220.554 247.328C220.088 247.328 219.663 247.417 219.28 247.594C218.898 247.771 218.594 248.023 218.37 248.35C218.146 248.677 218.034 249.059 218.034 249.498C218.034 249.965 218.188 250.375 218.496 250.73C218.804 251.085 219.304 251.36 219.994 251.556L221.072 251.864C221.222 251.901 221.394 251.962 221.59 252.046C221.786 252.13 221.959 252.251 222.108 252.41C222.258 252.559 222.332 252.765 222.332 253.026C222.332 253.381 222.178 253.67 221.87 253.894C221.562 254.109 221.184 254.216 220.736 254.216C220.27 254.216 219.84 254.081 219.448 253.81C219.066 253.539 218.767 253.175 218.552 252.718L217.67 253.138C217.913 253.763 218.305 254.258 218.846 254.622C219.388 254.986 220.018 255.168 220.736 255.168ZM230.404 255.168C230.983 255.168 231.506 255.051 231.972 254.818C232.439 254.585 232.794 254.286 233.036 253.922V255H234.086V249.848C234.086 249.353 233.965 248.919 233.722 248.546C233.489 248.163 233.158 247.865 232.728 247.65C232.308 247.435 231.823 247.328 231.272 247.328C230.852 247.328 230.446 247.407 230.054 247.566C229.662 247.715 229.312 247.921 229.004 248.182C228.706 248.443 228.486 248.733 228.346 249.05L229.298 249.568C229.466 249.204 229.723 248.91 230.068 248.686C230.414 248.453 230.815 248.336 231.272 248.336C231.795 248.336 232.22 248.476 232.546 248.756C232.873 249.036 233.036 249.4 233.036 249.848V250.24L230.32 250.688C229.49 250.828 228.883 251.113 228.5 251.542C228.118 251.971 227.926 252.475 227.926 253.054C227.926 253.465 228.034 253.829 228.248 254.146C228.463 254.463 228.757 254.715 229.13 254.902C229.504 255.079 229.928 255.168 230.404 255.168ZM229.046 253.012C229.046 252.667 229.163 252.368 229.396 252.116C229.639 251.864 230.031 251.691 230.572 251.598L233.036 251.192V251.752C233.036 252.209 232.929 252.625 232.714 252.998C232.5 253.371 232.201 253.67 231.818 253.894C231.436 254.109 230.988 254.216 230.474 254.216C230.054 254.216 229.709 254.099 229.438 253.866C229.177 253.633 229.046 253.348 229.046 253.012ZM236.546 255H237.596V250.38C237.596 249.764 237.759 249.288 238.086 248.952C238.413 248.616 238.847 248.448 239.388 248.448H240.046V247.398H239.57C239.113 247.398 238.716 247.477 238.38 247.636C238.053 247.795 237.792 248.019 237.596 248.308V247.496H236.546V255ZM244.992 255.168C245.506 255.168 245.972 255.084 246.392 254.916C246.822 254.739 247.19 254.51 247.498 254.23C247.806 253.941 248.035 253.628 248.184 253.292L247.288 252.816C247.055 253.208 246.752 253.535 246.378 253.796C246.005 254.057 245.543 254.188 244.992 254.188C244.544 254.188 244.124 254.081 243.732 253.866C243.34 253.651 243.018 253.353 242.766 252.97C242.524 252.578 242.393 252.111 242.374 251.57H248.282C248.301 251.449 248.315 251.332 248.324 251.22C248.334 251.099 248.338 250.991 248.338 250.898C248.338 250.45 248.259 250.016 248.1 249.596C247.942 249.167 247.713 248.784 247.414 248.448C247.116 248.103 246.752 247.832 246.322 247.636C245.902 247.431 245.422 247.328 244.88 247.328C244.199 247.328 243.583 247.496 243.032 247.832C242.491 248.168 242.062 248.63 241.744 249.218C241.427 249.797 241.268 250.464 241.268 251.22C241.268 251.976 241.432 252.653 241.758 253.25C242.085 253.847 242.528 254.319 243.088 254.664C243.658 255 244.292 255.168 244.992 255.168ZM244.88 248.308C245.3 248.308 245.683 248.406 246.028 248.602C246.383 248.798 246.663 249.069 246.868 249.414C247.083 249.75 247.195 250.142 247.204 250.59H242.402C242.458 250.123 242.603 249.722 242.836 249.386C243.079 249.041 243.378 248.775 243.732 248.588C244.087 248.401 244.47 248.308 244.88 248.308ZM102.466 279.168C103.045 279.168 103.577 279.047 104.062 278.804C104.547 278.561 104.93 278.221 105.21 277.782V279H106.26V268.402H105.21V272.63C104.902 272.229 104.515 271.911 104.048 271.678C103.581 271.445 103.054 271.328 102.466 271.328C101.757 271.328 101.122 271.501 100.562 271.846C100.011 272.182 99.5727 272.644 99.246 273.232C98.9287 273.82 98.77 274.492 98.77 275.248C98.77 275.995 98.9287 276.667 99.246 277.264C99.5727 277.852 100.016 278.319 100.576 278.664C101.136 279 101.766 279.168 102.466 279.168ZM102.522 278.118C102.018 278.118 101.565 277.992 101.164 277.74C100.772 277.488 100.459 277.147 100.226 276.718C100.002 276.279 99.89 275.789 99.89 275.248C99.89 274.697 100.002 274.207 100.226 273.778C100.459 273.349 100.777 273.008 101.178 272.756C101.579 272.504 102.027 272.378 102.522 272.378C103.026 272.378 103.479 272.504 103.88 272.756C104.291 273.008 104.613 273.353 104.846 273.792C105.089 274.221 105.21 274.707 105.21 275.248C105.21 275.789 105.089 276.279 104.846 276.718C104.613 277.147 104.291 277.488 103.88 277.74C103.479 277.992 103.026 278.118 102.522 278.118ZM112.132 279.168C112.645 279.168 113.112 279.084 113.532 278.916C113.961 278.739 114.33 278.51 114.638 278.23C114.946 277.941 115.175 277.628 115.324 277.292L114.428 276.816C114.195 277.208 113.891 277.535 113.518 277.796C113.145 278.057 112.683 278.188 112.132 278.188C111.684 278.188 111.264 278.081 110.872 277.866C110.48 277.651 110.158 277.353 109.906 276.97C109.663 276.578 109.533 276.111 109.514 275.57H115.422C115.441 275.449 115.455 275.332 115.464 275.22C115.473 275.099 115.478 274.991 115.478 274.898C115.478 274.45 115.399 274.016 115.24 273.596C115.081 273.167 114.853 272.784 114.554 272.448C114.255 272.103 113.891 271.832 113.462 271.636C113.042 271.431 112.561 271.328 112.02 271.328C111.339 271.328 110.723 271.496 110.172 271.832C109.631 272.168 109.201 272.63 108.884 273.218C108.567 273.797 108.408 274.464 108.408 275.22C108.408 275.976 108.571 276.653 108.898 277.25C109.225 277.847 109.668 278.319 110.228 278.664C110.797 279 111.432 279.168 112.132 279.168ZM112.02 272.308C112.44 272.308 112.823 272.406 113.168 272.602C113.523 272.798 113.803 273.069 114.008 273.414C114.223 273.75 114.335 274.142 114.344 274.59H109.542C109.598 274.123 109.743 273.722 109.976 273.386C110.219 273.041 110.517 272.775 110.872 272.588C111.227 272.401 111.609 272.308 112.02 272.308ZM120.233 279.168C120.756 279.168 121.218 279.079 121.619 278.902C122.021 278.715 122.333 278.459 122.557 278.132C122.791 277.805 122.907 277.437 122.907 277.026C122.907 276.522 122.735 276.083 122.389 275.71C122.053 275.337 121.582 275.061 120.975 274.884L119.729 274.52C119.599 274.483 119.445 274.427 119.267 274.352C119.099 274.277 118.95 274.165 118.819 274.016C118.689 273.867 118.623 273.666 118.623 273.414C118.623 273.087 118.749 272.817 119.001 272.602C119.253 272.387 119.589 272.28 120.009 272.28C120.439 272.28 120.826 272.401 121.171 272.644C121.526 272.877 121.797 273.204 121.983 273.624L122.879 273.204C122.665 272.616 122.296 272.159 121.773 271.832C121.26 271.496 120.686 271.328 120.051 271.328C119.585 271.328 119.16 271.417 118.777 271.594C118.395 271.771 118.091 272.023 117.867 272.35C117.643 272.677 117.531 273.059 117.531 273.498C117.531 273.965 117.685 274.375 117.993 274.73C118.301 275.085 118.801 275.36 119.491 275.556L120.569 275.864C120.719 275.901 120.891 275.962 121.087 276.046C121.283 276.13 121.456 276.251 121.605 276.41C121.755 276.559 121.829 276.765 121.829 277.026C121.829 277.381 121.675 277.67 121.367 277.894C121.059 278.109 120.681 278.216 120.233 278.216C119.767 278.216 119.337 278.081 118.945 277.81C118.563 277.539 118.264 277.175 118.049 276.718L117.167 277.138C117.41 277.763 117.802 278.258 118.343 278.622C118.885 278.986 119.515 279.168 120.233 279.168ZM125.052 270.11H126.102V268.57H125.052V270.11ZM125.052 279H126.102V271.496H125.052V279ZM132.107 282.08C132.798 282.08 133.409 281.931 133.941 281.632C134.483 281.343 134.903 280.941 135.201 280.428C135.509 279.924 135.663 279.35 135.663 278.706V271.496H134.613V272.63C134.315 272.229 133.932 271.911 133.465 271.678C132.999 271.445 132.49 271.328 131.939 271.328C131.23 271.328 130.595 271.496 130.035 271.832C129.485 272.168 129.046 272.621 128.719 273.19C128.402 273.759 128.243 274.399 128.243 275.108C128.243 275.808 128.402 276.447 128.719 277.026C129.046 277.595 129.489 278.048 130.049 278.384C130.609 278.72 131.239 278.888 131.939 278.888C132.49 278.888 133.003 278.767 133.479 278.524C133.955 278.281 134.333 277.941 134.613 277.502V278.706C134.613 279.21 134.497 279.635 134.263 279.98C134.03 280.325 133.722 280.587 133.339 280.764C132.957 280.941 132.537 281.03 132.079 281.03C131.482 281.03 130.992 280.899 130.609 280.638C130.227 280.377 129.961 280.069 129.811 279.714L128.845 280.232C129.097 280.773 129.508 281.217 130.077 281.562C130.656 281.907 131.333 282.08 132.107 282.08ZM131.995 277.838C131.491 277.838 131.039 277.717 130.637 277.474C130.245 277.222 129.933 276.891 129.699 276.48C129.475 276.06 129.363 275.603 129.363 275.108C129.363 274.604 129.475 274.147 129.699 273.736C129.933 273.325 130.25 272.999 130.651 272.756C131.053 272.504 131.501 272.378 131.995 272.378C132.481 272.378 132.919 272.504 133.311 272.756C133.703 272.999 134.016 273.33 134.249 273.75C134.492 274.161 134.613 274.613 134.613 275.108C134.613 275.603 134.492 276.06 134.249 276.48C134.016 276.891 133.703 277.222 133.311 277.474C132.919 277.717 132.481 277.838 131.995 277.838ZM138.121 279H139.171V274.534C139.171 273.862 139.358 273.335 139.731 272.952C140.104 272.569 140.576 272.378 141.145 272.378C141.724 272.378 142.19 272.569 142.545 272.952C142.909 273.325 143.091 273.853 143.091 274.534V279H144.141V274.128C144.141 273.596 144.015 273.12 143.763 272.7C143.52 272.271 143.184 271.935 142.755 271.692C142.335 271.449 141.859 271.328 141.327 271.328C140.86 271.328 140.44 271.426 140.067 271.622C139.694 271.818 139.395 272.084 139.171 272.42V271.496H138.121V279ZM149.862 279.168C150.376 279.168 150.842 279.084 151.262 278.916C151.692 278.739 152.06 278.51 152.368 278.23C152.676 277.941 152.905 277.628 153.054 277.292L152.158 276.816C151.925 277.208 151.622 277.535 151.248 277.796C150.875 278.057 150.413 278.188 149.862 278.188C149.414 278.188 148.994 278.081 148.602 277.866C148.21 277.651 147.888 277.353 147.636 276.97C147.394 276.578 147.263 276.111 147.244 275.57H153.152C153.171 275.449 153.185 275.332 153.194 275.22C153.204 275.099 153.208 274.991 153.208 274.898C153.208 274.45 153.129 274.016 152.97 273.596C152.812 273.167 152.583 272.784 152.284 272.448C151.986 272.103 151.622 271.832 151.192 271.636C150.772 271.431 150.292 271.328 149.75 271.328C149.069 271.328 148.453 271.496 147.902 271.832C147.361 272.168 146.932 272.63 146.614 273.218C146.297 273.797 146.138 274.464 146.138 275.22C146.138 275.976 146.302 276.653 146.628 277.25C146.955 277.847 147.398 278.319 147.958 278.664C148.528 279 149.162 279.168 149.862 279.168ZM149.75 272.308C150.17 272.308 150.553 272.406 150.898 272.602C151.253 272.798 151.533 273.069 151.738 273.414C151.953 273.75 152.065 274.142 152.074 274.59H147.272C147.328 274.123 147.473 273.722 147.706 273.386C147.949 273.041 148.248 272.775 148.602 272.588C148.957 272.401 149.34 272.308 149.75 272.308ZM158.748 279.168C159.326 279.168 159.858 279.047 160.344 278.804C160.829 278.561 161.212 278.221 161.492 277.782V279H162.542V268.402H161.492V272.63C161.184 272.229 160.796 271.911 160.33 271.678C159.863 271.445 159.336 271.328 158.748 271.328C158.038 271.328 157.404 271.501 156.844 271.846C156.293 272.182 155.854 272.644 155.528 273.232C155.21 273.82 155.052 274.492 155.052 275.248C155.052 275.995 155.21 276.667 155.528 277.264C155.854 277.852 156.298 278.319 156.858 278.664C157.418 279 158.048 279.168 158.748 279.168ZM158.804 278.118C158.3 278.118 157.847 277.992 157.446 277.74C157.054 277.488 156.741 277.147 156.508 276.718C156.284 276.279 156.172 275.789 156.172 275.248C156.172 274.697 156.284 274.207 156.508 273.778C156.741 273.349 157.058 273.008 157.46 272.756C157.861 272.504 158.309 272.378 158.804 272.378C159.308 272.378 159.76 272.504 160.162 272.756C160.572 273.008 160.894 273.353 161.128 273.792C161.37 274.221 161.492 274.707 161.492 275.248C161.492 275.789 161.37 276.279 161.128 276.718C160.894 277.147 160.572 277.488 160.162 277.74C159.76 277.992 159.308 278.118 158.804 278.118Z" fill="#8B8C8C"/>
</g>
<defs>
<filter id="filter0_d" x="0" y="0" width="404" height="401" filterUnits="userSpaceOnUse" color-interpolation-filters="sRGB">
<feFlood flood-opacity="0" result="BackgroundImageFix"/>
<feColorMatrix in="SourceAlpha" type="matrix" values="0 0 0 0 0 0 0 0 0 0 0 0 0 0 0 0 0 0 127 0" result="hardAlpha"/>
<feMorphology radius="16" operator="dilate" in="SourceAlpha" result="effect1_dropShadow"/>
<feOffset dy="18"/>
<feGaussianBlur stdDeviation="29"/>
<feColorMatrix type="matrix" values="0 0 0 0 0 0 0 0 0 0 0 0 0 0 0 0 0 0 0.06 0"/>
<feBlend mode="normal" in2="BackgroundImageFix" result="effect1_dropShadow"/>
<feBlend mode="normal" in="SourceGraphic" in2="effect1_dropShadow" result="shape"/>
</filter>
</defs>
</svg>
