<svg width="400" height="401" viewBox="0 0 400 401" fill="none" xmlns="http://www.w3.org/2000/svg">
<g filter="url(#filter0_d)">
<g clip-path="url(#clip0)">
<rect x="74" y="56" width="252" height="253" rx="8" fill="#FCFCFC"/>
<path d="M125.344 102.542L121.604 105.981C119.681 107.657 117.421 108.903 114.977 109.635L115.969 114.264C116.02 114.501 116.126 114.722 116.278 114.91C116.429 115.098 116.624 115.248 116.844 115.347C117.064 115.446 117.305 115.493 117.547 115.482C117.788 115.471 118.024 115.403 118.234 115.284L124.255 111.889C125.102 111.374 125.764 110.603 126.145 109.688C126.526 108.772 126.607 107.76 126.375 106.796L125.344 102.542ZM109.201 93.5295L112.421 89.7064L108.406 88.7374C107.429 88.397 106.363 88.4214 105.403 88.806C104.443 89.1907 103.655 89.9096 103.184 90.8301L99.7924 96.8424C99.6735 97.053 99.6059 97.2886 99.5949 97.5302C99.5839 97.7718 99.63 98.0125 99.7293 98.233C99.8286 98.4535 99.9783 98.6475 100.166 98.7994C100.355 98.9513 100.576 99.0569 100.812 99.1074L105.55 100.123C106.335 97.7122 107.574 95.4742 109.201 93.5295ZM123.798 93.5918C124.255 93.5918 124.702 93.4561 125.083 93.202C125.463 92.9479 125.759 92.5868 125.934 92.1642C126.109 91.7417 126.155 91.2767 126.066 90.8281C125.977 90.3795 125.756 89.9675 125.433 89.6441C125.11 89.3207 124.698 89.1004 124.249 89.0112C123.8 88.922 123.335 88.9678 122.913 89.1428C122.49 89.3178 122.129 89.6142 121.875 89.9945C121.621 90.3748 121.485 90.8219 121.485 91.2793C121.486 91.8925 121.729 92.4806 122.163 92.9142C122.597 93.3478 123.185 93.5915 123.798 93.5918Z" fill="#027794"/>
<path d="M132.843 83.1789C132.774 82.9149 132.635 82.674 132.442 82.4809C132.249 82.2878 132.008 82.1494 131.744 82.0799C128.582 81.2578 125.251 81.346 122.137 82.3342C119.022 83.3224 116.25 85.1704 114.14 87.6654L109.201 93.5295C106.734 96.4723 105.169 100.065 104.694 103.876C104.663 104.11 104.687 104.348 104.763 104.571C104.839 104.795 104.965 104.998 105.132 105.165L109.912 109.944C110.055 110.088 110.225 110.201 110.412 110.279C110.599 110.356 110.799 110.396 111.002 110.396C111.046 110.396 111.091 110.394 111.136 110.39C115.005 110.07 118.672 108.526 121.604 105.981L127.251 100.788C129.755 98.6839 131.61 95.9117 132.6 92.7943C133.59 89.6769 133.674 86.3425 132.843 83.1789ZM123.798 93.5917C123.34 93.5917 122.893 93.456 122.513 93.2019C122.133 92.9478 121.836 92.5867 121.661 92.1641C121.486 91.7416 121.44 91.2766 121.53 90.828C121.619 90.3794 121.839 89.9674 122.163 89.644C122.486 89.3206 122.898 89.1003 123.347 89.0111C123.795 88.9219 124.26 88.9677 124.683 89.1427C125.105 89.3177 125.466 89.6141 125.721 89.9944C125.975 90.3747 126.11 90.8218 126.11 91.2792C126.11 91.8924 125.866 92.4805 125.433 92.9141C124.999 93.3477 124.411 93.5914 123.798 93.5917Z" fill="#C3E8F1"/>
<path d="M105.546 139.864C105.047 139.893 104.688 139.952 104.468 140.04C104.248 140.128 104.094 140.297 104.006 140.546C103.933 140.795 103.896 141.199 103.896 141.756V152.668C103.896 153.225 103.933 153.629 104.006 153.878C104.094 154.127 104.248 154.296 104.468 154.384C104.688 154.472 105.047 154.531 105.546 154.56V155C104.754 154.956 103.647 154.934 102.224 154.934C100.655 154.934 99.496 154.956 98.748 155V154.56C99.232 154.531 99.584 154.472 99.804 154.384C100.039 154.296 100.193 154.127 100.266 153.878C100.354 153.629 100.398 153.225 100.398 152.668V141.756C100.398 141.199 100.354 140.795 100.266 140.546C100.193 140.297 100.039 140.128 99.804 140.04C99.584 139.952 99.232 139.893 98.748 139.864V139.424C99.496 139.468 100.655 139.49 102.224 139.49C103.647 139.49 104.754 139.468 105.546 139.424V139.864ZM115.283 143.318C116.398 143.318 117.205 143.604 117.703 144.176C117.953 144.455 118.129 144.814 118.231 145.254C118.334 145.694 118.385 146.288 118.385 147.036V152.954C118.385 153.555 118.488 153.973 118.693 154.208C118.913 154.428 119.28 154.538 119.793 154.538V155C118.327 154.941 117.359 154.912 116.889 154.912C116.449 154.912 115.496 154.941 114.029 155V154.538C114.469 154.538 114.777 154.428 114.953 154.208C115.129 153.973 115.217 153.555 115.217 152.954V146.112C115.217 145.511 115.115 145.056 114.909 144.748C114.719 144.44 114.367 144.286 113.853 144.286C113.252 144.286 112.739 144.535 112.313 145.034C111.888 145.518 111.675 146.119 111.675 146.838V152.954C111.675 153.555 111.763 153.973 111.939 154.208C112.115 154.428 112.423 154.538 112.863 154.538V155C111.514 154.941 110.605 154.912 110.135 154.912C109.695 154.912 108.683 154.941 107.099 155V154.538C107.627 154.538 107.994 154.428 108.199 154.208C108.405 153.973 108.507 153.555 108.507 152.954V146.024C108.507 145.349 108.405 144.858 108.199 144.55C107.994 144.242 107.627 144.088 107.099 144.088V143.626C107.569 143.67 108.023 143.692 108.463 143.692C109.769 143.692 110.839 143.589 111.675 143.384V145.364C112.335 144 113.538 143.318 115.283 143.318ZM126.721 137.796C127.63 137.796 128.415 138.038 129.075 138.522C129.295 138.698 129.471 138.933 129.603 139.226C129.75 139.505 129.823 139.82 129.823 140.172C129.823 140.583 129.676 140.942 129.383 141.25C129.09 141.543 128.716 141.69 128.261 141.69C127.762 141.69 127.359 141.551 127.051 141.272C126.743 140.993 126.589 140.612 126.589 140.128C126.589 139.747 126.699 139.409 126.919 139.116C127.139 138.823 127.462 138.617 127.887 138.5C127.843 138.412 127.748 138.339 127.601 138.28C127.469 138.221 127.3 138.192 127.095 138.192C126.538 138.192 126.142 138.383 125.907 138.764C125.746 138.984 125.636 139.307 125.577 139.732C125.518 140.157 125.489 140.795 125.489 141.646V143.648H127.843V144.088H125.489V152.734C125.489 153.409 125.658 153.878 125.995 154.142C126.347 154.406 126.868 154.538 127.557 154.538V155L126.941 154.978C125.313 154.934 124.257 154.912 123.773 154.912C123.333 154.912 122.38 154.941 120.913 155V154.538C121.441 154.538 121.808 154.428 122.013 154.208C122.218 153.973 122.321 153.555 122.321 152.954V144.088H120.825V143.648H122.321C122.321 142.372 122.424 141.389 122.629 140.7C122.834 139.996 123.194 139.395 123.707 138.896C124.03 138.573 124.462 138.309 125.005 138.104C125.548 137.899 126.12 137.796 126.721 137.796ZM134.237 143.318C135.923 143.318 137.243 143.802 138.197 144.77C139.15 145.723 139.627 147.241 139.627 149.324C139.627 151.407 139.15 152.925 138.197 153.878C137.243 154.831 135.923 155.308 134.237 155.308C132.565 155.308 131.245 154.831 130.277 153.878C129.323 152.925 128.847 151.407 128.847 149.324C128.847 147.241 129.323 145.723 130.277 144.77C131.245 143.802 132.565 143.318 134.237 143.318ZM134.237 143.758C133.606 143.758 133.1 144.22 132.719 145.144C132.352 146.053 132.169 147.447 132.169 149.324C132.169 151.201 132.352 152.595 132.719 153.504C133.1 154.413 133.606 154.868 134.237 154.868C134.882 154.868 135.388 154.421 135.755 153.526C136.121 152.617 136.305 151.216 136.305 149.324C136.305 147.432 136.114 146.031 135.733 145.122C135.366 144.213 134.867 143.758 134.237 143.758ZM148.868 143.318C149.528 143.318 150.027 143.516 150.364 143.912C150.702 144.308 150.87 144.785 150.87 145.342C150.87 145.885 150.709 146.332 150.386 146.684C150.078 147.021 149.668 147.19 149.154 147.19C148.656 147.19 148.26 147.065 147.966 146.816C147.673 146.552 147.526 146.207 147.526 145.782C147.526 145.078 147.849 144.506 148.494 144.066C148.436 144.051 148.348 144.044 148.23 144.044C148.084 144.044 147.966 144.059 147.878 144.088C147.321 144.176 146.844 144.513 146.448 145.1C146.067 145.687 145.876 146.288 145.876 146.904V152.734C145.876 153.409 146.038 153.878 146.36 154.142C146.698 154.406 147.226 154.538 147.944 154.538V155C147.739 155 147.57 154.993 147.438 154.978C145.942 154.934 144.945 154.912 144.446 154.912C144.05 154.912 143.148 154.934 141.74 154.978C141.623 154.993 141.476 155 141.3 155V154.538C141.828 154.538 142.195 154.428 142.4 154.208C142.606 153.973 142.708 153.555 142.708 152.954V146.024C142.708 145.349 142.606 144.858 142.4 144.55C142.195 144.242 141.828 144.088 141.3 144.088V143.626C141.77 143.67 142.224 143.692 142.664 143.692C143.97 143.692 145.04 143.589 145.876 143.384V145.43C146.155 144.799 146.558 144.293 147.086 143.912C147.614 143.516 148.208 143.318 148.868 143.318ZM169.558 152.954C169.558 153.555 169.66 153.973 169.866 154.208C170.086 154.428 170.452 154.538 170.966 154.538V155C169.499 154.941 168.531 154.912 168.062 154.912C167.651 154.912 166.742 154.941 165.334 155V154.538C165.73 154.538 166.001 154.428 166.148 154.208C166.309 153.988 166.39 153.57 166.39 152.954V146.112C166.39 145.496 166.294 145.041 166.104 144.748C165.928 144.44 165.583 144.286 165.07 144.286C164.527 144.286 164.05 144.513 163.64 144.968C163.244 145.423 163.009 145.98 162.936 146.64V147.036V152.954C162.936 153.555 163.024 153.973 163.2 154.208C163.39 154.428 163.728 154.538 164.212 154.538V155C162.804 154.941 161.88 154.912 161.44 154.912C161.029 154.912 160.12 154.941 158.712 155V154.538C159.108 154.538 159.379 154.428 159.526 154.208C159.687 153.973 159.768 153.555 159.768 152.954V146.112C159.768 145.496 159.687 145.041 159.526 144.748C159.364 144.44 159.049 144.286 158.58 144.286C157.993 144.286 157.487 144.535 157.062 145.034C156.651 145.518 156.446 146.119 156.446 146.838V152.954C156.446 153.555 156.519 153.973 156.666 154.208C156.827 154.428 157.106 154.538 157.502 154.538V155C156.211 154.941 155.346 154.912 154.906 154.912C154.466 154.912 153.454 154.941 151.87 155V154.538C152.398 154.538 152.764 154.428 152.97 154.208C153.175 153.973 153.278 153.555 153.278 152.954V146.024C153.278 145.349 153.175 144.858 152.97 144.55C152.764 144.242 152.398 144.088 151.87 144.088V143.626C152.339 143.67 152.794 143.692 153.234 143.692C154.539 143.692 155.61 143.589 156.446 143.384V145.364C157.091 144 158.228 143.318 159.856 143.318C160.97 143.318 161.777 143.604 162.276 144.176C162.554 144.469 162.738 144.909 162.826 145.496C163.207 144.704 163.706 144.147 164.322 143.824C164.938 143.487 165.656 143.318 166.478 143.318C167.592 143.318 168.399 143.604 168.898 144.176C169.132 144.44 169.301 144.799 169.404 145.254C169.506 145.709 169.558 146.303 169.558 147.036V152.954ZM174.99 155.154C174.051 155.154 173.347 154.912 172.878 154.428C172.423 153.944 172.196 153.306 172.196 152.514C172.196 151.854 172.364 151.311 172.702 150.886C173.054 150.446 173.472 150.109 173.956 149.874C174.454 149.639 175.085 149.39 175.848 149.126C176.654 148.847 177.241 148.598 177.608 148.378C177.989 148.143 178.18 147.828 178.18 147.432V145.716C178.18 145.1 178.033 144.623 177.74 144.286C177.461 143.934 177.021 143.758 176.42 143.758C175.716 143.758 175.18 143.934 174.814 144.286C175.224 144.433 175.54 144.653 175.76 144.946C175.994 145.239 176.112 145.584 176.112 145.98C176.112 146.479 175.943 146.875 175.606 147.168C175.268 147.461 174.858 147.608 174.374 147.608C173.86 147.608 173.464 147.447 173.186 147.124C172.907 146.801 172.768 146.398 172.768 145.914C172.768 145.503 172.863 145.159 173.054 144.88C173.259 144.587 173.567 144.315 173.978 144.066C174.374 143.831 174.858 143.648 175.43 143.516C176.016 143.384 176.654 143.318 177.344 143.318C178.062 143.318 178.686 143.391 179.214 143.538C179.742 143.685 180.182 143.934 180.534 144.286C180.856 144.609 181.069 145.005 181.172 145.474C181.289 145.943 181.348 146.581 181.348 147.388V153.372C181.348 153.724 181.377 153.973 181.436 154.12C181.509 154.267 181.641 154.34 181.832 154.34C182.052 154.34 182.316 154.215 182.624 153.966L182.844 154.34C182.184 154.883 181.377 155.154 180.424 155.154C179.617 155.154 179.052 154.993 178.73 154.67C178.407 154.347 178.238 153.915 178.224 153.372C177.49 154.56 176.412 155.154 174.99 155.154ZM176.684 153.746C177.256 153.746 177.754 153.445 178.18 152.844V148.334C178.004 148.627 177.63 148.95 177.058 149.302C176.486 149.669 176.053 150.035 175.76 150.402C175.466 150.769 175.32 151.297 175.32 151.986C175.32 152.587 175.444 153.035 175.694 153.328C175.943 153.607 176.273 153.746 176.684 153.746ZM188.239 143.626H190.835V144.066H188.239V152.954C188.239 153.394 188.312 153.709 188.459 153.9C188.62 154.076 188.869 154.164 189.207 154.164C189.837 154.164 190.336 153.724 190.703 152.844L191.077 153.042C190.519 154.553 189.515 155.308 188.063 155.308C187.095 155.308 186.361 155.059 185.863 154.56C185.555 154.252 185.342 153.871 185.225 153.416C185.122 152.947 185.071 152.309 185.071 151.502V144.066H183.223V143.626H185.071V140.722C186.288 140.722 187.344 140.487 188.239 140.018V143.626ZM194.667 137.95C195.283 137.95 195.767 138.104 196.119 138.412C196.486 138.705 196.669 139.116 196.669 139.644C196.669 140.172 196.486 140.59 196.119 140.898C195.767 141.191 195.283 141.338 194.667 141.338C194.051 141.338 193.56 141.191 193.193 140.898C192.841 140.59 192.665 140.172 192.665 139.644C192.665 139.116 192.841 138.705 193.193 138.412C193.56 138.104 194.051 137.95 194.667 137.95ZM196.383 152.954C196.383 153.555 196.486 153.973 196.691 154.208C196.911 154.428 197.278 154.538 197.791 154.538V155C196.324 154.941 195.349 154.912 194.865 154.912C194.41 154.912 193.391 154.941 191.807 155V154.538C192.335 154.538 192.702 154.428 192.907 154.208C193.112 153.973 193.215 153.555 193.215 152.954V146.024C193.215 145.349 193.112 144.858 192.907 144.55C192.702 144.242 192.335 144.088 191.807 144.088V143.626C192.276 143.67 192.731 143.692 193.171 143.692C194.476 143.692 195.547 143.589 196.383 143.384V152.954ZM204.722 143.318C206.409 143.318 207.729 143.802 208.682 144.77C209.636 145.723 210.112 147.241 210.112 149.324C210.112 151.407 209.636 152.925 208.682 153.878C207.729 154.831 206.409 155.308 204.722 155.308C203.05 155.308 201.73 154.831 200.762 153.878C199.809 152.925 199.332 151.407 199.332 149.324C199.332 147.241 199.809 145.723 200.762 144.77C201.73 143.802 203.05 143.318 204.722 143.318ZM204.722 143.758C204.092 143.758 203.586 144.22 203.204 145.144C202.838 146.053 202.654 147.447 202.654 149.324C202.654 151.201 202.838 152.595 203.204 153.504C203.586 154.413 204.092 154.868 204.722 154.868C205.368 154.868 205.874 154.421 206.24 153.526C206.607 152.617 206.79 151.216 206.79 149.324C206.79 147.432 206.6 146.031 206.218 145.122C205.852 144.213 205.353 143.758 204.722 143.758ZM219.97 143.318C221.084 143.318 221.891 143.604 222.39 144.176C222.639 144.455 222.815 144.814 222.918 145.254C223.02 145.694 223.072 146.288 223.072 147.036V152.954C223.072 153.555 223.174 153.973 223.38 154.208C223.6 154.428 223.966 154.538 224.48 154.538V155C223.013 154.941 222.045 154.912 221.576 154.912C221.136 154.912 220.182 154.941 218.716 155V154.538C219.156 154.538 219.464 154.428 219.64 154.208C219.816 153.973 219.904 153.555 219.904 152.954V146.112C219.904 145.511 219.801 145.056 219.596 144.748C219.405 144.44 219.053 144.286 218.54 144.286C217.938 144.286 217.425 144.535 217 145.034C216.574 145.518 216.362 146.119 216.362 146.838V152.954C216.362 153.555 216.45 153.973 216.626 154.208C216.802 154.428 217.11 154.538 217.55 154.538V155C216.2 154.941 215.291 154.912 214.822 154.912C214.382 154.912 213.37 154.941 211.786 155V154.538C212.314 154.538 212.68 154.428 212.886 154.208C213.091 153.973 213.194 153.555 213.194 152.954V146.024C213.194 145.349 213.091 144.858 212.886 144.55C212.68 144.242 212.314 144.088 211.786 144.088V143.626C212.255 143.67 212.71 143.692 213.15 143.692C214.455 143.692 215.526 143.589 216.362 143.384V145.364C217.022 144 218.224 143.318 219.97 143.318ZM233.938 155.154C233 155.154 232.296 154.912 231.826 154.428C231.372 153.944 231.144 153.306 231.144 152.514C231.144 151.854 231.313 151.311 231.65 150.886C232.002 150.446 232.42 150.109 232.904 149.874C233.403 149.639 234.034 149.39 234.796 149.126C235.603 148.847 236.19 148.598 236.556 148.378C236.938 148.143 237.128 147.828 237.128 147.432V145.716C237.128 145.1 236.982 144.623 236.688 144.286C236.41 143.934 235.97 143.758 235.368 143.758C234.664 143.758 234.129 143.934 233.762 144.286C234.173 144.433 234.488 144.653 234.708 144.946C234.943 145.239 235.06 145.584 235.06 145.98C235.06 146.479 234.892 146.875 234.554 147.168C234.217 147.461 233.806 147.608 233.322 147.608C232.809 147.608 232.413 147.447 232.134 147.124C231.856 146.801 231.716 146.398 231.716 145.914C231.716 145.503 231.812 145.159 232.002 144.88C232.208 144.587 232.516 144.315 232.926 144.066C233.322 143.831 233.806 143.648 234.378 143.516C234.965 143.384 235.603 143.318 236.292 143.318C237.011 143.318 237.634 143.391 238.162 143.538C238.69 143.685 239.13 143.934 239.482 144.286C239.805 144.609 240.018 145.005 240.12 145.474C240.238 145.943 240.296 146.581 240.296 147.388V153.372C240.296 153.724 240.326 153.973 240.384 154.12C240.458 154.267 240.59 154.34 240.78 154.34C241 154.34 241.264 154.215 241.572 153.966L241.792 154.34C241.132 154.883 240.326 155.154 239.372 155.154C238.566 155.154 238.001 154.993 237.678 154.67C237.356 154.347 237.187 153.915 237.172 153.372C236.439 154.56 235.361 155.154 233.938 155.154ZM235.632 153.746C236.204 153.746 236.703 153.445 237.128 152.844V148.334C236.952 148.627 236.578 148.95 236.006 149.302C235.434 149.669 235.002 150.035 234.708 150.402C234.415 150.769 234.268 151.297 234.268 151.986C234.268 152.587 234.393 153.035 234.642 153.328C234.892 153.607 235.222 153.746 235.632 153.746ZM250.905 143.318C252.02 143.318 252.826 143.604 253.325 144.176C253.574 144.455 253.75 144.814 253.853 145.254C253.956 145.694 254.007 146.288 254.007 147.036V152.954C254.007 153.555 254.11 153.973 254.315 154.208C254.535 154.428 254.902 154.538 255.415 154.538V155C253.948 154.941 252.98 154.912 252.511 154.912C252.071 154.912 251.118 154.941 249.651 155V154.538C250.091 154.538 250.399 154.428 250.575 154.208C250.751 153.973 250.839 153.555 250.839 152.954V146.112C250.839 145.511 250.736 145.056 250.531 144.748C250.34 144.44 249.988 144.286 249.475 144.286C248.874 144.286 248.36 144.535 247.935 145.034C247.51 145.518 247.297 146.119 247.297 146.838V152.954C247.297 153.555 247.385 153.973 247.561 154.208C247.737 154.428 248.045 154.538 248.485 154.538V155C247.136 154.941 246.226 154.912 245.757 154.912C245.317 154.912 244.305 154.941 242.721 155V154.538C243.249 154.538 243.616 154.428 243.821 154.208C244.026 153.973 244.129 153.555 244.129 152.954V146.024C244.129 145.349 244.026 144.858 243.821 144.55C243.616 144.242 243.249 144.088 242.721 144.088V143.626C243.19 143.67 243.645 143.692 244.085 143.692C245.39 143.692 246.461 143.589 247.297 143.384V145.364C247.957 144 249.16 143.318 250.905 143.318ZM267.359 152.58C267.359 153.255 267.461 153.746 267.667 154.054C267.872 154.362 268.239 154.516 268.767 154.516V154.978C268.312 154.934 267.857 154.912 267.403 154.912C266.097 154.912 265.027 155.015 264.191 155.22V153.328C263.692 154.648 262.739 155.308 261.331 155.308C259.952 155.308 258.852 154.809 258.031 153.812C257.224 152.8 256.828 151.282 256.843 149.258C256.843 147.967 257.048 146.882 257.459 146.002C257.884 145.107 258.463 144.44 259.197 144C259.945 143.545 260.795 143.318 261.749 143.318C262.819 143.318 263.633 143.597 264.191 144.154V140.414C264.191 139.739 264.081 139.248 263.861 138.94C263.655 138.632 263.296 138.478 262.783 138.478V138.016C263.252 138.06 263.707 138.082 264.147 138.082C265.423 138.082 266.493 137.979 267.359 137.774V152.58ZM262.233 154.362C262.717 154.362 263.142 154.186 263.509 153.834C263.89 153.482 264.117 153.005 264.191 152.404V144.704C263.824 144.205 263.289 143.956 262.585 143.956C261.807 143.956 261.206 144.403 260.781 145.298C260.355 146.193 260.15 147.527 260.165 149.302C260.15 151.091 260.319 152.382 260.671 153.174C261.037 153.966 261.558 154.362 262.233 154.362ZM112.124 161.424C112.021 162.817 111.97 164.064 111.97 165.164C111.97 165.853 111.992 166.411 112.036 166.836H111.53C111.178 165.032 110.694 163.763 110.078 163.03C109.477 162.297 108.648 161.93 107.592 161.93H107.086V174.492C107.086 175.108 107.145 175.555 107.262 175.834C107.394 176.113 107.614 176.303 107.922 176.406C108.245 176.494 108.751 176.545 109.44 176.56V177C107.592 176.956 106.199 176.934 105.26 176.934C104.336 176.934 102.994 176.956 101.234 177V176.56C101.923 176.545 102.422 176.494 102.73 176.406C103.053 176.303 103.273 176.113 103.39 175.834C103.522 175.555 103.588 175.108 103.588 174.492V161.93H103.104C102.4 161.93 101.799 162.084 101.3 162.392C100.816 162.7 100.398 163.213 100.046 163.932C99.694 164.636 99.3933 165.604 99.144 166.836H98.638C98.682 166.411 98.704 165.853 98.704 165.164C98.704 164.064 98.6527 162.817 98.55 161.424C99.8847 161.468 102.151 161.49 105.348 161.49C108.545 161.49 110.804 161.468 112.124 161.424ZM119.089 175.504C120.292 175.504 121.26 174.917 121.993 173.744L122.389 173.876C122.096 174.829 121.568 175.643 120.805 176.318C120.057 176.978 119.118 177.308 117.989 177.308C116.434 177.308 115.195 176.817 114.271 175.834C113.362 174.837 112.907 173.37 112.907 171.434C112.907 169.454 113.398 167.943 114.381 166.902C115.364 165.846 116.669 165.318 118.297 165.318C121.054 165.318 122.433 166.946 122.433 170.202H116.251C116.236 170.422 116.229 170.767 116.229 171.236C116.229 172.204 116.361 173.011 116.625 173.656C116.904 174.301 117.256 174.771 117.681 175.064C118.121 175.357 118.59 175.504 119.089 175.504ZM118.165 165.78C117.637 165.78 117.197 166.11 116.845 166.77C116.508 167.415 116.295 168.42 116.207 169.784H119.661C119.69 168.625 119.573 167.672 119.309 166.924C119.06 166.161 118.678 165.78 118.165 165.78ZM129.727 165.318C130.27 165.318 130.783 165.377 131.267 165.494C131.751 165.611 132.154 165.773 132.477 165.978C132.858 166.213 133.152 166.513 133.357 166.88C133.577 167.232 133.687 167.621 133.687 168.046C133.687 168.559 133.526 168.985 133.203 169.322C132.88 169.645 132.462 169.806 131.949 169.806C131.436 169.806 131.025 169.659 130.717 169.366C130.409 169.073 130.255 168.677 130.255 168.178C130.255 167.738 130.394 167.357 130.673 167.034C130.952 166.711 131.296 166.491 131.707 166.374C131.59 166.213 131.406 166.088 131.157 166C130.922 165.897 130.666 165.846 130.387 165.846C129.507 165.846 128.818 166.33 128.319 167.298C127.835 168.251 127.593 169.505 127.593 171.06C127.593 172.629 127.872 173.759 128.429 174.448C128.986 175.137 129.683 175.482 130.519 175.482C131.018 175.482 131.516 175.35 132.015 175.086C132.528 174.822 132.99 174.36 133.401 173.7L133.775 173.832C133.482 174.785 132.968 175.607 132.235 176.296C131.502 176.971 130.556 177.308 129.397 177.308C127.886 177.308 126.654 176.809 125.701 175.812C124.748 174.815 124.271 173.333 124.271 171.368C124.271 170.077 124.506 168.977 124.975 168.068C125.444 167.159 126.09 166.477 126.911 166.022C127.732 165.553 128.671 165.318 129.727 165.318ZM139.687 167.364C140.347 166 141.542 165.318 143.273 165.318C144.417 165.318 145.224 165.604 145.693 166.176C145.942 166.455 146.118 166.821 146.221 167.276C146.338 167.716 146.397 168.303 146.397 169.036V174.954C146.397 175.555 146.5 175.973 146.705 176.208C146.91 176.428 147.277 176.538 147.805 176.538V177C146.28 176.941 145.312 176.912 144.901 176.912C144.402 176.912 143.449 176.941 142.041 177V176.538C142.481 176.538 142.789 176.428 142.965 176.208C143.141 175.973 143.229 175.555 143.229 174.954V168.112C143.229 167.511 143.126 167.056 142.921 166.748C142.73 166.44 142.378 166.286 141.865 166.286C141.249 166.286 140.728 166.528 140.303 167.012C139.892 167.481 139.687 168.083 139.687 168.816V174.954C139.687 175.555 139.775 175.973 139.951 176.208C140.127 176.428 140.435 176.538 140.875 176.538V177C139.467 176.941 138.558 176.912 138.147 176.912C137.648 176.912 136.636 176.941 135.111 177V176.538C135.624 176.538 135.984 176.428 136.189 176.208C136.409 175.973 136.519 175.555 136.519 174.954V162.436C136.519 161.761 136.409 161.27 136.189 160.962C135.984 160.654 135.624 160.5 135.111 160.5V160.038C135.58 160.082 136.035 160.104 136.475 160.104C137.751 160.104 138.822 160.001 139.687 159.796V167.364ZM157.09 165.318C158.204 165.318 159.011 165.604 159.51 166.176C159.759 166.455 159.935 166.814 160.038 167.254C160.14 167.694 160.192 168.288 160.192 169.036V174.954C160.192 175.555 160.294 175.973 160.5 176.208C160.72 176.428 161.086 176.538 161.6 176.538V177C160.133 176.941 159.165 176.912 158.696 176.912C158.256 176.912 157.302 176.941 155.836 177V176.538C156.276 176.538 156.584 176.428 156.76 176.208C156.936 175.973 157.024 175.555 157.024 174.954V168.112C157.024 167.511 156.921 167.056 156.716 166.748C156.525 166.44 156.173 166.286 155.66 166.286C155.058 166.286 154.545 166.535 154.12 167.034C153.694 167.518 153.482 168.119 153.482 168.838V174.954C153.482 175.555 153.57 175.973 153.746 176.208C153.922 176.428 154.23 176.538 154.67 176.538V177C153.32 176.941 152.411 176.912 151.942 176.912C151.502 176.912 150.49 176.941 148.906 177V176.538C149.434 176.538 149.8 176.428 150.006 176.208C150.211 175.973 150.314 175.555 150.314 174.954V168.024C150.314 167.349 150.211 166.858 150.006 166.55C149.8 166.242 149.434 166.088 148.906 166.088V165.626C149.375 165.67 149.83 165.692 150.27 165.692C151.575 165.692 152.646 165.589 153.482 165.384V167.364C154.142 166 155.344 165.318 157.09 165.318ZM168.395 165.318C170.082 165.318 171.402 165.802 172.355 166.77C173.309 167.723 173.785 169.241 173.785 171.324C173.785 173.407 173.309 174.925 172.355 175.878C171.402 176.831 170.082 177.308 168.395 177.308C166.723 177.308 165.403 176.831 164.435 175.878C163.482 174.925 163.005 173.407 163.005 171.324C163.005 169.241 163.482 167.723 164.435 166.77C165.403 165.802 166.723 165.318 168.395 165.318ZM168.395 165.758C167.765 165.758 167.259 166.22 166.877 167.144C166.511 168.053 166.327 169.447 166.327 171.324C166.327 173.201 166.511 174.595 166.877 175.504C167.259 176.413 167.765 176.868 168.395 176.868C169.041 176.868 169.547 176.421 169.913 175.526C170.28 174.617 170.463 173.216 170.463 171.324C170.463 169.432 170.273 168.031 169.891 167.122C169.525 166.213 169.026 165.758 168.395 165.758ZM179.732 174.954C179.732 175.555 179.835 175.973 180.04 176.208C180.245 176.428 180.612 176.538 181.14 176.538V177C179.615 176.941 178.632 176.912 178.192 176.912C177.693 176.912 176.681 176.941 175.156 177V176.538C175.669 176.538 176.029 176.428 176.234 176.208C176.454 175.973 176.564 175.555 176.564 174.954V162.414C176.564 161.739 176.454 161.248 176.234 160.94C176.029 160.632 175.669 160.478 175.156 160.478V160.016C175.625 160.06 176.08 160.082 176.52 160.082C177.796 160.082 178.867 159.979 179.732 159.774V174.954ZM187.837 165.318C189.524 165.318 190.844 165.802 191.797 166.77C192.751 167.723 193.227 169.241 193.227 171.324C193.227 173.407 192.751 174.925 191.797 175.878C190.844 176.831 189.524 177.308 187.837 177.308C186.165 177.308 184.845 176.831 183.877 175.878C182.924 174.925 182.447 173.407 182.447 171.324C182.447 169.241 182.924 167.723 183.877 166.77C184.845 165.802 186.165 165.318 187.837 165.318ZM187.837 165.758C187.207 165.758 186.701 166.22 186.319 167.144C185.953 168.053 185.769 169.447 185.769 171.324C185.769 173.201 185.953 174.595 186.319 175.504C186.701 176.413 187.207 176.868 187.837 176.868C188.483 176.868 188.989 176.421 189.355 175.526C189.722 174.617 189.905 173.216 189.905 171.324C189.905 169.432 189.715 168.031 189.333 167.122C188.967 166.213 188.468 165.758 187.837 165.758ZM205.329 167.738C205.035 167.738 204.786 167.643 204.581 167.452C204.375 167.247 204.273 166.961 204.273 166.594C204.273 166.242 204.361 165.883 204.537 165.516C204.185 165.663 203.891 165.831 203.657 166.022C203.437 166.198 203.246 166.425 203.085 166.704C203.539 167.247 203.767 167.951 203.767 168.816C203.767 169.975 203.363 170.847 202.557 171.434C201.765 172.021 200.709 172.314 199.389 172.314H198.993C198.391 172.666 198.091 173.055 198.091 173.48C198.091 173.949 198.384 174.184 198.971 174.184H201.369C202.659 174.184 203.686 174.426 204.449 174.91C205.226 175.379 205.615 176.105 205.615 177.088C205.615 177.836 205.373 178.511 204.889 179.112C204.419 179.728 203.701 180.219 202.733 180.586C201.765 180.953 200.577 181.136 199.169 181.136C197.746 181.136 196.602 180.953 195.737 180.586C194.886 180.234 194.461 179.721 194.461 179.046C194.461 178.591 194.666 178.181 195.077 177.814C195.487 177.462 196.096 177.183 196.903 176.978L197.101 177.33C196.573 177.77 196.309 178.276 196.309 178.848C196.309 179.464 196.587 179.933 197.145 180.256C197.702 180.593 198.472 180.762 199.455 180.762C200.481 180.762 201.31 180.557 201.941 180.146C202.586 179.735 202.909 179.156 202.909 178.408C202.909 177.924 202.725 177.543 202.359 177.264C202.007 176.985 201.383 176.846 200.489 176.846H199.125C198.186 176.846 197.453 176.692 196.925 176.384C196.397 176.061 196.133 175.577 196.133 174.932C196.133 174.389 196.323 173.905 196.705 173.48C197.086 173.055 197.665 172.644 198.443 172.248C197.387 172.116 196.551 171.764 195.935 171.192C195.319 170.62 195.011 169.828 195.011 168.816C195.011 167.657 195.407 166.785 196.199 166.198C197.005 165.611 198.069 165.318 199.389 165.318C200.855 165.318 201.977 165.663 202.755 166.352C203.033 165.956 203.378 165.641 203.789 165.406C204.199 165.171 204.617 165.054 205.043 165.054C205.483 165.054 205.827 165.186 206.077 165.45C206.341 165.699 206.473 166.029 206.473 166.44C206.473 166.851 206.355 167.173 206.121 167.408C205.901 167.628 205.637 167.738 205.329 167.738ZM199.389 171.918C199.799 171.918 200.107 171.683 200.313 171.214C200.533 170.745 200.643 169.945 200.643 168.816C200.643 167.687 200.533 166.887 200.313 166.418C200.107 165.949 199.799 165.714 199.389 165.714C198.978 165.714 198.663 165.949 198.443 166.418C198.237 166.887 198.135 167.687 198.135 168.816C198.135 169.945 198.237 170.745 198.443 171.214C198.663 171.683 198.978 171.918 199.389 171.918ZM216.124 165.692C216.857 165.692 217.422 165.67 217.818 165.626V166.066C217.51 166.154 217.231 166.345 216.982 166.638C216.747 166.917 216.52 167.357 216.3 167.958L212.362 179.024C212.069 179.787 211.746 180.307 211.394 180.586C210.969 180.953 210.331 181.136 209.48 181.136C208.864 181.136 208.307 180.982 207.808 180.674C207.324 180.381 207.082 179.948 207.082 179.376C207.082 178.921 207.243 178.555 207.566 178.276C207.889 178.012 208.314 177.88 208.842 177.88C209.341 177.88 209.737 177.997 210.03 178.232C210.338 178.481 210.492 178.826 210.492 179.266C210.492 179.574 210.397 179.853 210.206 180.102C210.015 180.366 209.744 180.564 209.392 180.696C209.495 180.711 209.663 180.718 209.898 180.718C210.807 180.718 211.475 180.139 211.9 178.98L212.252 177.924L207.588 167.32C207.353 166.821 207.126 166.491 206.906 166.33C206.686 166.169 206.459 166.088 206.224 166.088V165.626C207.192 165.714 208.197 165.758 209.238 165.758C210.103 165.758 211.123 165.714 212.296 165.626V166.088C211.827 166.088 211.475 166.125 211.24 166.198C211.02 166.257 210.91 166.425 210.91 166.704C210.91 166.865 210.961 167.071 211.064 167.32L213.748 173.81L215.266 169.586C215.501 168.897 215.618 168.31 215.618 167.826C215.618 166.755 215.075 166.169 213.99 166.066V165.626C214.679 165.67 215.391 165.692 216.124 165.692Z" fill="#363940"/>
<path d="M99.232 207H100.352V196.57H99.232V207ZM104.92 207H106.04V197.62H108.896V196.57H102.036V197.62H104.92V207ZM113.103 207H114.153V202.534C114.153 201.862 114.34 201.335 114.713 200.952C115.086 200.569 115.558 200.378 116.127 200.378C116.706 200.378 117.172 200.569 117.527 200.952C117.891 201.325 118.073 201.853 118.073 202.534V207H119.123V202.128C119.123 201.596 118.997 201.12 118.745 200.7C118.502 200.271 118.166 199.935 117.737 199.692C117.317 199.449 116.841 199.328 116.309 199.328C115.842 199.328 115.422 199.426 115.049 199.622C114.676 199.818 114.377 200.084 114.153 200.42V199.496H113.103V207ZM124.942 207.168C125.642 207.168 126.277 207 126.846 206.664C127.425 206.328 127.887 205.866 128.232 205.278C128.578 204.681 128.75 203.999 128.75 203.234C128.75 202.478 128.582 201.806 128.246 201.218C127.92 200.63 127.467 200.168 126.888 199.832C126.319 199.496 125.67 199.328 124.942 199.328C124.214 199.328 123.561 199.501 122.982 199.846C122.413 200.182 121.96 200.644 121.624 201.232C121.288 201.82 121.12 202.487 121.12 203.234C121.12 203.99 121.288 204.667 121.624 205.264C121.97 205.852 122.432 206.319 123.01 206.664C123.589 207 124.233 207.168 124.942 207.168ZM124.942 206.118C124.438 206.118 123.981 205.992 123.57 205.74C123.169 205.488 122.847 205.143 122.604 204.704C122.362 204.265 122.24 203.775 122.24 203.234C122.24 202.693 122.362 202.207 122.604 201.778C122.847 201.349 123.169 201.008 123.57 200.756C123.981 200.504 124.438 200.378 124.942 200.378C125.446 200.378 125.899 200.504 126.3 200.756C126.711 201.008 127.033 201.349 127.266 201.778C127.509 202.207 127.63 202.693 127.63 203.234C127.63 203.775 127.509 204.265 127.266 204.704C127.033 205.143 126.711 205.488 126.3 205.74C125.899 205.992 125.446 206.118 124.942 206.118ZM133.636 207.084C133.72 207.084 133.832 207.079 133.972 207.07C134.112 207.061 134.238 207.042 134.35 207.014V206.062C134.275 206.071 134.186 206.081 134.084 206.09C133.981 206.099 133.892 206.104 133.818 206.104C133.351 206.104 133.029 205.983 132.852 205.74C132.674 205.497 132.586 205.189 132.586 204.816V200.546H134.238V199.496H132.586V197.76H131.535V198.39C131.535 198.707 131.442 198.973 131.256 199.188C131.069 199.393 130.817 199.496 130.5 199.496H130.149V200.546H131.535V204.816C131.535 205.544 131.718 206.104 132.082 206.496C132.446 206.888 132.964 207.084 133.636 207.084ZM139.942 207H140.992V200.546H142.826V199.496H140.992V198.824C140.992 198.292 141.141 197.919 141.44 197.704C141.739 197.489 142.112 197.382 142.56 197.382C142.607 197.382 142.686 197.387 142.798 197.396C142.91 197.396 142.999 197.405 143.064 197.424V196.472C142.989 196.453 142.891 196.439 142.77 196.43C142.649 196.411 142.541 196.402 142.448 196.402C142.009 196.402 141.599 196.495 141.216 196.682C140.833 196.869 140.525 197.144 140.292 197.508C140.059 197.863 139.942 198.301 139.942 198.824V199.496H138.444V200.546H139.942V207ZM148.058 207.168C148.758 207.168 149.393 207 149.962 206.664C150.541 206.328 151.003 205.866 151.348 205.278C151.694 204.681 151.866 203.999 151.866 203.234C151.866 202.478 151.698 201.806 151.362 201.218C151.036 200.63 150.583 200.168 150.004 199.832C149.435 199.496 148.786 199.328 148.058 199.328C147.33 199.328 146.677 199.501 146.098 199.846C145.529 200.182 145.076 200.644 144.74 201.232C144.404 201.82 144.236 202.487 144.236 203.234C144.236 203.99 144.404 204.667 144.74 205.264C145.086 205.852 145.548 206.319 146.126 206.664C146.705 207 147.349 207.168 148.058 207.168ZM148.058 206.118C147.554 206.118 147.097 205.992 146.686 205.74C146.285 205.488 145.963 205.143 145.72 204.704C145.478 204.265 145.356 203.775 145.356 203.234C145.356 202.693 145.478 202.207 145.72 201.778C145.963 201.349 146.285 201.008 146.686 200.756C147.097 200.504 147.554 200.378 148.058 200.378C148.562 200.378 149.015 200.504 149.416 200.756C149.827 201.008 150.149 201.349 150.382 201.778C150.625 202.207 150.746 202.693 150.746 203.234C150.746 203.775 150.625 204.265 150.382 204.704C150.149 205.143 149.827 205.488 149.416 205.74C149.015 205.992 148.562 206.118 148.058 206.118ZM154.018 207H155.068V196.402H154.018V207ZM157.517 207H158.567V196.402H157.517V207ZM164.531 207.168C165.231 207.168 165.865 207 166.435 206.664C167.013 206.328 167.475 205.866 167.821 205.278C168.166 204.681 168.339 203.999 168.339 203.234C168.339 202.478 168.171 201.806 167.835 201.218C167.508 200.63 167.055 200.168 166.477 199.832C165.907 199.496 165.259 199.328 164.531 199.328C163.803 199.328 163.149 199.501 162.571 199.846C162.001 200.182 161.549 200.644 161.213 201.232C160.877 201.82 160.709 202.487 160.709 203.234C160.709 203.99 160.877 204.667 161.213 205.264C161.558 205.852 162.02 206.319 162.599 206.664C163.177 207 163.821 207.168 164.531 207.168ZM164.531 206.118C164.027 206.118 163.569 205.992 163.159 205.74C162.757 205.488 162.435 205.143 162.193 204.704C161.95 204.265 161.829 203.775 161.829 203.234C161.829 202.693 161.95 202.207 162.193 201.778C162.435 201.349 162.757 201.008 163.159 200.756C163.569 200.504 164.027 200.378 164.531 200.378C165.035 200.378 165.487 200.504 165.889 200.756C166.299 201.008 166.621 201.349 166.855 201.778C167.097 202.207 167.219 202.693 167.219 203.234C167.219 203.775 167.097 204.265 166.855 204.704C166.621 205.143 166.299 205.488 165.889 205.74C165.487 205.992 165.035 206.118 164.531 206.118ZM172.006 207H173.056L174.862 201.064L176.654 207H177.704L180.28 199.496H179.104L177.186 205.39L175.38 199.496H174.33L172.538 205.39L170.62 199.496H169.43L172.006 207ZM185.089 207.168C185.603 207.168 186.069 207.084 186.489 206.916C186.919 206.739 187.287 206.51 187.595 206.23C187.903 205.941 188.132 205.628 188.281 205.292L187.385 204.816C187.152 205.208 186.849 205.535 186.475 205.796C186.102 206.057 185.64 206.188 185.089 206.188C184.641 206.188 184.221 206.081 183.829 205.866C183.437 205.651 183.115 205.353 182.863 204.97C182.621 204.578 182.49 204.111 182.471 203.57H188.379C188.398 203.449 188.412 203.332 188.421 203.22C188.431 203.099 188.435 202.991 188.435 202.898C188.435 202.45 188.356 202.016 188.197 201.596C188.039 201.167 187.81 200.784 187.511 200.448C187.213 200.103 186.849 199.832 186.419 199.636C185.999 199.431 185.519 199.328 184.977 199.328C184.296 199.328 183.68 199.496 183.129 199.832C182.588 200.168 182.159 200.63 181.841 201.218C181.524 201.797 181.365 202.464 181.365 203.22C181.365 203.976 181.529 204.653 181.855 205.25C182.182 205.847 182.625 206.319 183.185 206.664C183.755 207 184.389 207.168 185.089 207.168ZM184.977 200.308C185.397 200.308 185.78 200.406 186.125 200.602C186.48 200.798 186.76 201.069 186.965 201.414C187.18 201.75 187.292 202.142 187.301 202.59H182.499C182.555 202.123 182.7 201.722 182.933 201.386C183.176 201.041 183.475 200.775 183.829 200.588C184.184 200.401 184.567 200.308 184.977 200.308ZM193.975 207.168C194.553 207.168 195.085 207.047 195.571 206.804C196.056 206.561 196.439 206.221 196.719 205.782V207H197.769V196.402H196.719V200.63C196.411 200.229 196.023 199.911 195.557 199.678C195.09 199.445 194.563 199.328 193.975 199.328C193.265 199.328 192.631 199.501 192.071 199.846C191.52 200.182 191.081 200.644 190.755 201.232C190.437 201.82 190.279 202.492 190.279 203.248C190.279 203.995 190.437 204.667 190.755 205.264C191.081 205.852 191.525 206.319 192.085 206.664C192.645 207 193.275 207.168 193.975 207.168ZM194.031 206.118C193.527 206.118 193.074 205.992 192.673 205.74C192.281 205.488 191.968 205.147 191.735 204.718C191.511 204.279 191.399 203.789 191.399 203.248C191.399 202.697 191.511 202.207 191.735 201.778C191.968 201.349 192.285 201.008 192.687 200.756C193.088 200.504 193.536 200.378 194.031 200.378C194.535 200.378 194.987 200.504 195.389 200.756C195.799 201.008 196.121 201.353 196.355 201.792C196.597 202.221 196.719 202.707 196.719 203.248C196.719 203.789 196.597 204.279 196.355 204.718C196.121 205.147 195.799 205.488 195.389 205.74C194.987 205.992 194.535 206.118 194.031 206.118ZM206.697 207.168C207.407 207.168 208.037 207 208.587 206.664C209.147 206.319 209.586 205.852 209.903 205.264C210.23 204.667 210.393 203.995 210.393 203.248C210.393 202.492 210.23 201.82 209.903 201.232C209.586 200.644 209.147 200.182 208.587 199.846C208.037 199.501 207.407 199.328 206.697 199.328C206.109 199.328 205.582 199.445 205.115 199.678C204.649 199.911 204.261 200.229 203.953 200.63V196.402H202.903V207H203.953V205.782C204.233 206.221 204.616 206.561 205.101 206.804C205.587 207.047 206.119 207.168 206.697 207.168ZM206.641 206.118C206.137 206.118 205.68 205.992 205.269 205.74C204.868 205.488 204.546 205.147 204.303 204.718C204.07 204.279 203.953 203.789 203.953 203.248C203.953 202.707 204.07 202.221 204.303 201.792C204.546 201.353 204.868 201.008 205.269 200.756C205.68 200.504 206.137 200.378 206.641 200.378C207.145 200.378 207.593 200.504 207.985 200.756C208.387 201.008 208.699 201.349 208.923 201.778C209.157 202.207 209.273 202.697 209.273 203.248C209.273 203.789 209.157 204.279 208.923 204.718C208.699 205.147 208.387 205.488 207.985 205.74C207.593 205.992 207.145 206.118 206.641 206.118ZM212.559 210.08C213.053 210.08 213.473 209.977 213.819 209.772C214.164 209.576 214.449 209.315 214.673 208.988C214.906 208.661 215.097 208.316 215.247 207.952L218.677 199.482H217.515L215.065 205.684L212.615 199.482H211.481L214.477 207L214.211 207.644C213.977 208.185 213.739 208.549 213.497 208.736C213.254 208.932 212.904 209.03 212.447 209.03C212.297 209.03 212.148 209.016 211.999 208.988C211.859 208.969 211.742 208.955 211.649 208.946V209.926C211.798 209.982 211.947 210.019 212.097 210.038C212.255 210.066 212.409 210.08 212.559 210.08ZM225.759 207.084C225.843 207.084 225.955 207.079 226.095 207.07C226.235 207.061 226.361 207.042 226.473 207.014V206.062C226.399 206.071 226.31 206.081 226.207 206.09C226.105 206.099 226.016 206.104 225.941 206.104C225.475 206.104 225.153 205.983 224.975 205.74C224.798 205.497 224.709 205.189 224.709 204.816V200.546H226.361V199.496H224.709V197.76H223.659V198.39C223.659 198.707 223.566 198.973 223.379 199.188C223.193 199.393 222.941 199.496 222.623 199.496H222.273V200.546H223.659V204.816C223.659 205.544 223.841 206.104 224.205 206.496C224.569 206.888 225.087 207.084 225.759 207.084ZM228.617 207H229.667V202.534C229.667 201.862 229.854 201.335 230.227 200.952C230.61 200.569 231.081 200.378 231.641 200.378C232.201 200.378 232.663 200.569 233.027 200.952C233.4 201.325 233.587 201.853 233.587 202.534V207H234.637V202.128C234.637 201.596 234.511 201.12 234.259 200.7C234.016 200.271 233.68 199.935 233.251 199.692C232.831 199.449 232.355 199.328 231.823 199.328C231.356 199.328 230.936 199.426 230.563 199.622C230.19 199.818 229.891 200.084 229.667 200.42V196.402H228.617V207ZM240.358 207.168C240.872 207.168 241.338 207.084 241.758 206.916C242.188 206.739 242.556 206.51 242.864 206.23C243.172 205.941 243.401 205.628 243.55 205.292L242.654 204.816C242.421 205.208 242.118 205.535 241.744 205.796C241.371 206.057 240.909 206.188 240.358 206.188C239.91 206.188 239.49 206.081 239.098 205.866C238.706 205.651 238.384 205.353 238.132 204.97C237.89 204.578 237.759 204.111 237.74 203.57H243.648C243.667 203.449 243.681 203.332 243.69 203.22C243.7 203.099 243.704 202.991 243.704 202.898C243.704 202.45 243.625 202.016 243.466 201.596C243.308 201.167 243.079 200.784 242.78 200.448C242.482 200.103 242.118 199.832 241.688 199.636C241.268 199.431 240.788 199.328 240.246 199.328C239.565 199.328 238.949 199.496 238.398 199.832C237.857 200.168 237.428 200.63 237.11 201.218C236.793 201.797 236.634 202.464 236.634 203.22C236.634 203.976 236.798 204.653 237.124 205.25C237.451 205.847 237.894 206.319 238.454 206.664C239.024 207 239.658 207.168 240.358 207.168ZM240.246 200.308C240.666 200.308 241.049 200.406 241.394 200.602C241.749 200.798 242.029 201.069 242.234 201.414C242.449 201.75 242.561 202.142 242.57 202.59H237.768C237.824 202.123 237.969 201.722 238.202 201.386C238.445 201.041 238.744 200.775 239.098 200.588C239.453 200.401 239.836 200.308 240.246 200.308ZM251.951 207.168C252.464 207.168 252.931 207.084 253.351 206.916C253.78 206.739 254.149 206.51 254.457 206.23C254.765 205.941 254.993 205.628 255.143 205.292L254.247 204.816C254.013 205.208 253.71 205.535 253.337 205.796C252.963 206.057 252.501 206.188 251.951 206.188C251.503 206.188 251.083 206.081 250.691 205.866C250.299 205.651 249.977 205.353 249.725 204.97C249.482 204.578 249.351 204.111 249.333 203.57H255.241C255.259 203.449 255.273 203.332 255.283 203.22C255.292 203.099 255.297 202.991 255.297 202.898C255.297 202.45 255.217 202.016 255.059 201.596C254.9 201.167 254.671 200.784 254.373 200.448C254.074 200.103 253.71 199.832 253.281 199.636C252.861 199.431 252.38 199.328 251.839 199.328C251.157 199.328 250.541 199.496 249.991 199.832C249.449 200.168 249.02 200.63 248.703 201.218C248.385 201.797 248.227 202.464 248.227 203.22C248.227 203.976 248.39 204.653 248.717 205.25C249.043 205.847 249.487 206.319 250.047 206.664C250.616 207 251.251 207.168 251.951 207.168ZM251.839 200.308C252.259 200.308 252.641 200.406 252.987 200.602C253.341 200.798 253.621 201.069 253.827 201.414C254.041 201.75 254.153 202.142 254.163 202.59H249.361C249.417 202.123 249.561 201.722 249.795 201.386C250.037 201.041 250.336 200.775 250.691 200.588C251.045 200.401 251.428 200.308 251.839 200.308ZM256.387 207H257.689L259.649 204.144L261.609 207H262.897L260.279 203.248L262.897 199.496H261.609L259.649 202.352L257.689 199.496H256.401L259.019 203.248L256.387 207ZM264.433 198.11H265.483V196.57H264.433V198.11ZM264.433 207H265.483V199.496H264.433V207ZM270.537 207.168C271.059 207.168 271.521 207.079 271.923 206.902C272.324 206.715 272.637 206.459 272.861 206.132C273.094 205.805 273.211 205.437 273.211 205.026C273.211 204.522 273.038 204.083 272.693 203.71C272.357 203.337 271.885 203.061 271.279 202.884L270.033 202.52C269.902 202.483 269.748 202.427 269.571 202.352C269.403 202.277 269.253 202.165 269.123 202.016C268.992 201.867 268.927 201.666 268.927 201.414C268.927 201.087 269.053 200.817 269.305 200.602C269.557 200.387 269.893 200.28 270.313 200.28C270.742 200.28 271.129 200.401 271.475 200.644C271.829 200.877 272.1 201.204 272.287 201.624L273.183 201.204C272.968 200.616 272.599 200.159 272.077 199.832C271.563 199.496 270.989 199.328 270.355 199.328C269.888 199.328 269.463 199.417 269.081 199.594C268.698 199.771 268.395 200.023 268.171 200.35C267.947 200.677 267.835 201.059 267.835 201.498C267.835 201.965 267.989 202.375 268.297 202.73C268.605 203.085 269.104 203.36 269.795 203.556L270.873 203.864C271.022 203.901 271.195 203.962 271.391 204.046C271.587 204.13 271.759 204.251 271.909 204.41C272.058 204.559 272.133 204.765 272.133 205.026C272.133 205.381 271.979 205.67 271.671 205.894C271.363 206.109 270.985 206.216 270.537 206.216C270.07 206.216 269.641 206.081 269.249 205.81C268.866 205.539 268.567 205.175 268.353 204.718L267.471 205.138C267.713 205.763 268.105 206.258 268.647 206.622C269.188 206.986 269.818 207.168 270.537 207.168ZM278.226 207.084C278.31 207.084 278.422 207.079 278.562 207.07C278.702 207.061 278.828 207.042 278.94 207.014V206.062C278.865 206.071 278.776 206.081 278.674 206.09C278.571 206.099 278.482 206.104 278.408 206.104C277.941 206.104 277.619 205.983 277.442 205.74C277.264 205.497 277.176 205.189 277.176 204.816V200.546H278.828V199.496H277.176V197.76H276.126V198.39C276.126 198.707 276.032 198.973 275.846 199.188C275.659 199.393 275.407 199.496 275.09 199.496H274.74V200.546H276.126V204.816C276.126 205.544 276.308 206.104 276.672 206.496C277.036 206.888 277.554 207.084 278.226 207.084ZM281.083 198.11H282.133V196.57H281.083V198.11ZM281.083 207H282.133V199.496H281.083V207ZM284.583 207H285.633V202.534C285.633 201.862 285.819 201.335 286.193 200.952C286.566 200.569 287.037 200.378 287.607 200.378C288.185 200.378 288.652 200.569 289.007 200.952C289.371 201.325 289.553 201.853 289.553 202.534V207H290.603V202.128C290.603 201.596 290.477 201.12 290.225 200.7C289.982 200.271 289.646 199.935 289.217 199.692C288.797 199.449 288.321 199.328 287.789 199.328C287.322 199.328 286.902 199.426 286.529 199.622C286.155 199.818 285.857 200.084 285.633 200.42V199.496H284.583V207ZM296.464 210.08C297.155 210.08 297.766 209.931 298.298 209.632C298.839 209.343 299.259 208.941 299.558 208.428C299.866 207.924 300.02 207.35 300.02 206.706V199.496H298.97V200.63C298.671 200.229 298.289 199.911 297.822 199.678C297.355 199.445 296.847 199.328 296.296 199.328C295.587 199.328 294.952 199.496 294.392 199.832C293.841 200.168 293.403 200.621 293.076 201.19C292.759 201.759 292.6 202.399 292.6 203.108C292.6 203.808 292.759 204.447 293.076 205.026C293.403 205.595 293.846 206.048 294.406 206.384C294.966 206.72 295.596 206.888 296.296 206.888C296.847 206.888 297.36 206.767 297.836 206.524C298.312 206.281 298.69 205.941 298.97 205.502V206.706C298.97 207.21 298.853 207.635 298.62 207.98C298.387 208.325 298.079 208.587 297.696 208.764C297.313 208.941 296.893 209.03 296.436 209.03C295.839 209.03 295.349 208.899 294.966 208.638C294.583 208.377 294.317 208.069 294.168 207.714L293.202 208.232C293.454 208.773 293.865 209.217 294.434 209.562C295.013 209.907 295.689 210.08 296.464 210.08ZM296.352 205.838C295.848 205.838 295.395 205.717 294.994 205.474C294.602 205.222 294.289 204.891 294.056 204.48C293.832 204.06 293.72 203.603 293.72 203.108C293.72 202.604 293.832 202.147 294.056 201.736C294.289 201.325 294.607 200.999 295.008 200.756C295.409 200.504 295.857 200.378 296.352 200.378C296.837 200.378 297.276 200.504 297.668 200.756C298.06 200.999 298.373 201.33 298.606 201.75C298.849 202.161 298.97 202.613 298.97 203.108C298.97 203.603 298.849 204.06 298.606 204.48C298.373 204.891 298.06 205.222 297.668 205.474C297.276 205.717 296.837 205.838 296.352 205.838ZM99.078 231H100.128V226.38C100.128 225.764 100.291 225.288 100.618 224.952C100.945 224.616 101.379 224.448 101.92 224.448H102.578V223.398H102.102C101.645 223.398 101.248 223.477 100.912 223.636C100.585 223.795 100.324 224.019 100.128 224.308V223.496H99.078V231ZM107.524 231.168C108.038 231.168 108.504 231.084 108.924 230.916C109.354 230.739 109.722 230.51 110.03 230.23C110.338 229.941 110.567 229.628 110.716 229.292L109.82 228.816C109.587 229.208 109.284 229.535 108.91 229.796C108.537 230.057 108.075 230.188 107.524 230.188C107.076 230.188 106.656 230.081 106.264 229.866C105.872 229.651 105.55 229.353 105.298 228.97C105.056 228.578 104.925 228.111 104.906 227.57H110.814C110.833 227.449 110.847 227.332 110.856 227.22C110.866 227.099 110.87 226.991 110.87 226.898C110.87 226.45 110.791 226.016 110.632 225.596C110.474 225.167 110.245 224.784 109.946 224.448C109.648 224.103 109.284 223.832 108.854 223.636C108.434 223.431 107.954 223.328 107.412 223.328C106.731 223.328 106.115 223.496 105.564 223.832C105.023 224.168 104.594 224.63 104.276 225.218C103.959 225.797 103.8 226.464 103.8 227.22C103.8 227.976 103.964 228.653 104.29 229.25C104.617 229.847 105.06 230.319 105.62 230.664C106.19 231 106.824 231.168 107.524 231.168ZM107.412 224.308C107.832 224.308 108.215 224.406 108.56 224.602C108.915 224.798 109.195 225.069 109.4 225.414C109.615 225.75 109.727 226.142 109.736 226.59H104.934C104.99 226.123 105.135 225.722 105.368 225.386C105.611 225.041 105.91 224.775 106.264 224.588C106.619 224.401 107.002 224.308 107.412 224.308ZM116.578 234.08C117.268 234.08 117.88 233.931 118.412 233.632C118.953 233.343 119.373 232.941 119.672 232.428C119.98 231.924 120.134 231.35 120.134 230.706V223.496H119.084V224.63C118.785 224.229 118.402 223.911 117.936 223.678C117.469 223.445 116.96 223.328 116.41 223.328C115.7 223.328 115.066 223.496 114.506 223.832C113.955 224.168 113.516 224.621 113.19 225.19C112.872 225.759 112.714 226.399 112.714 227.108C112.714 227.808 112.872 228.447 113.19 229.026C113.516 229.595 113.96 230.048 114.52 230.384C115.08 230.72 115.71 230.888 116.41 230.888C116.96 230.888 117.474 230.767 117.95 230.524C118.426 230.281 118.804 229.941 119.084 229.502V230.706C119.084 231.21 118.967 231.635 118.734 231.98C118.5 232.325 118.192 232.587 117.81 232.764C117.427 232.941 117.007 233.03 116.55 233.03C115.952 233.03 115.462 232.899 115.08 232.638C114.697 232.377 114.431 232.069 114.282 231.714L113.316 232.232C113.568 232.773 113.978 233.217 114.548 233.562C115.126 233.907 115.803 234.08 116.578 234.08ZM116.466 229.838C115.962 229.838 115.509 229.717 115.108 229.474C114.716 229.222 114.403 228.891 114.17 228.48C113.946 228.06 113.834 227.603 113.834 227.108C113.834 226.604 113.946 226.147 114.17 225.736C114.403 225.325 114.72 224.999 115.122 224.756C115.523 224.504 115.971 224.378 116.466 224.378C116.951 224.378 117.39 224.504 117.782 224.756C118.174 224.999 118.486 225.33 118.72 225.75C118.962 226.161 119.084 226.613 119.084 227.108C119.084 227.603 118.962 228.06 118.72 228.48C118.486 228.891 118.174 229.222 117.782 229.474C117.39 229.717 116.951 229.838 116.466 229.838ZM125.251 231.168C125.718 231.168 126.138 231.07 126.511 230.874C126.885 230.678 127.183 230.412 127.407 230.076V231H128.457V223.496H127.407V227.962C127.407 228.634 127.221 229.161 126.847 229.544C126.483 229.927 126.012 230.118 125.433 230.118C124.864 230.118 124.397 229.936 124.033 229.572C123.669 229.199 123.487 228.709 123.487 228.102V223.496H122.437V228.228C122.437 228.807 122.559 229.32 122.801 229.768C123.053 230.207 123.394 230.552 123.823 230.804C124.253 231.047 124.729 231.168 125.251 231.168ZM130.917 231H131.967V220.402H130.917V231ZM136.586 231.168C137.165 231.168 137.687 231.051 138.154 230.818C138.621 230.585 138.975 230.286 139.218 229.922V231H140.268V225.848C140.268 225.353 140.147 224.919 139.904 224.546C139.671 224.163 139.339 223.865 138.91 223.65C138.49 223.435 138.005 223.328 137.454 223.328C137.034 223.328 136.628 223.407 136.236 223.566C135.844 223.715 135.494 223.921 135.186 224.182C134.887 224.443 134.668 224.733 134.528 225.05L135.48 225.568C135.648 225.204 135.905 224.91 136.25 224.686C136.595 224.453 136.997 224.336 137.454 224.336C137.977 224.336 138.401 224.476 138.728 224.756C139.055 225.036 139.218 225.4 139.218 225.848V226.24L136.502 226.688C135.671 226.828 135.065 227.113 134.682 227.542C134.299 227.971 134.108 228.475 134.108 229.054C134.108 229.465 134.215 229.829 134.43 230.146C134.645 230.463 134.939 230.715 135.312 230.902C135.685 231.079 136.11 231.168 136.586 231.168ZM135.228 229.012C135.228 228.667 135.345 228.368 135.578 228.116C135.821 227.864 136.213 227.691 136.754 227.598L139.218 227.192V227.752C139.218 228.209 139.111 228.625 138.896 228.998C138.681 229.371 138.383 229.67 138 229.894C137.617 230.109 137.169 230.216 136.656 230.216C136.236 230.216 135.891 230.099 135.62 229.866C135.359 229.633 135.228 229.348 135.228 229.012ZM145.461 231.084C145.545 231.084 145.657 231.079 145.797 231.07C145.937 231.061 146.063 231.042 146.175 231.014V230.062C146.1 230.071 146.012 230.081 145.909 230.09C145.806 230.099 145.718 230.104 145.643 230.104C145.176 230.104 144.854 229.983 144.677 229.74C144.5 229.497 144.411 229.189 144.411 228.816V224.546H146.063V223.496H144.411V221.76H143.361V222.39C143.361 222.707 143.268 222.973 143.081 223.188C142.894 223.393 142.642 223.496 142.325 223.496H141.975V224.546H143.361V228.816C143.361 229.544 143.543 230.104 143.907 230.496C144.271 230.888 144.789 231.084 145.461 231.084ZM148.319 222.11H149.369V220.57H148.319V222.11ZM148.319 231H149.369V223.496H148.319V231ZM155.332 231.168C156.032 231.168 156.667 231 157.236 230.664C157.815 230.328 158.277 229.866 158.622 229.278C158.967 228.681 159.14 227.999 159.14 227.234C159.14 226.478 158.972 225.806 158.636 225.218C158.309 224.63 157.857 224.168 157.278 223.832C156.709 223.496 156.06 223.328 155.332 223.328C154.604 223.328 153.951 223.501 153.372 223.846C152.803 224.182 152.35 224.644 152.014 225.232C151.678 225.82 151.51 226.487 151.51 227.234C151.51 227.99 151.678 228.667 152.014 229.264C152.359 229.852 152.821 230.319 153.4 230.664C153.979 231 154.623 231.168 155.332 231.168ZM155.332 230.118C154.828 230.118 154.371 229.992 153.96 229.74C153.559 229.488 153.237 229.143 152.994 228.704C152.751 228.265 152.63 227.775 152.63 227.234C152.63 226.693 152.751 226.207 152.994 225.778C153.237 225.349 153.559 225.008 153.96 224.756C154.371 224.504 154.828 224.378 155.332 224.378C155.836 224.378 156.289 224.504 156.69 224.756C157.101 225.008 157.423 225.349 157.656 225.778C157.899 226.207 158.02 226.693 158.02 227.234C158.02 227.775 157.899 228.265 157.656 228.704C157.423 229.143 157.101 229.488 156.69 229.74C156.289 229.992 155.836 230.118 155.332 230.118ZM161.292 231H162.342V226.534C162.342 225.862 162.528 225.335 162.902 224.952C163.275 224.569 163.746 224.378 164.316 224.378C164.894 224.378 165.361 224.569 165.716 224.952C166.08 225.325 166.262 225.853 166.262 226.534V231H167.312V226.128C167.312 225.596 167.186 225.12 166.934 224.7C166.691 224.271 166.355 223.935 165.926 223.692C165.506 223.449 165.03 223.328 164.498 223.328C164.031 223.328 163.611 223.426 163.238 223.622C162.864 223.818 162.566 224.084 162.342 224.42V223.496H161.292V231ZM173.948 231H174.998L176.804 225.064L178.596 231H179.646L182.222 223.496H181.046L179.128 229.39L177.322 223.496H176.272L174.48 229.39L172.562 223.496H171.372L173.948 231ZM183.752 231H184.802V226.534C184.802 225.862 184.989 225.335 185.362 224.952C185.745 224.569 186.216 224.378 186.776 224.378C187.336 224.378 187.798 224.569 188.162 224.952C188.536 225.325 188.722 225.853 188.722 226.534V231H189.772V226.128C189.772 225.596 189.646 225.12 189.394 224.7C189.152 224.271 188.816 223.935 188.386 223.692C187.966 223.449 187.49 223.328 186.958 223.328C186.492 223.328 186.072 223.426 185.698 223.622C185.325 223.818 185.026 224.084 184.802 224.42V220.402H183.752V231ZM192.078 222.11H193.128V220.57H192.078V222.11ZM192.078 231H193.128V223.496H192.078V231ZM199.007 231.168C199.473 231.168 199.912 231.084 200.323 230.916C200.733 230.748 201.097 230.519 201.415 230.23C201.732 229.941 201.97 229.614 202.129 229.25L201.177 228.732C200.981 229.152 200.691 229.488 200.309 229.74C199.935 229.992 199.501 230.118 199.007 230.118C198.512 230.118 198.064 229.992 197.663 229.74C197.271 229.488 196.958 229.147 196.725 228.718C196.501 228.279 196.389 227.789 196.389 227.248C196.389 226.697 196.501 226.207 196.725 225.778C196.958 225.339 197.271 224.999 197.663 224.756C198.064 224.504 198.512 224.378 199.007 224.378C199.501 224.378 199.94 224.504 200.323 224.756C200.705 225.008 200.99 225.335 201.177 225.736L202.129 225.246C201.97 224.873 201.732 224.546 201.415 224.266C201.097 223.977 200.733 223.748 200.323 223.58C199.912 223.412 199.473 223.328 199.007 223.328C198.269 223.328 197.621 223.501 197.061 223.846C196.501 224.182 196.062 224.644 195.745 225.232C195.427 225.82 195.269 226.487 195.269 227.234C195.269 227.981 195.427 228.653 195.745 229.25C196.062 229.838 196.501 230.305 197.061 230.65C197.621 230.995 198.269 231.168 199.007 231.168ZM204.271 231H205.321V226.534C205.321 225.862 205.508 225.335 205.881 224.952C206.264 224.569 206.735 224.378 207.295 224.378C207.855 224.378 208.317 224.569 208.681 224.952C209.055 225.325 209.241 225.853 209.241 226.534V231H210.291V226.128C210.291 225.596 210.165 225.12 209.913 224.7C209.671 224.271 209.335 223.935 208.905 223.692C208.485 223.449 208.009 223.328 207.477 223.328C207.011 223.328 206.591 223.426 206.217 223.622C205.844 223.818 205.545 224.084 205.321 224.42V220.402H204.271V231ZM215.276 231H216.326V226.534C216.326 225.862 216.508 225.335 216.872 224.952C217.236 224.569 217.688 224.378 218.23 224.378C218.771 224.378 219.219 224.569 219.574 224.952C219.928 225.325 220.106 225.853 220.106 226.534V231H221.156V226.534C221.156 225.862 221.338 225.335 221.702 224.952C222.066 224.569 222.518 224.378 223.06 224.378C223.601 224.378 224.049 224.569 224.404 224.952C224.758 225.325 224.936 225.853 224.936 226.534V231H225.986V226.128C225.986 225.596 225.855 225.12 225.594 224.7C225.342 224.271 225.001 223.935 224.572 223.692C224.152 223.449 223.69 223.328 223.186 223.328C222.682 223.328 222.215 223.449 221.786 223.692C221.366 223.935 221.044 224.289 220.82 224.756C220.586 224.327 220.255 223.981 219.826 223.72C219.396 223.459 218.925 223.328 218.412 223.328C217.982 223.328 217.581 223.426 217.208 223.622C216.844 223.809 216.55 224.075 216.326 224.42V223.496H215.276V231ZM228.29 222.11H229.34V220.57H228.29V222.11ZM228.29 231H229.34V223.496H228.29V231ZM235.346 234.08C236.036 234.08 236.648 233.931 237.18 233.632C237.721 233.343 238.141 232.941 238.44 232.428C238.748 231.924 238.902 231.35 238.902 230.706V223.496H237.852V224.63C237.553 224.229 237.17 223.911 236.704 223.678C236.237 223.445 235.728 223.328 235.178 223.328C234.468 223.328 233.834 223.496 233.274 223.832C232.723 224.168 232.284 224.621 231.958 225.19C231.64 225.759 231.482 226.399 231.482 227.108C231.482 227.808 231.64 228.447 231.958 229.026C232.284 229.595 232.728 230.048 233.288 230.384C233.848 230.72 234.478 230.888 235.178 230.888C235.728 230.888 236.242 230.767 236.718 230.524C237.194 230.281 237.572 229.941 237.852 229.502V230.706C237.852 231.21 237.735 231.635 237.502 231.98C237.268 232.325 236.96 232.587 236.578 232.764C236.195 232.941 235.775 233.03 235.318 233.03C234.72 233.03 234.23 232.899 233.848 232.638C233.465 232.377 233.199 232.069 233.05 231.714L232.084 232.232C232.336 232.773 232.746 233.217 233.316 233.562C233.894 233.907 234.571 234.08 235.346 234.08ZM235.234 229.838C234.73 229.838 234.277 229.717 233.876 229.474C233.484 229.222 233.171 228.891 232.938 228.48C232.714 228.06 232.602 227.603 232.602 227.108C232.602 226.604 232.714 226.147 232.938 225.736C233.171 225.325 233.488 224.999 233.89 224.756C234.291 224.504 234.739 224.378 235.234 224.378C235.719 224.378 236.158 224.504 236.55 224.756C236.942 224.999 237.254 225.33 237.488 225.75C237.73 226.161 237.852 226.613 237.852 227.108C237.852 227.603 237.73 228.06 237.488 228.48C237.254 228.891 236.942 229.222 236.55 229.474C236.158 229.717 235.719 229.838 235.234 229.838ZM241.359 231H242.409V226.534C242.409 225.862 242.596 225.335 242.969 224.952C243.352 224.569 243.823 224.378 244.383 224.378C244.943 224.378 245.405 224.569 245.769 224.952C246.143 225.325 246.329 225.853 246.329 226.534V231H247.379V226.128C247.379 225.596 247.253 225.12 247.001 224.7C246.759 224.271 246.423 223.935 245.993 223.692C245.573 223.449 245.097 223.328 244.565 223.328C244.099 223.328 243.679 223.426 243.305 223.622C242.932 223.818 242.633 224.084 242.409 224.42V220.402H241.359V231ZM252.555 231.084C252.639 231.084 252.751 231.079 252.891 231.07C253.031 231.061 253.157 231.042 253.269 231.014V230.062C253.194 230.071 253.105 230.081 253.003 230.09C252.9 230.099 252.811 230.104 252.737 230.104C252.27 230.104 251.948 229.983 251.771 229.74C251.593 229.497 251.505 229.189 251.505 228.816V224.546H253.157V223.496H251.505V221.76H250.455V222.39C250.455 222.707 250.361 222.973 250.175 223.188C249.988 223.393 249.736 223.496 249.419 223.496H249.069V224.546H250.455V228.816C250.455 229.544 250.637 230.104 251.001 230.496C251.365 230.888 251.883 231.084 252.555 231.084ZM261.521 231.168C261.988 231.168 262.427 231.084 262.837 230.916C263.248 230.748 263.612 230.519 263.929 230.23C264.247 229.941 264.485 229.614 264.643 229.25L263.691 228.732C263.495 229.152 263.206 229.488 262.823 229.74C262.45 229.992 262.016 230.118 261.521 230.118C261.027 230.118 260.579 229.992 260.177 229.74C259.785 229.488 259.473 229.147 259.239 228.718C259.015 228.279 258.903 227.789 258.903 227.248C258.903 226.697 259.015 226.207 259.239 225.778C259.473 225.339 259.785 224.999 260.177 224.756C260.579 224.504 261.027 224.378 261.521 224.378C262.016 224.378 262.455 224.504 262.837 224.756C263.22 225.008 263.505 225.335 263.691 225.736L264.643 225.246C264.485 224.873 264.247 224.546 263.929 224.266C263.612 223.977 263.248 223.748 262.837 223.58C262.427 223.412 261.988 223.328 261.521 223.328C260.784 223.328 260.135 223.501 259.575 223.846C259.015 224.182 258.577 224.644 258.259 225.232C257.942 225.82 257.783 226.487 257.783 227.234C257.783 227.981 257.942 228.653 258.259 229.25C258.577 229.838 259.015 230.305 259.575 230.65C260.135 230.995 260.784 231.168 261.521 231.168ZM268.819 231.168C269.398 231.168 269.92 231.051 270.387 230.818C270.854 230.585 271.208 230.286 271.451 229.922V231H272.501V225.848C272.501 225.353 272.38 224.919 272.137 224.546C271.904 224.163 271.572 223.865 271.143 223.65C270.723 223.435 270.238 223.328 269.687 223.328C269.267 223.328 268.861 223.407 268.469 223.566C268.077 223.715 267.727 223.921 267.419 224.182C267.12 224.443 266.901 224.733 266.761 225.05L267.713 225.568C267.881 225.204 268.138 224.91 268.483 224.686C268.828 224.453 269.23 224.336 269.687 224.336C270.21 224.336 270.634 224.476 270.961 224.756C271.288 225.036 271.451 225.4 271.451 225.848V226.24L268.735 226.688C267.904 226.828 267.298 227.113 266.915 227.542C266.532 227.971 266.341 228.475 266.341 229.054C266.341 229.465 266.448 229.829 266.663 230.146C266.878 230.463 267.172 230.715 267.545 230.902C267.918 231.079 268.343 231.168 268.819 231.168ZM267.461 229.012C267.461 228.667 267.578 228.368 267.811 228.116C268.054 227.864 268.446 227.691 268.987 227.598L271.451 227.192V227.752C271.451 228.209 271.344 228.625 271.129 228.998C270.914 229.371 270.616 229.67 270.233 229.894C269.85 230.109 269.402 230.216 268.889 230.216C268.469 230.216 268.124 230.099 267.853 229.866C267.592 229.633 267.461 229.348 267.461 229.012ZM277.621 231.168C278.087 231.168 278.507 231.07 278.881 230.874C279.254 230.678 279.553 230.412 279.777 230.076V231H280.827V223.496H279.777V227.962C279.777 228.634 279.59 229.161 279.217 229.544C278.853 229.927 278.381 230.118 277.803 230.118C277.233 230.118 276.767 229.936 276.403 229.572C276.039 229.199 275.857 228.709 275.857 228.102V223.496H274.807V228.228C274.807 228.807 274.928 229.32 275.171 229.768C275.423 230.207 275.763 230.552 276.193 230.804C276.622 231.047 277.098 231.168 277.621 231.168ZM285.89 231.168C286.413 231.168 286.875 231.079 287.276 230.902C287.678 230.715 287.99 230.459 288.214 230.132C288.448 229.805 288.564 229.437 288.564 229.026C288.564 228.522 288.392 228.083 288.046 227.71C287.71 227.337 287.239 227.061 286.632 226.884L285.386 226.52C285.256 226.483 285.102 226.427 284.924 226.352C284.756 226.277 284.607 226.165 284.476 226.016C284.346 225.867 284.28 225.666 284.28 225.414C284.28 225.087 284.406 224.817 284.658 224.602C284.91 224.387 285.246 224.28 285.666 224.28C286.096 224.28 286.483 224.401 286.828 224.644C287.183 224.877 287.454 225.204 287.64 225.624L288.536 225.204C288.322 224.616 287.953 224.159 287.43 223.832C286.917 223.496 286.343 223.328 285.708 223.328C285.242 223.328 284.817 223.417 284.434 223.594C284.052 223.771 283.748 224.023 283.524 224.35C283.3 224.677 283.188 225.059 283.188 225.498C283.188 225.965 283.342 226.375 283.65 226.73C283.958 227.085 284.458 227.36 285.148 227.556L286.226 227.864C286.376 227.901 286.548 227.962 286.744 228.046C286.94 228.13 287.113 228.251 287.262 228.41C287.412 228.559 287.486 228.765 287.486 229.026C287.486 229.381 287.332 229.67 287.024 229.894C286.716 230.109 286.338 230.216 285.89 230.216C285.424 230.216 284.994 230.081 284.602 229.81C284.22 229.539 283.921 229.175 283.706 228.718L282.824 229.138C283.067 229.763 283.459 230.258 284 230.622C284.542 230.986 285.172 231.168 285.89 231.168ZM294.125 231.168C294.639 231.168 295.105 231.084 295.525 230.916C295.955 230.739 296.323 230.51 296.631 230.23C296.939 229.941 297.168 229.628 297.317 229.292L296.421 228.816C296.188 229.208 295.885 229.535 295.511 229.796C295.138 230.057 294.676 230.188 294.125 230.188C293.677 230.188 293.257 230.081 292.865 229.866C292.473 229.651 292.151 229.353 291.899 228.97C291.657 228.578 291.526 228.111 291.507 227.57H297.415C297.434 227.449 297.448 227.332 297.457 227.22C297.467 227.099 297.471 226.991 297.471 226.898C297.471 226.45 297.392 226.016 297.233 225.596C297.075 225.167 296.846 224.784 296.547 224.448C296.249 224.103 295.885 223.832 295.455 223.636C295.035 223.431 294.555 223.328 294.013 223.328C293.332 223.328 292.716 223.496 292.165 223.832C291.624 224.168 291.195 224.63 290.877 225.218C290.56 225.797 290.401 226.464 290.401 227.22C290.401 227.976 290.565 228.653 290.891 229.25C291.218 229.847 291.661 230.319 292.221 230.664C292.791 231 293.425 231.168 294.125 231.168ZM294.013 224.308C294.433 224.308 294.816 224.406 295.161 224.602C295.516 224.798 295.796 225.069 296.001 225.414C296.216 225.75 296.328 226.142 296.337 226.59H291.535C291.591 226.123 291.736 225.722 291.969 225.386C292.212 225.041 292.511 224.775 292.865 224.588C293.22 224.401 293.603 224.308 294.013 224.308ZM99.078 255H100.128V244.402H99.078V255ZM105.993 255.168C106.507 255.168 106.973 255.084 107.393 254.916C107.823 254.739 108.191 254.51 108.499 254.23C108.807 253.941 109.036 253.628 109.185 253.292L108.289 252.816C108.056 253.208 107.753 253.535 107.379 253.796C107.006 254.057 106.544 254.188 105.993 254.188C105.545 254.188 105.125 254.081 104.733 253.866C104.341 253.651 104.019 253.353 103.767 252.97C103.525 252.578 103.394 252.111 103.375 251.57H109.283C109.302 251.449 109.316 251.332 109.325 251.22C109.335 251.099 109.339 250.991 109.339 250.898C109.339 250.45 109.26 250.016 109.101 249.596C108.943 249.167 108.714 248.784 108.415 248.448C108.117 248.103 107.753 247.832 107.323 247.636C106.903 247.431 106.423 247.328 105.881 247.328C105.2 247.328 104.584 247.496 104.033 247.832C103.492 248.168 103.063 248.63 102.745 249.218C102.428 249.797 102.269 250.464 102.269 251.22C102.269 251.976 102.433 252.653 102.759 253.25C103.086 253.847 103.529 254.319 104.089 254.664C104.659 255 105.293 255.168 105.993 255.168ZM105.881 248.308C106.301 248.308 106.684 248.406 107.029 248.602C107.384 248.798 107.664 249.069 107.869 249.414C108.084 249.75 108.196 250.142 108.205 250.59H103.403C103.459 250.123 103.604 249.722 103.837 249.386C104.08 249.041 104.379 248.775 104.733 248.588C105.088 248.401 105.471 248.308 105.881 248.308ZM115.047 258.08C115.737 258.08 116.349 257.931 116.881 257.632C117.422 257.343 117.842 256.941 118.141 256.428C118.449 255.924 118.603 255.35 118.603 254.706V247.496H117.553V248.63C117.254 248.229 116.871 247.911 116.405 247.678C115.938 247.445 115.429 247.328 114.879 247.328C114.169 247.328 113.535 247.496 112.975 247.832C112.424 248.168 111.985 248.621 111.659 249.19C111.341 249.759 111.183 250.399 111.183 251.108C111.183 251.808 111.341 252.447 111.659 253.026C111.985 253.595 112.429 254.048 112.989 254.384C113.549 254.72 114.179 254.888 114.879 254.888C115.429 254.888 115.943 254.767 116.419 254.524C116.895 254.281 117.273 253.941 117.553 253.502V254.706C117.553 255.21 117.436 255.635 117.203 255.98C116.969 256.325 116.661 256.587 116.279 256.764C115.896 256.941 115.476 257.03 115.019 257.03C114.421 257.03 113.931 256.899 113.549 256.638C113.166 256.377 112.9 256.069 112.751 255.714L111.785 256.232C112.037 256.773 112.447 257.217 113.017 257.562C113.595 257.907 114.272 258.08 115.047 258.08ZM114.935 253.838C114.431 253.838 113.978 253.717 113.577 253.474C113.185 253.222 112.872 252.891 112.639 252.48C112.415 252.06 112.303 251.603 112.303 251.108C112.303 250.604 112.415 250.147 112.639 249.736C112.872 249.325 113.189 248.999 113.591 248.756C113.992 248.504 114.44 248.378 114.935 248.378C115.42 248.378 115.859 248.504 116.251 248.756C116.643 248.999 116.955 249.33 117.189 249.75C117.431 250.161 117.553 250.613 117.553 251.108C117.553 251.603 117.431 252.06 117.189 252.48C116.955 252.891 116.643 253.222 116.251 253.474C115.859 253.717 115.42 253.838 114.935 253.838ZM123.23 255.168C123.809 255.168 124.331 255.051 124.798 254.818C125.265 254.585 125.619 254.286 125.862 253.922V255H126.912V249.848C126.912 249.353 126.791 248.919 126.548 248.546C126.315 248.163 125.983 247.865 125.554 247.65C125.134 247.435 124.649 247.328 124.098 247.328C123.678 247.328 123.272 247.407 122.88 247.566C122.488 247.715 122.138 247.921 121.83 248.182C121.531 248.443 121.312 248.733 121.172 249.05L122.124 249.568C122.292 249.204 122.549 248.91 122.894 248.686C123.239 248.453 123.641 248.336 124.098 248.336C124.621 248.336 125.045 248.476 125.372 248.756C125.699 249.036 125.862 249.4 125.862 249.848V250.24L123.146 250.688C122.315 250.828 121.709 251.113 121.326 251.542C120.943 251.971 120.752 252.475 120.752 253.054C120.752 253.465 120.859 253.829 121.074 254.146C121.289 254.463 121.583 254.715 121.956 254.902C122.329 255.079 122.754 255.168 123.23 255.168ZM121.872 253.012C121.872 252.667 121.989 252.368 122.222 252.116C122.465 251.864 122.857 251.691 123.398 251.598L125.862 251.192V251.752C125.862 252.209 125.755 252.625 125.54 252.998C125.325 253.371 125.027 253.67 124.644 253.894C124.261 254.109 123.813 254.216 123.3 254.216C122.88 254.216 122.535 254.099 122.264 253.866C122.003 253.633 121.872 253.348 121.872 253.012ZM129.372 255H130.422V244.402H129.372V255ZM138.21 255.168C138.677 255.168 139.097 255.07 139.47 254.874C139.843 254.678 140.142 254.412 140.366 254.076V255H141.416V247.496H140.366V251.962C140.366 252.634 140.179 253.161 139.806 253.544C139.442 253.927 138.971 254.118 138.392 254.118C137.823 254.118 137.356 253.936 136.992 253.572C136.628 253.199 136.446 252.709 136.446 252.102V247.496H135.396V252.228C135.396 252.807 135.517 253.32 135.76 253.768C136.012 254.207 136.353 254.552 136.782 254.804C137.211 255.047 137.687 255.168 138.21 255.168ZM143.875 255H144.925V250.534C144.925 249.862 145.112 249.335 145.485 248.952C145.859 248.569 146.33 248.378 146.899 248.378C147.478 248.378 147.945 248.569 148.299 248.952C148.663 249.325 148.845 249.853 148.845 250.534V255H149.895V250.128C149.895 249.596 149.769 249.12 149.517 248.7C149.275 248.271 148.939 247.935 148.509 247.692C148.089 247.449 147.613 247.328 147.081 247.328C146.615 247.328 146.195 247.426 145.821 247.622C145.448 247.818 145.149 248.084 144.925 248.42V247.496H143.875V255ZM155.631 255.168C156.097 255.168 156.536 255.084 156.947 254.916C157.357 254.748 157.721 254.519 158.039 254.23C158.356 253.941 158.594 253.614 158.753 253.25L157.801 252.732C157.605 253.152 157.315 253.488 156.933 253.74C156.559 253.992 156.125 254.118 155.631 254.118C155.136 254.118 154.688 253.992 154.287 253.74C153.895 253.488 153.582 253.147 153.349 252.718C153.125 252.279 153.013 251.789 153.013 251.248C153.013 250.697 153.125 250.207 153.349 249.778C153.582 249.339 153.895 248.999 154.287 248.756C154.688 248.504 155.136 248.378 155.631 248.378C156.125 248.378 156.564 248.504 156.947 248.756C157.329 249.008 157.614 249.335 157.801 249.736L158.753 249.246C158.594 248.873 158.356 248.546 158.039 248.266C157.721 247.977 157.357 247.748 156.947 247.58C156.536 247.412 156.097 247.328 155.631 247.328C154.893 247.328 154.245 247.501 153.685 247.846C153.125 248.182 152.686 248.644 152.369 249.232C152.051 249.82 151.893 250.487 151.893 251.234C151.893 251.981 152.051 252.653 152.369 253.25C152.686 253.838 153.125 254.305 153.685 254.65C154.245 254.995 154.893 255.168 155.631 255.168ZM164.311 255.168C164.825 255.168 165.291 255.084 165.711 254.916C166.141 254.739 166.509 254.51 166.817 254.23C167.125 253.941 167.354 253.628 167.503 253.292L166.607 252.816C166.374 253.208 166.071 253.535 165.697 253.796C165.324 254.057 164.862 254.188 164.311 254.188C163.863 254.188 163.443 254.081 163.051 253.866C162.659 253.651 162.337 253.353 162.085 252.97C161.843 252.578 161.712 252.111 161.693 251.57H167.601C167.62 251.449 167.634 251.332 167.643 251.22C167.653 251.099 167.657 250.991 167.657 250.898C167.657 250.45 167.578 250.016 167.419 249.596C167.261 249.167 167.032 248.784 166.733 248.448C166.435 248.103 166.071 247.832 165.641 247.636C165.221 247.431 164.741 247.328 164.199 247.328C163.518 247.328 162.902 247.496 162.351 247.832C161.81 248.168 161.381 248.63 161.063 249.218C160.746 249.797 160.587 250.464 160.587 251.22C160.587 251.976 160.751 252.653 161.077 253.25C161.404 253.847 161.847 254.319 162.407 254.664C162.977 255 163.611 255.168 164.311 255.168ZM164.199 248.308C164.619 248.308 165.002 248.406 165.347 248.602C165.702 248.798 165.982 249.069 166.187 249.414C166.402 249.75 166.514 250.142 166.523 250.59H161.721C161.777 250.123 161.922 249.722 162.155 249.386C162.398 249.041 162.697 248.775 163.051 248.588C163.406 248.401 163.789 248.308 164.199 248.308ZM169.808 255H170.858V250.38C170.858 249.764 171.022 249.288 171.348 248.952C171.675 248.616 172.109 248.448 172.65 248.448H173.308V247.398H172.832C172.375 247.398 171.978 247.477 171.642 247.636C171.316 247.795 171.054 248.019 170.858 248.308V247.496H169.808V255ZM177.709 255.084C177.793 255.084 177.905 255.079 178.045 255.07C178.185 255.061 178.311 255.042 178.423 255.014V254.062C178.348 254.071 178.26 254.081 178.157 254.09C178.054 254.099 177.966 254.104 177.891 254.104C177.424 254.104 177.102 253.983 176.925 253.74C176.748 253.497 176.659 253.189 176.659 252.816V248.546H178.311V247.496H176.659V245.76H175.609V246.39C175.609 246.707 175.516 246.973 175.329 247.188C175.142 247.393 174.89 247.496 174.573 247.496H174.223V248.546H175.609V252.816C175.609 253.544 175.791 254.104 176.155 254.496C176.519 254.888 177.037 255.084 177.709 255.084ZM182.6 255.168C183.179 255.168 183.701 255.051 184.168 254.818C184.635 254.585 184.989 254.286 185.232 253.922V255H186.282V249.848C186.282 249.353 186.161 248.919 185.918 248.546C185.685 248.163 185.353 247.865 184.924 247.65C184.504 247.435 184.019 247.328 183.468 247.328C183.048 247.328 182.642 247.407 182.25 247.566C181.858 247.715 181.508 247.921 181.2 248.182C180.901 248.443 180.682 248.733 180.542 249.05L181.494 249.568C181.662 249.204 181.919 248.91 182.264 248.686C182.609 248.453 183.011 248.336 183.468 248.336C183.991 248.336 184.415 248.476 184.742 248.756C185.069 249.036 185.232 249.4 185.232 249.848V250.24L182.516 250.688C181.685 250.828 181.079 251.113 180.696 251.542C180.313 251.971 180.122 252.475 180.122 253.054C180.122 253.465 180.229 253.829 180.444 254.146C180.659 254.463 180.953 254.715 181.326 254.902C181.699 255.079 182.124 255.168 182.6 255.168ZM181.242 253.012C181.242 252.667 181.359 252.368 181.592 252.116C181.835 251.864 182.227 251.691 182.768 251.598L185.232 251.192V251.752C185.232 252.209 185.125 252.625 184.91 252.998C184.695 253.371 184.397 253.67 184.014 253.894C183.631 254.109 183.183 254.216 182.67 254.216C182.25 254.216 181.905 254.099 181.634 253.866C181.373 253.633 181.242 253.348 181.242 253.012ZM188.742 246.11H189.792V244.57H188.742V246.11ZM188.742 255H189.792V247.496H188.742V255ZM192.241 255H193.291V250.534C193.291 249.862 193.478 249.335 193.851 248.952C194.224 248.569 194.696 248.378 195.265 248.378C195.844 248.378 196.31 248.569 196.665 248.952C197.029 249.325 197.211 249.853 197.211 250.534V255H198.261V250.128C198.261 249.596 198.135 249.12 197.883 248.7C197.64 248.271 197.304 247.935 196.875 247.692C196.455 247.449 195.979 247.328 195.447 247.328C194.98 247.328 194.56 247.426 194.187 247.622C193.814 247.818 193.515 248.084 193.291 248.42V247.496H192.241V255ZM203.436 255.084C203.52 255.084 203.632 255.079 203.772 255.07C203.912 255.061 204.038 255.042 204.15 255.014V254.062C204.076 254.071 203.987 254.081 203.884 254.09C203.782 254.099 203.693 254.104 203.618 254.104C203.152 254.104 202.83 253.983 202.652 253.74C202.475 253.497 202.386 253.189 202.386 252.816V248.546H204.038V247.496H202.386V245.76H201.336V246.39C201.336 246.707 201.243 246.973 201.056 247.188C200.87 247.393 200.618 247.496 200.3 247.496H199.95V248.546H201.336V252.816C201.336 253.544 201.518 254.104 201.882 254.496C202.246 254.888 202.764 255.084 203.436 255.084ZM206.448 258.08C206.943 258.08 207.363 257.977 207.708 257.772C208.053 257.576 208.338 257.315 208.562 256.988C208.795 256.661 208.987 256.316 209.136 255.952L212.566 247.482H211.404L208.954 253.684L206.504 247.482H205.37L208.366 255L208.1 255.644C207.867 256.185 207.629 256.549 207.386 256.736C207.143 256.932 206.793 257.03 206.336 257.03C206.187 257.03 206.037 257.016 205.888 256.988C205.748 256.969 205.631 256.955 205.538 256.946V257.926C205.687 257.982 205.837 258.019 205.986 258.038C206.145 258.066 206.299 258.08 206.448 258.08ZM218.949 255.168C219.527 255.168 220.05 255.051 220.517 254.818C220.983 254.585 221.338 254.286 221.581 253.922V255H222.631V249.848C222.631 249.353 222.509 248.919 222.267 248.546C222.033 248.163 221.702 247.865 221.273 247.65C220.853 247.435 220.367 247.328 219.817 247.328C219.397 247.328 218.991 247.407 218.599 247.566C218.207 247.715 217.857 247.921 217.549 248.182C217.25 248.443 217.031 248.733 216.891 249.05L217.843 249.568C218.011 249.204 218.267 248.91 218.613 248.686C218.958 248.453 219.359 248.336 219.817 248.336C220.339 248.336 220.764 248.476 221.091 248.756C221.417 249.036 221.581 249.4 221.581 249.848V250.24L218.865 250.688C218.034 250.828 217.427 251.113 217.045 251.542C216.662 251.971 216.471 252.475 216.471 253.054C216.471 253.465 216.578 253.829 216.793 254.146C217.007 254.463 217.301 254.715 217.675 254.902C218.048 255.079 218.473 255.168 218.949 255.168ZM217.591 253.012C217.591 252.667 217.707 252.368 217.941 252.116C218.183 251.864 218.575 251.691 219.117 251.598L221.581 251.192V251.752C221.581 252.209 221.473 252.625 221.259 252.998C221.044 253.371 220.745 253.67 220.363 253.894C219.98 254.109 219.532 254.216 219.019 254.216C218.599 254.216 218.253 254.099 217.983 253.866C217.721 253.633 217.591 253.348 217.591 253.012ZM225.09 255H226.14V250.534C226.14 249.862 226.327 249.335 226.7 248.952C227.074 248.569 227.545 248.378 228.114 248.378C228.693 248.378 229.16 248.569 229.514 248.952C229.878 249.325 230.06 249.853 230.06 250.534V255H231.11V250.128C231.11 249.596 230.984 249.12 230.732 248.7C230.49 248.271 230.154 247.935 229.724 247.692C229.304 247.449 228.828 247.328 228.296 247.328C227.83 247.328 227.41 247.426 227.036 247.622C226.663 247.818 226.364 248.084 226.14 248.42V247.496H225.09V255ZM236.804 255.168C237.383 255.168 237.915 255.047 238.4 254.804C238.885 254.561 239.268 254.221 239.548 253.782V255H240.598V244.402H239.548V248.63C239.24 248.229 238.853 247.911 238.386 247.678C237.919 247.445 237.392 247.328 236.804 247.328C236.095 247.328 235.46 247.501 234.9 247.846C234.349 248.182 233.911 248.644 233.584 249.232C233.267 249.82 233.108 250.492 233.108 251.248C233.108 251.995 233.267 252.667 233.584 253.264C233.911 253.852 234.354 254.319 234.914 254.664C235.474 255 236.104 255.168 236.804 255.168ZM236.86 254.118C236.356 254.118 235.903 253.992 235.502 253.74C235.11 253.488 234.797 253.147 234.564 252.718C234.34 252.279 234.228 251.789 234.228 251.248C234.228 250.697 234.34 250.207 234.564 249.778C234.797 249.349 235.115 249.008 235.516 248.756C235.917 248.504 236.365 248.378 236.86 248.378C237.364 248.378 237.817 248.504 238.218 248.756C238.629 249.008 238.951 249.353 239.184 249.792C239.427 250.221 239.548 250.707 239.548 251.248C239.548 251.789 239.427 252.279 239.184 252.718C238.951 253.147 238.629 253.488 238.218 253.74C237.817 253.992 237.364 254.118 236.86 254.118ZM249.527 255.168C250.236 255.168 250.866 255 251.417 254.664C251.977 254.319 252.415 253.852 252.733 253.264C253.059 252.667 253.223 251.995 253.223 251.248C253.223 250.492 253.059 249.82 252.733 249.232C252.415 248.644 251.977 248.182 251.417 247.846C250.866 247.501 250.236 247.328 249.527 247.328C248.939 247.328 248.411 247.445 247.945 247.678C247.478 247.911 247.091 248.229 246.783 248.63V244.402H245.733V255H246.783V253.782C247.063 254.221 247.445 254.561 247.931 254.804C248.416 255.047 248.948 255.168 249.527 255.168ZM249.471 254.118C248.967 254.118 248.509 253.992 248.099 253.74C247.697 253.488 247.375 253.147 247.133 252.718C246.899 252.279 246.783 251.789 246.783 251.248C246.783 250.707 246.899 250.221 247.133 249.792C247.375 249.353 247.697 249.008 248.099 248.756C248.509 248.504 248.967 248.378 249.471 248.378C249.975 248.378 250.423 248.504 250.815 248.756C251.216 249.008 251.529 249.349 251.753 249.778C251.986 250.207 252.103 250.697 252.103 251.248C252.103 251.789 251.986 252.279 251.753 252.718C251.529 253.147 251.216 253.488 250.815 253.74C250.423 253.992 249.975 254.118 249.471 254.118ZM258.031 255.168C258.497 255.168 258.917 255.07 259.291 254.874C259.664 254.678 259.963 254.412 260.187 254.076V255H261.237V247.496H260.187V251.962C260.187 252.634 260 253.161 259.627 253.544C259.263 253.927 258.791 254.118 258.213 254.118C257.643 254.118 257.177 253.936 256.813 253.572C256.449 253.199 256.267 252.709 256.267 252.102V247.496H255.217V252.228C255.217 252.807 255.338 253.32 255.581 253.768C255.833 254.207 256.173 254.552 256.603 254.804C257.032 255.047 257.508 255.168 258.031 255.168ZM266.3 255.168C266.823 255.168 267.285 255.079 267.686 254.902C268.087 254.715 268.4 254.459 268.624 254.132C268.857 253.805 268.974 253.437 268.974 253.026C268.974 252.522 268.801 252.083 268.456 251.71C268.12 251.337 267.649 251.061 267.042 250.884L265.796 250.52C265.665 250.483 265.511 250.427 265.334 250.352C265.166 250.277 265.017 250.165 264.886 250.016C264.755 249.867 264.69 249.666 264.69 249.414C264.69 249.087 264.816 248.817 265.068 248.602C265.32 248.387 265.656 248.28 266.076 248.28C266.505 248.28 266.893 248.401 267.238 248.644C267.593 248.877 267.863 249.204 268.05 249.624L268.946 249.204C268.731 248.616 268.363 248.159 267.84 247.832C267.327 247.496 266.753 247.328 266.118 247.328C265.651 247.328 265.227 247.417 264.844 247.594C264.461 247.771 264.158 248.023 263.934 248.35C263.71 248.677 263.598 249.059 263.598 249.498C263.598 249.965 263.752 250.375 264.06 250.73C264.368 251.085 264.867 251.36 265.558 251.556L266.636 251.864C266.785 251.901 266.958 251.962 267.154 252.046C267.35 252.13 267.523 252.251 267.672 252.41C267.821 252.559 267.896 252.765 267.896 253.026C267.896 253.381 267.742 253.67 267.434 253.894C267.126 254.109 266.748 254.216 266.3 254.216C265.833 254.216 265.404 254.081 265.012 253.81C264.629 253.539 264.331 253.175 264.116 252.718L263.234 253.138C263.477 253.763 263.869 254.258 264.41 254.622C264.951 254.986 265.581 255.168 266.3 255.168ZM271.119 246.11H272.169V244.57H271.119V246.11ZM271.119 255H272.169V247.496H271.119V255ZM274.618 255H275.668V250.534C275.668 249.862 275.855 249.335 276.228 248.952C276.602 248.569 277.073 248.378 277.642 248.378C278.221 248.378 278.688 248.569 279.042 248.952C279.406 249.325 279.588 249.853 279.588 250.534V255H280.638V250.128C280.638 249.596 280.512 249.12 280.26 248.7C280.018 248.271 279.682 247.935 279.252 247.692C278.832 247.449 278.356 247.328 277.824 247.328C277.358 247.328 276.938 247.426 276.564 247.622C276.191 247.818 275.892 248.084 275.668 248.42V247.496H274.618V255ZM286.36 255.168C286.873 255.168 287.34 255.084 287.76 254.916C288.189 254.739 288.558 254.51 288.866 254.23C289.174 253.941 289.402 253.628 289.552 253.292L288.656 252.816C288.422 253.208 288.119 253.535 287.746 253.796C287.372 254.057 286.91 254.188 286.36 254.188C285.912 254.188 285.492 254.081 285.1 253.866C284.708 253.651 284.386 253.353 284.134 252.97C283.891 252.578 283.76 252.111 283.742 251.57H289.65C289.668 251.449 289.682 251.332 289.692 251.22C289.701 251.099 289.706 250.991 289.706 250.898C289.706 250.45 289.626 250.016 289.468 249.596C289.309 249.167 289.08 248.784 288.782 248.448C288.483 248.103 288.119 247.832 287.69 247.636C287.27 247.431 286.789 247.328 286.248 247.328C285.566 247.328 284.95 247.496 284.4 247.832C283.858 248.168 283.429 248.63 283.112 249.218C282.794 249.797 282.636 250.464 282.636 251.22C282.636 251.976 282.799 252.653 283.126 253.25C283.452 253.847 283.896 254.319 284.456 254.664C285.025 255 285.66 255.168 286.36 255.168ZM286.248 248.308C286.668 248.308 287.05 248.406 287.396 248.602C287.75 248.798 288.03 249.069 288.236 249.414C288.45 249.75 288.562 250.142 288.572 250.59H283.77C283.826 250.123 283.97 249.722 284.204 249.386C284.446 249.041 284.745 248.775 285.1 248.588C285.454 248.401 285.837 248.308 286.248 248.308ZM294.461 255.168C294.984 255.168 295.446 255.079 295.847 254.902C296.248 254.715 296.561 254.459 296.785 254.132C297.018 253.805 297.135 253.437 297.135 253.026C297.135 252.522 296.962 252.083 296.617 251.71C296.281 251.337 295.81 251.061 295.203 250.884L293.957 250.52C293.826 250.483 293.672 250.427 293.495 250.352C293.327 250.277 293.178 250.165 293.047 250.016C292.916 249.867 292.851 249.666 292.851 249.414C292.851 249.087 292.977 248.817 293.229 248.602C293.481 248.387 293.817 248.28 294.237 248.28C294.666 248.28 295.054 248.401 295.399 248.644C295.754 248.877 296.024 249.204 296.211 249.624L297.107 249.204C296.892 248.616 296.524 248.159 296.001 247.832C295.488 247.496 294.914 247.328 294.279 247.328C293.812 247.328 293.388 247.417 293.005 247.594C292.622 247.771 292.319 248.023 292.095 248.35C291.871 248.677 291.759 249.059 291.759 249.498C291.759 249.965 291.913 250.375 292.221 250.73C292.529 251.085 293.028 251.36 293.719 251.556L294.797 251.864C294.946 251.901 295.119 251.962 295.315 252.046C295.511 252.13 295.684 252.251 295.833 252.41C295.982 252.559 296.057 252.765 296.057 253.026C296.057 253.381 295.903 253.67 295.595 253.894C295.287 254.109 294.909 254.216 294.461 254.216C293.994 254.216 293.565 254.081 293.173 253.81C292.79 253.539 292.492 253.175 292.277 252.718L291.395 253.138C291.638 253.763 292.03 254.258 292.571 254.622C293.112 254.986 293.742 255.168 294.461 255.168ZM301.884 255.168C302.407 255.168 302.869 255.079 303.27 254.902C303.671 254.715 303.984 254.459 304.208 254.132C304.441 253.805 304.558 253.437 304.558 253.026C304.558 252.522 304.385 252.083 304.04 251.71C303.704 251.337 303.233 251.061 302.626 250.884L301.38 250.52C301.249 250.483 301.095 250.427 300.918 250.352C300.75 250.277 300.601 250.165 300.47 250.016C300.339 249.867 300.274 249.666 300.274 249.414C300.274 249.087 300.4 248.817 300.652 248.602C300.904 248.387 301.24 248.28 301.66 248.28C302.089 248.28 302.477 248.401 302.822 248.644C303.177 248.877 303.447 249.204 303.634 249.624L304.53 249.204C304.315 248.616 303.947 248.159 303.424 247.832C302.911 247.496 302.337 247.328 301.702 247.328C301.235 247.328 300.811 247.417 300.428 247.594C300.045 247.771 299.742 248.023 299.518 248.35C299.294 248.677 299.182 249.059 299.182 249.498C299.182 249.965 299.336 250.375 299.644 250.73C299.952 251.085 300.451 251.36 301.142 251.556L302.22 251.864C302.369 251.901 302.542 251.962 302.738 252.046C302.934 252.13 303.107 252.251 303.256 252.41C303.405 252.559 303.48 252.765 303.48 253.026C303.48 253.381 303.326 253.67 303.018 253.894C302.71 254.109 302.332 254.216 301.884 254.216C301.417 254.216 300.988 254.081 300.596 253.81C300.213 253.539 299.915 253.175 299.7 252.718L298.818 253.138C299.061 253.763 299.453 254.258 299.994 254.622C300.535 254.986 301.165 255.168 301.884 255.168ZM101.738 279.168C102.205 279.168 102.625 279.07 102.998 278.874C103.371 278.678 103.67 278.412 103.894 278.076V279H104.944V271.496H103.894V275.962C103.894 276.634 103.707 277.161 103.334 277.544C102.97 277.927 102.499 278.118 101.92 278.118C101.351 278.118 100.884 277.936 100.52 277.572C100.156 277.199 99.974 276.709 99.974 276.102V271.496H98.924V276.228C98.924 276.807 99.0453 277.32 99.288 277.768C99.54 278.207 99.8807 278.552 100.31 278.804C100.739 279.047 101.215 279.168 101.738 279.168ZM107.403 279H108.453V274.534C108.453 273.862 108.64 273.335 109.013 272.952C109.387 272.569 109.858 272.378 110.427 272.378C111.006 272.378 111.473 272.569 111.827 272.952C112.191 273.325 112.373 273.853 112.373 274.534V279H113.423V274.128C113.423 273.596 113.297 273.12 113.045 272.7C112.803 272.271 112.467 271.935 112.037 271.692C111.617 271.449 111.141 271.328 110.609 271.328C110.143 271.328 109.723 271.426 109.349 271.622C108.976 271.818 108.677 272.084 108.453 272.42V271.496H107.403V279ZM119.159 279.168C119.625 279.168 120.064 279.084 120.475 278.916C120.885 278.748 121.249 278.519 121.567 278.23C121.884 277.941 122.122 277.614 122.281 277.25L121.329 276.732C121.133 277.152 120.843 277.488 120.461 277.74C120.087 277.992 119.653 278.118 119.159 278.118C118.664 278.118 118.216 277.992 117.815 277.74C117.423 277.488 117.11 277.147 116.877 276.718C116.653 276.279 116.541 275.789 116.541 275.248C116.541 274.697 116.653 274.207 116.877 273.778C117.11 273.339 117.423 272.999 117.815 272.756C118.216 272.504 118.664 272.378 119.159 272.378C119.653 272.378 120.092 272.504 120.475 272.756C120.857 273.008 121.142 273.335 121.329 273.736L122.281 273.246C122.122 272.873 121.884 272.546 121.567 272.266C121.249 271.977 120.885 271.748 120.475 271.58C120.064 271.412 119.625 271.328 119.159 271.328C118.421 271.328 117.773 271.501 117.213 271.846C116.653 272.182 116.214 272.644 115.897 273.232C115.579 273.82 115.421 274.487 115.421 275.234C115.421 275.981 115.579 276.653 115.897 277.25C116.214 277.838 116.653 278.305 117.213 278.65C117.773 278.995 118.421 279.168 119.159 279.168ZM127.839 279.168C128.353 279.168 128.819 279.084 129.239 278.916C129.669 278.739 130.037 278.51 130.345 278.23C130.653 277.941 130.882 277.628 131.031 277.292L130.135 276.816C129.902 277.208 129.599 277.535 129.225 277.796C128.852 278.057 128.39 278.188 127.839 278.188C127.391 278.188 126.971 278.081 126.579 277.866C126.187 277.651 125.865 277.353 125.613 276.97C125.371 276.578 125.24 276.111 125.221 275.57H131.129C131.148 275.449 131.162 275.332 131.171 275.22C131.181 275.099 131.185 274.991 131.185 274.898C131.185 274.45 131.106 274.016 130.947 273.596C130.789 273.167 130.56 272.784 130.261 272.448C129.963 272.103 129.599 271.832 129.169 271.636C128.749 271.431 128.269 271.328 127.727 271.328C127.046 271.328 126.43 271.496 125.879 271.832C125.338 272.168 124.909 272.63 124.591 273.218C124.274 273.797 124.115 274.464 124.115 275.22C124.115 275.976 124.279 276.653 124.605 277.25C124.932 277.847 125.375 278.319 125.935 278.664C126.505 279 127.139 279.168 127.839 279.168ZM127.727 272.308C128.147 272.308 128.53 272.406 128.875 272.602C129.23 272.798 129.51 273.069 129.715 273.414C129.93 273.75 130.042 274.142 130.051 274.59H125.249C125.305 274.123 125.45 273.722 125.683 273.386C125.926 273.041 126.225 272.775 126.579 272.588C126.934 272.401 127.317 272.308 127.727 272.308ZM133.337 279H134.387V274.38C134.387 273.764 134.55 273.288 134.877 272.952C135.203 272.616 135.637 272.448 136.179 272.448H136.837V271.398H136.361C135.903 271.398 135.507 271.477 135.171 271.636C134.844 271.795 134.583 272.019 134.387 272.308V271.496H133.337V279ZM141.237 279.084C141.321 279.084 141.433 279.079 141.573 279.07C141.713 279.061 141.839 279.042 141.951 279.014V278.062C141.876 278.071 141.788 278.081 141.685 278.09C141.582 278.099 141.494 278.104 141.419 278.104C140.952 278.104 140.63 277.983 140.453 277.74C140.276 277.497 140.187 277.189 140.187 276.816V272.546H141.839V271.496H140.187V269.76H139.137V270.39C139.137 270.707 139.044 270.973 138.857 271.188C138.67 271.393 138.418 271.496 138.101 271.496H137.751V272.546H139.137V276.816C139.137 277.544 139.319 278.104 139.683 278.496C140.047 278.888 140.565 279.084 141.237 279.084ZM146.128 279.168C146.707 279.168 147.229 279.051 147.696 278.818C148.163 278.585 148.517 278.286 148.76 277.922V279H149.81V273.848C149.81 273.353 149.689 272.919 149.446 272.546C149.213 272.163 148.881 271.865 148.452 271.65C148.032 271.435 147.547 271.328 146.996 271.328C146.576 271.328 146.17 271.407 145.778 271.566C145.386 271.715 145.036 271.921 144.728 272.182C144.429 272.443 144.21 272.733 144.07 273.05L145.022 273.568C145.19 273.204 145.447 272.91 145.792 272.686C146.137 272.453 146.539 272.336 146.996 272.336C147.519 272.336 147.943 272.476 148.27 272.756C148.597 273.036 148.76 273.4 148.76 273.848V274.24L146.044 274.688C145.213 274.828 144.607 275.113 144.224 275.542C143.841 275.971 143.65 276.475 143.65 277.054C143.65 277.465 143.757 277.829 143.972 278.146C144.187 278.463 144.481 278.715 144.854 278.902C145.227 279.079 145.652 279.168 146.128 279.168ZM144.77 277.012C144.77 276.667 144.887 276.368 145.12 276.116C145.363 275.864 145.755 275.691 146.296 275.598L148.76 275.192V275.752C148.76 276.209 148.653 276.625 148.438 276.998C148.223 277.371 147.925 277.67 147.542 277.894C147.159 278.109 146.711 278.216 146.198 278.216C145.778 278.216 145.433 278.099 145.162 277.866C144.901 277.633 144.77 277.348 144.77 277.012ZM152.27 270.11H153.32V268.57H152.27V270.11ZM152.27 279H153.32V271.496H152.27V279ZM155.769 279H156.819V274.534C156.819 273.862 157.006 273.335 157.379 272.952C157.752 272.569 158.224 272.378 158.793 272.378C159.372 272.378 159.838 272.569 160.193 272.952C160.557 273.325 160.739 273.853 160.739 274.534V279H161.789V274.128C161.789 273.596 161.663 273.12 161.411 272.7C161.168 272.271 160.832 271.935 160.403 271.692C159.983 271.449 159.507 271.328 158.975 271.328C158.508 271.328 158.088 271.426 157.715 271.622C157.342 271.818 157.043 272.084 156.819 272.42V271.496H155.769V279ZM166.964 279.084C167.048 279.084 167.16 279.079 167.3 279.07C167.44 279.061 167.566 279.042 167.678 279.014V278.062C167.604 278.071 167.515 278.081 167.412 278.09C167.31 278.099 167.221 278.104 167.146 278.104C166.68 278.104 166.358 277.983 166.18 277.74C166.003 277.497 165.914 277.189 165.914 276.816V272.546H167.566V271.496H165.914V269.76H164.864V270.39C164.864 270.707 164.771 270.973 164.584 271.188C164.398 271.393 164.146 271.496 163.828 271.496H163.478V272.546H164.864V276.816C164.864 277.544 165.046 278.104 165.41 278.496C165.774 278.888 166.292 279.084 166.964 279.084ZM169.976 282.08C170.471 282.08 170.891 281.977 171.236 281.772C171.581 281.576 171.866 281.315 172.09 280.988C172.323 280.661 172.515 280.316 172.664 279.952L176.094 271.482H174.932L172.482 277.684L170.032 271.482H168.898L171.894 279L171.628 279.644C171.395 280.185 171.157 280.549 170.914 280.736C170.671 280.932 170.321 281.03 169.864 281.03C169.715 281.03 169.565 281.016 169.416 280.988C169.276 280.969 169.159 280.955 169.066 280.946V281.926C169.215 281.982 169.365 282.019 169.514 282.038C169.673 282.066 169.827 282.08 169.976 282.08ZM177.431 279H178.551V277.46H177.431V279Z" fill="#8B8C8C"/>
</g>
</g>
<defs>
<filter id="filter0_d" x="0" y="0" width="400" height="401" filterUnits="userSpaceOnUse" color-interpolation-filters="sRGB">
<feFlood flood-opacity="0" result="BackgroundImageFix"/>
<feColorMatrix in="SourceAlpha" type="matrix" values="0 0 0 0 0 0 0 0 0 0 0 0 0 0 0 0 0 0 127 0" result="hardAlpha"/>
<feMorphology radius="16" operator="dilate" in="SourceAlpha" result="effect1_dropShadow"/>
<feOffset dy="18"/>
<feGaussianBlur stdDeviation="29"/>
<feColorMatrix type="matrix" values="0 0 0 0 0 0 0 0 0 0 0 0 0 0 0 0 0 0 0.06 0"/>
<feBlend mode="normal" in2="BackgroundImageFix" result="effect1_dropShadow"/>
<feBlend mode="normal" in="SourceGraphic" in2="effect1_dropShadow" result="shape"/>
</filter>
<clipPath id="clip0">
<rect x="74" y="56" width="252" height="253" rx="8" fill="white"/>
</clipPath>
</defs>
</svg>
