<svg width="407" height="403" viewBox="0 0 407 403" fill="none" xmlns="http://www.w3.org/2000/svg">
<g filter="url(#filter0_d)">
<rect x="74" y="56" width="259" height="255" rx="8" fill="#FCFCFC"/>
<path d="M107.25 105.437C106.183 105.437 105.14 105.121 104.252 104.528C103.365 103.935 102.673 103.093 102.265 102.107C101.856 101.121 101.75 100.036 101.958 98.989C102.166 97.9423 102.68 96.9808 103.435 96.2262C104.189 95.4716 105.151 94.9577 106.197 94.7495C107.244 94.5413 108.329 94.6482 109.315 95.0565C110.301 95.4649 111.144 96.1565 111.736 97.0439C112.329 97.9312 112.646 98.9745 112.646 100.042C112.644 101.472 112.075 102.844 111.063 103.855C110.052 104.867 108.68 105.436 107.25 105.437Z" fill="#0388A9"/>
<path d="M111.32 103.544C110.821 104.137 110.198 104.614 109.495 104.941C108.791 105.268 108.025 105.437 107.25 105.437C106.475 105.437 105.708 105.268 105.005 104.941C104.302 104.614 103.679 104.137 103.18 103.544C102.07 104.232 101.153 105.192 100.517 106.332C99.8801 107.473 99.5446 108.756 99.5416 110.062C99.5416 110.471 99.7041 110.863 99.9932 111.153C100.282 111.442 100.674 111.604 101.083 111.604H113.417C113.826 111.604 114.218 111.442 114.507 111.153C114.796 110.863 114.958 110.471 114.958 110.062C114.955 108.756 114.62 107.473 113.983 106.332C113.347 105.192 112.43 104.232 111.32 103.544ZM125.75 105.437C124.683 105.437 123.64 105.121 122.752 104.528C121.865 103.935 121.173 103.093 120.765 102.107C120.356 101.121 120.25 100.036 120.458 98.989C120.666 97.9423 121.18 96.9808 121.935 96.2262C122.689 95.4716 123.651 94.9577 124.697 94.7495C125.744 94.5413 126.829 94.6482 127.815 95.0565C128.801 95.4649 129.644 96.1565 130.236 97.0439C130.829 97.9312 131.146 98.9745 131.146 100.042C131.144 101.472 130.575 102.844 129.563 103.855C128.552 104.867 127.18 105.436 125.75 105.437Z" fill="#C3E8F1"/>
<path d="M129.82 103.544C129.321 104.137 128.698 104.614 127.995 104.941C127.291 105.268 126.525 105.437 125.75 105.437C124.975 105.437 124.208 105.268 123.505 104.941C122.802 104.614 122.179 104.137 121.68 103.544C120.57 104.232 119.653 105.192 119.017 106.332C118.38 107.473 118.045 108.756 118.042 110.062C118.042 110.471 118.204 110.864 118.493 111.153C118.782 111.442 119.174 111.604 119.583 111.604H131.917C132.325 111.604 132.718 111.442 133.007 111.153C133.296 110.864 133.458 110.471 133.458 110.062C133.455 108.756 133.12 107.473 132.483 106.332C131.847 105.192 130.93 104.232 129.82 103.544Z" fill="#027794"/>
<path d="M124.527 88.9308L121.444 85.8475C121.154 85.5627 120.763 85.404 120.357 85.4059C119.951 85.4077 119.561 85.57 119.274 85.8573C118.987 86.1447 118.824 86.534 118.823 86.9404C118.821 87.3468 118.979 87.7375 119.264 88.0274L119.716 88.4791H113.284L113.736 88.0274C114.022 87.7377 114.182 87.3466 114.181 86.9394C114.179 86.5323 114.017 86.1422 113.729 85.8543C113.441 85.5664 113.051 85.4041 112.644 85.4028C112.237 85.4016 111.846 85.5614 111.556 85.8475L108.473 88.9308C108.329 89.074 108.216 89.2439 108.138 89.4309C108.061 89.6179 108.021 89.8184 108.021 90.0208C108.021 90.2233 108.061 90.4238 108.138 90.6108C108.216 90.7978 108.329 90.9677 108.473 91.1109L111.556 94.1942C111.846 94.4803 112.237 94.6401 112.644 94.6388C113.051 94.6375 113.441 94.4752 113.729 94.1873C114.017 93.8994 114.179 93.5093 114.18 93.1021C114.182 92.695 114.022 92.3039 113.736 92.0142L113.284 91.5625H119.716L119.264 92.0142C118.975 92.3033 118.813 92.6954 118.813 93.1042C118.813 93.513 118.975 93.9051 119.264 94.1942C119.553 94.4833 119.945 94.6457 120.354 94.6456C120.763 94.6456 121.155 94.4832 121.444 94.1941L124.527 91.1108C124.671 90.9676 124.784 90.7977 124.862 90.6107C124.939 90.4237 124.979 90.2232 124.979 90.0208C124.979 89.8184 124.939 89.6179 124.862 89.4309C124.784 89.2439 124.671 89.074 124.527 88.9308Z" fill="#027794"/>
<path d="M106.734 139.116C108.289 139.116 109.645 139.431 110.804 140.062C111.977 140.693 112.887 141.609 113.532 142.812C114.177 144 114.5 145.423 114.5 147.08C114.5 148.693 114.17 150.123 113.51 151.37C112.85 152.617 111.926 153.585 110.738 154.274C109.565 154.963 108.223 155.308 106.712 155.308C105.157 155.308 103.793 154.993 102.62 154.362C101.461 153.731 100.559 152.822 99.914 151.634C99.2687 150.431 98.946 149.001 98.946 147.344C98.946 145.731 99.276 144.301 99.936 143.054C100.596 141.807 101.513 140.839 102.686 140.15C103.874 139.461 105.223 139.116 106.734 139.116ZM106.646 139.512C105.839 139.512 105.128 139.842 104.512 140.502C103.896 141.147 103.419 142.057 103.082 143.23C102.759 144.403 102.598 145.745 102.598 147.256C102.598 148.781 102.781 150.123 103.148 151.282C103.529 152.441 104.035 153.335 104.666 153.966C105.311 154.597 106.023 154.912 106.8 154.912C107.607 154.912 108.318 154.589 108.934 153.944C109.55 153.284 110.019 152.367 110.342 151.194C110.679 150.021 110.848 148.679 110.848 147.168C110.848 145.643 110.657 144.301 110.276 143.142C109.909 141.983 109.403 141.089 108.758 140.458C108.127 139.827 107.423 139.512 106.646 139.512ZM120.439 143.626H123.035V144.066H120.439V152.954C120.439 153.394 120.513 153.709 120.659 153.9C120.821 154.076 121.07 154.164 121.407 154.164C122.038 154.164 122.537 153.724 122.903 152.844L123.277 153.042C122.72 154.553 121.715 155.308 120.263 155.308C119.295 155.308 118.562 155.059 118.063 154.56C117.755 154.252 117.543 153.871 117.425 153.416C117.323 152.947 117.271 152.309 117.271 151.502V144.066H115.423V143.626H117.271V140.722C118.489 140.722 119.545 140.487 120.439 140.018V143.626ZM128.174 145.364C128.834 144 130.029 143.318 131.76 143.318C132.904 143.318 133.71 143.604 134.18 144.176C134.429 144.455 134.605 144.821 134.708 145.276C134.825 145.716 134.884 146.303 134.884 147.036V152.954C134.884 153.555 134.986 153.973 135.192 154.208C135.397 154.428 135.764 154.538 136.292 154.538V155C134.766 154.941 133.798 154.912 133.388 154.912C132.889 154.912 131.936 154.941 130.528 155V154.538C130.968 154.538 131.276 154.428 131.452 154.208C131.628 153.973 131.716 153.555 131.716 152.954V146.112C131.716 145.511 131.613 145.056 131.408 144.748C131.217 144.44 130.865 144.286 130.352 144.286C129.736 144.286 129.215 144.528 128.79 145.012C128.379 145.481 128.174 146.083 128.174 146.816V152.954C128.174 153.555 128.262 153.973 128.438 154.208C128.614 154.428 128.922 154.538 129.362 154.538V155C127.954 154.941 127.044 154.912 126.634 154.912C126.135 154.912 125.123 154.941 123.598 155V154.538C124.111 154.538 124.47 154.428 124.676 154.208C124.896 153.973 125.006 153.555 125.006 152.954V140.436C125.006 139.761 124.896 139.27 124.676 138.962C124.47 138.654 124.111 138.5 123.598 138.5V138.038C124.067 138.082 124.522 138.104 124.962 138.104C126.238 138.104 127.308 138.001 128.174 137.796V145.364ZM143.56 153.504C144.763 153.504 145.731 152.917 146.464 151.744L146.86 151.876C146.567 152.829 146.039 153.643 145.276 154.318C144.528 154.978 143.59 155.308 142.46 155.308C140.906 155.308 139.666 154.817 138.742 153.834C137.833 152.837 137.378 151.37 137.378 149.434C137.378 147.454 137.87 145.943 138.852 144.902C139.835 143.846 141.14 143.318 142.768 143.318C145.526 143.318 146.904 144.946 146.904 148.202H140.722C140.708 148.422 140.7 148.767 140.7 149.236C140.7 150.204 140.832 151.011 141.096 151.656C141.375 152.301 141.727 152.771 142.152 153.064C142.592 153.357 143.062 153.504 143.56 153.504ZM142.636 143.78C142.108 143.78 141.668 144.11 141.316 144.77C140.979 145.415 140.766 146.42 140.678 147.784H144.132C144.162 146.625 144.044 145.672 143.78 144.924C143.531 144.161 143.15 143.78 142.636 143.78ZM155.617 143.318C156.277 143.318 156.776 143.516 157.113 143.912C157.451 144.308 157.619 144.785 157.619 145.342C157.619 145.885 157.458 146.332 157.135 146.684C156.827 147.021 156.417 147.19 155.903 147.19C155.405 147.19 155.009 147.065 154.715 146.816C154.422 146.552 154.275 146.207 154.275 145.782C154.275 145.078 154.598 144.506 155.243 144.066C155.185 144.051 155.097 144.044 154.979 144.044C154.833 144.044 154.715 144.059 154.627 144.088C154.07 144.176 153.593 144.513 153.197 145.1C152.816 145.687 152.625 146.288 152.625 146.904V152.734C152.625 153.409 152.787 153.878 153.109 154.142C153.447 154.406 153.975 154.538 154.693 154.538V155C154.488 155 154.319 154.993 154.187 154.978C152.691 154.934 151.694 154.912 151.195 154.912C150.799 154.912 149.897 154.934 148.489 154.978C148.372 154.993 148.225 155 148.049 155V154.538C148.577 154.538 148.944 154.428 149.149 154.208C149.355 153.973 149.457 153.555 149.457 152.954V146.024C149.457 145.349 149.355 144.858 149.149 144.55C148.944 144.242 148.577 144.088 148.049 144.088V143.626C148.519 143.67 148.973 143.692 149.413 143.692C150.719 143.692 151.789 143.589 152.625 143.384V145.43C152.904 144.799 153.307 144.293 153.835 143.912C154.363 143.516 154.957 143.318 155.617 143.318ZM168.701 139.138C169.464 139.138 170.072 139.211 170.527 139.358C170.982 139.505 171.444 139.717 171.913 139.996C172.074 140.084 172.214 140.157 172.331 140.216C172.463 140.275 172.573 140.304 172.661 140.304C172.793 140.304 172.896 140.231 172.969 140.084C173.042 139.923 173.101 139.673 173.145 139.336H173.651C173.578 140.319 173.541 141.991 173.541 144.352H173.035C172.976 143.56 172.793 142.805 172.485 142.086C172.192 141.367 171.766 140.788 171.209 140.348C170.666 139.893 170.028 139.666 169.295 139.666C168.576 139.666 167.99 139.871 167.535 140.282C167.095 140.678 166.875 141.221 166.875 141.91C166.875 142.423 166.985 142.871 167.205 143.252C167.425 143.633 167.733 143.985 168.129 144.308C168.525 144.616 169.134 145.041 169.955 145.584L170.659 146.068C171.524 146.64 172.206 147.139 172.705 147.564C173.204 147.989 173.607 148.488 173.915 149.06C174.238 149.617 174.399 150.27 174.399 151.018C174.399 151.957 174.157 152.749 173.673 153.394C173.189 154.025 172.529 154.501 171.693 154.824C170.872 155.147 169.955 155.308 168.943 155.308C168.122 155.308 167.44 155.235 166.897 155.088C166.354 154.941 165.856 154.743 165.401 154.494C165.078 154.289 164.829 154.186 164.653 154.186C164.521 154.186 164.418 154.267 164.345 154.428C164.272 154.575 164.213 154.817 164.169 155.154H163.663C163.722 154.23 163.751 152.25 163.751 149.214H164.257C164.36 150.857 164.726 152.191 165.357 153.218C165.988 154.23 166.956 154.736 168.261 154.736C169.053 154.736 169.706 154.523 170.219 154.098C170.732 153.673 170.989 153.064 170.989 152.272C170.989 151.451 170.725 150.747 170.197 150.16C169.669 149.573 168.833 148.913 167.689 148.18C166.809 147.608 166.105 147.109 165.577 146.684C165.049 146.259 164.616 145.76 164.279 145.188C163.942 144.601 163.773 143.927 163.773 143.164C163.773 142.284 163.993 141.543 164.433 140.942C164.888 140.326 165.489 139.871 166.237 139.578C166.985 139.285 167.806 139.138 168.701 139.138ZM182.297 153.504C183.499 153.504 184.467 152.917 185.201 151.744L185.597 151.876C185.303 152.829 184.775 153.643 184.013 154.318C183.265 154.978 182.326 155.308 181.197 155.308C179.642 155.308 178.403 154.817 177.479 153.834C176.569 152.837 176.115 151.37 176.115 149.434C176.115 147.454 176.606 145.943 177.589 144.902C178.571 143.846 179.877 143.318 181.505 143.318C184.262 143.318 185.641 144.946 185.641 148.202H179.459C179.444 148.422 179.437 148.767 179.437 149.236C179.437 150.204 179.569 151.011 179.833 151.656C180.111 152.301 180.463 152.771 180.889 153.064C181.329 153.357 181.798 153.504 182.297 153.504ZM181.373 143.78C180.845 143.78 180.405 144.11 180.053 144.77C179.715 145.415 179.503 146.42 179.415 147.784H182.869C182.898 146.625 182.781 145.672 182.517 144.924C182.267 144.161 181.886 143.78 181.373 143.78ZM194.354 143.318C195.014 143.318 195.512 143.516 195.85 143.912C196.187 144.308 196.356 144.785 196.356 145.342C196.356 145.885 196.194 146.332 195.872 146.684C195.564 147.021 195.153 147.19 194.64 147.19C194.141 147.19 193.745 147.065 193.452 146.816C193.158 146.552 193.012 146.207 193.012 145.782C193.012 145.078 193.334 144.506 193.98 144.066C193.921 144.051 193.833 144.044 193.716 144.044C193.569 144.044 193.452 144.059 193.364 144.088C192.806 144.176 192.33 144.513 191.934 145.1C191.552 145.687 191.362 146.288 191.362 146.904V152.734C191.362 153.409 191.523 153.878 191.846 154.142C192.183 154.406 192.711 154.538 193.43 154.538V155C193.224 155 193.056 154.993 192.924 154.978C191.428 154.934 190.43 154.912 189.932 154.912C189.536 154.912 188.634 154.934 187.226 154.978C187.108 154.993 186.962 155 186.786 155V154.538C187.314 154.538 187.68 154.428 187.886 154.208C188.091 153.973 188.194 153.555 188.194 152.954V146.024C188.194 145.349 188.091 144.858 187.886 144.55C187.68 144.242 187.314 144.088 186.786 144.088V143.626C187.255 143.67 187.71 143.692 188.15 143.692C189.455 143.692 190.526 143.589 191.362 143.384V145.43C191.64 144.799 192.044 144.293 192.572 143.912C193.1 143.516 193.694 143.318 194.354 143.318ZM205.987 143.692C206.735 143.692 207.3 143.67 207.681 143.626V144.066C207.373 144.154 207.095 144.345 206.845 144.638C206.611 144.917 206.383 145.357 206.163 145.958L202.951 155.044C202.79 155.029 202.548 155.022 202.225 155.022C201.917 155.022 201.683 155.029 201.521 155.044L197.605 145.32C197.4 144.821 197.187 144.491 196.967 144.33C196.762 144.169 196.549 144.088 196.329 144.088V143.626C197.356 143.699 198.397 143.736 199.453 143.736C200.377 143.736 201.331 143.699 202.313 143.626V144.088C201.815 144.088 201.455 144.125 201.235 144.198C201.03 144.257 200.927 144.433 200.927 144.726C200.927 144.843 200.964 145.027 201.037 145.276L203.545 151.942L205.129 147.586C205.364 146.897 205.481 146.303 205.481 145.804C205.481 144.733 204.946 144.154 203.875 144.066V143.626C204.55 143.67 205.254 143.692 205.987 143.692ZM211.087 137.95C211.703 137.95 212.187 138.104 212.539 138.412C212.906 138.705 213.089 139.116 213.089 139.644C213.089 140.172 212.906 140.59 212.539 140.898C212.187 141.191 211.703 141.338 211.087 141.338C210.471 141.338 209.98 141.191 209.613 140.898C209.261 140.59 209.085 140.172 209.085 139.644C209.085 139.116 209.261 138.705 209.613 138.412C209.98 138.104 210.471 137.95 211.087 137.95ZM212.803 152.954C212.803 153.555 212.906 153.973 213.111 154.208C213.331 154.428 213.698 154.538 214.211 154.538V155C212.745 154.941 211.769 154.912 211.285 154.912C210.831 154.912 209.811 154.941 208.227 155V154.538C208.755 154.538 209.122 154.428 209.327 154.208C209.533 153.973 209.635 153.555 209.635 152.954V146.024C209.635 145.349 209.533 144.858 209.327 144.55C209.122 144.242 208.755 144.088 208.227 144.088V143.626C208.697 143.67 209.151 143.692 209.591 143.692C210.897 143.692 211.967 143.589 212.803 143.384V152.954ZM220.887 143.318C221.429 143.318 221.943 143.377 222.427 143.494C222.911 143.611 223.314 143.773 223.637 143.978C224.018 144.213 224.311 144.513 224.517 144.88C224.737 145.232 224.847 145.621 224.847 146.046C224.847 146.559 224.685 146.985 224.363 147.322C224.04 147.645 223.622 147.806 223.109 147.806C222.595 147.806 222.185 147.659 221.877 147.366C221.569 147.073 221.415 146.677 221.415 146.178C221.415 145.738 221.554 145.357 221.833 145.034C222.111 144.711 222.456 144.491 222.867 144.374C222.749 144.213 222.566 144.088 222.317 144C222.082 143.897 221.825 143.846 221.547 143.846C220.667 143.846 219.977 144.33 219.479 145.298C218.995 146.251 218.753 147.505 218.753 149.06C218.753 150.629 219.031 151.759 219.589 152.448C220.146 153.137 220.843 153.482 221.679 153.482C222.177 153.482 222.676 153.35 223.175 153.086C223.688 152.822 224.15 152.36 224.561 151.7L224.935 151.832C224.641 152.785 224.128 153.607 223.395 154.296C222.661 154.971 221.715 155.308 220.557 155.308C219.046 155.308 217.814 154.809 216.861 153.812C215.907 152.815 215.431 151.333 215.431 149.368C215.431 148.077 215.665 146.977 216.135 146.068C216.604 145.159 217.249 144.477 218.071 144.022C218.892 143.553 219.831 143.318 220.887 143.318ZM232.549 153.504C233.751 153.504 234.719 152.917 235.453 151.744L235.849 151.876C235.555 152.829 235.027 153.643 234.265 154.318C233.517 154.978 232.578 155.308 231.449 155.308C229.894 155.308 228.655 154.817 227.731 153.834C226.821 152.837 226.367 151.37 226.367 149.434C226.367 147.454 226.858 145.943 227.841 144.902C228.823 143.846 230.129 143.318 231.757 143.318C234.514 143.318 235.893 144.946 235.893 148.202H229.711C229.696 148.422 229.689 148.767 229.689 149.236C229.689 150.204 229.821 151.011 230.085 151.656C230.363 152.301 230.715 152.771 231.141 153.064C231.581 153.357 232.05 153.504 232.549 153.504ZM231.625 143.78C231.097 143.78 230.657 144.11 230.305 144.77C229.967 145.415 229.755 146.42 229.667 147.784H233.121C233.15 146.625 233.033 145.672 232.769 144.924C232.519 144.161 232.138 143.78 231.625 143.78ZM241.523 143.318C242.08 143.318 242.593 143.391 243.063 143.538C243.532 143.67 243.891 143.824 244.141 144C244.287 144.103 244.419 144.154 244.537 144.154C244.669 144.154 244.779 144.088 244.867 143.956C244.969 143.809 245.035 143.604 245.065 143.34H245.527C245.468 144.088 245.439 145.379 245.439 147.212H244.977C244.845 146.244 244.551 145.437 244.097 144.792C243.657 144.132 243.011 143.802 242.161 143.802C241.721 143.802 241.354 143.927 241.061 144.176C240.782 144.425 240.643 144.77 240.643 145.21C240.643 145.709 240.811 146.141 241.149 146.508C241.486 146.86 242.014 147.293 242.733 147.806L243.371 148.268C244.265 148.943 244.925 149.544 245.351 150.072C245.776 150.6 245.989 151.26 245.989 152.052C245.989 152.697 245.798 153.269 245.417 153.768C245.05 154.267 244.551 154.648 243.921 154.912C243.29 155.176 242.593 155.308 241.831 155.308C241.024 155.308 240.335 155.154 239.763 154.846C239.293 154.611 238.956 154.457 238.751 154.384C238.604 154.34 238.472 154.391 238.355 154.538C238.252 154.67 238.171 154.875 238.113 155.154H237.651C237.709 154.318 237.739 152.851 237.739 150.754H238.201C238.494 153.453 239.484 154.802 241.171 154.802C241.596 154.802 241.955 154.677 242.249 154.428C242.557 154.164 242.711 153.768 242.711 153.24C242.711 152.829 242.615 152.463 242.425 152.14C242.249 151.817 242.021 151.531 241.743 151.282C241.464 151.033 241.046 150.688 240.489 150.248C239.829 149.72 239.323 149.295 238.971 148.972C238.633 148.649 238.34 148.268 238.091 147.828C237.856 147.388 237.739 146.897 237.739 146.354C237.739 145.415 238.105 144.675 238.839 144.132C239.572 143.589 240.467 143.318 241.523 143.318Z" fill="#363940"/>
<path d="M99.232 185H100.352V174.57H99.232V185ZM102.96 185H104.01V180.534C104.01 179.862 104.197 179.335 104.57 178.952C104.943 178.569 105.415 178.378 105.984 178.378C106.563 178.378 107.029 178.569 107.384 178.952C107.748 179.325 107.93 179.853 107.93 180.534V185H108.98V180.128C108.98 179.596 108.854 179.12 108.602 178.7C108.359 178.271 108.023 177.935 107.594 177.692C107.174 177.449 106.698 177.328 106.166 177.328C105.699 177.328 105.279 177.426 104.906 177.622C104.533 177.818 104.234 178.084 104.01 178.42V177.496H102.96V185ZM117.352 185.168C117.931 185.168 118.463 185.047 118.948 184.804C119.434 184.561 119.816 184.221 120.096 183.782V185H121.146V174.402H120.096V178.63C119.788 178.229 119.401 177.911 118.934 177.678C118.468 177.445 117.94 177.328 117.352 177.328C116.643 177.328 116.008 177.501 115.448 177.846C114.898 178.182 114.459 178.644 114.132 179.232C113.815 179.82 113.656 180.492 113.656 181.248C113.656 181.995 113.815 182.667 114.132 183.264C114.459 183.852 114.902 184.319 115.462 184.664C116.022 185 116.652 185.168 117.352 185.168ZM117.408 184.118C116.904 184.118 116.452 183.992 116.05 183.74C115.658 183.488 115.346 183.147 115.112 182.718C114.888 182.279 114.776 181.789 114.776 181.248C114.776 180.697 114.888 180.207 115.112 179.778C115.346 179.349 115.663 179.008 116.064 178.756C116.466 178.504 116.914 178.378 117.408 178.378C117.912 178.378 118.365 178.504 118.766 178.756C119.177 179.008 119.499 179.353 119.732 179.792C119.975 180.221 120.096 180.707 120.096 181.248C120.096 181.789 119.975 182.279 119.732 182.718C119.499 183.147 119.177 183.488 118.766 183.74C118.365 183.992 117.912 184.118 117.408 184.118ZM127.018 185.168C127.532 185.168 127.998 185.084 128.418 184.916C128.848 184.739 129.216 184.51 129.524 184.23C129.832 183.941 130.061 183.628 130.21 183.292L129.314 182.816C129.081 183.208 128.778 183.535 128.404 183.796C128.031 184.057 127.569 184.188 127.018 184.188C126.57 184.188 126.15 184.081 125.758 183.866C125.366 183.651 125.044 183.353 124.792 182.97C124.55 182.578 124.419 182.111 124.4 181.57H130.308C130.327 181.449 130.341 181.332 130.35 181.22C130.36 181.099 130.364 180.991 130.364 180.898C130.364 180.45 130.285 180.016 130.126 179.596C129.968 179.167 129.739 178.784 129.44 178.448C129.142 178.103 128.778 177.832 128.348 177.636C127.928 177.431 127.448 177.328 126.906 177.328C126.225 177.328 125.609 177.496 125.058 177.832C124.517 178.168 124.088 178.63 123.77 179.218C123.453 179.797 123.294 180.464 123.294 181.22C123.294 181.976 123.458 182.653 123.784 183.25C124.111 183.847 124.554 184.319 125.114 184.664C125.684 185 126.318 185.168 127.018 185.168ZM126.906 178.308C127.326 178.308 127.709 178.406 128.054 178.602C128.409 178.798 128.689 179.069 128.894 179.414C129.109 179.75 129.221 180.142 129.23 180.59H124.428C124.484 180.123 124.629 179.722 124.862 179.386C125.105 179.041 125.404 178.775 125.758 178.588C126.113 178.401 126.496 178.308 126.906 178.308ZM134.549 185.168C135.127 185.168 135.65 185.051 136.117 184.818C136.583 184.585 136.938 184.286 137.181 183.922V185H138.231V179.848C138.231 179.353 138.109 178.919 137.867 178.546C137.633 178.163 137.302 177.865 136.873 177.65C136.453 177.435 135.967 177.328 135.417 177.328C134.997 177.328 134.591 177.407 134.199 177.566C133.807 177.715 133.457 177.921 133.149 178.182C132.85 178.443 132.631 178.733 132.491 179.05L133.443 179.568C133.611 179.204 133.867 178.91 134.213 178.686C134.558 178.453 134.959 178.336 135.417 178.336C135.939 178.336 136.364 178.476 136.691 178.756C137.017 179.036 137.181 179.4 137.181 179.848V180.24L134.465 180.688C133.634 180.828 133.027 181.113 132.645 181.542C132.262 181.971 132.071 182.475 132.071 183.054C132.071 183.465 132.178 183.829 132.393 184.146C132.607 184.463 132.901 184.715 133.275 184.902C133.648 185.079 134.073 185.168 134.549 185.168ZM133.191 183.012C133.191 182.667 133.307 182.368 133.541 182.116C133.783 181.864 134.175 181.691 134.717 181.598L137.181 181.192V181.752C137.181 182.209 137.073 182.625 136.859 182.998C136.644 183.371 136.345 183.67 135.963 183.894C135.58 184.109 135.132 184.216 134.619 184.216C134.199 184.216 133.853 184.099 133.583 183.866C133.321 183.633 133.191 183.348 133.191 183.012ZM140.69 185H141.74V174.402H140.69V185ZM144.19 176.11H145.24V174.57H144.19V176.11ZM144.19 185H145.24V177.496H144.19V185ZM147.689 185H148.739V180.534C148.739 179.862 148.926 179.335 149.299 178.952C149.672 178.569 150.144 178.378 150.713 178.378C151.292 178.378 151.758 178.569 152.113 178.952C152.477 179.325 152.659 179.853 152.659 180.534V185H153.709V180.128C153.709 179.596 153.583 179.12 153.331 178.7C153.088 178.271 152.752 177.935 152.323 177.692C151.903 177.449 151.427 177.328 150.895 177.328C150.428 177.328 150.008 177.426 149.635 177.622C149.262 177.818 148.963 178.084 148.739 178.42V177.496H147.689V185ZM159.57 188.08C160.261 188.08 160.872 187.931 161.404 187.632C161.946 187.343 162.366 186.941 162.664 186.428C162.972 185.924 163.126 185.35 163.126 184.706V177.496H162.076V178.63C161.778 178.229 161.395 177.911 160.928 177.678C160.462 177.445 159.953 177.328 159.402 177.328C158.693 177.328 158.058 177.496 157.498 177.832C156.948 178.168 156.509 178.621 156.182 179.19C155.865 179.759 155.706 180.399 155.706 181.108C155.706 181.808 155.865 182.447 156.182 183.026C156.509 183.595 156.952 184.048 157.512 184.384C158.072 184.72 158.702 184.888 159.402 184.888C159.953 184.888 160.466 184.767 160.942 184.524C161.418 184.281 161.796 183.941 162.076 183.502V184.706C162.076 185.21 161.96 185.635 161.726 185.98C161.493 186.325 161.185 186.587 160.802 186.764C160.42 186.941 160 187.03 159.542 187.03C158.945 187.03 158.455 186.899 158.072 186.638C157.69 186.377 157.424 186.069 157.274 185.714L156.308 186.232C156.56 186.773 156.971 187.217 157.54 187.562C158.119 187.907 158.796 188.08 159.57 188.08ZM159.458 183.838C158.954 183.838 158.502 183.717 158.1 183.474C157.708 183.222 157.396 182.891 157.162 182.48C156.938 182.06 156.826 181.603 156.826 181.108C156.826 180.604 156.938 180.147 157.162 179.736C157.396 179.325 157.713 178.999 158.114 178.756C158.516 178.504 158.964 178.378 159.458 178.378C159.944 178.378 160.382 178.504 160.774 178.756C161.166 178.999 161.479 179.33 161.712 179.75C161.955 180.161 162.076 180.613 162.076 181.108C162.076 181.603 161.955 182.06 161.712 182.48C161.479 182.891 161.166 183.222 160.774 183.474C160.382 183.717 159.944 183.838 159.458 183.838ZM169.915 185H170.965L172.771 179.064L174.563 185H175.613L178.189 177.496H177.013L175.095 183.39L173.289 177.496H172.239L170.447 183.39L168.529 177.496H167.339L169.915 185ZM179.719 176.11H180.769V174.57H179.719V176.11ZM179.719 185H180.769V177.496H179.719V185ZM186.088 185.084C186.172 185.084 186.284 185.079 186.424 185.07C186.564 185.061 186.69 185.042 186.802 185.014V184.062C186.728 184.071 186.639 184.081 186.536 184.09C186.434 184.099 186.345 184.104 186.27 184.104C185.804 184.104 185.482 183.983 185.304 183.74C185.127 183.497 185.038 183.189 185.038 182.816V178.546H186.69V177.496H185.038V175.76H183.988V176.39C183.988 176.707 183.895 176.973 183.708 177.188C183.522 177.393 183.27 177.496 182.952 177.496H182.602V178.546H183.988V182.816C183.988 183.544 184.17 184.104 184.534 184.496C184.898 184.888 185.416 185.084 186.088 185.084ZM188.946 185H189.996V180.534C189.996 179.862 190.183 179.335 190.556 178.952C190.939 178.569 191.41 178.378 191.97 178.378C192.53 178.378 192.992 178.569 193.356 178.952C193.729 179.325 193.916 179.853 193.916 180.534V185H194.966V180.128C194.966 179.596 194.84 179.12 194.588 178.7C194.345 178.271 194.009 177.935 193.58 177.692C193.16 177.449 192.684 177.328 192.152 177.328C191.685 177.328 191.265 177.426 190.892 177.622C190.519 177.818 190.22 178.084 189.996 178.42V174.402H188.946V185ZM203.338 185.168C203.917 185.168 204.449 185.047 204.934 184.804C205.42 184.561 205.802 184.221 206.082 183.782V185H207.132V174.402H206.082V178.63C205.774 178.229 205.387 177.911 204.92 177.678C204.454 177.445 203.926 177.328 203.338 177.328C202.629 177.328 201.994 177.501 201.434 177.846C200.884 178.182 200.445 178.644 200.118 179.232C199.801 179.82 199.642 180.492 199.642 181.248C199.642 181.995 199.801 182.667 200.118 183.264C200.445 183.852 200.888 184.319 201.448 184.664C202.008 185 202.638 185.168 203.338 185.168ZM203.394 184.118C202.89 184.118 202.438 183.992 202.036 183.74C201.644 183.488 201.332 183.147 201.098 182.718C200.874 182.279 200.762 181.789 200.762 181.248C200.762 180.697 200.874 180.207 201.098 179.778C201.332 179.349 201.649 179.008 202.05 178.756C202.452 178.504 202.9 178.378 203.394 178.378C203.898 178.378 204.351 178.504 204.752 178.756C205.163 179.008 205.485 179.353 205.718 179.792C205.961 180.221 206.082 180.707 206.082 181.248C206.082 181.789 205.961 182.279 205.718 182.718C205.485 183.147 205.163 183.488 204.752 183.74C204.351 183.992 203.898 184.118 203.394 184.118ZM209.588 176.11H210.638V174.57H209.588V176.11ZM209.588 185H210.638V177.496H209.588V185ZM215.691 185.168C216.214 185.168 216.676 185.079 217.077 184.902C217.479 184.715 217.791 184.459 218.015 184.132C218.249 183.805 218.365 183.437 218.365 183.026C218.365 182.522 218.193 182.083 217.847 181.71C217.511 181.337 217.04 181.061 216.433 180.884L215.187 180.52C215.057 180.483 214.903 180.427 214.725 180.352C214.557 180.277 214.408 180.165 214.277 180.016C214.147 179.867 214.081 179.666 214.081 179.414C214.081 179.087 214.207 178.817 214.459 178.602C214.711 178.387 215.047 178.28 215.467 178.28C215.897 178.28 216.284 178.401 216.629 178.644C216.984 178.877 217.255 179.204 217.441 179.624L218.337 179.204C218.123 178.616 217.754 178.159 217.231 177.832C216.718 177.496 216.144 177.328 215.509 177.328C215.043 177.328 214.618 177.417 214.235 177.594C213.853 177.771 213.549 178.023 213.325 178.35C213.101 178.677 212.989 179.059 212.989 179.498C212.989 179.965 213.143 180.375 213.451 180.73C213.759 181.085 214.259 181.36 214.949 181.556L216.027 181.864C216.177 181.901 216.349 181.962 216.545 182.046C216.741 182.13 216.914 182.251 217.063 182.41C217.213 182.559 217.287 182.765 217.287 183.026C217.287 183.381 217.133 183.67 216.825 183.894C216.517 184.109 216.139 184.216 215.691 184.216C215.225 184.216 214.795 184.081 214.403 183.81C214.021 183.539 213.722 183.175 213.507 182.718L212.625 183.138C212.868 183.763 213.26 184.258 213.801 184.622C214.343 184.986 214.973 185.168 215.691 185.168ZM220.51 185H221.56V180.38C221.56 179.764 221.724 179.288 222.05 178.952C222.377 178.616 222.811 178.448 223.352 178.448H224.01V177.398H223.534C223.077 177.398 222.68 177.477 222.344 177.636C222.018 177.795 221.756 178.019 221.56 178.308V177.496H220.51V185ZM228.201 185.168C228.668 185.168 229.088 185.07 229.461 184.874C229.834 184.678 230.133 184.412 230.357 184.076V185H231.407V177.496H230.357V181.962C230.357 182.634 230.17 183.161 229.797 183.544C229.433 183.927 228.962 184.118 228.383 184.118C227.814 184.118 227.347 183.936 226.983 183.572C226.619 183.199 226.437 182.709 226.437 182.102V177.496H225.387V182.228C225.387 182.807 225.508 183.32 225.751 183.768C226.003 184.207 226.344 184.552 226.773 184.804C227.202 185.047 227.678 185.168 228.201 185.168ZM233.866 187.8H234.916V183.782C235.196 184.221 235.579 184.561 236.064 184.804C236.55 185.047 237.082 185.168 237.66 185.168C238.37 185.168 239 185 239.55 184.664C240.11 184.319 240.549 183.852 240.866 183.264C241.193 182.667 241.356 181.995 241.356 181.248C241.356 180.492 241.193 179.82 240.866 179.232C240.549 178.644 240.11 178.182 239.55 177.846C239 177.501 238.37 177.328 237.66 177.328C237.072 177.328 236.545 177.445 236.078 177.678C235.612 177.911 235.224 178.229 234.916 178.63V177.496H233.866V187.8ZM237.604 184.118C237.1 184.118 236.643 183.992 236.232 183.74C235.831 183.488 235.509 183.147 235.266 182.718C235.033 182.279 234.916 181.789 234.916 181.248C234.916 180.707 235.033 180.221 235.266 179.792C235.509 179.353 235.831 179.008 236.232 178.756C236.643 178.504 237.1 178.378 237.604 178.378C238.108 178.378 238.556 178.504 238.948 178.756C239.35 179.008 239.662 179.349 239.886 179.778C240.12 180.207 240.236 180.697 240.236 181.248C240.236 181.789 240.12 182.279 239.886 182.718C239.662 183.147 239.35 183.488 238.948 183.74C238.556 183.992 238.108 184.118 237.604 184.118ZM246.237 185.084C246.321 185.084 246.433 185.079 246.573 185.07C246.713 185.061 246.839 185.042 246.951 185.014V184.062C246.877 184.071 246.788 184.081 246.685 184.09C246.583 184.099 246.494 184.104 246.419 184.104C245.953 184.104 245.631 183.983 245.453 183.74C245.276 183.497 245.187 183.189 245.187 182.816V178.546H246.839V177.496H245.187V175.76H244.137V176.39C244.137 176.707 244.044 176.973 243.857 177.188C243.671 177.393 243.419 177.496 243.101 177.496H242.751V178.546H244.137V182.816C244.137 183.544 244.319 184.104 244.683 184.496C245.047 184.888 245.565 185.084 246.237 185.084ZM249.095 176.11H250.145V174.57H249.095V176.11ZM249.095 185H250.145V177.496H249.095V185ZM254.596 185H255.646L258.6 177.496H257.41L255.128 183.572L252.846 177.496H251.67L254.596 185ZM263.406 185.168C263.919 185.168 264.386 185.084 264.806 184.916C265.235 184.739 265.604 184.51 265.912 184.23C266.22 183.941 266.449 183.628 266.598 183.292L265.702 182.816C265.469 183.208 265.165 183.535 264.792 183.796C264.419 184.057 263.957 184.188 263.406 184.188C262.958 184.188 262.538 184.081 262.146 183.866C261.754 183.651 261.432 183.353 261.18 182.97C260.937 182.578 260.807 182.111 260.788 181.57H266.696C266.715 181.449 266.729 181.332 266.738 181.22C266.747 181.099 266.752 180.991 266.752 180.898C266.752 180.45 266.673 180.016 266.514 179.596C266.355 179.167 266.127 178.784 265.828 178.448C265.529 178.103 265.165 177.832 264.736 177.636C264.316 177.431 263.835 177.328 263.294 177.328C262.613 177.328 261.997 177.496 261.446 177.832C260.905 178.168 260.475 178.63 260.158 179.218C259.841 179.797 259.682 180.464 259.682 181.22C259.682 181.976 259.845 182.653 260.172 183.25C260.499 183.847 260.942 184.319 261.502 184.664C262.071 185 262.706 185.168 263.406 185.168ZM263.294 178.308C263.714 178.308 264.097 178.406 264.442 178.602C264.797 178.798 265.077 179.069 265.282 179.414C265.497 179.75 265.609 180.142 265.618 180.59H260.816C260.872 180.123 261.017 179.722 261.25 179.386C261.493 179.041 261.791 178.775 262.146 178.588C262.501 178.401 262.883 178.308 263.294 178.308ZM102.494 209.168C103.007 209.168 103.474 209.084 103.894 208.916C104.323 208.739 104.692 208.51 105 208.23C105.308 207.941 105.537 207.628 105.686 207.292L104.79 206.816C104.557 207.208 104.253 207.535 103.88 207.796C103.507 208.057 103.045 208.188 102.494 208.188C102.046 208.188 101.626 208.081 101.234 207.866C100.842 207.651 100.52 207.353 100.268 206.97C100.025 206.578 99.8947 206.111 99.876 205.57H105.784C105.803 205.449 105.817 205.332 105.826 205.22C105.835 205.099 105.84 204.991 105.84 204.898C105.84 204.45 105.761 204.016 105.602 203.596C105.443 203.167 105.215 202.784 104.916 202.448C104.617 202.103 104.253 201.832 103.824 201.636C103.404 201.431 102.923 201.328 102.382 201.328C101.701 201.328 101.085 201.496 100.534 201.832C99.9927 202.168 99.5633 202.63 99.246 203.218C98.9287 203.797 98.77 204.464 98.77 205.22C98.77 205.976 98.9333 206.653 99.26 207.25C99.5867 207.847 100.03 208.319 100.59 208.664C101.159 209 101.794 209.168 102.494 209.168ZM102.382 202.308C102.802 202.308 103.185 202.406 103.53 202.602C103.885 202.798 104.165 203.069 104.37 203.414C104.585 203.75 104.697 204.142 104.706 204.59H99.904C99.96 204.123 100.105 203.722 100.338 203.386C100.581 203.041 100.879 202.775 101.234 202.588C101.589 202.401 101.971 202.308 102.382 202.308ZM111.421 209.168C111.888 209.168 112.327 209.084 112.737 208.916C113.148 208.748 113.512 208.519 113.829 208.23C114.147 207.941 114.385 207.614 114.543 207.25L113.591 206.732C113.395 207.152 113.106 207.488 112.723 207.74C112.35 207.992 111.916 208.118 111.421 208.118C110.927 208.118 110.479 207.992 110.077 207.74C109.685 207.488 109.373 207.147 109.139 206.718C108.915 206.279 108.803 205.789 108.803 205.248C108.803 204.697 108.915 204.207 109.139 203.778C109.373 203.339 109.685 202.999 110.077 202.756C110.479 202.504 110.927 202.378 111.421 202.378C111.916 202.378 112.355 202.504 112.737 202.756C113.12 203.008 113.405 203.335 113.591 203.736L114.543 203.246C114.385 202.873 114.147 202.546 113.829 202.266C113.512 201.977 113.148 201.748 112.737 201.58C112.327 201.412 111.888 201.328 111.421 201.328C110.684 201.328 110.035 201.501 109.475 201.846C108.915 202.182 108.477 202.644 108.159 203.232C107.842 203.82 107.683 204.487 107.683 205.234C107.683 205.981 107.842 206.653 108.159 207.25C108.477 207.838 108.915 208.305 109.475 208.65C110.035 208.995 110.684 209.168 111.421 209.168ZM120.2 209.168C120.9 209.168 121.534 209 122.104 208.664C122.682 208.328 123.144 207.866 123.49 207.278C123.835 206.681 124.008 205.999 124.008 205.234C124.008 204.478 123.84 203.806 123.504 203.218C123.177 202.63 122.724 202.168 122.146 201.832C121.576 201.496 120.928 201.328 120.2 201.328C119.472 201.328 118.818 201.501 118.24 201.846C117.67 202.182 117.218 202.644 116.882 203.232C116.546 203.82 116.378 204.487 116.378 205.234C116.378 205.99 116.546 206.667 116.882 207.264C117.227 207.852 117.689 208.319 118.268 208.664C118.846 209 119.49 209.168 120.2 209.168ZM120.2 208.118C119.696 208.118 119.238 207.992 118.828 207.74C118.426 207.488 118.104 207.143 117.862 206.704C117.619 206.265 117.498 205.775 117.498 205.234C117.498 204.693 117.619 204.207 117.862 203.778C118.104 203.349 118.426 203.008 118.828 202.756C119.238 202.504 119.696 202.378 120.2 202.378C120.704 202.378 121.156 202.504 121.558 202.756C121.968 203.008 122.29 203.349 122.524 203.778C122.766 204.207 122.888 204.693 122.888 205.234C122.888 205.775 122.766 206.265 122.524 206.704C122.29 207.143 121.968 207.488 121.558 207.74C121.156 207.992 120.704 208.118 120.2 208.118ZM126.16 209H127.21V204.534C127.21 203.862 127.396 203.335 127.77 202.952C128.143 202.569 128.614 202.378 129.184 202.378C129.762 202.378 130.229 202.569 130.584 202.952C130.948 203.325 131.13 203.853 131.13 204.534V209H132.18V204.128C132.18 203.596 132.054 203.12 131.802 202.7C131.559 202.271 131.223 201.935 130.794 201.692C130.374 201.449 129.898 201.328 129.366 201.328C128.899 201.328 128.479 201.426 128.106 201.622C127.732 201.818 127.434 202.084 127.21 202.42V201.496H126.16V209ZM137.999 209.168C138.699 209.168 139.334 209 139.903 208.664C140.482 208.328 140.944 207.866 141.289 207.278C141.634 206.681 141.807 205.999 141.807 205.234C141.807 204.478 141.639 203.806 141.303 203.218C140.976 202.63 140.524 202.168 139.945 201.832C139.376 201.496 138.727 201.328 137.999 201.328C137.271 201.328 136.618 201.501 136.039 201.846C135.47 202.182 135.017 202.644 134.681 203.232C134.345 203.82 134.177 204.487 134.177 205.234C134.177 205.99 134.345 206.667 134.681 207.264C135.026 207.852 135.488 208.319 136.067 208.664C136.646 209 137.29 209.168 137.999 209.168ZM137.999 208.118C137.495 208.118 137.038 207.992 136.627 207.74C136.226 207.488 135.904 207.143 135.661 206.704C135.418 206.265 135.297 205.775 135.297 205.234C135.297 204.693 135.418 204.207 135.661 203.778C135.904 203.349 136.226 203.008 136.627 202.756C137.038 202.504 137.495 202.378 137.999 202.378C138.503 202.378 138.956 202.504 139.357 202.756C139.768 203.008 140.09 203.349 140.323 203.778C140.566 204.207 140.687 204.693 140.687 205.234C140.687 205.775 140.566 206.265 140.323 206.704C140.09 207.143 139.768 207.488 139.357 207.74C138.956 207.992 138.503 208.118 137.999 208.118ZM143.959 209H145.009V204.534C145.009 203.862 145.191 203.335 145.555 202.952C145.919 202.569 146.372 202.378 146.913 202.378C147.454 202.378 147.902 202.569 148.257 202.952C148.612 203.325 148.789 203.853 148.789 204.534V209H149.839V204.534C149.839 203.862 150.021 203.335 150.385 202.952C150.749 202.569 151.202 202.378 151.743 202.378C152.284 202.378 152.732 202.569 153.087 202.952C153.442 203.325 153.619 203.853 153.619 204.534V209H154.669V204.128C154.669 203.596 154.538 203.12 154.277 202.7C154.025 202.271 153.684 201.935 153.255 201.692C152.835 201.449 152.373 201.328 151.869 201.328C151.365 201.328 150.898 201.449 150.469 201.692C150.049 201.935 149.727 202.289 149.503 202.756C149.27 202.327 148.938 201.981 148.509 201.72C148.08 201.459 147.608 201.328 147.095 201.328C146.666 201.328 146.264 201.426 145.891 201.622C145.527 201.809 145.233 202.075 145.009 202.42V201.496H143.959V209ZM156.974 200.11H158.024V198.57H156.974V200.11ZM156.974 209H158.024V201.496H156.974V209ZM163.903 209.168C164.37 209.168 164.808 209.084 165.219 208.916C165.63 208.748 165.994 208.519 166.311 208.23C166.628 207.941 166.866 207.614 167.025 207.25L166.073 206.732C165.877 207.152 165.588 207.488 165.205 207.74C164.832 207.992 164.398 208.118 163.903 208.118C163.408 208.118 162.96 207.992 162.559 207.74C162.167 207.488 161.854 207.147 161.621 206.718C161.397 206.279 161.285 205.789 161.285 205.248C161.285 204.697 161.397 204.207 161.621 203.778C161.854 203.339 162.167 202.999 162.559 202.756C162.96 202.504 163.408 202.378 163.903 202.378C164.398 202.378 164.836 202.504 165.219 202.756C165.602 203.008 165.886 203.335 166.073 203.736L167.025 203.246C166.866 202.873 166.628 202.546 166.311 202.266C165.994 201.977 165.63 201.748 165.219 201.58C164.808 201.412 164.37 201.328 163.903 201.328C163.166 201.328 162.517 201.501 161.957 201.846C161.397 202.182 160.958 202.644 160.641 203.232C160.324 203.82 160.165 204.487 160.165 205.234C160.165 205.981 160.324 206.653 160.641 207.25C160.958 207.838 161.397 208.305 161.957 208.65C162.517 208.995 163.166 209.168 163.903 209.168ZM174.016 209.168C174.595 209.168 175.118 209.051 175.584 208.818C176.051 208.585 176.406 208.286 176.648 207.922V209H177.698V203.848C177.698 203.353 177.577 202.919 177.334 202.546C177.101 202.163 176.77 201.865 176.34 201.65C175.92 201.435 175.435 201.328 174.884 201.328C174.464 201.328 174.058 201.407 173.666 201.566C173.274 201.715 172.924 201.921 172.616 202.182C172.318 202.443 172.098 202.733 171.958 203.05L172.91 203.568C173.078 203.204 173.335 202.91 173.68 202.686C174.026 202.453 174.427 202.336 174.884 202.336C175.407 202.336 175.832 202.476 176.158 202.756C176.485 203.036 176.648 203.4 176.648 203.848V204.24L173.932 204.688C173.102 204.828 172.495 205.113 172.112 205.542C171.73 205.971 171.538 206.475 171.538 207.054C171.538 207.465 171.646 207.829 171.86 208.146C172.075 208.463 172.369 208.715 172.742 208.902C173.116 209.079 173.54 209.168 174.016 209.168ZM172.658 207.012C172.658 206.667 172.775 206.368 173.008 206.116C173.251 205.864 173.643 205.691 174.184 205.598L176.648 205.192V205.752C176.648 206.209 176.541 206.625 176.326 206.998C176.112 207.371 175.813 207.67 175.43 207.894C175.048 208.109 174.6 208.216 174.086 208.216C173.666 208.216 173.321 208.099 173.05 207.866C172.789 207.633 172.658 207.348 172.658 207.012ZM180.158 209H181.208V204.534C181.208 203.862 181.395 203.335 181.768 202.952C182.141 202.569 182.613 202.378 183.182 202.378C183.761 202.378 184.227 202.569 184.582 202.952C184.946 203.325 185.128 203.853 185.128 204.534V209H186.178V204.128C186.178 203.596 186.052 203.12 185.8 202.7C185.557 202.271 185.221 201.935 184.792 201.692C184.372 201.449 183.896 201.328 183.364 201.328C182.897 201.328 182.477 201.426 182.104 201.622C181.731 201.818 181.432 202.084 181.208 202.42V201.496H180.158V209ZM191.871 209.168C192.45 209.168 192.982 209.047 193.467 208.804C193.953 208.561 194.335 208.221 194.615 207.782V209H195.665V198.402H194.615V202.63C194.307 202.229 193.92 201.911 193.453 201.678C192.987 201.445 192.459 201.328 191.871 201.328C191.162 201.328 190.527 201.501 189.967 201.846C189.417 202.182 188.978 202.644 188.651 203.232C188.334 203.82 188.175 204.492 188.175 205.248C188.175 205.995 188.334 206.667 188.651 207.264C188.978 207.852 189.421 208.319 189.981 208.664C190.541 209 191.171 209.168 191.871 209.168ZM191.927 208.118C191.423 208.118 190.971 207.992 190.569 207.74C190.177 207.488 189.865 207.147 189.631 206.718C189.407 206.279 189.295 205.789 189.295 205.248C189.295 204.697 189.407 204.207 189.631 203.778C189.865 203.349 190.182 203.008 190.583 202.756C190.985 202.504 191.433 202.378 191.927 202.378C192.431 202.378 192.884 202.504 193.285 202.756C193.696 203.008 194.018 203.353 194.251 203.792C194.494 204.221 194.615 204.707 194.615 205.248C194.615 205.789 194.494 206.279 194.251 206.718C194.018 207.147 193.696 207.488 193.285 207.74C192.884 207.992 192.431 208.118 191.927 208.118ZM200.8 209H201.85V198.402H200.8V209ZM207.715 209.168C208.229 209.168 208.695 209.084 209.115 208.916C209.545 208.739 209.913 208.51 210.221 208.23C210.529 207.941 210.758 207.628 210.907 207.292L210.011 206.816C209.778 207.208 209.475 207.535 209.101 207.796C208.728 208.057 208.266 208.188 207.715 208.188C207.267 208.188 206.847 208.081 206.455 207.866C206.063 207.651 205.741 207.353 205.489 206.97C205.247 206.578 205.116 206.111 205.097 205.57H211.005C211.024 205.449 211.038 205.332 211.047 205.22C211.057 205.099 211.061 204.991 211.061 204.898C211.061 204.45 210.982 204.016 210.823 203.596C210.665 203.167 210.436 202.784 210.137 202.448C209.839 202.103 209.475 201.832 209.045 201.636C208.625 201.431 208.145 201.328 207.603 201.328C206.922 201.328 206.306 201.496 205.755 201.832C205.214 202.168 204.785 202.63 204.467 203.218C204.15 203.797 203.991 204.464 203.991 205.22C203.991 205.976 204.155 206.653 204.481 207.25C204.808 207.847 205.251 208.319 205.811 208.664C206.381 209 207.015 209.168 207.715 209.168ZM207.603 202.308C208.023 202.308 208.406 202.406 208.751 202.602C209.106 202.798 209.386 203.069 209.591 203.414C209.806 203.75 209.918 204.142 209.927 204.59H205.125C205.181 204.123 205.326 203.722 205.559 203.386C205.802 203.041 206.101 202.775 206.455 202.588C206.81 202.401 207.193 202.308 207.603 202.308ZM216.769 212.08C217.459 212.08 218.071 211.931 218.603 211.632C219.144 211.343 219.564 210.941 219.863 210.428C220.171 209.924 220.325 209.35 220.325 208.706V201.496H219.275V202.63C218.976 202.229 218.593 201.911 218.127 201.678C217.66 201.445 217.151 201.328 216.601 201.328C215.891 201.328 215.257 201.496 214.697 201.832C214.146 202.168 213.707 202.621 213.381 203.19C213.063 203.759 212.905 204.399 212.905 205.108C212.905 205.808 213.063 206.447 213.381 207.026C213.707 207.595 214.151 208.048 214.711 208.384C215.271 208.72 215.901 208.888 216.601 208.888C217.151 208.888 217.665 208.767 218.141 208.524C218.617 208.281 218.995 207.941 219.275 207.502V208.706C219.275 209.21 219.158 209.635 218.925 209.98C218.691 210.325 218.383 210.587 218.001 210.764C217.618 210.941 217.198 211.03 216.741 211.03C216.143 211.03 215.653 210.899 215.271 210.638C214.888 210.377 214.622 210.069 214.473 209.714L213.507 210.232C213.759 210.773 214.169 211.217 214.739 211.562C215.317 211.907 215.994 212.08 216.769 212.08ZM216.657 207.838C216.153 207.838 215.7 207.717 215.299 207.474C214.907 207.222 214.594 206.891 214.361 206.48C214.137 206.06 214.025 205.603 214.025 205.108C214.025 204.604 214.137 204.147 214.361 203.736C214.594 203.325 214.911 202.999 215.313 202.756C215.714 202.504 216.162 202.378 216.657 202.378C217.142 202.378 217.581 202.504 217.973 202.756C218.365 202.999 218.677 203.33 218.911 203.75C219.153 204.161 219.275 204.613 219.275 205.108C219.275 205.603 219.153 206.06 218.911 206.48C218.677 206.891 218.365 207.222 217.973 207.474C217.581 207.717 217.142 207.838 216.657 207.838ZM224.952 209.168C225.531 209.168 226.054 209.051 226.52 208.818C226.987 208.585 227.342 208.286 227.584 207.922V209H228.634V203.848C228.634 203.353 228.513 202.919 228.27 202.546C228.037 202.163 227.706 201.865 227.276 201.65C226.856 201.435 226.371 201.328 225.82 201.328C225.4 201.328 224.994 201.407 224.602 201.566C224.21 201.715 223.86 201.921 223.552 202.182C223.254 202.443 223.034 202.733 222.894 203.05L223.846 203.568C224.014 203.204 224.271 202.91 224.616 202.686C224.962 202.453 225.363 202.336 225.82 202.336C226.343 202.336 226.768 202.476 227.094 202.756C227.421 203.036 227.584 203.4 227.584 203.848V204.24L224.868 204.688C224.038 204.828 223.431 205.113 223.048 205.542C222.666 205.971 222.474 206.475 222.474 207.054C222.474 207.465 222.582 207.829 222.796 208.146C223.011 208.463 223.305 208.715 223.678 208.902C224.052 209.079 224.476 209.168 224.952 209.168ZM223.594 207.012C223.594 206.667 223.711 206.368 223.944 206.116C224.187 205.864 224.579 205.691 225.12 205.598L227.584 205.192V205.752C227.584 206.209 227.477 206.625 227.262 206.998C227.048 207.371 226.749 207.67 226.366 207.894C225.984 208.109 225.536 208.216 225.022 208.216C224.602 208.216 224.257 208.099 223.986 207.866C223.725 207.633 223.594 207.348 223.594 207.012ZM231.094 209H232.144V198.402H231.094V209ZM240.702 209.168C241.169 209.168 241.607 209.084 242.018 208.916C242.429 208.748 242.793 208.519 243.11 208.23C243.427 207.941 243.665 207.614 243.824 207.25L242.872 206.732C242.676 207.152 242.387 207.488 242.004 207.74C241.631 207.992 241.197 208.118 240.702 208.118C240.207 208.118 239.759 207.992 239.358 207.74C238.966 207.488 238.653 207.147 238.42 206.718C238.196 206.279 238.084 205.789 238.084 205.248C238.084 204.697 238.196 204.207 238.42 203.778C238.653 203.339 238.966 202.999 239.358 202.756C239.759 202.504 240.207 202.378 240.702 202.378C241.197 202.378 241.635 202.504 242.018 202.756C242.401 203.008 242.685 203.335 242.872 203.736L243.824 203.246C243.665 202.873 243.427 202.546 243.11 202.266C242.793 201.977 242.429 201.748 242.018 201.58C241.607 201.412 241.169 201.328 240.702 201.328C239.965 201.328 239.316 201.501 238.756 201.846C238.196 202.182 237.757 202.644 237.44 203.232C237.123 203.82 236.964 204.487 236.964 205.234C236.964 205.981 237.123 206.653 237.44 207.25C237.757 207.838 238.196 208.305 238.756 208.65C239.316 208.995 239.965 209.168 240.702 209.168ZM245.967 209H247.017V204.534C247.017 203.862 247.203 203.335 247.577 202.952C247.959 202.569 248.431 202.378 248.991 202.378C249.551 202.378 250.013 202.569 250.377 202.952C250.75 203.325 250.937 203.853 250.937 204.534V209H251.987V204.128C251.987 203.596 251.861 203.12 251.609 202.7C251.366 202.271 251.03 201.935 250.601 201.692C250.181 201.449 249.705 201.328 249.173 201.328C248.706 201.328 248.286 201.426 247.913 201.622C247.539 201.818 247.241 202.084 247.017 202.42V198.402H245.967V209ZM256.462 209.168C257.041 209.168 257.563 209.051 258.03 208.818C258.497 208.585 258.851 208.286 259.094 207.922V209H260.144V203.848C260.144 203.353 260.023 202.919 259.78 202.546C259.547 202.163 259.215 201.865 258.786 201.65C258.366 201.435 257.881 201.328 257.33 201.328C256.91 201.328 256.504 201.407 256.112 201.566C255.72 201.715 255.37 201.921 255.062 202.182C254.763 202.443 254.544 202.733 254.404 203.05L255.356 203.568C255.524 203.204 255.781 202.91 256.126 202.686C256.471 202.453 256.873 202.336 257.33 202.336C257.853 202.336 258.277 202.476 258.604 202.756C258.931 203.036 259.094 203.4 259.094 203.848V204.24L256.378 204.688C255.547 204.828 254.941 205.113 254.558 205.542C254.175 205.971 253.984 206.475 253.984 207.054C253.984 207.465 254.091 207.829 254.306 208.146C254.521 208.463 254.815 208.715 255.188 208.902C255.561 209.079 255.986 209.168 256.462 209.168ZM255.104 207.012C255.104 206.667 255.221 206.368 255.454 206.116C255.697 205.864 256.089 205.691 256.63 205.598L259.094 205.192V205.752C259.094 206.209 258.987 206.625 258.772 206.998C258.557 207.371 258.259 207.67 257.876 207.894C257.493 208.109 257.045 208.216 256.532 208.216C256.112 208.216 255.767 208.099 255.496 207.866C255.235 207.633 255.104 207.348 255.104 207.012ZM262.604 209H263.654V198.402H262.604V209ZM266.103 209H267.153V198.402H266.103V209ZM273.018 209.168C273.532 209.168 273.998 209.084 274.418 208.916C274.848 208.739 275.216 208.51 275.524 208.23C275.832 207.941 276.061 207.628 276.21 207.292L275.314 206.816C275.081 207.208 274.778 207.535 274.404 207.796C274.031 208.057 273.569 208.188 273.018 208.188C272.57 208.188 272.15 208.081 271.758 207.866C271.366 207.651 271.044 207.353 270.792 206.97C270.55 206.578 270.419 206.111 270.4 205.57H276.308C276.327 205.449 276.341 205.332 276.35 205.22C276.36 205.099 276.364 204.991 276.364 204.898C276.364 204.45 276.285 204.016 276.126 203.596C275.968 203.167 275.739 202.784 275.44 202.448C275.142 202.103 274.778 201.832 274.348 201.636C273.928 201.431 273.448 201.328 272.906 201.328C272.225 201.328 271.609 201.496 271.058 201.832C270.517 202.168 270.088 202.63 269.77 203.218C269.453 203.797 269.294 204.464 269.294 205.22C269.294 205.976 269.458 206.653 269.784 207.25C270.111 207.847 270.554 208.319 271.114 208.664C271.684 209 272.318 209.168 273.018 209.168ZM272.906 202.308C273.326 202.308 273.709 202.406 274.054 202.602C274.409 202.798 274.689 203.069 274.894 203.414C275.109 203.75 275.221 204.142 275.23 204.59H270.428C270.484 204.123 270.629 203.722 270.862 203.386C271.105 203.041 271.404 202.775 271.758 202.588C272.113 202.401 272.496 202.308 272.906 202.308ZM278.516 209H279.566V204.534C279.566 203.862 279.752 203.335 280.126 202.952C280.499 202.569 280.97 202.378 281.54 202.378C282.118 202.378 282.585 202.569 282.94 202.952C283.304 203.325 283.486 203.853 283.486 204.534V209H284.536V204.128C284.536 203.596 284.41 203.12 284.158 202.7C283.915 202.271 283.579 201.935 283.15 201.692C282.73 201.449 282.254 201.328 281.722 201.328C281.255 201.328 280.835 201.426 280.462 201.622C280.088 201.818 279.79 202.084 279.566 202.42V201.496H278.516V209ZM290.397 212.08C291.088 212.08 291.699 211.931 292.231 211.632C292.772 211.343 293.192 210.941 293.491 210.428C293.799 209.924 293.953 209.35 293.953 208.706V201.496H292.903V202.63C292.604 202.229 292.222 201.911 291.755 201.678C291.288 201.445 290.78 201.328 290.229 201.328C289.52 201.328 288.885 201.496 288.325 201.832C287.774 202.168 287.336 202.621 287.009 203.19C286.692 203.759 286.533 204.399 286.533 205.108C286.533 205.808 286.692 206.447 287.009 207.026C287.336 207.595 287.779 208.048 288.339 208.384C288.899 208.72 289.529 208.888 290.229 208.888C290.78 208.888 291.293 208.767 291.769 208.524C292.245 208.281 292.623 207.941 292.903 207.502V208.706C292.903 209.21 292.786 209.635 292.553 209.98C292.32 210.325 292.012 210.587 291.629 210.764C291.246 210.941 290.826 211.03 290.369 211.03C289.772 211.03 289.282 210.899 288.899 210.638C288.516 210.377 288.25 210.069 288.101 209.714L287.135 210.232C287.387 210.773 287.798 211.217 288.367 211.562C288.946 211.907 289.622 212.08 290.397 212.08ZM290.285 207.838C289.781 207.838 289.328 207.717 288.927 207.474C288.535 207.222 288.222 206.891 287.989 206.48C287.765 206.06 287.653 205.603 287.653 205.108C287.653 204.604 287.765 204.147 287.989 203.736C288.222 203.325 288.54 202.999 288.941 202.756C289.342 202.504 289.79 202.378 290.285 202.378C290.77 202.378 291.209 202.504 291.601 202.756C291.993 202.999 292.306 203.33 292.539 203.75C292.782 204.161 292.903 204.613 292.903 205.108C292.903 205.603 292.782 206.06 292.539 206.48C292.306 206.891 291.993 207.222 291.601 207.474C291.209 207.717 290.77 207.838 290.285 207.838ZM299.826 209.168C300.34 209.168 300.806 209.084 301.226 208.916C301.656 208.739 302.024 208.51 302.332 208.23C302.64 207.941 302.869 207.628 303.018 207.292L302.122 206.816C301.889 207.208 301.586 207.535 301.212 207.796C300.839 208.057 300.377 208.188 299.826 208.188C299.378 208.188 298.958 208.081 298.566 207.866C298.174 207.651 297.852 207.353 297.6 206.97C297.358 206.578 297.227 206.111 297.208 205.57H303.116C303.135 205.449 303.149 205.332 303.158 205.22C303.168 205.099 303.172 204.991 303.172 204.898C303.172 204.45 303.093 204.016 302.934 203.596C302.776 203.167 302.547 202.784 302.248 202.448C301.95 202.103 301.586 201.832 301.156 201.636C300.736 201.431 300.256 201.328 299.714 201.328C299.033 201.328 298.417 201.496 297.866 201.832C297.325 202.168 296.896 202.63 296.578 203.218C296.261 203.797 296.102 204.464 296.102 205.22C296.102 205.976 296.266 206.653 296.592 207.25C296.919 207.847 297.362 208.319 297.922 208.664C298.492 209 299.126 209.168 299.826 209.168ZM299.714 202.308C300.134 202.308 300.517 202.406 300.862 202.602C301.217 202.798 301.497 203.069 301.702 203.414C301.917 203.75 302.029 204.142 302.038 204.59H297.236C297.292 204.123 297.437 203.722 297.67 203.386C297.913 203.041 298.212 202.775 298.566 202.588C298.921 202.401 299.304 202.308 299.714 202.308ZM305.366 210.82C306.299 210.596 306.766 209.868 306.766 208.636V207.46H305.646V209H306.248C306.22 209.784 305.926 210.251 305.366 210.4V210.82ZM102.592 233.168C103.292 233.168 103.927 233 104.496 232.664C105.075 232.328 105.537 231.866 105.882 231.278C106.227 230.681 106.4 229.999 106.4 229.234C106.4 228.478 106.232 227.806 105.896 227.218C105.569 226.63 105.117 226.168 104.538 225.832C103.969 225.496 103.32 225.328 102.592 225.328C101.864 225.328 101.211 225.501 100.632 225.846C100.063 226.182 99.61 226.644 99.274 227.232C98.938 227.82 98.77 228.487 98.77 229.234C98.77 229.99 98.938 230.667 99.274 231.264C99.6193 231.852 100.081 232.319 100.66 232.664C101.239 233 101.883 233.168 102.592 233.168ZM102.592 232.118C102.088 232.118 101.631 231.992 101.22 231.74C100.819 231.488 100.497 231.143 100.254 230.704C100.011 230.265 99.89 229.775 99.89 229.234C99.89 228.693 100.011 228.207 100.254 227.778C100.497 227.349 100.819 227.008 101.22 226.756C101.631 226.504 102.088 226.378 102.592 226.378C103.096 226.378 103.549 226.504 103.95 226.756C104.361 227.008 104.683 227.349 104.916 227.778C105.159 228.207 105.28 228.693 105.28 229.234C105.28 229.775 105.159 230.265 104.916 230.704C104.683 231.143 104.361 231.488 103.95 231.74C103.549 231.992 103.096 232.118 102.592 232.118ZM111.212 233.168C111.678 233.168 112.098 233.07 112.472 232.874C112.845 232.678 113.144 232.412 113.368 232.076V233H114.418V225.496H113.368V229.962C113.368 230.634 113.181 231.161 112.808 231.544C112.444 231.927 111.972 232.118 111.394 232.118C110.824 232.118 110.358 231.936 109.994 231.572C109.63 231.199 109.448 230.709 109.448 230.102V225.496H108.398V230.228C108.398 230.807 108.519 231.32 108.762 231.768C109.014 232.207 109.354 232.552 109.784 232.804C110.213 233.047 110.689 233.168 111.212 233.168ZM116.877 233H117.927V228.38C117.927 227.764 118.091 227.288 118.417 226.952C118.744 226.616 119.178 226.448 119.719 226.448H120.377V225.398H119.901C119.444 225.398 119.047 225.477 118.711 225.636C118.385 225.795 118.123 226.019 117.927 226.308V225.496H116.877V233ZM125.357 233H126.407V226.546H128.241V225.496H126.407V224.824C126.407 224.292 126.556 223.919 126.855 223.704C127.153 223.489 127.527 223.382 127.975 223.382C128.021 223.382 128.101 223.387 128.213 223.396C128.325 223.396 128.413 223.405 128.479 223.424V222.472C128.404 222.453 128.306 222.439 128.185 222.43C128.063 222.411 127.956 222.402 127.863 222.402C127.424 222.402 127.013 222.495 126.631 222.682C126.248 222.869 125.94 223.144 125.707 223.508C125.473 223.863 125.357 224.301 125.357 224.824V225.496H123.859V226.546H125.357V233ZM130.246 224.11H131.296V222.57H130.246V224.11ZM130.246 233H131.296V225.496H130.246V233ZM133.745 233H134.795V228.38C134.795 227.764 134.959 227.288 135.285 226.952C135.612 226.616 136.046 226.448 136.587 226.448H137.245V225.398H136.769C136.312 225.398 135.915 225.477 135.579 225.636C135.253 225.795 134.991 226.019 134.795 226.308V225.496H133.745V233ZM138.776 233H139.826V228.534C139.826 227.862 140.008 227.335 140.372 226.952C140.736 226.569 141.188 226.378 141.73 226.378C142.271 226.378 142.719 226.569 143.074 226.952C143.428 227.325 143.606 227.853 143.606 228.534V233H144.656V228.534C144.656 227.862 144.838 227.335 145.202 226.952C145.566 226.569 146.018 226.378 146.56 226.378C147.101 226.378 147.549 226.569 147.904 226.952C148.258 227.325 148.436 227.853 148.436 228.534V233H149.486V228.128C149.486 227.596 149.355 227.12 149.094 226.7C148.842 226.271 148.501 225.935 148.072 225.692C147.652 225.449 147.19 225.328 146.686 225.328C146.182 225.328 145.715 225.449 145.286 225.692C144.866 225.935 144.544 226.289 144.32 226.756C144.086 226.327 143.755 225.981 143.326 225.72C142.896 225.459 142.425 225.328 141.912 225.328C141.482 225.328 141.081 225.426 140.708 225.622C140.344 225.809 140.05 226.075 139.826 226.42V225.496H138.776V233ZM156.639 233.168C157.218 233.168 157.741 233.051 158.207 232.818C158.674 232.585 159.029 232.286 159.271 231.922V233H160.321V227.848C160.321 227.353 160.2 226.919 159.957 226.546C159.724 226.163 159.393 225.865 158.963 225.65C158.543 225.435 158.058 225.328 157.507 225.328C157.087 225.328 156.681 225.407 156.289 225.566C155.897 225.715 155.547 225.921 155.239 226.182C154.941 226.443 154.721 226.733 154.581 227.05L155.533 227.568C155.701 227.204 155.958 226.91 156.303 226.686C156.649 226.453 157.05 226.336 157.507 226.336C158.03 226.336 158.455 226.476 158.781 226.756C159.108 227.036 159.271 227.4 159.271 227.848V228.24L156.555 228.688C155.725 228.828 155.118 229.113 154.735 229.542C154.353 229.971 154.161 230.475 154.161 231.054C154.161 231.465 154.269 231.829 154.483 232.146C154.698 232.463 154.992 232.715 155.365 232.902C155.739 233.079 156.163 233.168 156.639 233.168ZM155.281 231.012C155.281 230.667 155.398 230.368 155.631 230.116C155.874 229.864 156.266 229.691 156.807 229.598L159.271 229.192V229.752C159.271 230.209 159.164 230.625 158.949 230.998C158.735 231.371 158.436 231.67 158.053 231.894C157.671 232.109 157.223 232.216 156.709 232.216C156.289 232.216 155.944 232.099 155.673 231.866C155.412 231.633 155.281 231.348 155.281 231.012ZM162.781 233H163.831V222.402H162.781V233ZM168.884 233.168C169.407 233.168 169.869 233.079 170.27 232.902C170.672 232.715 170.984 232.459 171.208 232.132C171.442 231.805 171.558 231.437 171.558 231.026C171.558 230.522 171.386 230.083 171.04 229.71C170.704 229.337 170.233 229.061 169.626 228.884L168.38 228.52C168.25 228.483 168.096 228.427 167.918 228.352C167.75 228.277 167.601 228.165 167.47 228.016C167.34 227.867 167.274 227.666 167.274 227.414C167.274 227.087 167.4 226.817 167.652 226.602C167.904 226.387 168.24 226.28 168.66 226.28C169.09 226.28 169.477 226.401 169.822 226.644C170.177 226.877 170.448 227.204 170.634 227.624L171.53 227.204C171.316 226.616 170.947 226.159 170.424 225.832C169.911 225.496 169.337 225.328 168.702 225.328C168.236 225.328 167.811 225.417 167.428 225.594C167.046 225.771 166.742 226.023 166.518 226.35C166.294 226.677 166.182 227.059 166.182 227.498C166.182 227.965 166.336 228.375 166.644 228.73C166.952 229.085 167.452 229.36 168.142 229.556L169.22 229.864C169.37 229.901 169.542 229.962 169.738 230.046C169.934 230.13 170.107 230.251 170.256 230.41C170.406 230.559 170.48 230.765 170.48 231.026C170.48 231.381 170.326 231.67 170.018 231.894C169.71 232.109 169.332 232.216 168.884 232.216C168.418 232.216 167.988 232.081 167.596 231.81C167.214 231.539 166.915 231.175 166.7 230.718L165.818 231.138C166.061 231.763 166.453 232.258 166.994 232.622C167.536 232.986 168.166 233.168 168.884 233.168ZM177.217 233.168C177.917 233.168 178.552 233 179.121 232.664C179.7 232.328 180.162 231.866 180.507 231.278C180.853 230.681 181.025 229.999 181.025 229.234C181.025 228.478 180.857 227.806 180.521 227.218C180.195 226.63 179.742 226.168 179.163 225.832C178.594 225.496 177.945 225.328 177.217 225.328C176.489 225.328 175.836 225.501 175.257 225.846C174.688 226.182 174.235 226.644 173.899 227.232C173.563 227.82 173.395 228.487 173.395 229.234C173.395 229.99 173.563 230.667 173.899 231.264C174.245 231.852 174.707 232.319 175.285 232.664C175.864 233 176.508 233.168 177.217 233.168ZM177.217 232.118C176.713 232.118 176.256 231.992 175.845 231.74C175.444 231.488 175.122 231.143 174.879 230.704C174.637 230.265 174.515 229.775 174.515 229.234C174.515 228.693 174.637 228.207 174.879 227.778C175.122 227.349 175.444 227.008 175.845 226.756C176.256 226.504 176.713 226.378 177.217 226.378C177.721 226.378 178.174 226.504 178.575 226.756C178.986 227.008 179.308 227.349 179.541 227.778C179.784 228.207 179.905 228.693 179.905 229.234C179.905 229.775 179.784 230.265 179.541 230.704C179.308 231.143 178.986 231.488 178.575 231.74C178.174 231.992 177.721 232.118 177.217 232.118ZM185.856 235.8H186.906V231.782C187.186 232.221 187.569 232.561 188.054 232.804C188.539 233.047 189.071 233.168 189.65 233.168C190.359 233.168 190.989 233 191.54 232.664C192.1 232.319 192.539 231.852 192.856 231.264C193.183 230.667 193.346 229.995 193.346 229.248C193.346 228.492 193.183 227.82 192.856 227.232C192.539 226.644 192.1 226.182 191.54 225.846C190.989 225.501 190.359 225.328 189.65 225.328C189.062 225.328 188.535 225.445 188.068 225.678C187.601 225.911 187.214 226.229 186.906 226.63V225.496H185.856V235.8ZM189.594 232.118C189.09 232.118 188.633 231.992 188.222 231.74C187.821 231.488 187.499 231.147 187.256 230.718C187.023 230.279 186.906 229.789 186.906 229.248C186.906 228.707 187.023 228.221 187.256 227.792C187.499 227.353 187.821 227.008 188.222 226.756C188.633 226.504 189.09 226.378 189.594 226.378C190.098 226.378 190.546 226.504 190.938 226.756C191.339 227.008 191.652 227.349 191.876 227.778C192.109 228.207 192.226 228.697 192.226 229.248C192.226 229.789 192.109 230.279 191.876 230.718C191.652 231.147 191.339 231.488 190.938 231.74C190.546 231.992 190.098 232.118 189.594 232.118ZM195.494 233H196.544V228.38C196.544 227.764 196.707 227.288 197.034 226.952C197.361 226.616 197.795 226.448 198.336 226.448H198.994V225.398H198.518C198.061 225.398 197.664 225.477 197.328 225.636C197.001 225.795 196.74 226.019 196.544 226.308V225.496H195.494V233ZM204.038 233.168C204.738 233.168 205.373 233 205.942 232.664C206.521 232.328 206.983 231.866 207.328 231.278C207.674 230.681 207.846 229.999 207.846 229.234C207.846 228.478 207.678 227.806 207.342 227.218C207.016 226.63 206.563 226.168 205.984 225.832C205.415 225.496 204.766 225.328 204.038 225.328C203.31 225.328 202.657 225.501 202.078 225.846C201.509 226.182 201.056 226.644 200.72 227.232C200.384 227.82 200.216 228.487 200.216 229.234C200.216 229.99 200.384 230.667 200.72 231.264C201.066 231.852 201.528 232.319 202.106 232.664C202.685 233 203.329 233.168 204.038 233.168ZM204.038 232.118C203.534 232.118 203.077 231.992 202.666 231.74C202.265 231.488 201.943 231.143 201.7 230.704C201.458 230.265 201.336 229.775 201.336 229.234C201.336 228.693 201.458 228.207 201.7 227.778C201.943 227.349 202.265 227.008 202.666 226.756C203.077 226.504 203.534 226.378 204.038 226.378C204.542 226.378 204.995 226.504 205.396 226.756C205.807 227.008 206.129 227.349 206.362 227.778C206.605 228.207 206.726 228.693 206.726 229.234C206.726 229.775 206.605 230.265 206.362 230.704C206.129 231.143 205.807 231.488 205.396 231.74C204.995 231.992 204.542 232.118 204.038 232.118ZM211.864 233H212.914L215.868 225.496H214.678L212.396 231.572L210.114 225.496H208.938L211.864 233ZM217.394 224.11H218.444V222.57H217.394V224.11ZM217.394 233H218.444V225.496H217.394V233ZM224.281 233.168C224.86 233.168 225.392 233.047 225.877 232.804C226.363 232.561 226.745 232.221 227.025 231.782V233H228.075V222.402H227.025V226.63C226.717 226.229 226.33 225.911 225.863 225.678C225.397 225.445 224.869 225.328 224.281 225.328C223.572 225.328 222.937 225.501 222.377 225.846C221.827 226.182 221.388 226.644 221.061 227.232C220.744 227.82 220.585 228.492 220.585 229.248C220.585 229.995 220.744 230.667 221.061 231.264C221.388 231.852 221.831 232.319 222.391 232.664C222.951 233 223.581 233.168 224.281 233.168ZM224.337 232.118C223.833 232.118 223.381 231.992 222.979 231.74C222.587 231.488 222.275 231.147 222.041 230.718C221.817 230.279 221.705 229.789 221.705 229.248C221.705 228.697 221.817 228.207 222.041 227.778C222.275 227.349 222.592 227.008 222.993 226.756C223.395 226.504 223.843 226.378 224.337 226.378C224.841 226.378 225.294 226.504 225.695 226.756C226.106 227.008 226.428 227.353 226.661 227.792C226.904 228.221 227.025 228.707 227.025 229.248C227.025 229.789 226.904 230.279 226.661 230.718C226.428 231.147 226.106 231.488 225.695 231.74C225.294 231.992 224.841 232.118 224.337 232.118ZM233.947 233.168C234.46 233.168 234.927 233.084 235.347 232.916C235.776 232.739 236.145 232.51 236.453 232.23C236.761 231.941 236.99 231.628 237.139 231.292L236.243 230.816C236.01 231.208 235.706 231.535 235.333 231.796C234.96 232.057 234.498 232.188 233.947 232.188C233.499 232.188 233.079 232.081 232.687 231.866C232.295 231.651 231.973 231.353 231.721 230.97C231.478 230.578 231.348 230.111 231.329 229.57H237.237C237.256 229.449 237.27 229.332 237.279 229.22C237.288 229.099 237.293 228.991 237.293 228.898C237.293 228.45 237.214 228.016 237.055 227.596C236.896 227.167 236.668 226.784 236.369 226.448C236.07 226.103 235.706 225.832 235.277 225.636C234.857 225.431 234.376 225.328 233.835 225.328C233.154 225.328 232.538 225.496 231.987 225.832C231.446 226.168 231.016 226.63 230.699 227.218C230.382 227.797 230.223 228.464 230.223 229.22C230.223 229.976 230.386 230.653 230.713 231.25C231.04 231.847 231.483 232.319 232.043 232.664C232.612 233 233.247 233.168 233.947 233.168ZM233.835 226.308C234.255 226.308 234.638 226.406 234.983 226.602C235.338 226.798 235.618 227.069 235.823 227.414C236.038 227.75 236.15 228.142 236.159 228.59H231.357C231.413 228.123 231.558 227.722 231.791 227.386C232.034 227.041 232.332 226.775 232.687 226.588C233.042 226.401 233.424 226.308 233.835 226.308ZM244.125 233H245.175L248.129 225.496H246.939L244.657 231.572L242.375 225.496H241.199L244.125 233ZM251.552 233.168C252.131 233.168 252.654 233.051 253.12 232.818C253.587 232.585 253.942 232.286 254.184 231.922V233H255.234V227.848C255.234 227.353 255.113 226.919 254.87 226.546C254.637 226.163 254.306 225.865 253.876 225.65C253.456 225.435 252.971 225.328 252.42 225.328C252 225.328 251.594 225.407 251.202 225.566C250.81 225.715 250.46 225.921 250.152 226.182C249.854 226.443 249.634 226.733 249.494 227.05L250.446 227.568C250.614 227.204 250.871 226.91 251.216 226.686C251.562 226.453 251.963 226.336 252.42 226.336C252.943 226.336 253.368 226.476 253.694 226.756C254.021 227.036 254.184 227.4 254.184 227.848V228.24L251.468 228.688C250.638 228.828 250.031 229.113 249.648 229.542C249.266 229.971 249.074 230.475 249.074 231.054C249.074 231.465 249.182 231.829 249.396 232.146C249.611 232.463 249.905 232.715 250.278 232.902C250.652 233.079 251.076 233.168 251.552 233.168ZM250.194 231.012C250.194 230.667 250.311 230.368 250.544 230.116C250.787 229.864 251.179 229.691 251.72 229.598L254.184 229.192V229.752C254.184 230.209 254.077 230.625 253.862 230.998C253.648 231.371 253.349 231.67 252.966 231.894C252.584 232.109 252.136 232.216 251.622 232.216C251.202 232.216 250.857 232.099 250.586 231.866C250.325 231.633 250.194 231.348 250.194 231.012ZM257.694 233H258.744V228.38C258.744 227.764 258.907 227.288 259.234 226.952C259.561 226.616 259.995 226.448 260.536 226.448H261.194V225.398H260.718C260.261 225.398 259.864 225.477 259.528 225.636C259.201 225.795 258.94 226.019 258.744 226.308V225.496H257.694V233ZM262.724 224.11H263.774V222.57H262.724V224.11ZM262.724 233H263.774V225.496H262.724V233ZM269.738 233.168C270.438 233.168 271.072 233 271.642 232.664C272.22 232.328 272.682 231.866 273.028 231.278C273.373 230.681 273.546 229.999 273.546 229.234C273.546 228.478 273.378 227.806 273.042 227.218C272.715 226.63 272.262 226.168 271.684 225.832C271.114 225.496 270.466 225.328 269.738 225.328C269.01 225.328 268.356 225.501 267.778 225.846C267.208 226.182 266.756 226.644 266.42 227.232C266.084 227.82 265.916 228.487 265.916 229.234C265.916 229.99 266.084 230.667 266.42 231.264C266.765 231.852 267.227 232.319 267.806 232.664C268.384 233 269.028 233.168 269.738 233.168ZM269.738 232.118C269.234 232.118 268.776 231.992 268.366 231.74C267.964 231.488 267.642 231.143 267.4 230.704C267.157 230.265 267.036 229.775 267.036 229.234C267.036 228.693 267.157 228.207 267.4 227.778C267.642 227.349 267.964 227.008 268.366 226.756C268.776 226.504 269.234 226.378 269.738 226.378C270.242 226.378 270.694 226.504 271.096 226.756C271.506 227.008 271.828 227.349 272.062 227.778C272.304 228.207 272.426 228.693 272.426 229.234C272.426 229.775 272.304 230.265 272.062 230.704C271.828 231.143 271.506 231.488 271.096 231.74C270.694 231.992 270.242 232.118 269.738 232.118ZM278.358 233.168C278.824 233.168 279.244 233.07 279.618 232.874C279.991 232.678 280.29 232.412 280.514 232.076V233H281.564V225.496H280.514V229.962C280.514 230.634 280.327 231.161 279.954 231.544C279.59 231.927 279.118 232.118 278.54 232.118C277.97 232.118 277.504 231.936 277.14 231.572C276.776 231.199 276.594 230.709 276.594 230.102V225.496H275.544V230.228C275.544 230.807 275.665 231.32 275.908 231.768C276.16 232.207 276.5 232.552 276.93 232.804C277.359 233.047 277.835 233.168 278.358 233.168ZM286.627 233.168C287.15 233.168 287.612 233.079 288.013 232.902C288.414 232.715 288.727 232.459 288.951 232.132C289.184 231.805 289.301 231.437 289.301 231.026C289.301 230.522 289.128 230.083 288.783 229.71C288.447 229.337 287.976 229.061 287.369 228.884L286.123 228.52C285.992 228.483 285.838 228.427 285.661 228.352C285.493 228.277 285.344 228.165 285.213 228.016C285.082 227.867 285.017 227.666 285.017 227.414C285.017 227.087 285.143 226.817 285.395 226.602C285.647 226.387 285.983 226.28 286.403 226.28C286.832 226.28 287.22 226.401 287.565 226.644C287.92 226.877 288.19 227.204 288.377 227.624L289.273 227.204C289.058 226.616 288.69 226.159 288.167 225.832C287.654 225.496 287.08 225.328 286.445 225.328C285.978 225.328 285.554 225.417 285.171 225.594C284.788 225.771 284.485 226.023 284.261 226.35C284.037 226.677 283.925 227.059 283.925 227.498C283.925 227.965 284.079 228.375 284.387 228.73C284.695 229.085 285.194 229.36 285.885 229.556L286.963 229.864C287.112 229.901 287.285 229.962 287.481 230.046C287.677 230.13 287.85 230.251 287.999 230.41C288.148 230.559 288.223 230.765 288.223 231.026C288.223 231.381 288.069 231.67 287.761 231.894C287.453 232.109 287.075 232.216 286.627 232.216C286.16 232.216 285.731 232.081 285.339 231.81C284.956 231.539 284.658 231.175 284.443 230.718L283.561 231.138C283.804 231.763 284.196 232.258 284.737 232.622C285.278 232.986 285.908 233.168 286.627 233.168ZM99.078 257H100.128V246.402H99.078V257ZM105.993 257.168C106.507 257.168 106.973 257.084 107.393 256.916C107.823 256.739 108.191 256.51 108.499 256.23C108.807 255.941 109.036 255.628 109.185 255.292L108.289 254.816C108.056 255.208 107.753 255.535 107.379 255.796C107.006 256.057 106.544 256.188 105.993 256.188C105.545 256.188 105.125 256.081 104.733 255.866C104.341 255.651 104.019 255.353 103.767 254.97C103.525 254.578 103.394 254.111 103.375 253.57H109.283C109.302 253.449 109.316 253.332 109.325 253.22C109.335 253.099 109.339 252.991 109.339 252.898C109.339 252.45 109.26 252.016 109.101 251.596C108.943 251.167 108.714 250.784 108.415 250.448C108.117 250.103 107.753 249.832 107.323 249.636C106.903 249.431 106.423 249.328 105.881 249.328C105.2 249.328 104.584 249.496 104.033 249.832C103.492 250.168 103.063 250.63 102.745 251.218C102.428 251.797 102.269 252.464 102.269 253.22C102.269 253.976 102.433 254.653 102.759 255.25C103.086 255.847 103.529 256.319 104.089 256.664C104.659 257 105.293 257.168 105.993 257.168ZM105.881 250.308C106.301 250.308 106.684 250.406 107.029 250.602C107.384 250.798 107.664 251.069 107.869 251.414C108.084 251.75 108.196 252.142 108.205 252.59H103.403C103.459 252.123 103.604 251.722 103.837 251.386C104.08 251.041 104.379 250.775 104.733 250.588C105.088 250.401 105.471 250.308 105.881 250.308ZM115.047 260.08C115.737 260.08 116.349 259.931 116.881 259.632C117.422 259.343 117.842 258.941 118.141 258.428C118.449 257.924 118.603 257.35 118.603 256.706V249.496H117.553V250.63C117.254 250.229 116.871 249.911 116.405 249.678C115.938 249.445 115.429 249.328 114.879 249.328C114.169 249.328 113.535 249.496 112.975 249.832C112.424 250.168 111.985 250.621 111.659 251.19C111.341 251.759 111.183 252.399 111.183 253.108C111.183 253.808 111.341 254.447 111.659 255.026C111.985 255.595 112.429 256.048 112.989 256.384C113.549 256.72 114.179 256.888 114.879 256.888C115.429 256.888 115.943 256.767 116.419 256.524C116.895 256.281 117.273 255.941 117.553 255.502V256.706C117.553 257.21 117.436 257.635 117.203 257.98C116.969 258.325 116.661 258.587 116.279 258.764C115.896 258.941 115.476 259.03 115.019 259.03C114.421 259.03 113.931 258.899 113.549 258.638C113.166 258.377 112.9 258.069 112.751 257.714L111.785 258.232C112.037 258.773 112.447 259.217 113.017 259.562C113.595 259.907 114.272 260.08 115.047 260.08ZM114.935 255.838C114.431 255.838 113.978 255.717 113.577 255.474C113.185 255.222 112.872 254.891 112.639 254.48C112.415 254.06 112.303 253.603 112.303 253.108C112.303 252.604 112.415 252.147 112.639 251.736C112.872 251.325 113.189 250.999 113.591 250.756C113.992 250.504 114.44 250.378 114.935 250.378C115.42 250.378 115.859 250.504 116.251 250.756C116.643 250.999 116.955 251.33 117.189 251.75C117.431 252.161 117.553 252.613 117.553 253.108C117.553 253.603 117.431 254.06 117.189 254.48C116.955 254.891 116.643 255.222 116.251 255.474C115.859 255.717 115.42 255.838 114.935 255.838ZM123.23 257.168C123.809 257.168 124.331 257.051 124.798 256.818C125.265 256.585 125.619 256.286 125.862 255.922V257H126.912V251.848C126.912 251.353 126.791 250.919 126.548 250.546C126.315 250.163 125.983 249.865 125.554 249.65C125.134 249.435 124.649 249.328 124.098 249.328C123.678 249.328 123.272 249.407 122.88 249.566C122.488 249.715 122.138 249.921 121.83 250.182C121.531 250.443 121.312 250.733 121.172 251.05L122.124 251.568C122.292 251.204 122.549 250.91 122.894 250.686C123.239 250.453 123.641 250.336 124.098 250.336C124.621 250.336 125.045 250.476 125.372 250.756C125.699 251.036 125.862 251.4 125.862 251.848V252.24L123.146 252.688C122.315 252.828 121.709 253.113 121.326 253.542C120.943 253.971 120.752 254.475 120.752 255.054C120.752 255.465 120.859 255.829 121.074 256.146C121.289 256.463 121.583 256.715 121.956 256.902C122.329 257.079 122.754 257.168 123.23 257.168ZM121.872 255.012C121.872 254.667 121.989 254.368 122.222 254.116C122.465 253.864 122.857 253.691 123.398 253.598L125.862 253.192V253.752C125.862 254.209 125.755 254.625 125.54 254.998C125.325 255.371 125.027 255.67 124.644 255.894C124.261 256.109 123.813 256.216 123.3 256.216C122.88 256.216 122.535 256.099 122.264 255.866C122.003 255.633 121.872 255.348 121.872 255.012ZM129.372 257H130.422V246.402H129.372V257ZM138.154 257.168C138.677 257.168 139.139 257.079 139.54 256.902C139.941 256.715 140.254 256.459 140.478 256.132C140.711 255.805 140.828 255.437 140.828 255.026C140.828 254.522 140.655 254.083 140.31 253.71C139.974 253.337 139.503 253.061 138.896 252.884L137.65 252.52C137.519 252.483 137.365 252.427 137.188 252.352C137.02 252.277 136.871 252.165 136.74 252.016C136.609 251.867 136.544 251.666 136.544 251.414C136.544 251.087 136.67 250.817 136.922 250.602C137.174 250.387 137.51 250.28 137.93 250.28C138.359 250.28 138.747 250.401 139.092 250.644C139.447 250.877 139.717 251.204 139.904 251.624L140.8 251.204C140.585 250.616 140.217 250.159 139.694 249.832C139.181 249.496 138.607 249.328 137.972 249.328C137.505 249.328 137.081 249.417 136.698 249.594C136.315 249.771 136.012 250.023 135.788 250.35C135.564 250.677 135.452 251.059 135.452 251.498C135.452 251.965 135.606 252.375 135.914 252.73C136.222 253.085 136.721 253.36 137.412 253.556L138.49 253.864C138.639 253.901 138.812 253.962 139.008 254.046C139.204 254.13 139.377 254.251 139.526 254.41C139.675 254.559 139.75 254.765 139.75 255.026C139.75 255.381 139.596 255.67 139.288 255.894C138.98 256.109 138.602 256.216 138.154 256.216C137.687 256.216 137.258 256.081 136.866 255.81C136.483 255.539 136.185 255.175 135.97 254.718L135.088 255.138C135.331 255.763 135.723 256.258 136.264 256.622C136.805 256.986 137.435 257.168 138.154 257.168ZM146.389 257.168C146.902 257.168 147.369 257.084 147.789 256.916C148.218 256.739 148.587 256.51 148.895 256.23C149.203 255.941 149.432 255.628 149.581 255.292L148.685 254.816C148.452 255.208 148.148 255.535 147.775 255.796C147.402 256.057 146.94 256.188 146.389 256.188C145.941 256.188 145.521 256.081 145.129 255.866C144.737 255.651 144.415 255.353 144.163 254.97C143.92 254.578 143.79 254.111 143.771 253.57H149.679C149.698 253.449 149.712 253.332 149.721 253.22C149.73 253.099 149.735 252.991 149.735 252.898C149.735 252.45 149.656 252.016 149.497 251.596C149.338 251.167 149.11 250.784 148.811 250.448C148.512 250.103 148.148 249.832 147.719 249.636C147.299 249.431 146.818 249.328 146.277 249.328C145.596 249.328 144.98 249.496 144.429 249.832C143.888 250.168 143.458 250.63 143.141 251.218C142.824 251.797 142.665 252.464 142.665 253.22C142.665 253.976 142.828 254.653 143.155 255.25C143.482 255.847 143.925 256.319 144.485 256.664C145.054 257 145.689 257.168 146.389 257.168ZM146.277 250.308C146.697 250.308 147.08 250.406 147.425 250.602C147.78 250.798 148.06 251.069 148.265 251.414C148.48 251.75 148.592 252.142 148.601 252.59H143.799C143.855 252.123 144 251.722 144.233 251.386C144.476 251.041 144.774 250.775 145.129 250.588C145.484 250.401 145.866 250.308 146.277 250.308ZM151.886 257H152.936V252.38C152.936 251.764 153.1 251.288 153.426 250.952C153.753 250.616 154.187 250.448 154.728 250.448H155.386V249.398H154.91C154.453 249.398 154.056 249.477 153.72 249.636C153.394 249.795 153.132 250.019 152.936 250.308V249.496H151.886V257ZM158.919 257H159.969L162.923 249.496H161.733L159.451 255.572L157.169 249.496H155.993L158.919 257ZM164.449 248.11H165.499V246.57H164.449V248.11ZM164.449 257H165.499V249.496H164.449V257ZM171.378 257.168C171.845 257.168 172.284 257.084 172.694 256.916C173.105 256.748 173.469 256.519 173.786 256.23C174.104 255.941 174.342 255.614 174.5 255.25L173.548 254.732C173.352 255.152 173.063 255.488 172.68 255.74C172.307 255.992 171.873 256.118 171.378 256.118C170.884 256.118 170.436 255.992 170.034 255.74C169.642 255.488 169.33 255.147 169.096 254.718C168.872 254.279 168.76 253.789 168.76 253.248C168.76 252.697 168.872 252.207 169.096 251.778C169.33 251.339 169.642 250.999 170.034 250.756C170.436 250.504 170.884 250.378 171.378 250.378C171.873 250.378 172.312 250.504 172.694 250.756C173.077 251.008 173.362 251.335 173.548 251.736L174.5 251.246C174.342 250.873 174.104 250.546 173.786 250.266C173.469 249.977 173.105 249.748 172.694 249.58C172.284 249.412 171.845 249.328 171.378 249.328C170.641 249.328 169.992 249.501 169.432 249.846C168.872 250.182 168.434 250.644 168.116 251.232C167.799 251.82 167.64 252.487 167.64 253.234C167.64 253.981 167.799 254.653 168.116 255.25C168.434 255.838 168.872 256.305 169.432 256.65C169.992 256.995 170.641 257.168 171.378 257.168ZM180.059 257.168C180.572 257.168 181.039 257.084 181.459 256.916C181.888 256.739 182.257 256.51 182.565 256.23C182.873 255.941 183.102 255.628 183.251 255.292L182.355 254.816C182.122 255.208 181.818 255.535 181.445 255.796C181.072 256.057 180.61 256.188 180.059 256.188C179.611 256.188 179.191 256.081 178.799 255.866C178.407 255.651 178.085 255.353 177.833 254.97C177.59 254.578 177.46 254.111 177.441 253.57H183.349C183.368 253.449 183.382 253.332 183.391 253.22C183.4 253.099 183.405 252.991 183.405 252.898C183.405 252.45 183.326 252.016 183.167 251.596C183.008 251.167 182.78 250.784 182.481 250.448C182.182 250.103 181.818 249.832 181.389 249.636C180.969 249.431 180.488 249.328 179.947 249.328C179.266 249.328 178.65 249.496 178.099 249.832C177.558 250.168 177.128 250.63 176.811 251.218C176.494 251.797 176.335 252.464 176.335 253.22C176.335 253.976 176.498 254.653 176.825 255.25C177.152 255.847 177.595 256.319 178.155 256.664C178.724 257 179.359 257.168 180.059 257.168ZM179.947 250.308C180.367 250.308 180.75 250.406 181.095 250.602C181.45 250.798 181.73 251.069 181.935 251.414C182.15 251.75 182.262 252.142 182.271 252.59H177.469C177.525 252.123 177.67 251.722 177.903 251.386C178.146 251.041 178.444 250.775 178.799 250.588C179.154 250.401 179.536 250.308 179.947 250.308ZM188.16 257.168C188.683 257.168 189.145 257.079 189.546 256.902C189.947 256.715 190.26 256.459 190.484 256.132C190.717 255.805 190.834 255.437 190.834 255.026C190.834 254.522 190.661 254.083 190.316 253.71C189.98 253.337 189.509 253.061 188.902 252.884L187.656 252.52C187.525 252.483 187.371 252.427 187.194 252.352C187.026 252.277 186.877 252.165 186.746 252.016C186.615 251.867 186.55 251.666 186.55 251.414C186.55 251.087 186.676 250.817 186.928 250.602C187.18 250.387 187.516 250.28 187.936 250.28C188.365 250.28 188.753 250.401 189.098 250.644C189.453 250.877 189.723 251.204 189.91 251.624L190.806 251.204C190.591 250.616 190.223 250.159 189.7 249.832C189.187 249.496 188.613 249.328 187.978 249.328C187.511 249.328 187.087 249.417 186.704 249.594C186.321 249.771 186.018 250.023 185.794 250.35C185.57 250.677 185.458 251.059 185.458 251.498C185.458 251.965 185.612 252.375 185.92 252.73C186.228 253.085 186.727 253.36 187.418 253.556L188.496 253.864C188.645 253.901 188.818 253.962 189.014 254.046C189.21 254.13 189.383 254.251 189.532 254.41C189.681 254.559 189.756 254.765 189.756 255.026C189.756 255.381 189.602 255.67 189.294 255.894C188.986 256.109 188.608 256.216 188.16 256.216C187.693 256.216 187.264 256.081 186.872 255.81C186.489 255.539 186.191 255.175 185.976 254.718L185.094 255.138C185.337 255.763 185.729 256.258 186.27 256.622C186.811 256.986 187.441 257.168 188.16 257.168ZM193.343 257H194.463V255.46H193.343V257Z" fill="#8B8C8C"/>
</g>
<defs>
<filter id="filter0_d" x="0" y="0" width="407" height="403" filterUnits="userSpaceOnUse" color-interpolation-filters="sRGB">
<feFlood flood-opacity="0" result="BackgroundImageFix"/>
<feColorMatrix in="SourceAlpha" type="matrix" values="0 0 0 0 0 0 0 0 0 0 0 0 0 0 0 0 0 0 127 0" result="hardAlpha"/>
<feMorphology radius="16" operator="dilate" in="SourceAlpha" result="effect1_dropShadow"/>
<feOffset dy="18"/>
<feGaussianBlur stdDeviation="29"/>
<feColorMatrix type="matrix" values="0 0 0 0 0 0 0 0 0 0 0 0 0 0 0 0 0 0 0.06 0"/>
<feBlend mode="normal" in2="BackgroundImageFix" result="effect1_dropShadow"/>
<feBlend mode="normal" in="SourceGraphic" in2="effect1_dropShadow" result="shape"/>
</filter>
</defs>
</svg>
