<svg width="403" height="401" viewBox="0 0 403 401" fill="none" xmlns="http://www.w3.org/2000/svg">
<g filter="url(#filter0_d)">
<g clip-path="url(#clip0)">
<rect x="74" y="56" width="255" height="253" rx="8" fill="#FCFCFC"/>
<path d="M127.292 89.25H105.708C103.154 89.25 101.083 91.3207 101.083 93.875V98.0697L111.624 101.583H121.376L131.917 98.0697V93.875C131.917 91.3207 129.846 89.25 127.292 89.25Z" fill="#C3E8F1"/>
<path d="M113.417 89.25V87.7083H119.583V89.25H122.667V87.7083C122.665 86.0063 121.285 84.6269 119.583 84.625H113.417C111.715 84.6269 110.335 86.0063 110.333 87.7083V89.25H113.417ZM111.624 101.583L101.083 98.0696V107.75C101.086 110.303 103.155 112.372 105.708 112.375H127.292C129.845 112.372 131.914 110.303 131.917 107.75V98.0696L121.376 101.583H111.624Z" fill="#027794"/>
<path d="M106.734 139.116C107.614 139.116 108.362 139.241 108.978 139.49C109.594 139.739 110.195 140.091 110.782 140.546C110.943 140.678 111.083 140.744 111.2 140.744C111.493 140.744 111.684 140.304 111.772 139.424H112.278C112.219 140.421 112.19 142.196 112.19 144.748H111.684C111.552 143.663 111.376 142.834 111.156 142.262C110.936 141.69 110.562 141.191 110.034 140.766C109.667 140.414 109.242 140.15 108.758 139.974C108.274 139.783 107.768 139.688 107.24 139.688C105.759 139.688 104.659 140.414 103.94 141.866C103.221 143.303 102.862 145.1 102.862 147.256C102.862 149.397 103.236 151.187 103.984 152.624C104.732 154.061 105.847 154.78 107.328 154.78C107.827 154.78 108.318 154.692 108.802 154.516C109.301 154.325 109.719 154.054 110.056 153.702C110.599 153.291 110.973 152.778 111.178 152.162C111.398 151.546 111.567 150.644 111.684 149.456H112.19C112.19 152.111 112.219 153.959 112.278 155H111.772C111.728 154.531 111.662 154.201 111.574 154.01C111.501 153.805 111.391 153.702 111.244 153.702C111.127 153.702 110.973 153.761 110.782 153.878C110.122 154.347 109.491 154.707 108.89 154.956C108.289 155.191 107.563 155.308 106.712 155.308C105.157 155.308 103.793 154.993 102.62 154.362C101.461 153.731 100.559 152.822 99.914 151.634C99.2687 150.431 98.946 149.001 98.946 147.344C98.946 145.731 99.276 144.301 99.936 143.054C100.596 141.807 101.513 140.839 102.686 140.15C103.874 139.461 105.223 139.116 106.734 139.116ZM120.216 143.318C121.902 143.318 123.222 143.802 124.176 144.77C125.129 145.723 125.606 147.241 125.606 149.324C125.606 151.407 125.129 152.925 124.176 153.878C123.222 154.831 121.902 155.308 120.216 155.308C118.544 155.308 117.224 154.831 116.256 153.878C115.302 152.925 114.826 151.407 114.826 149.324C114.826 147.241 115.302 145.723 116.256 144.77C117.224 143.802 118.544 143.318 120.216 143.318ZM120.216 143.758C119.585 143.758 119.079 144.22 118.698 145.144C118.331 146.053 118.148 147.447 118.148 149.324C118.148 151.201 118.331 152.595 118.698 153.504C119.079 154.413 119.585 154.868 120.216 154.868C120.861 154.868 121.367 154.421 121.734 153.526C122.1 152.617 122.284 151.216 122.284 149.324C122.284 147.432 122.093 146.031 121.712 145.122C121.345 144.213 120.846 143.758 120.216 143.758ZM135.047 143.318C135.707 143.318 136.206 143.516 136.543 143.912C136.881 144.308 137.049 144.785 137.049 145.342C137.049 145.885 136.888 146.332 136.565 146.684C136.257 147.021 135.847 147.19 135.333 147.19C134.835 147.19 134.439 147.065 134.145 146.816C133.852 146.552 133.705 146.207 133.705 145.782C133.705 145.078 134.028 144.506 134.673 144.066C134.615 144.051 134.527 144.044 134.409 144.044C134.263 144.044 134.145 144.059 134.057 144.088C133.5 144.176 133.023 144.513 132.627 145.1C132.246 145.687 132.055 146.288 132.055 146.904V152.734C132.055 153.409 132.217 153.878 132.539 154.142C132.877 154.406 133.405 154.538 134.123 154.538V155C133.918 155 133.749 154.993 133.617 154.978C132.121 154.934 131.124 154.912 130.625 154.912C130.229 154.912 129.327 154.934 127.919 154.978C127.802 154.993 127.655 155 127.479 155V154.538C128.007 154.538 128.374 154.428 128.579 154.208C128.785 153.973 128.887 153.555 128.887 152.954V146.024C128.887 145.349 128.785 144.858 128.579 144.55C128.374 144.242 128.007 144.088 127.479 144.088V143.626C127.949 143.67 128.403 143.692 128.843 143.692C130.149 143.692 131.219 143.589 132.055 143.384V145.43C132.334 144.799 132.737 144.293 133.265 143.912C133.793 143.516 134.387 143.318 135.047 143.318ZM146.147 143.318C146.909 143.318 147.584 143.523 148.171 143.934C148.772 144.345 149.241 144.961 149.579 145.782C149.916 146.603 150.085 147.608 150.085 148.796C150.085 150.893 149.623 152.507 148.699 153.636C147.789 154.751 146.55 155.308 144.981 155.308C144.541 155.308 144.123 155.249 143.727 155.132C143.345 155.015 143.015 154.839 142.737 154.604V156.804C142.737 157.449 142.898 157.897 143.221 158.146C143.543 158.395 144.042 158.52 144.717 158.52V158.982L144.123 158.96C142.495 158.916 141.461 158.894 141.021 158.894C140.581 158.894 139.657 158.923 138.249 158.982V158.52C138.733 158.52 139.07 158.41 139.261 158.19C139.466 157.985 139.569 157.596 139.569 157.024V146.024C139.569 145.349 139.459 144.858 139.239 144.55C139.033 144.242 138.674 144.088 138.161 144.088V143.626C138.63 143.67 139.085 143.692 139.525 143.692C140.801 143.692 141.871 143.589 142.737 143.384V145.408C143.045 144.733 143.492 144.22 144.079 143.868C144.665 143.501 145.355 143.318 146.147 143.318ZM144.123 154.714C145.061 154.714 145.736 154.252 146.147 153.328C146.557 152.389 146.763 151.025 146.763 149.236C146.763 147.447 146.594 146.171 146.257 145.408C145.934 144.645 145.465 144.264 144.849 144.264C144.35 144.264 143.903 144.433 143.507 144.77C143.125 145.107 142.869 145.577 142.737 146.178V154.12C143.089 154.516 143.551 154.714 144.123 154.714ZM157.616 143.318C159.303 143.318 160.623 143.802 161.576 144.77C162.529 145.723 163.006 147.241 163.006 149.324C163.006 151.407 162.529 152.925 161.576 153.878C160.623 154.831 159.303 155.308 157.616 155.308C155.944 155.308 154.624 154.831 153.656 153.878C152.703 152.925 152.226 151.407 152.226 149.324C152.226 147.241 152.703 145.723 153.656 144.77C154.624 143.802 155.944 143.318 157.616 143.318ZM157.616 143.758C156.985 143.758 156.479 144.22 156.098 145.144C155.731 146.053 155.548 147.447 155.548 149.324C155.548 151.201 155.731 152.595 156.098 153.504C156.479 154.413 156.985 154.868 157.616 154.868C158.261 154.868 158.767 154.421 159.134 153.526C159.501 152.617 159.684 151.216 159.684 149.324C159.684 147.432 159.493 146.031 159.112 145.122C158.745 144.213 158.247 143.758 157.616 143.758ZM172.448 143.318C173.108 143.318 173.606 143.516 173.944 143.912C174.281 144.308 174.45 144.785 174.45 145.342C174.45 145.885 174.288 146.332 173.966 146.684C173.658 147.021 173.247 147.19 172.734 147.19C172.235 147.19 171.839 147.065 171.546 146.816C171.252 146.552 171.106 146.207 171.106 145.782C171.106 145.078 171.428 144.506 172.074 144.066C172.015 144.051 171.927 144.044 171.81 144.044C171.663 144.044 171.546 144.059 171.458 144.088C170.9 144.176 170.424 144.513 170.028 145.1C169.646 145.687 169.456 146.288 169.456 146.904V152.734C169.456 153.409 169.617 153.878 169.94 154.142C170.277 154.406 170.805 154.538 171.524 154.538V155C171.318 155 171.15 154.993 171.018 154.978C169.522 154.934 168.524 154.912 168.026 154.912C167.63 154.912 166.728 154.934 165.32 154.978C165.202 154.993 165.056 155 164.88 155V154.538C165.408 154.538 165.774 154.428 165.98 154.208C166.185 153.973 166.288 153.555 166.288 152.954V146.024C166.288 145.349 166.185 144.858 165.98 144.55C165.774 144.242 165.408 144.088 164.88 144.088V143.626C165.349 143.67 165.804 143.692 166.244 143.692C167.549 143.692 168.62 143.589 169.456 143.384V145.43C169.734 144.799 170.138 144.293 170.666 143.912C171.194 143.516 171.788 143.318 172.448 143.318ZM178.553 155.154C177.614 155.154 176.91 154.912 176.441 154.428C175.986 153.944 175.759 153.306 175.759 152.514C175.759 151.854 175.928 151.311 176.265 150.886C176.617 150.446 177.035 150.109 177.519 149.874C178.018 149.639 178.648 149.39 179.411 149.126C180.218 148.847 180.804 148.598 181.171 148.378C181.552 148.143 181.743 147.828 181.743 147.432V145.716C181.743 145.1 181.596 144.623 181.303 144.286C181.024 143.934 180.584 143.758 179.983 143.758C179.279 143.758 178.744 143.934 178.377 144.286C178.788 144.433 179.103 144.653 179.323 144.946C179.558 145.239 179.675 145.584 179.675 145.98C179.675 146.479 179.506 146.875 179.169 147.168C178.832 147.461 178.421 147.608 177.937 147.608C177.424 147.608 177.028 147.447 176.749 147.124C176.47 146.801 176.331 146.398 176.331 145.914C176.331 145.503 176.426 145.159 176.617 144.88C176.822 144.587 177.13 144.315 177.541 144.066C177.937 143.831 178.421 143.648 178.993 143.516C179.58 143.384 180.218 143.318 180.907 143.318C181.626 143.318 182.249 143.391 182.777 143.538C183.305 143.685 183.745 143.934 184.097 144.286C184.42 144.609 184.632 145.005 184.735 145.474C184.852 145.943 184.911 146.581 184.911 147.388V153.372C184.911 153.724 184.94 153.973 184.999 154.12C185.072 154.267 185.204 154.34 185.395 154.34C185.615 154.34 185.879 154.215 186.187 153.966L186.407 154.34C185.747 154.883 184.94 155.154 183.987 155.154C183.18 155.154 182.616 154.993 182.293 154.67C181.97 154.347 181.802 153.915 181.787 153.372C181.054 154.56 179.976 155.154 178.553 155.154ZM180.247 153.746C180.819 153.746 181.318 153.445 181.743 152.844V148.334C181.567 148.627 181.193 148.95 180.621 149.302C180.049 149.669 179.616 150.035 179.323 150.402C179.03 150.769 178.883 151.297 178.883 151.986C178.883 152.587 179.008 153.035 179.257 153.328C179.506 153.607 179.836 153.746 180.247 153.746ZM192.002 143.626H194.598V144.066H192.002V152.954C192.002 153.394 192.075 153.709 192.222 153.9C192.383 154.076 192.632 154.164 192.97 154.164C193.6 154.164 194.099 153.724 194.466 152.844L194.84 153.042C194.282 154.553 193.278 155.308 191.826 155.308C190.858 155.308 190.124 155.059 189.626 154.56C189.318 154.252 189.105 153.871 188.988 153.416C188.885 152.947 188.834 152.309 188.834 151.502V144.066H186.986V143.626H188.834V140.722C190.051 140.722 191.107 140.487 192.002 140.018V143.626ZM202.152 153.504C203.355 153.504 204.323 152.917 205.056 151.744L205.452 151.876C205.159 152.829 204.631 153.643 203.868 154.318C203.12 154.978 202.182 155.308 201.052 155.308C199.498 155.308 198.258 154.817 197.334 153.834C196.425 152.837 195.97 151.37 195.97 149.434C195.97 147.454 196.462 145.943 197.444 144.902C198.427 143.846 199.732 143.318 201.36 143.318C204.118 143.318 205.496 144.946 205.496 148.202H199.314C199.3 148.422 199.292 148.767 199.292 149.236C199.292 150.204 199.424 151.011 199.688 151.656C199.967 152.301 200.319 152.771 200.744 153.064C201.184 153.357 201.654 153.504 202.152 153.504ZM201.228 143.78C200.7 143.78 200.26 144.11 199.908 144.77C199.571 145.415 199.358 146.42 199.27 147.784H202.724C202.754 146.625 202.636 145.672 202.372 144.924C202.123 144.161 201.742 143.78 201.228 143.78ZM215.809 155.154C214.87 155.154 214.166 154.912 213.697 154.428C213.242 153.944 213.015 153.306 213.015 152.514C213.015 151.854 213.184 151.311 213.521 150.886C213.873 150.446 214.291 150.109 214.775 149.874C215.274 149.639 215.904 149.39 216.667 149.126C217.474 148.847 218.06 148.598 218.427 148.378C218.808 148.143 218.999 147.828 218.999 147.432V145.716C218.999 145.1 218.852 144.623 218.559 144.286C218.28 143.934 217.84 143.758 217.239 143.758C216.535 143.758 216 143.934 215.633 144.286C216.044 144.433 216.359 144.653 216.579 144.946C216.814 145.239 216.931 145.584 216.931 145.98C216.931 146.479 216.762 146.875 216.425 147.168C216.088 147.461 215.677 147.608 215.193 147.608C214.68 147.608 214.284 147.447 214.005 147.124C213.726 146.801 213.587 146.398 213.587 145.914C213.587 145.503 213.682 145.159 213.873 144.88C214.078 144.587 214.386 144.315 214.797 144.066C215.193 143.831 215.677 143.648 216.249 143.516C216.836 143.384 217.474 143.318 218.163 143.318C218.882 143.318 219.505 143.391 220.033 143.538C220.561 143.685 221.001 143.934 221.353 144.286C221.676 144.609 221.888 145.005 221.991 145.474C222.108 145.943 222.167 146.581 222.167 147.388V153.372C222.167 153.724 222.196 153.973 222.255 154.12C222.328 154.267 222.46 154.34 222.651 154.34C222.871 154.34 223.135 154.215 223.443 153.966L223.663 154.34C223.003 154.883 222.196 155.154 221.243 155.154C220.436 155.154 219.872 154.993 219.549 154.67C219.226 154.347 219.058 153.915 219.043 153.372C218.31 154.56 217.232 155.154 215.809 155.154ZM217.503 153.746C218.075 153.746 218.574 153.445 218.999 152.844V148.334C218.823 148.627 218.449 148.95 217.877 149.302C217.305 149.669 216.872 150.035 216.579 150.402C216.286 150.769 216.139 151.297 216.139 151.986C216.139 152.587 216.264 153.035 216.513 153.328C216.762 153.607 217.092 153.746 217.503 153.746ZM232.976 143.318C234.09 143.318 234.897 143.604 235.396 144.176C235.645 144.455 235.821 144.814 235.924 145.254C236.026 145.694 236.078 146.288 236.078 147.036V152.954C236.078 153.555 236.18 153.973 236.386 154.208C236.606 154.428 236.972 154.538 237.486 154.538V155C236.019 154.941 235.051 154.912 234.582 154.912C234.142 154.912 233.188 154.941 231.722 155V154.538C232.162 154.538 232.47 154.428 232.646 154.208C232.822 153.973 232.91 153.555 232.91 152.954V146.112C232.91 145.511 232.807 145.056 232.602 144.748C232.411 144.44 232.059 144.286 231.546 144.286C230.944 144.286 230.431 144.535 230.006 145.034C229.58 145.518 229.368 146.119 229.368 146.838V152.954C229.368 153.555 229.456 153.973 229.632 154.208C229.808 154.428 230.116 154.538 230.556 154.538V155C229.206 154.941 228.297 154.912 227.828 154.912C227.388 154.912 226.376 154.941 224.792 155V154.538C225.32 154.538 225.686 154.428 225.892 154.208C226.097 153.973 226.2 153.555 226.2 152.954V146.024C226.2 145.349 226.097 144.858 225.892 144.55C225.686 144.242 225.32 144.088 224.792 144.088V143.626C225.261 143.67 225.716 143.692 226.156 143.692C227.461 143.692 228.532 143.589 229.368 143.384V145.364C230.028 144 231.23 143.318 232.976 143.318ZM249.629 152.58C249.629 153.255 249.732 153.746 249.937 154.054C250.143 154.362 250.509 154.516 251.037 154.516V154.978C250.583 154.934 250.128 154.912 249.673 154.912C248.368 154.912 247.297 155.015 246.461 155.22V153.328C245.963 154.648 245.009 155.308 243.601 155.308C242.223 155.308 241.123 154.809 240.301 153.812C239.495 152.8 239.099 151.282 239.113 149.258C239.113 147.967 239.319 146.882 239.729 146.002C240.155 145.107 240.734 144.44 241.467 144C242.215 143.545 243.066 143.318 244.019 143.318C245.09 143.318 245.904 143.597 246.461 144.154V140.414C246.461 139.739 246.351 139.248 246.131 138.94C245.926 138.632 245.567 138.478 245.053 138.478V138.016C245.523 138.06 245.977 138.082 246.417 138.082C247.693 138.082 248.764 137.979 249.629 137.774V152.58ZM244.503 154.362C244.987 154.362 245.413 154.186 245.779 153.834C246.161 153.482 246.388 153.005 246.461 152.404V144.704C246.095 144.205 245.559 143.956 244.855 143.956C244.078 143.956 243.477 144.403 243.051 145.298C242.626 146.193 242.421 147.527 242.435 149.302C242.421 151.091 242.589 152.382 242.941 153.174C243.308 153.966 243.829 154.362 244.503 154.362ZM106.734 161.116C107.614 161.116 108.362 161.241 108.978 161.49C109.594 161.739 110.195 162.091 110.782 162.546C110.943 162.678 111.083 162.744 111.2 162.744C111.493 162.744 111.684 162.304 111.772 161.424H112.278C112.219 162.421 112.19 164.196 112.19 166.748H111.684C111.552 165.663 111.376 164.834 111.156 164.262C110.936 163.69 110.562 163.191 110.034 162.766C109.667 162.414 109.242 162.15 108.758 161.974C108.274 161.783 107.768 161.688 107.24 161.688C105.759 161.688 104.659 162.414 103.94 163.866C103.221 165.303 102.862 167.1 102.862 169.256C102.862 171.397 103.236 173.187 103.984 174.624C104.732 176.061 105.847 176.78 107.328 176.78C107.827 176.78 108.318 176.692 108.802 176.516C109.301 176.325 109.719 176.054 110.056 175.702C110.599 175.291 110.973 174.778 111.178 174.162C111.398 173.546 111.567 172.644 111.684 171.456H112.19C112.19 174.111 112.219 175.959 112.278 177H111.772C111.728 176.531 111.662 176.201 111.574 176.01C111.501 175.805 111.391 175.702 111.244 175.702C111.127 175.702 110.973 175.761 110.782 175.878C110.122 176.347 109.491 176.707 108.89 176.956C108.289 177.191 107.563 177.308 106.712 177.308C105.157 177.308 103.793 176.993 102.62 176.362C101.461 175.731 100.559 174.822 99.914 173.634C99.2687 172.431 98.946 171.001 98.946 169.344C98.946 167.731 99.276 166.301 99.936 165.054C100.596 163.807 101.513 162.839 102.686 162.15C103.874 161.461 105.223 161.116 106.734 161.116ZM120.216 165.318C121.902 165.318 123.222 165.802 124.176 166.77C125.129 167.723 125.606 169.241 125.606 171.324C125.606 173.407 125.129 174.925 124.176 175.878C123.222 176.831 121.902 177.308 120.216 177.308C118.544 177.308 117.224 176.831 116.256 175.878C115.302 174.925 114.826 173.407 114.826 171.324C114.826 169.241 115.302 167.723 116.256 166.77C117.224 165.802 118.544 165.318 120.216 165.318ZM120.216 165.758C119.585 165.758 119.079 166.22 118.698 167.144C118.331 168.053 118.148 169.447 118.148 171.324C118.148 173.201 118.331 174.595 118.698 175.504C119.079 176.413 119.585 176.868 120.216 176.868C120.861 176.868 121.367 176.421 121.734 175.526C122.1 174.617 122.284 173.216 122.284 171.324C122.284 169.432 122.093 168.031 121.712 167.122C121.345 166.213 120.846 165.758 120.216 165.758ZM145.167 174.954C145.167 175.555 145.27 175.973 145.475 176.208C145.695 176.428 146.062 176.538 146.575 176.538V177C145.109 176.941 144.141 176.912 143.671 176.912C143.261 176.912 142.351 176.941 140.943 177V176.538C141.339 176.538 141.611 176.428 141.757 176.208C141.919 175.988 141.999 175.57 141.999 174.954V168.112C141.999 167.496 141.904 167.041 141.713 166.748C141.537 166.44 141.193 166.286 140.679 166.286C140.137 166.286 139.66 166.513 139.249 166.968C138.853 167.423 138.619 167.98 138.545 168.64V169.036V174.954C138.545 175.555 138.633 175.973 138.809 176.208C139 176.428 139.337 176.538 139.821 176.538V177C138.413 176.941 137.489 176.912 137.049 176.912C136.639 176.912 135.729 176.941 134.321 177V176.538C134.717 176.538 134.989 176.428 135.135 176.208C135.297 175.973 135.377 175.555 135.377 174.954V168.112C135.377 167.496 135.297 167.041 135.135 166.748C134.974 166.44 134.659 166.286 134.189 166.286C133.603 166.286 133.097 166.535 132.671 167.034C132.261 167.518 132.055 168.119 132.055 168.838V174.954C132.055 175.555 132.129 175.973 132.275 176.208C132.437 176.428 132.715 176.538 133.111 176.538V177C131.821 176.941 130.955 176.912 130.515 176.912C130.075 176.912 129.063 176.941 127.479 177V176.538C128.007 176.538 128.374 176.428 128.579 176.208C128.785 175.973 128.887 175.555 128.887 174.954V168.024C128.887 167.349 128.785 166.858 128.579 166.55C128.374 166.242 128.007 166.088 127.479 166.088V165.626C127.949 165.67 128.403 165.692 128.843 165.692C130.149 165.692 131.219 165.589 132.055 165.384V167.364C132.701 166 133.837 165.318 135.465 165.318C136.58 165.318 137.387 165.604 137.885 166.176C138.164 166.469 138.347 166.909 138.435 167.496C138.817 166.704 139.315 166.147 139.931 165.824C140.547 165.487 141.266 165.318 142.087 165.318C143.202 165.318 144.009 165.604 144.507 166.176C144.742 166.44 144.911 166.799 145.013 167.254C145.116 167.709 145.167 168.303 145.167 169.036V174.954ZM165.583 174.954C165.583 175.555 165.686 175.973 165.891 176.208C166.111 176.428 166.478 176.538 166.991 176.538V177C165.525 176.941 164.557 176.912 164.087 176.912C163.677 176.912 162.767 176.941 161.359 177V176.538C161.755 176.538 162.027 176.428 162.173 176.208C162.335 175.988 162.415 175.57 162.415 174.954V168.112C162.415 167.496 162.32 167.041 162.129 166.748C161.953 166.44 161.609 166.286 161.095 166.286C160.553 166.286 160.076 166.513 159.665 166.968C159.269 167.423 159.035 167.98 158.961 168.64V169.036V174.954C158.961 175.555 159.049 175.973 159.225 176.208C159.416 176.428 159.753 176.538 160.237 176.538V177C158.829 176.941 157.905 176.912 157.465 176.912C157.055 176.912 156.145 176.941 154.737 177V176.538C155.133 176.538 155.405 176.428 155.551 176.208C155.713 175.973 155.793 175.555 155.793 174.954V168.112C155.793 167.496 155.713 167.041 155.551 166.748C155.39 166.44 155.075 166.286 154.605 166.286C154.019 166.286 153.513 166.535 153.087 167.034C152.677 167.518 152.471 168.119 152.471 168.838V174.954C152.471 175.555 152.545 175.973 152.691 176.208C152.853 176.428 153.131 176.538 153.527 176.538V177C152.237 176.941 151.371 176.912 150.931 176.912C150.491 176.912 149.479 176.941 147.895 177V176.538C148.423 176.538 148.79 176.428 148.995 176.208C149.201 175.973 149.303 175.555 149.303 174.954V168.024C149.303 167.349 149.201 166.858 148.995 166.55C148.79 166.242 148.423 166.088 147.895 166.088V165.626C148.365 165.67 148.819 165.692 149.259 165.692C150.565 165.692 151.635 165.589 152.471 165.384V167.364C153.117 166 154.253 165.318 155.881 165.318C156.996 165.318 157.803 165.604 158.301 166.176C158.58 166.469 158.763 166.909 158.851 167.496C159.233 166.704 159.731 166.147 160.347 165.824C160.963 165.487 161.682 165.318 162.503 165.318C163.618 165.318 164.425 165.604 164.923 166.176C165.158 166.44 165.327 166.799 165.429 167.254C165.532 167.709 165.583 168.303 165.583 169.036V174.954ZM174.779 175.504C175.982 175.504 176.95 174.917 177.683 173.744L178.079 173.876C177.786 174.829 177.258 175.643 176.495 176.318C175.747 176.978 174.809 177.308 173.679 177.308C172.125 177.308 170.885 176.817 169.961 175.834C169.052 174.837 168.597 173.37 168.597 171.434C168.597 169.454 169.089 167.943 170.071 166.902C171.054 165.846 172.359 165.318 173.987 165.318C176.745 165.318 178.123 166.946 178.123 170.202H171.941C171.927 170.422 171.919 170.767 171.919 171.236C171.919 172.204 172.051 173.011 172.315 173.656C172.594 174.301 172.946 174.771 173.371 175.064C173.811 175.357 174.281 175.504 174.779 175.504ZM173.855 165.78C173.327 165.78 172.887 166.11 172.535 166.77C172.198 167.415 171.985 168.42 171.897 169.784H175.351C175.381 168.625 175.263 167.672 174.999 166.924C174.75 166.161 174.369 165.78 173.855 165.78ZM187.336 165.318C187.996 165.318 188.495 165.516 188.832 165.912C189.17 166.308 189.338 166.785 189.338 167.342C189.338 167.885 189.177 168.332 188.854 168.684C188.546 169.021 188.136 169.19 187.622 169.19C187.124 169.19 186.728 169.065 186.434 168.816C186.141 168.552 185.994 168.207 185.994 167.782C185.994 167.078 186.317 166.506 186.962 166.066C186.904 166.051 186.816 166.044 186.698 166.044C186.552 166.044 186.434 166.059 186.346 166.088C185.789 166.176 185.312 166.513 184.916 167.1C184.535 167.687 184.344 168.288 184.344 168.904V174.734C184.344 175.409 184.506 175.878 184.828 176.142C185.166 176.406 185.694 176.538 186.412 176.538V177C186.207 177 186.038 176.993 185.906 176.978C184.41 176.934 183.413 176.912 182.914 176.912C182.518 176.912 181.616 176.934 180.208 176.978C180.091 176.993 179.944 177 179.768 177V176.538C180.296 176.538 180.663 176.428 180.868 176.208C181.074 175.973 181.176 175.555 181.176 174.954V168.024C181.176 167.349 181.074 166.858 180.868 166.55C180.663 166.242 180.296 166.088 179.768 166.088V165.626C180.238 165.67 180.692 165.692 181.132 165.692C182.438 165.692 183.508 165.589 184.344 165.384V167.43C184.623 166.799 185.026 166.293 185.554 165.912C186.082 165.516 186.676 165.318 187.336 165.318ZM195.957 165.318C196.5 165.318 197.013 165.377 197.497 165.494C197.981 165.611 198.384 165.773 198.707 165.978C199.088 166.213 199.382 166.513 199.587 166.88C199.807 167.232 199.917 167.621 199.917 168.046C199.917 168.559 199.756 168.985 199.433 169.322C199.11 169.645 198.692 169.806 198.179 169.806C197.666 169.806 197.255 169.659 196.947 169.366C196.639 169.073 196.485 168.677 196.485 168.178C196.485 167.738 196.624 167.357 196.903 167.034C197.182 166.711 197.526 166.491 197.937 166.374C197.82 166.213 197.636 166.088 197.387 166C197.152 165.897 196.896 165.846 196.617 165.846C195.737 165.846 195.048 166.33 194.549 167.298C194.065 168.251 193.823 169.505 193.823 171.06C193.823 172.629 194.102 173.759 194.659 174.448C195.216 175.137 195.913 175.482 196.749 175.482C197.248 175.482 197.746 175.35 198.245 175.086C198.758 174.822 199.22 174.36 199.631 173.7L200.005 173.832C199.712 174.785 199.198 175.607 198.465 176.296C197.732 176.971 196.786 177.308 195.627 177.308C194.116 177.308 192.884 176.809 191.931 175.812C190.978 174.815 190.501 173.333 190.501 171.368C190.501 170.077 190.736 168.977 191.205 168.068C191.674 167.159 192.32 166.477 193.141 166.022C193.962 165.553 194.901 165.318 195.957 165.318ZM204.511 159.95C205.127 159.95 205.611 160.104 205.963 160.412C206.33 160.705 206.513 161.116 206.513 161.644C206.513 162.172 206.33 162.59 205.963 162.898C205.611 163.191 205.127 163.338 204.511 163.338C203.895 163.338 203.404 163.191 203.037 162.898C202.685 162.59 202.509 162.172 202.509 161.644C202.509 161.116 202.685 160.705 203.037 160.412C203.404 160.104 203.895 159.95 204.511 159.95ZM206.227 174.954C206.227 175.555 206.33 175.973 206.535 176.208C206.755 176.428 207.122 176.538 207.635 176.538V177C206.168 176.941 205.193 176.912 204.709 176.912C204.254 176.912 203.235 176.941 201.651 177V176.538C202.179 176.538 202.546 176.428 202.751 176.208C202.956 175.973 203.059 175.555 203.059 174.954V168.024C203.059 167.349 202.956 166.858 202.751 166.55C202.546 166.242 202.179 166.088 201.651 166.088V165.626C202.12 165.67 202.575 165.692 203.015 165.692C204.32 165.692 205.391 165.589 206.227 165.384V174.954ZM211.995 177.154C211.056 177.154 210.352 176.912 209.883 176.428C209.428 175.944 209.201 175.306 209.201 174.514C209.201 173.854 209.369 173.311 209.707 172.886C210.059 172.446 210.477 172.109 210.961 171.874C211.459 171.639 212.09 171.39 212.853 171.126C213.659 170.847 214.246 170.598 214.613 170.378C214.994 170.143 215.185 169.828 215.185 169.432V167.716C215.185 167.1 215.038 166.623 214.745 166.286C214.466 165.934 214.026 165.758 213.425 165.758C212.721 165.758 212.185 165.934 211.819 166.286C212.229 166.433 212.545 166.653 212.765 166.946C212.999 167.239 213.117 167.584 213.117 167.98C213.117 168.479 212.948 168.875 212.611 169.168C212.273 169.461 211.863 169.608 211.379 169.608C210.865 169.608 210.469 169.447 210.191 169.124C209.912 168.801 209.773 168.398 209.773 167.914C209.773 167.503 209.868 167.159 210.059 166.88C210.264 166.587 210.572 166.315 210.983 166.066C211.379 165.831 211.863 165.648 212.435 165.516C213.021 165.384 213.659 165.318 214.349 165.318C215.067 165.318 215.691 165.391 216.219 165.538C216.747 165.685 217.187 165.934 217.539 166.286C217.861 166.609 218.074 167.005 218.177 167.474C218.294 167.943 218.353 168.581 218.353 169.388V175.372C218.353 175.724 218.382 175.973 218.441 176.12C218.514 176.267 218.646 176.34 218.837 176.34C219.057 176.34 219.321 176.215 219.629 175.966L219.849 176.34C219.189 176.883 218.382 177.154 217.429 177.154C216.622 177.154 216.057 176.993 215.735 176.67C215.412 176.347 215.243 175.915 215.229 175.372C214.495 176.56 213.417 177.154 211.995 177.154ZM213.689 175.746C214.261 175.746 214.759 175.445 215.185 174.844V170.334C215.009 170.627 214.635 170.95 214.062 171.302C213.491 171.669 213.058 172.035 212.765 172.402C212.471 172.769 212.325 173.297 212.325 173.986C212.325 174.587 212.449 175.035 212.699 175.328C212.948 175.607 213.278 175.746 213.689 175.746ZM225.465 174.954C225.465 175.555 225.568 175.973 225.773 176.208C225.979 176.428 226.345 176.538 226.873 176.538V177C225.348 176.941 224.365 176.912 223.925 176.912C223.427 176.912 222.415 176.941 220.889 177V176.538C221.403 176.538 221.762 176.428 221.967 176.208C222.187 175.973 222.297 175.555 222.297 174.954V162.414C222.297 161.739 222.187 161.248 221.967 160.94C221.762 160.632 221.403 160.478 220.889 160.478V160.016C221.359 160.06 221.813 160.082 222.253 160.082C223.529 160.082 224.6 159.979 225.465 159.774V174.954Z" fill="#363940"/>
<path d="M101.15 207H102.34L104.888 198.068L107.436 207H108.626L111.622 196.57H110.488L108.01 205.46L105.49 196.57H104.3L101.766 205.488L99.288 196.57H98.154L101.15 207ZM116.015 207.168C116.528 207.168 116.995 207.084 117.415 206.916C117.844 206.739 118.213 206.51 118.521 206.23C118.829 205.941 119.057 205.628 119.207 205.292L118.311 204.816C118.077 205.208 117.774 205.535 117.401 205.796C117.027 206.057 116.565 206.188 116.015 206.188C115.567 206.188 115.147 206.081 114.755 205.866C114.363 205.651 114.041 205.353 113.789 204.97C113.546 204.578 113.415 204.111 113.397 203.57H119.305C119.323 203.449 119.337 203.332 119.347 203.22C119.356 203.099 119.361 202.991 119.361 202.898C119.361 202.45 119.281 202.016 119.123 201.596C118.964 201.167 118.735 200.784 118.437 200.448C118.138 200.103 117.774 199.832 117.345 199.636C116.925 199.431 116.444 199.328 115.903 199.328C115.221 199.328 114.605 199.496 114.055 199.832C113.513 200.168 113.084 200.63 112.767 201.218C112.449 201.797 112.291 202.464 112.291 203.22C112.291 203.976 112.454 204.653 112.781 205.25C113.107 205.847 113.551 206.319 114.111 206.664C114.68 207 115.315 207.168 116.015 207.168ZM115.903 200.308C116.323 200.308 116.705 200.406 117.051 200.602C117.405 200.798 117.685 201.069 117.891 201.414C118.105 201.75 118.217 202.142 118.227 202.59H113.425C113.481 202.123 113.625 201.722 113.859 201.386C114.101 201.041 114.4 200.775 114.755 200.588C115.109 200.401 115.492 200.308 115.903 200.308ZM124.191 209.8H125.241V205.782C125.521 206.221 125.904 206.561 126.389 206.804C126.874 207.047 127.406 207.168 127.985 207.168C128.694 207.168 129.324 207 129.875 206.664C130.435 206.319 130.874 205.852 131.191 205.264C131.518 204.667 131.681 203.995 131.681 203.248C131.681 202.492 131.518 201.82 131.191 201.232C130.874 200.644 130.435 200.182 129.875 199.846C129.324 199.501 128.694 199.328 127.985 199.328C127.397 199.328 126.87 199.445 126.403 199.678C125.936 199.911 125.549 200.229 125.241 200.63V199.496H124.191V209.8ZM127.929 206.118C127.425 206.118 126.968 205.992 126.557 205.74C126.156 205.488 125.834 205.147 125.591 204.718C125.358 204.279 125.241 203.789 125.241 203.248C125.241 202.707 125.358 202.221 125.591 201.792C125.834 201.353 126.156 201.008 126.557 200.756C126.968 200.504 127.425 200.378 127.929 200.378C128.433 200.378 128.881 200.504 129.273 200.756C129.674 201.008 129.987 201.349 130.211 201.778C130.444 202.207 130.561 202.697 130.561 203.248C130.561 203.789 130.444 204.279 130.211 204.718C129.987 205.147 129.674 205.488 129.273 205.74C128.881 205.992 128.433 206.118 127.929 206.118ZM133.829 207H134.879V202.38C134.879 201.764 135.042 201.288 135.369 200.952C135.695 200.616 136.129 200.448 136.671 200.448H137.329V199.398H136.853C136.395 199.398 135.999 199.477 135.663 199.636C135.336 199.795 135.075 200.019 134.879 200.308V199.496H133.829V207ZM142.373 207.168C143.073 207.168 143.708 207 144.277 206.664C144.856 206.328 145.318 205.866 145.663 205.278C146.009 204.681 146.181 203.999 146.181 203.234C146.181 202.478 146.013 201.806 145.677 201.218C145.351 200.63 144.898 200.168 144.319 199.832C143.75 199.496 143.101 199.328 142.373 199.328C141.645 199.328 140.992 199.501 140.413 199.846C139.844 200.182 139.391 200.644 139.055 201.232C138.719 201.82 138.551 202.487 138.551 203.234C138.551 203.99 138.719 204.667 139.055 205.264C139.401 205.852 139.863 206.319 140.441 206.664C141.02 207 141.664 207.168 142.373 207.168ZM142.373 206.118C141.869 206.118 141.412 205.992 141.001 205.74C140.6 205.488 140.278 205.143 140.035 204.704C139.793 204.265 139.671 203.775 139.671 203.234C139.671 202.693 139.793 202.207 140.035 201.778C140.278 201.349 140.6 201.008 141.001 200.756C141.412 200.504 141.869 200.378 142.373 200.378C142.877 200.378 143.33 200.504 143.731 200.756C144.142 201.008 144.464 201.349 144.697 201.778C144.94 202.207 145.061 202.693 145.061 203.234C145.061 203.775 144.94 204.265 144.697 204.704C144.464 205.143 144.142 205.488 143.731 205.74C143.33 205.992 142.877 206.118 142.373 206.118ZM150.198 207H151.248L154.202 199.496H153.012L150.73 205.572L148.448 199.496H147.272L150.198 207ZM155.729 198.11H156.779V196.57H155.729V198.11ZM155.729 207H156.779V199.496H155.729V207ZM162.616 207.168C163.195 207.168 163.727 207.047 164.212 206.804C164.697 206.561 165.08 206.221 165.36 205.782V207H166.41V196.402H165.36V200.63C165.052 200.229 164.665 199.911 164.198 199.678C163.731 199.445 163.204 199.328 162.616 199.328C161.907 199.328 161.272 199.501 160.712 199.846C160.161 200.182 159.723 200.644 159.396 201.232C159.079 201.82 158.92 202.492 158.92 203.248C158.92 203.995 159.079 204.667 159.396 205.264C159.723 205.852 160.166 206.319 160.726 206.664C161.286 207 161.916 207.168 162.616 207.168ZM162.672 206.118C162.168 206.118 161.715 205.992 161.314 205.74C160.922 205.488 160.609 205.147 160.376 204.718C160.152 204.279 160.04 203.789 160.04 203.248C160.04 202.697 160.152 202.207 160.376 201.778C160.609 201.349 160.927 201.008 161.328 200.756C161.729 200.504 162.177 200.378 162.672 200.378C163.176 200.378 163.629 200.504 164.03 200.756C164.441 201.008 164.763 201.353 164.996 201.792C165.239 202.221 165.36 202.707 165.36 203.248C165.36 203.789 165.239 204.279 164.996 204.718C164.763 205.147 164.441 205.488 164.03 205.74C163.629 205.992 163.176 206.118 162.672 206.118ZM172.282 207.168C172.795 207.168 173.262 207.084 173.682 206.916C174.111 206.739 174.48 206.51 174.788 206.23C175.096 205.941 175.325 205.628 175.474 205.292L174.578 204.816C174.345 205.208 174.041 205.535 173.668 205.796C173.295 206.057 172.833 206.188 172.282 206.188C171.834 206.188 171.414 206.081 171.022 205.866C170.63 205.651 170.308 205.353 170.056 204.97C169.813 204.578 169.683 204.111 169.664 203.57H175.572C175.591 203.449 175.605 203.332 175.614 203.22C175.623 203.099 175.628 202.991 175.628 202.898C175.628 202.45 175.549 202.016 175.39 201.596C175.231 201.167 175.003 200.784 174.704 200.448C174.405 200.103 174.041 199.832 173.612 199.636C173.192 199.431 172.711 199.328 172.17 199.328C171.489 199.328 170.873 199.496 170.322 199.832C169.781 200.168 169.351 200.63 169.034 201.218C168.717 201.797 168.558 202.464 168.558 203.22C168.558 203.976 168.721 204.653 169.048 205.25C169.375 205.847 169.818 206.319 170.378 206.664C170.947 207 171.582 207.168 172.282 207.168ZM172.17 200.308C172.59 200.308 172.973 200.406 173.318 200.602C173.673 200.798 173.953 201.069 174.158 201.414C174.373 201.75 174.485 202.142 174.494 202.59H169.692C169.748 202.123 169.893 201.722 170.126 201.386C170.369 201.041 170.667 200.775 171.022 200.588C171.377 200.401 171.759 200.308 172.17 200.308ZM182.628 207.168C183.207 207.168 183.729 207.051 184.196 206.818C184.663 206.585 185.017 206.286 185.26 205.922V207H186.31V201.848C186.31 201.353 186.189 200.919 185.946 200.546C185.713 200.163 185.381 199.865 184.952 199.65C184.532 199.435 184.047 199.328 183.496 199.328C183.076 199.328 182.67 199.407 182.278 199.566C181.886 199.715 181.536 199.921 181.228 200.182C180.929 200.443 180.71 200.733 180.57 201.05L181.522 201.568C181.69 201.204 181.947 200.91 182.292 200.686C182.637 200.453 183.039 200.336 183.496 200.336C184.019 200.336 184.443 200.476 184.77 200.756C185.097 201.036 185.26 201.4 185.26 201.848V202.24L182.544 202.688C181.713 202.828 181.107 203.113 180.724 203.542C180.341 203.971 180.15 204.475 180.15 205.054C180.15 205.465 180.257 205.829 180.472 206.146C180.687 206.463 180.981 206.715 181.354 206.902C181.727 207.079 182.152 207.168 182.628 207.168ZM181.27 205.012C181.27 204.667 181.387 204.368 181.62 204.116C181.863 203.864 182.255 203.691 182.796 203.598L185.26 203.192V203.752C185.26 204.209 185.153 204.625 184.938 204.998C184.723 205.371 184.425 205.67 184.042 205.894C183.659 206.109 183.211 206.216 182.698 206.216C182.278 206.216 181.933 206.099 181.662 205.866C181.401 205.633 181.27 205.348 181.27 205.012ZM194.879 207.168C195.345 207.168 195.784 207.084 196.195 206.916C196.605 206.748 196.969 206.519 197.287 206.23C197.604 205.941 197.842 205.614 198.001 205.25L197.049 204.732C196.853 205.152 196.563 205.488 196.181 205.74C195.807 205.992 195.373 206.118 194.879 206.118C194.384 206.118 193.936 205.992 193.535 205.74C193.143 205.488 192.83 205.147 192.597 204.718C192.373 204.279 192.261 203.789 192.261 203.248C192.261 202.697 192.373 202.207 192.597 201.778C192.83 201.339 193.143 200.999 193.535 200.756C193.936 200.504 194.384 200.378 194.879 200.378C195.373 200.378 195.812 200.504 196.195 200.756C196.577 201.008 196.862 201.335 197.049 201.736L198.001 201.246C197.842 200.873 197.604 200.546 197.287 200.266C196.969 199.977 196.605 199.748 196.195 199.58C195.784 199.412 195.345 199.328 194.879 199.328C194.141 199.328 193.493 199.501 192.933 199.846C192.373 200.182 191.934 200.644 191.617 201.232C191.299 201.82 191.141 202.487 191.141 203.234C191.141 203.981 191.299 204.653 191.617 205.25C191.934 205.838 192.373 206.305 192.933 206.65C193.493 206.995 194.141 207.168 194.879 207.168ZM203.657 207.168C204.357 207.168 204.992 207 205.561 206.664C206.14 206.328 206.602 205.866 206.947 205.278C207.293 204.681 207.465 203.999 207.465 203.234C207.465 202.478 207.297 201.806 206.961 201.218C206.635 200.63 206.182 200.168 205.603 199.832C205.034 199.496 204.385 199.328 203.657 199.328C202.929 199.328 202.276 199.501 201.697 199.846C201.128 200.182 200.675 200.644 200.339 201.232C200.003 201.82 199.835 202.487 199.835 203.234C199.835 203.99 200.003 204.667 200.339 205.264C200.685 205.852 201.147 206.319 201.725 206.664C202.304 207 202.948 207.168 203.657 207.168ZM203.657 206.118C203.153 206.118 202.696 205.992 202.285 205.74C201.884 205.488 201.562 205.143 201.319 204.704C201.077 204.265 200.955 203.775 200.955 203.234C200.955 202.693 201.077 202.207 201.319 201.778C201.562 201.349 201.884 201.008 202.285 200.756C202.696 200.504 203.153 200.378 203.657 200.378C204.161 200.378 204.614 200.504 205.015 200.756C205.426 201.008 205.748 201.349 205.981 201.778C206.224 202.207 206.345 202.693 206.345 203.234C206.345 203.775 206.224 204.265 205.981 204.704C205.748 205.143 205.426 205.488 205.015 205.74C204.614 205.992 204.161 206.118 203.657 206.118ZM209.617 207H210.667V202.534C210.667 201.862 210.849 201.335 211.213 200.952C211.577 200.569 212.03 200.378 212.571 200.378C213.112 200.378 213.56 200.569 213.915 200.952C214.27 201.325 214.447 201.853 214.447 202.534V207H215.497V202.534C215.497 201.862 215.679 201.335 216.043 200.952C216.407 200.569 216.86 200.378 217.401 200.378C217.942 200.378 218.39 200.569 218.745 200.952C219.1 201.325 219.277 201.853 219.277 202.534V207H220.327V202.128C220.327 201.596 220.196 201.12 219.935 200.7C219.683 200.271 219.342 199.935 218.913 199.692C218.493 199.449 218.031 199.328 217.527 199.328C217.023 199.328 216.556 199.449 216.127 199.692C215.707 199.935 215.385 200.289 215.161 200.756C214.928 200.327 214.596 199.981 214.167 199.72C213.738 199.459 213.266 199.328 212.753 199.328C212.324 199.328 211.922 199.426 211.549 199.622C211.185 199.809 210.891 200.075 210.667 200.42V199.496H209.617V207ZM222.632 209.8H223.682V205.782C223.962 206.221 224.345 206.561 224.83 206.804C225.315 207.047 225.847 207.168 226.426 207.168C227.135 207.168 227.765 207 228.316 206.664C228.876 206.319 229.315 205.852 229.632 205.264C229.959 204.667 230.122 203.995 230.122 203.248C230.122 202.492 229.959 201.82 229.632 201.232C229.315 200.644 228.876 200.182 228.316 199.846C227.765 199.501 227.135 199.328 226.426 199.328C225.838 199.328 225.311 199.445 224.844 199.678C224.377 199.911 223.99 200.229 223.682 200.63V199.496H222.632V209.8ZM226.37 206.118C225.866 206.118 225.409 205.992 224.998 205.74C224.597 205.488 224.275 205.147 224.032 204.718C223.799 204.279 223.682 203.789 223.682 203.248C223.682 202.707 223.799 202.221 224.032 201.792C224.275 201.353 224.597 201.008 224.998 200.756C225.409 200.504 225.866 200.378 226.37 200.378C226.874 200.378 227.322 200.504 227.714 200.756C228.115 201.008 228.428 201.349 228.652 201.778C228.885 202.207 229.002 202.697 229.002 203.248C229.002 203.789 228.885 204.279 228.652 204.718C228.428 205.147 228.115 205.488 227.714 205.74C227.322 205.992 226.874 206.118 226.37 206.118ZM232.27 207H233.32V196.402H232.27V207ZM239.185 207.168C239.698 207.168 240.165 207.084 240.585 206.916C241.014 206.739 241.383 206.51 241.691 206.23C241.999 205.941 242.228 205.628 242.377 205.292L241.481 204.816C241.248 205.208 240.944 205.535 240.571 205.796C240.198 206.057 239.736 206.188 239.185 206.188C238.737 206.188 238.317 206.081 237.925 205.866C237.533 205.651 237.211 205.353 236.959 204.97C236.716 204.578 236.586 204.111 236.567 203.57H242.475C242.494 203.449 242.508 203.332 242.517 203.22C242.526 203.099 242.531 202.991 242.531 202.898C242.531 202.45 242.452 202.016 242.293 201.596C242.134 201.167 241.906 200.784 241.607 200.448C241.308 200.103 240.944 199.832 240.515 199.636C240.095 199.431 239.614 199.328 239.073 199.328C238.392 199.328 237.776 199.496 237.225 199.832C236.684 200.168 236.254 200.63 235.937 201.218C235.62 201.797 235.461 202.464 235.461 203.22C235.461 203.976 235.624 204.653 235.951 205.25C236.278 205.847 236.721 206.319 237.281 206.664C237.85 207 238.485 207.168 239.185 207.168ZM239.073 200.308C239.493 200.308 239.876 200.406 240.221 200.602C240.576 200.798 240.856 201.069 241.061 201.414C241.276 201.75 241.388 202.142 241.397 202.59H236.595C236.651 202.123 236.796 201.722 237.029 201.386C237.272 201.041 237.57 200.775 237.925 200.588C238.28 200.401 238.662 200.308 239.073 200.308ZM247.552 207.084C247.636 207.084 247.748 207.079 247.888 207.07C248.028 207.061 248.154 207.042 248.266 207.014V206.062C248.192 206.071 248.103 206.081 248 206.09C247.898 206.099 247.809 206.104 247.734 206.104C247.268 206.104 246.946 205.983 246.768 205.74C246.591 205.497 246.502 205.189 246.502 204.816V200.546H248.154V199.496H246.502V197.76H245.452V198.39C245.452 198.707 245.359 198.973 245.172 199.188C244.986 199.393 244.734 199.496 244.416 199.496H244.066V200.546H245.452V204.816C245.452 205.544 245.634 206.104 245.998 206.496C246.362 206.888 246.88 207.084 247.552 207.084ZM253.553 207.168C254.066 207.168 254.533 207.084 254.953 206.916C255.382 206.739 255.751 206.51 256.059 206.23C256.367 205.941 256.595 205.628 256.745 205.292L255.849 204.816C255.615 205.208 255.312 205.535 254.939 205.796C254.565 206.057 254.103 206.188 253.553 206.188C253.105 206.188 252.685 206.081 252.293 205.866C251.901 205.651 251.579 205.353 251.327 204.97C251.084 204.578 250.953 204.111 250.935 203.57H256.843C256.861 203.449 256.875 203.332 256.885 203.22C256.894 203.099 256.899 202.991 256.899 202.898C256.899 202.45 256.819 202.016 256.661 201.596C256.502 201.167 256.273 200.784 255.975 200.448C255.676 200.103 255.312 199.832 254.883 199.636C254.463 199.431 253.982 199.328 253.441 199.328C252.759 199.328 252.143 199.496 251.593 199.832C251.051 200.168 250.622 200.63 250.305 201.218C249.987 201.797 249.829 202.464 249.829 203.22C249.829 203.976 249.992 204.653 250.319 205.25C250.645 205.847 251.089 206.319 251.649 206.664C252.218 207 252.853 207.168 253.553 207.168ZM253.441 200.308C253.861 200.308 254.243 200.406 254.589 200.602C254.943 200.798 255.223 201.069 255.429 201.414C255.643 201.75 255.755 202.142 255.765 202.59H250.963C251.019 202.123 251.163 201.722 251.397 201.386C251.639 201.041 251.938 200.775 252.293 200.588C252.647 200.401 253.03 200.308 253.441 200.308ZM261.729 207H262.779V202.38C262.779 201.764 262.942 201.288 263.269 200.952C263.595 200.616 264.029 200.448 264.571 200.448H265.229V199.398H264.753C264.295 199.398 263.899 199.477 263.563 199.636C263.236 199.795 262.975 200.019 262.779 200.308V199.496H261.729V207ZM268.929 207.168C269.508 207.168 270.031 207.051 270.497 206.818C270.964 206.585 271.319 206.286 271.561 205.922V207H272.611V201.848C272.611 201.353 272.49 200.919 272.247 200.546C272.014 200.163 271.683 199.865 271.253 199.65C270.833 199.435 270.348 199.328 269.797 199.328C269.377 199.328 268.971 199.407 268.579 199.566C268.187 199.715 267.837 199.921 267.529 200.182C267.231 200.443 267.011 200.733 266.871 201.05L267.823 201.568C267.991 201.204 268.248 200.91 268.593 200.686C268.939 200.453 269.34 200.336 269.797 200.336C270.32 200.336 270.745 200.476 271.071 200.756C271.398 201.036 271.561 201.4 271.561 201.848V202.24L268.845 202.688C268.015 202.828 267.408 203.113 267.025 203.542C266.643 203.971 266.451 204.475 266.451 205.054C266.451 205.465 266.559 205.829 266.773 206.146C266.988 206.463 267.282 206.715 267.655 206.902C268.029 207.079 268.453 207.168 268.929 207.168ZM267.571 205.012C267.571 204.667 267.688 204.368 267.921 204.116C268.164 203.864 268.556 203.691 269.097 203.598L271.561 203.192V203.752C271.561 204.209 271.454 204.625 271.239 204.998C271.025 205.371 270.726 205.67 270.343 205.894C269.961 206.109 269.513 206.216 268.999 206.216C268.579 206.216 268.234 206.099 267.963 205.866C267.702 205.633 267.571 205.348 267.571 205.012ZM275.071 207H276.121V202.534C276.121 201.862 276.308 201.335 276.681 200.952C277.054 200.569 277.526 200.378 278.095 200.378C278.674 200.378 279.14 200.569 279.495 200.952C279.859 201.325 280.041 201.853 280.041 202.534V207H281.091V202.128C281.091 201.596 280.965 201.12 280.713 200.7C280.47 200.271 280.134 199.935 279.705 199.692C279.285 199.449 278.809 199.328 278.277 199.328C277.81 199.328 277.39 199.426 277.017 199.622C276.644 199.818 276.345 200.084 276.121 200.42V199.496H275.071V207ZM286.952 210.08C287.643 210.08 288.254 209.931 288.786 209.632C289.328 209.343 289.748 208.941 290.046 208.428C290.354 207.924 290.508 207.35 290.508 206.706V199.496H289.458V200.63C289.16 200.229 288.777 199.911 288.31 199.678C287.844 199.445 287.335 199.328 286.784 199.328C286.075 199.328 285.44 199.496 284.88 199.832C284.33 200.168 283.891 200.621 283.564 201.19C283.247 201.759 283.088 202.399 283.088 203.108C283.088 203.808 283.247 204.447 283.564 205.026C283.891 205.595 284.334 206.048 284.894 206.384C285.454 206.72 286.084 206.888 286.784 206.888C287.335 206.888 287.848 206.767 288.324 206.524C288.8 206.281 289.178 205.941 289.458 205.502V206.706C289.458 207.21 289.342 207.635 289.108 207.98C288.875 208.325 288.567 208.587 288.184 208.764C287.802 208.941 287.382 209.03 286.924 209.03C286.327 209.03 285.837 208.899 285.454 208.638C285.072 208.377 284.806 208.069 284.656 207.714L283.69 208.232C283.942 208.773 284.353 209.217 284.922 209.562C285.501 209.907 286.178 210.08 286.952 210.08ZM286.84 205.838C286.336 205.838 285.884 205.717 285.482 205.474C285.09 205.222 284.778 204.891 284.544 204.48C284.32 204.06 284.208 203.603 284.208 203.108C284.208 202.604 284.32 202.147 284.544 201.736C284.778 201.325 285.095 200.999 285.496 200.756C285.898 200.504 286.346 200.378 286.84 200.378C287.326 200.378 287.764 200.504 288.156 200.756C288.548 200.999 288.861 201.33 289.094 201.75C289.337 202.161 289.458 202.613 289.458 203.108C289.458 203.603 289.337 204.06 289.094 204.48C288.861 204.891 288.548 205.222 288.156 205.474C287.764 205.717 287.326 205.838 286.84 205.838ZM296.382 207.168C296.895 207.168 297.362 207.084 297.782 206.916C298.211 206.739 298.58 206.51 298.888 206.23C299.196 205.941 299.425 205.628 299.574 205.292L298.678 204.816C298.445 205.208 298.141 205.535 297.768 205.796C297.395 206.057 296.933 206.188 296.382 206.188C295.934 206.188 295.514 206.081 295.122 205.866C294.73 205.651 294.408 205.353 294.156 204.97C293.913 204.578 293.783 204.111 293.764 203.57H299.672C299.691 203.449 299.705 203.332 299.714 203.22C299.723 203.099 299.728 202.991 299.728 202.898C299.728 202.45 299.649 202.016 299.49 201.596C299.331 201.167 299.103 200.784 298.804 200.448C298.505 200.103 298.141 199.832 297.712 199.636C297.292 199.431 296.811 199.328 296.27 199.328C295.589 199.328 294.973 199.496 294.422 199.832C293.881 200.168 293.451 200.63 293.134 201.218C292.817 201.797 292.658 202.464 292.658 203.22C292.658 203.976 292.821 204.653 293.148 205.25C293.475 205.847 293.918 206.319 294.478 206.664C295.047 207 295.682 207.168 296.382 207.168ZM296.27 200.308C296.69 200.308 297.073 200.406 297.418 200.602C297.773 200.798 298.053 201.069 298.258 201.414C298.473 201.75 298.585 202.142 298.594 202.59H293.792C293.848 202.123 293.993 201.722 294.226 201.386C294.469 201.041 294.767 200.775 295.122 200.588C295.477 200.401 295.859 200.308 296.27 200.308ZM102.592 231.168C103.292 231.168 103.927 231 104.496 230.664C105.075 230.328 105.537 229.866 105.882 229.278C106.227 228.681 106.4 227.999 106.4 227.234C106.4 226.478 106.232 225.806 105.896 225.218C105.569 224.63 105.117 224.168 104.538 223.832C103.969 223.496 103.32 223.328 102.592 223.328C101.864 223.328 101.211 223.501 100.632 223.846C100.063 224.182 99.61 224.644 99.274 225.232C98.938 225.82 98.77 226.487 98.77 227.234C98.77 227.99 98.938 228.667 99.274 229.264C99.6193 229.852 100.081 230.319 100.66 230.664C101.239 231 101.883 231.168 102.592 231.168ZM102.592 230.118C102.088 230.118 101.631 229.992 101.22 229.74C100.819 229.488 100.497 229.143 100.254 228.704C100.011 228.265 99.89 227.775 99.89 227.234C99.89 226.693 100.011 226.207 100.254 225.778C100.497 225.349 100.819 225.008 101.22 224.756C101.631 224.504 102.088 224.378 102.592 224.378C103.096 224.378 103.549 224.504 103.95 224.756C104.361 225.008 104.683 225.349 104.916 225.778C105.159 226.207 105.28 226.693 105.28 227.234C105.28 227.775 105.159 228.265 104.916 228.704C104.683 229.143 104.361 229.488 103.95 229.74C103.549 229.992 103.096 230.118 102.592 230.118ZM109.048 231H110.098V224.546H111.932V223.496H110.098V222.824C110.098 222.292 110.248 221.919 110.546 221.704C110.845 221.489 111.218 221.382 111.666 221.382C111.713 221.382 111.792 221.387 111.904 221.396C112.016 221.396 112.105 221.405 112.17 221.424V220.472C112.096 220.453 111.998 220.439 111.876 220.43C111.755 220.411 111.648 220.402 111.554 220.402C111.116 220.402 110.705 220.495 110.322 220.682C109.94 220.869 109.632 221.144 109.398 221.508C109.165 221.863 109.048 222.301 109.048 222.824V223.496H107.55V224.546H109.048V231ZM119.357 231.168C119.88 231.168 120.342 231.079 120.743 230.902C121.145 230.715 121.457 230.459 121.681 230.132C121.915 229.805 122.031 229.437 122.031 229.026C122.031 228.522 121.859 228.083 121.513 227.71C121.177 227.337 120.706 227.061 120.099 226.884L118.853 226.52C118.723 226.483 118.569 226.427 118.391 226.352C118.223 226.277 118.074 226.165 117.943 226.016C117.813 225.867 117.747 225.666 117.747 225.414C117.747 225.087 117.873 224.817 118.125 224.602C118.377 224.387 118.713 224.28 119.133 224.28C119.563 224.28 119.95 224.401 120.295 224.644C120.65 224.877 120.921 225.204 121.107 225.624L122.003 225.204C121.789 224.616 121.42 224.159 120.897 223.832C120.384 223.496 119.81 223.328 119.175 223.328C118.709 223.328 118.284 223.417 117.901 223.594C117.519 223.771 117.215 224.023 116.991 224.35C116.767 224.677 116.655 225.059 116.655 225.498C116.655 225.965 116.809 226.375 117.117 226.73C117.425 227.085 117.925 227.36 118.615 227.556L119.693 227.864C119.843 227.901 120.015 227.962 120.211 228.046C120.407 228.13 120.58 228.251 120.729 228.41C120.879 228.559 120.953 228.765 120.953 229.026C120.953 229.381 120.799 229.67 120.491 229.894C120.183 230.109 119.805 230.216 119.357 230.216C118.891 230.216 118.461 230.081 118.069 229.81C117.687 229.539 117.388 229.175 117.173 228.718L116.291 229.138C116.534 229.763 116.926 230.258 117.467 230.622C118.009 230.986 118.639 231.168 119.357 231.168ZM127.592 231.168C128.106 231.168 128.572 231.084 128.992 230.916C129.422 230.739 129.79 230.51 130.098 230.23C130.406 229.941 130.635 229.628 130.784 229.292L129.888 228.816C129.655 229.208 129.352 229.535 128.978 229.796C128.605 230.057 128.143 230.188 127.592 230.188C127.144 230.188 126.724 230.081 126.332 229.866C125.94 229.651 125.618 229.353 125.366 228.97C125.124 228.578 124.993 228.111 124.974 227.57H130.882C130.901 227.449 130.915 227.332 130.924 227.22C130.934 227.099 130.938 226.991 130.938 226.898C130.938 226.45 130.859 226.016 130.7 225.596C130.542 225.167 130.313 224.784 130.014 224.448C129.716 224.103 129.352 223.832 128.922 223.636C128.502 223.431 128.022 223.328 127.48 223.328C126.799 223.328 126.183 223.496 125.632 223.832C125.091 224.168 124.662 224.63 124.344 225.218C124.027 225.797 123.868 226.464 123.868 227.22C123.868 227.976 124.032 228.653 124.358 229.25C124.685 229.847 125.128 230.319 125.688 230.664C126.258 231 126.892 231.168 127.592 231.168ZM127.48 224.308C127.9 224.308 128.283 224.406 128.628 224.602C128.983 224.798 129.263 225.069 129.468 225.414C129.683 225.75 129.795 226.142 129.804 226.59H125.002C125.058 226.123 125.203 225.722 125.436 225.386C125.679 225.041 125.978 224.775 126.332 224.588C126.687 224.401 127.07 224.308 127.48 224.308ZM133.09 231H134.14V226.38C134.14 225.764 134.303 225.288 134.63 224.952C134.956 224.616 135.39 224.448 135.932 224.448H136.59V223.398H136.114C135.656 223.398 135.26 223.477 134.924 223.636C134.597 223.795 134.336 224.019 134.14 224.308V223.496H133.09V231ZM140.122 231H141.172L144.126 223.496H142.936L140.654 229.572L138.372 223.496H137.196L140.122 231ZM145.653 222.11H146.703V220.57H145.653V222.11ZM145.653 231H146.703V223.496H145.653V231ZM152.582 231.168C153.048 231.168 153.487 231.084 153.898 230.916C154.308 230.748 154.672 230.519 154.99 230.23C155.307 229.941 155.545 229.614 155.704 229.25L154.752 228.732C154.556 229.152 154.266 229.488 153.884 229.74C153.51 229.992 153.076 230.118 152.582 230.118C152.087 230.118 151.639 229.992 151.238 229.74C150.846 229.488 150.533 229.147 150.3 228.718C150.076 228.279 149.964 227.789 149.964 227.248C149.964 226.697 150.076 226.207 150.3 225.778C150.533 225.339 150.846 224.999 151.238 224.756C151.639 224.504 152.087 224.378 152.582 224.378C153.076 224.378 153.515 224.504 153.898 224.756C154.28 225.008 154.565 225.335 154.752 225.736L155.704 225.246C155.545 224.873 155.307 224.546 154.99 224.266C154.672 223.977 154.308 223.748 153.898 223.58C153.487 223.412 153.048 223.328 152.582 223.328C151.844 223.328 151.196 223.501 150.636 223.846C150.076 224.182 149.637 224.644 149.32 225.232C149.002 225.82 148.844 226.487 148.844 227.234C148.844 227.981 149.002 228.653 149.32 229.25C149.637 229.838 150.076 230.305 150.636 230.65C151.196 230.995 151.844 231.168 152.582 231.168ZM161.262 231.168C161.776 231.168 162.242 231.084 162.662 230.916C163.092 230.739 163.46 230.51 163.768 230.23C164.076 229.941 164.305 229.628 164.454 229.292L163.558 228.816C163.325 229.208 163.022 229.535 162.648 229.796C162.275 230.057 161.813 230.188 161.262 230.188C160.814 230.188 160.394 230.081 160.002 229.866C159.61 229.651 159.288 229.353 159.036 228.97C158.794 228.578 158.663 228.111 158.644 227.57H164.552C164.571 227.449 164.585 227.332 164.594 227.22C164.604 227.099 164.608 226.991 164.608 226.898C164.608 226.45 164.529 226.016 164.37 225.596C164.212 225.167 163.983 224.784 163.684 224.448C163.386 224.103 163.022 223.832 162.592 223.636C162.172 223.431 161.692 223.328 161.15 223.328C160.469 223.328 159.853 223.496 159.302 223.832C158.761 224.168 158.332 224.63 158.014 225.218C157.697 225.797 157.538 226.464 157.538 227.22C157.538 227.976 157.702 228.653 158.028 229.25C158.355 229.847 158.798 230.319 159.358 230.664C159.928 231 160.562 231.168 161.262 231.168ZM161.15 224.308C161.57 224.308 161.953 224.406 162.298 224.602C162.653 224.798 162.933 225.069 163.138 225.414C163.353 225.75 163.465 226.142 163.474 226.59H158.672C158.728 226.123 158.873 225.722 159.106 225.386C159.349 225.041 159.648 224.775 160.002 224.588C160.357 224.401 160.74 224.308 161.15 224.308ZM169.364 231.168C169.886 231.168 170.348 231.079 170.75 230.902C171.151 230.715 171.464 230.459 171.688 230.132C171.921 229.805 172.038 229.437 172.038 229.026C172.038 228.522 171.865 228.083 171.52 227.71C171.184 227.337 170.712 227.061 170.106 226.884L168.86 226.52C168.729 226.483 168.575 226.427 168.398 226.352C168.23 226.277 168.08 226.165 167.95 226.016C167.819 225.867 167.754 225.666 167.754 225.414C167.754 225.087 167.88 224.817 168.132 224.602C168.384 224.387 168.72 224.28 169.14 224.28C169.569 224.28 169.956 224.401 170.302 224.644C170.656 224.877 170.927 225.204 171.114 225.624L172.01 225.204C171.795 224.616 171.426 224.159 170.904 223.832C170.39 223.496 169.816 223.328 169.182 223.328C168.715 223.328 168.29 223.417 167.908 223.594C167.525 223.771 167.222 224.023 166.998 224.35C166.774 224.677 166.662 225.059 166.662 225.498C166.662 225.965 166.816 226.375 167.124 226.73C167.432 227.085 167.931 227.36 168.622 227.556L169.7 227.864C169.849 227.901 170.022 227.962 170.218 228.046C170.414 228.13 170.586 228.251 170.736 228.41C170.885 228.559 170.96 228.765 170.96 229.026C170.96 229.381 170.806 229.67 170.498 229.894C170.19 230.109 169.812 230.216 169.364 230.216C168.897 230.216 168.468 230.081 168.076 229.81C167.693 229.539 167.394 229.175 167.18 228.718L166.298 229.138C166.54 229.763 166.932 230.258 167.474 230.622C168.015 230.986 168.645 231.168 169.364 231.168ZM177.632 231H178.682V224.546H180.516V223.496H178.682V222.824C178.682 222.292 178.831 221.919 179.13 221.704C179.428 221.489 179.802 221.382 180.25 221.382C180.296 221.382 180.376 221.387 180.488 221.396C180.6 221.396 180.688 221.405 180.754 221.424V220.472C180.679 220.453 180.581 220.439 180.46 220.43C180.338 220.411 180.231 220.402 180.138 220.402C179.699 220.402 179.288 220.495 178.906 220.682C178.523 220.869 178.215 221.144 177.982 221.508C177.748 221.863 177.632 222.301 177.632 222.824V223.496H176.134V224.546H177.632V231ZM185.748 231.168C186.448 231.168 187.083 231 187.652 230.664C188.231 230.328 188.693 229.866 189.038 229.278C189.383 228.681 189.556 227.999 189.556 227.234C189.556 226.478 189.388 225.806 189.052 225.218C188.725 224.63 188.273 224.168 187.694 223.832C187.125 223.496 186.476 223.328 185.748 223.328C185.02 223.328 184.367 223.501 183.788 223.846C183.219 224.182 182.766 224.644 182.43 225.232C182.094 225.82 181.926 226.487 181.926 227.234C181.926 227.99 182.094 228.667 182.43 229.264C182.775 229.852 183.237 230.319 183.816 230.664C184.395 231 185.039 231.168 185.748 231.168ZM185.748 230.118C185.244 230.118 184.787 229.992 184.376 229.74C183.975 229.488 183.653 229.143 183.41 228.704C183.167 228.265 183.046 227.775 183.046 227.234C183.046 226.693 183.167 226.207 183.41 225.778C183.653 225.349 183.975 225.008 184.376 224.756C184.787 224.504 185.244 224.378 185.748 224.378C186.252 224.378 186.705 224.504 187.106 224.756C187.517 225.008 187.839 225.349 188.072 225.778C188.315 226.207 188.436 226.693 188.436 227.234C188.436 227.775 188.315 228.265 188.072 228.704C187.839 229.143 187.517 229.488 187.106 229.74C186.705 229.992 186.252 230.118 185.748 230.118ZM191.708 231H192.758V226.38C192.758 225.764 192.921 225.288 193.248 224.952C193.574 224.616 194.008 224.448 194.55 224.448H195.208V223.398H194.732C194.274 223.398 193.878 223.477 193.542 223.636C193.215 223.795 192.954 224.019 192.758 224.308V223.496H191.708V231ZM202.287 231.084C202.371 231.084 202.483 231.079 202.623 231.07C202.763 231.061 202.889 231.042 203.001 231.014V230.062C202.926 230.071 202.838 230.081 202.735 230.09C202.632 230.099 202.544 230.104 202.469 230.104C202.002 230.104 201.68 229.983 201.503 229.74C201.326 229.497 201.237 229.189 201.237 228.816V224.546H202.889V223.496H201.237V221.76H200.187V222.39C200.187 222.707 200.094 222.973 199.907 223.188C199.72 223.393 199.468 223.496 199.151 223.496H198.801V224.546H200.187V228.816C200.187 229.544 200.369 230.104 200.733 230.496C201.097 230.888 201.615 231.084 202.287 231.084ZM205.145 231H206.195V226.534C206.195 225.862 206.381 225.335 206.755 224.952C207.137 224.569 207.609 224.378 208.169 224.378C208.729 224.378 209.191 224.569 209.555 224.952C209.928 225.325 210.115 225.853 210.115 226.534V231H211.165V226.128C211.165 225.596 211.039 225.12 210.787 224.7C210.544 224.271 210.208 223.935 209.779 223.692C209.359 223.449 208.883 223.328 208.351 223.328C207.884 223.328 207.464 223.426 207.091 223.622C206.717 223.818 206.419 224.084 206.195 224.42V220.402H205.145V231ZM216.886 231.168C217.4 231.168 217.866 231.084 218.286 230.916C218.716 230.739 219.084 230.51 219.392 230.23C219.7 229.941 219.929 229.628 220.078 229.292L219.182 228.816C218.949 229.208 218.646 229.535 218.272 229.796C217.899 230.057 217.437 230.188 216.886 230.188C216.438 230.188 216.018 230.081 215.626 229.866C215.234 229.651 214.912 229.353 214.66 228.97C214.418 228.578 214.287 228.111 214.268 227.57H220.176C220.195 227.449 220.209 227.332 220.218 227.22C220.228 227.099 220.232 226.991 220.232 226.898C220.232 226.45 220.153 226.016 219.994 225.596C219.836 225.167 219.607 224.784 219.308 224.448C219.01 224.103 218.646 223.832 218.216 223.636C217.796 223.431 217.316 223.328 216.774 223.328C216.093 223.328 215.477 223.496 214.926 223.832C214.385 224.168 213.956 224.63 213.638 225.218C213.321 225.797 213.162 226.464 213.162 227.22C213.162 227.976 213.326 228.653 213.652 229.25C213.979 229.847 214.422 230.319 214.982 230.664C215.552 231 216.186 231.168 216.886 231.168ZM216.774 224.308C217.194 224.308 217.577 224.406 217.922 224.602C218.277 224.798 218.557 225.069 218.762 225.414C218.977 225.75 219.089 226.142 219.098 226.59H214.296C214.352 226.123 214.497 225.722 214.73 225.386C214.973 225.041 215.272 224.775 215.626 224.588C215.981 224.401 216.364 224.308 216.774 224.308ZM228.492 231.168C228.959 231.168 229.398 231.084 229.808 230.916C230.219 230.748 230.583 230.519 230.9 230.23C231.218 229.941 231.456 229.614 231.614 229.25L230.662 228.732C230.466 229.152 230.177 229.488 229.794 229.74C229.421 229.992 228.987 230.118 228.492 230.118C227.998 230.118 227.55 229.992 227.148 229.74C226.756 229.488 226.444 229.147 226.21 228.718C225.986 228.279 225.874 227.789 225.874 227.248C225.874 226.697 225.986 226.207 226.21 225.778C226.444 225.339 226.756 224.999 227.148 224.756C227.55 224.504 227.998 224.378 228.492 224.378C228.987 224.378 229.426 224.504 229.808 224.756C230.191 225.008 230.476 225.335 230.662 225.736L231.614 225.246C231.456 224.873 231.218 224.546 230.9 224.266C230.583 223.977 230.219 223.748 229.808 223.58C229.398 223.412 228.959 223.328 228.492 223.328C227.755 223.328 227.106 223.501 226.546 223.846C225.986 224.182 225.548 224.644 225.23 225.232C224.913 225.82 224.754 226.487 224.754 227.234C224.754 227.981 224.913 228.653 225.23 229.25C225.548 229.838 225.986 230.305 226.546 230.65C227.106 230.995 227.755 231.168 228.492 231.168ZM237.271 231.168C237.971 231.168 238.606 231 239.175 230.664C239.754 230.328 240.216 229.866 240.561 229.278C240.906 228.681 241.079 227.999 241.079 227.234C241.079 226.478 240.911 225.806 240.575 225.218C240.248 224.63 239.796 224.168 239.217 223.832C238.648 223.496 237.999 223.328 237.271 223.328C236.543 223.328 235.89 223.501 235.311 223.846C234.742 224.182 234.289 224.644 233.953 225.232C233.617 225.82 233.449 226.487 233.449 227.234C233.449 227.99 233.617 228.667 233.953 229.264C234.298 229.852 234.76 230.319 235.339 230.664C235.918 231 236.562 231.168 237.271 231.168ZM237.271 230.118C236.767 230.118 236.31 229.992 235.899 229.74C235.498 229.488 235.176 229.143 234.933 228.704C234.69 228.265 234.569 227.775 234.569 227.234C234.569 226.693 234.69 226.207 234.933 225.778C235.176 225.349 235.498 225.008 235.899 224.756C236.31 224.504 236.767 224.378 237.271 224.378C237.775 224.378 238.228 224.504 238.629 224.756C239.04 225.008 239.362 225.349 239.595 225.778C239.838 226.207 239.959 226.693 239.959 227.234C239.959 227.775 239.838 228.265 239.595 228.704C239.362 229.143 239.04 229.488 238.629 229.74C238.228 229.992 237.775 230.118 237.271 230.118ZM243.231 231H244.281V226.534C244.281 225.862 244.467 225.335 244.841 224.952C245.214 224.569 245.685 224.378 246.255 224.378C246.833 224.378 247.3 224.569 247.655 224.952C248.019 225.325 248.201 225.853 248.201 226.534V231H249.251V226.128C249.251 225.596 249.125 225.12 248.873 224.7C248.63 224.271 248.294 223.935 247.865 223.692C247.445 223.449 246.969 223.328 246.437 223.328C245.97 223.328 245.55 223.426 245.177 223.622C244.803 223.818 244.505 224.084 244.281 224.42V223.496H243.231V231ZM254.426 231.084C254.51 231.084 254.622 231.079 254.762 231.07C254.902 231.061 255.028 231.042 255.14 231.014V230.062C255.065 230.071 254.977 230.081 254.874 230.09C254.771 230.099 254.683 230.104 254.608 230.104C254.141 230.104 253.819 229.983 253.642 229.74C253.465 229.497 253.376 229.189 253.376 228.816V224.546H255.028V223.496H253.376V221.76H252.326V222.39C252.326 222.707 252.233 222.973 252.046 223.188C251.859 223.393 251.607 223.496 251.29 223.496H250.94V224.546H252.326V228.816C252.326 229.544 252.508 230.104 252.872 230.496C253.236 230.888 253.754 231.084 254.426 231.084ZM257.284 222.11H258.334V220.57H257.284V222.11ZM257.284 231H258.334V223.496H257.284V231ZM260.783 231H261.833V226.534C261.833 225.862 262.02 225.335 262.393 224.952C262.766 224.569 263.238 224.378 263.807 224.378C264.386 224.378 264.852 224.569 265.207 224.952C265.571 225.325 265.753 225.853 265.753 226.534V231H266.803V226.128C266.803 225.596 266.677 225.12 266.425 224.7C266.182 224.271 265.846 223.935 265.417 223.692C264.997 223.449 264.521 223.328 263.989 223.328C263.522 223.328 263.102 223.426 262.729 223.622C262.356 223.818 262.057 224.084 261.833 224.42V223.496H260.783V231ZM271.768 231.168C272.235 231.168 272.655 231.07 273.028 230.874C273.402 230.678 273.7 230.412 273.924 230.076V231H274.974V223.496H273.924V227.962C273.924 228.634 273.738 229.161 273.364 229.544C273 229.927 272.529 230.118 271.95 230.118C271.381 230.118 270.914 229.936 270.55 229.572C270.186 229.199 270.004 228.709 270.004 228.102V223.496H268.954V228.228C268.954 228.807 269.076 229.32 269.318 229.768C269.57 230.207 269.911 230.552 270.34 230.804C270.77 231.047 271.246 231.168 271.768 231.168ZM277.434 222.11H278.484V220.57H277.434V222.11ZM277.434 231H278.484V223.496H277.434V231ZM283.803 231.084C283.887 231.084 283.999 231.079 284.139 231.07C284.279 231.061 284.405 231.042 284.517 231.014V230.062C284.442 230.071 284.354 230.081 284.251 230.09C284.148 230.099 284.06 230.104 283.985 230.104C283.518 230.104 283.196 229.983 283.019 229.74C282.842 229.497 282.753 229.189 282.753 228.816V224.546H284.405V223.496H282.753V221.76H281.703V222.39C281.703 222.707 281.61 222.973 281.423 223.188C281.236 223.393 280.984 223.496 280.667 223.496H280.317V224.546H281.703V228.816C281.703 229.544 281.885 230.104 282.249 230.496C282.613 230.888 283.131 231.084 283.803 231.084ZM286.815 234.08C287.309 234.08 287.729 233.977 288.075 233.772C288.42 233.576 288.705 233.315 288.929 232.988C289.162 232.661 289.353 232.316 289.503 231.952L292.933 223.482H291.771L289.321 229.684L286.871 223.482H285.737L288.733 231L288.467 231.644C288.233 232.185 287.995 232.549 287.753 232.736C287.51 232.932 287.16 233.03 286.703 233.03C286.553 233.03 286.404 233.016 286.255 232.988C286.115 232.969 285.998 232.955 285.905 232.946V233.926C286.054 233.982 286.203 234.019 286.353 234.038C286.511 234.066 286.665 234.08 286.815 234.08ZM102.592 255.168C103.292 255.168 103.927 255 104.496 254.664C105.075 254.328 105.537 253.866 105.882 253.278C106.227 252.681 106.4 251.999 106.4 251.234C106.4 250.478 106.232 249.806 105.896 249.218C105.569 248.63 105.117 248.168 104.538 247.832C103.969 247.496 103.32 247.328 102.592 247.328C101.864 247.328 101.211 247.501 100.632 247.846C100.063 248.182 99.61 248.644 99.274 249.232C98.938 249.82 98.77 250.487 98.77 251.234C98.77 251.99 98.938 252.667 99.274 253.264C99.6193 253.852 100.081 254.319 100.66 254.664C101.239 255 101.883 255.168 102.592 255.168ZM102.592 254.118C102.088 254.118 101.631 253.992 101.22 253.74C100.819 253.488 100.497 253.143 100.254 252.704C100.011 252.265 99.89 251.775 99.89 251.234C99.89 250.693 100.011 250.207 100.254 249.778C100.497 249.349 100.819 249.008 101.22 248.756C101.631 248.504 102.088 248.378 102.592 248.378C103.096 248.378 103.549 248.504 103.95 248.756C104.361 249.008 104.683 249.349 104.916 249.778C105.159 250.207 105.28 250.693 105.28 251.234C105.28 251.775 105.159 252.265 104.916 252.704C104.683 253.143 104.361 253.488 103.95 253.74C103.549 253.992 103.096 254.118 102.592 254.118ZM109.048 255H110.098V248.546H111.932V247.496H110.098V246.824C110.098 246.292 110.248 245.919 110.546 245.704C110.845 245.489 111.218 245.382 111.666 245.382C111.713 245.382 111.792 245.387 111.904 245.396C112.016 245.396 112.105 245.405 112.17 245.424V244.472C112.096 244.453 111.998 244.439 111.876 244.43C111.755 244.411 111.648 244.402 111.554 244.402C111.116 244.402 110.705 244.495 110.322 244.682C109.94 244.869 109.632 245.144 109.398 245.508C109.165 245.863 109.048 246.301 109.048 246.824V247.496H107.55V248.546H109.048V255ZM116.907 258.08C117.402 258.08 117.822 257.977 118.167 257.772C118.513 257.576 118.797 257.315 119.021 256.988C119.255 256.661 119.446 256.316 119.595 255.952L123.025 247.482H121.863L119.413 253.684L116.963 247.482H115.829L118.825 255L118.559 255.644C118.326 256.185 118.088 256.549 117.845 256.736C117.603 256.932 117.253 257.03 116.795 257.03C116.646 257.03 116.497 257.016 116.347 256.988C116.207 256.969 116.091 256.955 115.997 256.946V257.926C116.147 257.982 116.296 258.019 116.445 258.038C116.604 258.066 116.758 258.08 116.907 258.08ZM127.937 255.168C128.637 255.168 129.271 255 129.841 254.664C130.419 254.328 130.881 253.866 131.227 253.278C131.572 252.681 131.745 251.999 131.745 251.234C131.745 250.478 131.577 249.806 131.241 249.218C130.914 248.63 130.461 248.168 129.883 247.832C129.313 247.496 128.665 247.328 127.937 247.328C127.209 247.328 126.555 247.501 125.977 247.846C125.407 248.182 124.955 248.644 124.619 249.232C124.283 249.82 124.115 250.487 124.115 251.234C124.115 251.99 124.283 252.667 124.619 253.264C124.964 253.852 125.426 254.319 126.005 254.664C126.583 255 127.227 255.168 127.937 255.168ZM127.937 254.118C127.433 254.118 126.975 253.992 126.565 253.74C126.163 253.488 125.841 253.143 125.599 252.704C125.356 252.265 125.235 251.775 125.235 251.234C125.235 250.693 125.356 250.207 125.599 249.778C125.841 249.349 126.163 249.008 126.565 248.756C126.975 248.504 127.433 248.378 127.937 248.378C128.441 248.378 128.893 248.504 129.295 248.756C129.705 249.008 130.027 249.349 130.261 249.778C130.503 250.207 130.625 250.693 130.625 251.234C130.625 251.775 130.503 252.265 130.261 252.704C130.027 253.143 129.705 253.488 129.295 253.74C128.893 253.992 128.441 254.118 127.937 254.118ZM136.556 255.168C137.023 255.168 137.443 255.07 137.816 254.874C138.19 254.678 138.488 254.412 138.712 254.076V255H139.762V247.496H138.712V251.962C138.712 252.634 138.526 253.161 138.152 253.544C137.788 253.927 137.317 254.118 136.738 254.118C136.169 254.118 135.702 253.936 135.338 253.572C134.974 253.199 134.792 252.709 134.792 252.102V247.496H133.742V252.228C133.742 252.807 133.864 253.32 134.106 253.768C134.358 254.207 134.699 254.552 135.128 254.804C135.558 255.047 136.034 255.168 136.556 255.168ZM142.222 255H143.272V250.38C143.272 249.764 143.435 249.288 143.762 248.952C144.088 248.616 144.522 248.448 145.064 248.448H145.722V247.398H145.246C144.788 247.398 144.392 247.477 144.056 247.636C143.729 247.795 143.468 248.019 143.272 248.308V247.496H142.222V255ZM153.725 255.168C154.434 255.168 155.064 255 155.615 254.664C156.175 254.319 156.614 253.852 156.931 253.264C157.258 252.667 157.421 251.995 157.421 251.248C157.421 250.492 157.258 249.82 156.931 249.232C156.614 248.644 156.175 248.182 155.615 247.846C155.064 247.501 154.434 247.328 153.725 247.328C153.137 247.328 152.61 247.445 152.143 247.678C151.676 247.911 151.289 248.229 150.981 248.63V244.402H149.931V255H150.981V253.782C151.261 254.221 151.644 254.561 152.129 254.804C152.614 255.047 153.146 255.168 153.725 255.168ZM153.669 254.118C153.165 254.118 152.708 253.992 152.297 253.74C151.896 253.488 151.574 253.147 151.331 252.718C151.098 252.279 150.981 251.789 150.981 251.248C150.981 250.707 151.098 250.221 151.331 249.792C151.574 249.353 151.896 249.008 152.297 248.756C152.708 248.504 153.165 248.378 153.669 248.378C154.173 248.378 154.621 248.504 155.013 248.756C155.414 249.008 155.727 249.349 155.951 249.778C156.184 250.207 156.301 250.697 156.301 251.248C156.301 251.789 156.184 252.279 155.951 252.718C155.727 253.147 155.414 253.488 155.013 253.74C154.621 253.992 154.173 254.118 153.669 254.118ZM162.229 255.168C162.696 255.168 163.116 255.07 163.489 254.874C163.862 254.678 164.161 254.412 164.385 254.076V255H165.435V247.496H164.385V251.962C164.385 252.634 164.198 253.161 163.825 253.544C163.461 253.927 162.99 254.118 162.411 254.118C161.842 254.118 161.375 253.936 161.011 253.572C160.647 253.199 160.465 252.709 160.465 252.102V247.496H159.415V252.228C159.415 252.807 159.536 253.32 159.779 253.768C160.031 254.207 160.372 254.552 160.801 254.804C161.23 255.047 161.706 255.168 162.229 255.168ZM170.498 255.168C171.021 255.168 171.483 255.079 171.884 254.902C172.286 254.715 172.598 254.459 172.822 254.132C173.056 253.805 173.172 253.437 173.172 253.026C173.172 252.522 173 252.083 172.654 251.71C172.318 251.337 171.847 251.061 171.24 250.884L169.994 250.52C169.864 250.483 169.71 250.427 169.532 250.352C169.364 250.277 169.215 250.165 169.084 250.016C168.954 249.867 168.888 249.666 168.888 249.414C168.888 249.087 169.014 248.817 169.266 248.602C169.518 248.387 169.854 248.28 170.274 248.28C170.704 248.28 171.091 248.401 171.436 248.644C171.791 248.877 172.062 249.204 172.248 249.624L173.144 249.204C172.93 248.616 172.561 248.159 172.038 247.832C171.525 247.496 170.951 247.328 170.316 247.328C169.85 247.328 169.425 247.417 169.042 247.594C168.66 247.771 168.356 248.023 168.132 248.35C167.908 248.677 167.796 249.059 167.796 249.498C167.796 249.965 167.95 250.375 168.258 250.73C168.566 251.085 169.066 251.36 169.756 251.556L170.834 251.864C170.984 251.901 171.156 251.962 171.352 252.046C171.548 252.13 171.721 252.251 171.87 252.41C172.02 252.559 172.094 252.765 172.094 253.026C172.094 253.381 171.94 253.67 171.632 253.894C171.324 254.109 170.946 254.216 170.498 254.216C170.032 254.216 169.602 254.081 169.21 253.81C168.828 253.539 168.529 253.175 168.314 252.718L167.432 253.138C167.675 253.763 168.067 254.258 168.608 254.622C169.15 254.986 169.78 255.168 170.498 255.168ZM175.317 246.11H176.367V244.57H175.317V246.11ZM175.317 255H176.367V247.496H175.317V255ZM178.817 255H179.867V250.534C179.867 249.862 180.053 249.335 180.427 248.952C180.8 248.569 181.271 248.378 181.841 248.378C182.419 248.378 182.886 248.569 183.241 248.952C183.605 249.325 183.787 249.853 183.787 250.534V255H184.837V250.128C184.837 249.596 184.711 249.12 184.459 248.7C184.216 248.271 183.88 247.935 183.451 247.692C183.031 247.449 182.555 247.328 182.023 247.328C181.556 247.328 181.136 247.426 180.763 247.622C180.389 247.818 180.091 248.084 179.867 248.42V247.496H178.817V255ZM190.558 255.168C191.071 255.168 191.538 255.084 191.958 254.916C192.387 254.739 192.756 254.51 193.064 254.23C193.372 253.941 193.601 253.628 193.75 253.292L192.854 252.816C192.621 253.208 192.317 253.535 191.944 253.796C191.571 254.057 191.109 254.188 190.558 254.188C190.11 254.188 189.69 254.081 189.298 253.866C188.906 253.651 188.584 253.353 188.332 252.97C188.089 252.578 187.959 252.111 187.94 251.57H193.848C193.867 251.449 193.881 251.332 193.89 251.22C193.899 251.099 193.904 250.991 193.904 250.898C193.904 250.45 193.825 250.016 193.666 249.596C193.507 249.167 193.279 248.784 192.98 248.448C192.681 248.103 192.317 247.832 191.888 247.636C191.468 247.431 190.987 247.328 190.446 247.328C189.765 247.328 189.149 247.496 188.598 247.832C188.057 248.168 187.627 248.63 187.31 249.218C186.993 249.797 186.834 250.464 186.834 251.22C186.834 251.976 186.997 252.653 187.324 253.25C187.651 253.847 188.094 254.319 188.654 254.664C189.223 255 189.858 255.168 190.558 255.168ZM190.446 248.308C190.866 248.308 191.249 248.406 191.594 248.602C191.949 248.798 192.229 249.069 192.434 249.414C192.649 249.75 192.761 250.142 192.77 250.59H187.968C188.024 250.123 188.169 249.722 188.402 249.386C188.645 249.041 188.943 248.775 189.298 248.588C189.653 248.401 190.035 248.308 190.446 248.308ZM198.659 255.168C199.182 255.168 199.644 255.079 200.045 254.902C200.447 254.715 200.759 254.459 200.983 254.132C201.217 253.805 201.333 253.437 201.333 253.026C201.333 252.522 201.161 252.083 200.815 251.71C200.479 251.337 200.008 251.061 199.401 250.884L198.155 250.52C198.025 250.483 197.871 250.427 197.693 250.352C197.525 250.277 197.376 250.165 197.245 250.016C197.115 249.867 197.049 249.666 197.049 249.414C197.049 249.087 197.175 248.817 197.427 248.602C197.679 248.387 198.015 248.28 198.435 248.28C198.865 248.28 199.252 248.401 199.597 248.644C199.952 248.877 200.223 249.204 200.409 249.624L201.305 249.204C201.091 248.616 200.722 248.159 200.199 247.832C199.686 247.496 199.112 247.328 198.477 247.328C198.011 247.328 197.586 247.417 197.203 247.594C196.821 247.771 196.517 248.023 196.293 248.35C196.069 248.677 195.957 249.059 195.957 249.498C195.957 249.965 196.111 250.375 196.419 250.73C196.727 251.085 197.227 251.36 197.917 251.556L198.995 251.864C199.145 251.901 199.317 251.962 199.513 252.046C199.709 252.13 199.882 252.251 200.031 252.41C200.181 252.559 200.255 252.765 200.255 253.026C200.255 253.381 200.101 253.67 199.793 253.894C199.485 254.109 199.107 254.216 198.659 254.216C198.193 254.216 197.763 254.081 197.371 253.81C196.989 253.539 196.69 253.175 196.475 252.718L195.593 253.138C195.836 253.763 196.228 254.258 196.769 254.622C197.311 254.986 197.941 255.168 198.659 255.168ZM206.082 255.168C206.605 255.168 207.067 255.079 207.468 254.902C207.87 254.715 208.182 254.459 208.406 254.132C208.64 253.805 208.756 253.437 208.756 253.026C208.756 252.522 208.584 252.083 208.238 251.71C207.902 251.337 207.431 251.061 206.824 250.884L205.578 250.52C205.448 250.483 205.294 250.427 205.116 250.352C204.948 250.277 204.799 250.165 204.668 250.016C204.538 249.867 204.472 249.666 204.472 249.414C204.472 249.087 204.598 248.817 204.85 248.602C205.102 248.387 205.438 248.28 205.858 248.28C206.288 248.28 206.675 248.401 207.02 248.644C207.375 248.877 207.646 249.204 207.832 249.624L208.728 249.204C208.514 248.616 208.145 248.159 207.622 247.832C207.109 247.496 206.535 247.328 205.9 247.328C205.434 247.328 205.009 247.417 204.626 247.594C204.244 247.771 203.94 248.023 203.716 248.35C203.492 248.677 203.38 249.059 203.38 249.498C203.38 249.965 203.534 250.375 203.842 250.73C204.15 251.085 204.65 251.36 205.34 251.556L206.418 251.864C206.568 251.901 206.74 251.962 206.936 252.046C207.132 252.13 207.305 252.251 207.454 252.41C207.604 252.559 207.678 252.765 207.678 253.026C207.678 253.381 207.524 253.67 207.216 253.894C206.908 254.109 206.53 254.216 206.082 254.216C205.616 254.216 205.186 254.081 204.794 253.81C204.412 253.539 204.113 253.175 203.898 252.718L203.016 253.138C203.259 253.763 203.651 254.258 204.192 254.622C204.734 254.986 205.364 255.168 206.082 255.168ZM215.75 255.168C216.329 255.168 216.852 255.051 217.318 254.818C217.785 254.585 218.14 254.286 218.382 253.922V255H219.432V249.848C219.432 249.353 219.311 248.919 219.068 248.546C218.835 248.163 218.504 247.865 218.074 247.65C217.654 247.435 217.169 247.328 216.618 247.328C216.198 247.328 215.792 247.407 215.4 247.566C215.008 247.715 214.658 247.921 214.35 248.182C214.052 248.443 213.832 248.733 213.692 249.05L214.644 249.568C214.812 249.204 215.069 248.91 215.414 248.686C215.76 248.453 216.161 248.336 216.618 248.336C217.141 248.336 217.566 248.476 217.892 248.756C218.219 249.036 218.382 249.4 218.382 249.848V250.24L215.666 250.688C214.836 250.828 214.229 251.113 213.846 251.542C213.464 251.971 213.272 252.475 213.272 253.054C213.272 253.465 213.38 253.829 213.594 254.146C213.809 254.463 214.103 254.715 214.476 254.902C214.85 255.079 215.274 255.168 215.75 255.168ZM214.392 253.012C214.392 252.667 214.509 252.368 214.742 252.116C214.985 251.864 215.377 251.691 215.918 251.598L218.382 251.192V251.752C218.382 252.209 218.275 252.625 218.06 252.998C217.846 253.371 217.547 253.67 217.164 253.894C216.782 254.109 216.334 254.216 215.82 254.216C215.4 254.216 215.055 254.099 214.784 253.866C214.523 253.633 214.392 253.348 214.392 253.012ZM225.322 255.168C225.789 255.168 226.227 255.084 226.638 254.916C227.049 254.748 227.413 254.519 227.73 254.23C228.047 253.941 228.285 253.614 228.444 253.25L227.492 252.732C227.296 253.152 227.007 253.488 226.624 253.74C226.251 253.992 225.817 254.118 225.322 254.118C224.827 254.118 224.379 253.992 223.978 253.74C223.586 253.488 223.273 253.147 223.04 252.718C222.816 252.279 222.704 251.789 222.704 251.248C222.704 250.697 222.816 250.207 223.04 249.778C223.273 249.339 223.586 248.999 223.978 248.756C224.379 248.504 224.827 248.378 225.322 248.378C225.817 248.378 226.255 248.504 226.638 248.756C227.021 249.008 227.305 249.335 227.492 249.736L228.444 249.246C228.285 248.873 228.047 248.546 227.73 248.266C227.413 247.977 227.049 247.748 226.638 247.58C226.227 247.412 225.789 247.328 225.322 247.328C224.585 247.328 223.936 247.501 223.376 247.846C222.816 248.182 222.377 248.644 222.06 249.232C221.743 249.82 221.584 250.487 221.584 251.234C221.584 251.981 221.743 252.653 222.06 253.25C222.377 253.838 222.816 254.305 223.376 254.65C223.936 254.995 224.585 255.168 225.322 255.168ZM233.457 255.084C233.541 255.084 233.653 255.079 233.793 255.07C233.933 255.061 234.059 255.042 234.171 255.014V254.062C234.096 254.071 234.007 254.081 233.905 254.09C233.802 254.099 233.713 254.104 233.639 254.104C233.172 254.104 232.85 253.983 232.673 253.74C232.495 253.497 232.407 253.189 232.407 252.816V248.546H234.059V247.496H232.407V245.76H231.357V246.39C231.357 246.707 231.263 246.973 231.077 247.188C230.89 247.393 230.638 247.496 230.321 247.496H229.971V248.546H231.357V252.816C231.357 253.544 231.539 254.104 231.903 254.496C232.267 254.888 232.785 255.084 233.457 255.084ZM236.314 246.11H237.364V244.57H236.314V246.11ZM236.314 255H237.364V247.496H236.314V255ZM241.816 255H242.866L245.82 247.496H244.63L242.348 253.572L240.066 247.496H238.89L241.816 255ZM247.346 246.11H248.396V244.57H247.346V246.11ZM247.346 255H248.396V247.496H247.346V255ZM253.715 255.084C253.799 255.084 253.911 255.079 254.051 255.07C254.191 255.061 254.317 255.042 254.429 255.014V254.062C254.355 254.071 254.266 254.081 254.163 254.09C254.061 254.099 253.972 254.104 253.897 254.104C253.431 254.104 253.109 253.983 252.931 253.74C252.754 253.497 252.665 253.189 252.665 252.816V248.546H254.317V247.496H252.665V245.76H251.615V246.39C251.615 246.707 251.522 246.973 251.335 247.188C251.149 247.393 250.897 247.496 250.579 247.496H250.229V248.546H251.615V252.816C251.615 253.544 251.797 254.104 252.161 254.496C252.525 254.888 253.043 255.084 253.715 255.084ZM256.573 246.11H257.623V244.57H256.573V246.11ZM256.573 255H257.623V247.496H256.573V255ZM263.488 255.168C264.001 255.168 264.468 255.084 264.888 254.916C265.317 254.739 265.686 254.51 265.994 254.23C266.302 253.941 266.531 253.628 266.68 253.292L265.784 252.816C265.551 253.208 265.247 253.535 264.874 253.796C264.501 254.057 264.039 254.188 263.488 254.188C263.04 254.188 262.62 254.081 262.228 253.866C261.836 253.651 261.514 253.353 261.262 252.97C261.019 252.578 260.889 252.111 260.87 251.57H266.778C266.797 251.449 266.811 251.332 266.82 251.22C266.829 251.099 266.834 250.991 266.834 250.898C266.834 250.45 266.755 250.016 266.596 249.596C266.437 249.167 266.209 248.784 265.91 248.448C265.611 248.103 265.247 247.832 264.818 247.636C264.398 247.431 263.917 247.328 263.376 247.328C262.695 247.328 262.079 247.496 261.528 247.832C260.987 248.168 260.557 248.63 260.24 249.218C259.923 249.797 259.764 250.464 259.764 251.22C259.764 251.976 259.927 252.653 260.254 253.25C260.581 253.847 261.024 254.319 261.584 254.664C262.153 255 262.788 255.168 263.488 255.168ZM263.376 248.308C263.796 248.308 264.179 248.406 264.524 248.602C264.879 248.798 265.159 249.069 265.364 249.414C265.579 249.75 265.691 250.142 265.7 250.59H260.898C260.954 250.123 261.099 249.722 261.332 249.386C261.575 249.041 261.873 248.775 262.228 248.588C262.583 248.401 262.965 248.308 263.376 248.308ZM271.589 255.168C272.112 255.168 272.574 255.079 272.975 254.902C273.377 254.715 273.689 254.459 273.913 254.132C274.147 253.805 274.263 253.437 274.263 253.026C274.263 252.522 274.091 252.083 273.745 251.71C273.409 251.337 272.938 251.061 272.331 250.884L271.085 250.52C270.955 250.483 270.801 250.427 270.623 250.352C270.455 250.277 270.306 250.165 270.175 250.016C270.045 249.867 269.979 249.666 269.979 249.414C269.979 249.087 270.105 248.817 270.357 248.602C270.609 248.387 270.945 248.28 271.365 248.28C271.795 248.28 272.182 248.401 272.527 248.644C272.882 248.877 273.153 249.204 273.339 249.624L274.235 249.204C274.021 248.616 273.652 248.159 273.129 247.832C272.616 247.496 272.042 247.328 271.407 247.328C270.941 247.328 270.516 247.417 270.133 247.594C269.751 247.771 269.447 248.023 269.223 248.35C268.999 248.677 268.887 249.059 268.887 249.498C268.887 249.965 269.041 250.375 269.349 250.73C269.657 251.085 270.157 251.36 270.847 251.556L271.925 251.864C272.075 251.901 272.247 251.962 272.443 252.046C272.639 252.13 272.812 252.251 272.961 252.41C273.111 252.559 273.185 252.765 273.185 253.026C273.185 253.381 273.031 253.67 272.723 253.894C272.415 254.109 272.037 254.216 271.589 254.216C271.123 254.216 270.693 254.081 270.301 253.81C269.919 253.539 269.62 253.175 269.405 252.718L268.523 253.138C268.766 253.763 269.158 254.258 269.699 254.622C270.241 254.986 270.871 255.168 271.589 255.168ZM276.772 255H277.892V253.46H276.772V255Z" fill="#8B8C8C"/>
</g>
</g>
<defs>
<filter id="filter0_d" x="0" y="0" width="403" height="401" filterUnits="userSpaceOnUse" color-interpolation-filters="sRGB">
<feFlood flood-opacity="0" result="BackgroundImageFix"/>
<feColorMatrix in="SourceAlpha" type="matrix" values="0 0 0 0 0 0 0 0 0 0 0 0 0 0 0 0 0 0 127 0" result="hardAlpha"/>
<feMorphology radius="16" operator="dilate" in="SourceAlpha" result="effect1_dropShadow"/>
<feOffset dy="18"/>
<feGaussianBlur stdDeviation="29"/>
<feColorMatrix type="matrix" values="0 0 0 0 0 0 0 0 0 0 0 0 0 0 0 0 0 0 0.06 0"/>
<feBlend mode="normal" in2="BackgroundImageFix" result="effect1_dropShadow"/>
<feBlend mode="normal" in="SourceGraphic" in2="effect1_dropShadow" result="shape"/>
</filter>
<clipPath id="clip0">
<rect x="74" y="56" width="255" height="253" rx="8" fill="white"/>
</clipPath>
</defs>
</svg>
